<svg xmlns="http://www.w3.org/2000/svg" xmlns:xlink="http://www.w3.org/1999/xlink" viewBox="0 0 360 360"><defs><style>.cls-1{isolation:isolate;}.cls-2{fill:#eef0f8;opacity:0.92;}.cls-3{fill:url(#_ÂÁ_Ï_ÌÌ_È_ËÂÌÚ_41);}.cls-4{fill:url(#_ÂÁ_Ï_ÌÌ_È_ËÂÌÚ_41-2);}.cls-5{fill:url(#_ÂÁ_Ï_ÌÌ_È_ËÂÌÚ_41-3);}.cls-6{fill:url(#_ÂÁ_Ï_ÌÌ_È_ËÂÌÚ_41-4);}.cls-7{fill:url(#_ÂÁ_Ï_ÌÌ_È_ËÂÌÚ_41-5);}.cls-8{fill:url(#_ÂÁ_Ï_ÌÌ_È_ËÂÌÚ_41-6);}.cls-9{fill:url(#_ÂÁ_Ï_ÌÌ_È_ËÂÌÚ_41-7);}.cls-10{fill:url(#_ÂÁ_Ï_ÌÌ_È_ËÂÌÚ_41-8);}.cls-11{fill:url(#_ÂÁ_Ï_ÌÌ_È_ËÂÌÚ_41-9);}.cls-12{fill:url(#_ÂÁ_Ï_ÌÌ_È_ËÂÌÚ_41-10);}.cls-13{fill:url(#_ÂÁ_Ï_ÌÌ_È_ËÂÌÚ_41-11);}.cls-14{fill:url(#_ÂÁ_Ï_ÌÌ_È_ËÂÌÚ_41-12);}.cls-15{fill:url(#_ÂÁ_Ï_ÌÌ_È_ËÂÌÚ_41-13);}.cls-16{fill:url(#_ÂÁ_Ï_ÌÌ_È_ËÂÌÚ_41-14);}.cls-17{fill:url(#_ÂÁ_Ï_ÌÌ_È_ËÂÌÚ_41-15);}.cls-18{fill:url(#_ÂÁ_Ï_ÌÌ_È_ËÂÌÚ_41-16);}.cls-19{fill:url(#_ÂÁ_Ï_ÌÌ_È_ËÂÌÚ_41-17);}.cls-20{fill:url(#_ÂÁ_Ï_ÌÌ_È_ËÂÌÚ_41-18);}.cls-21{fill:url(#_ÂÁ_Ï_ÌÌ_È_ËÂÌÚ_41-19);}.cls-22{fill:url(#_ÂÁ_Ï_ÌÌ_È_ËÂÌÚ_41-20);}.cls-23{fill:url(#_ÂÁ_Ï_ÌÌ_È_ËÂÌÚ_41-21);}.cls-24{fill:url(#_ÂÁ_Ï_ÌÌ_È_ËÂÌÚ_41-22);}.cls-25{fill:url(#_ÂÁ_Ï_ÌÌ_È_ËÂÌÚ_41-23);}.cls-26{fill:url(#_ÂÁ_Ï_ÌÌ_È_ËÂÌÚ_41-24);}.cls-27{fill:url(#_ÂÁ_Ï_ÌÌ_È_ËÂÌÚ_41-25);}.cls-28{fill:url(#_ÂÁ_Ï_ÌÌ_È_ËÂÌÚ_41-26);}.cls-29{fill:url(#_ÂÁ_Ï_ÌÌ_È_ËÂÌÚ_41-27);}.cls-30{fill:url(#_ÂÁ_Ï_ÌÌ_È_ËÂÌÚ_41-28);}.cls-31{fill:url(#_ÂÁ_Ï_ÌÌ_È_ËÂÌÚ_41-29);}.cls-32{fill:url(#_ÂÁ_Ï_ÌÌ_È_ËÂÌÚ_41-30);}.cls-33{fill:url(#_ÂÁ_Ï_ÌÌ_È_ËÂÌÚ_41-31);}.cls-34{fill:url(#_ÂÁ_Ï_ÌÌ_È_ËÂÌÚ_41-32);}.cls-35{fill:url(#_ÂÁ_Ï_ÌÌ_È_ËÂÌÚ_41-33);}.cls-36{fill:#d7d6df;}.cls-37{fill:#0d1e80;}.cls-38{fill:#346eff;}.cls-39{fill:#fff;}.cls-40{fill:#296832;}.cls-41{fill:#4cd964;}.cls-42{fill:#ccc;}.cls-43{opacity:0.61;mix-blend-mode:multiply;}.cls-44{fill:#fefefe;}.cls-45{fill:#fdfdfd;}.cls-46{fill:#fcfcfc;}.cls-47{fill:#fbfbfb;}.cls-48{fill:#fafafb;}.cls-49{fill:#f9f9fa;}.cls-50{fill:#f8f8f9;}.cls-51{fill:#f7f7f8;}.cls-52{fill:#f6f6f7;}.cls-53{fill:#f5f5f6;}.cls-54{fill:#f4f4f5;}.cls-55{fill:#f3f3f4;}.cls-56{fill:#f2f2f3;}.cls-57{fill:#f1f2f3;}.cls-58{fill:#f0f1f2;}.cls-59{fill:#eff0f1;}.cls-60{fill:#eeeff0;}.cls-61{fill:#edeeef;}.cls-62{fill:#ecedee;}.cls-63{fill:#ebeced;}.cls-64{fill:#eaebec;}.cls-65{fill:#e9eaeb;}.cls-66{fill:#e8e9eb;}.cls-67{fill:#e7e8ea;}.cls-68{fill:#e6e7e9;}.cls-69{fill:#e5e6e8;}.cls-70{fill:#e5e5e7;}.cls-71{fill:#e4e4e6;}.cls-72{fill:#e3e3e5;}.cls-73{fill:#e2e2e4;}.cls-74{fill:#e1e1e4;}.cls-75{fill:#e0e0e3;}.cls-76{fill:#dfdfe2;}.cls-77{fill:#dedee1;}.cls-78{fill:#dddde0;}.cls-79{fill:#dcdcdf;}.cls-80{fill:#dbdbde;}.cls-81{fill:#dadadd;}.cls-82{fill:#d9d9dc;}.cls-83{fill:#d8d9dc;}.cls-84{fill:#d7d8db;}.cls-85{fill:#d6d7da;}.cls-86{fill:#d5d6d9;}.cls-87{fill:#d4d5d8;}.cls-88{fill:#d3d4d7;}.cls-89{fill:#d2d3d6;}.cls-90{fill:#d1d2d5;}.cls-91{fill:#d0d1d4;}.cls-92{fill:#cfd0d4;}.cls-93{fill:#cecfd3;}.cls-94{fill:#cdced2;}.cls-95{fill:#cccdd1;}.cls-96{fill:#cbccd0;}.cls-97{fill:#1e3595;}.cls-98{fill:#ffd5d5;}.cls-99{fill:#ff3e7d;}.cls-100{fill:#f7f7f7;}.cls-101{fill:#9eaad4;}.cls-102{fill:#305fc2;}.cls-103{fill:#c3bab8;}.cls-104{fill:#beb5b3;}.cls-105{fill:#b9b0af;}.cls-106{fill:#b5acaa;}.cls-107{fill:#b0a7a6;}.cls-108{fill:#aba2a1;}.cls-109{fill:#a69e9c;}.cls-110{fill:#a19998;}.cls-111{fill:#9c9493;}.cls-112{fill:#97908f;}.cls-113{fill:#928b8a;}.cls-114{fill:#8e8785;}.cls-115{fill:#898281;}.cls-116{fill:#847d7c;}.cls-117{fill:#7f7978;}.cls-118{fill:#827c7b;}.cls-119{fill:#d2c8c6;}.cls-120{fill:#1e5d9d;}.cls-121{fill:#072742;}.cls-122{fill:#072641;}.cls-123{fill:#07253f;}.cls-124{fill:#07243d;}.cls-125{fill:#06233c;}.cls-126{fill:#06223a;}.cls-127{fill:#062138;}.cls-128{fill:#062037;}.cls-129{fill:#061f35;}.cls-130{fill:#061e33;}.cls-131{fill:#05192b;}.cls-132{fill:#051a2d;}.cls-133{fill:#051b2e;}.cls-134{fill:#051c30;}.cls-135{fill:#051d32;}.cls-136{fill:#12385f;}.cls-137{fill:#133a62;}.cls-138{fill:#143c66;}.cls-139{fill:#143f6a;}.cls-140{fill:#15416d;}.cls-141{fill:#164371;}.cls-142{fill:#164574;}.cls-143{fill:#174778;}.cls-144{fill:#18497c;}.cls-145{fill:#194c7f;}.cls-146{fill:#194e83;}.cls-147{fill:#1a5087;}.cls-148{fill:#1b528a;}.cls-149{fill:#1b548e;}.cls-150{fill:#1c5692;}.cls-151{fill:#f79d56;}</style><linearGradient id="_ÂÁ_Ï_ÌÌ_È_ËÂÌÚ_41" x1="121.25" y1="233.16" x2="637.94" y2="233.16" gradientUnits="userSpaceOnUse"><stop offset="0" stop-color="#fff"/><stop offset="1" stop-color="#d7d6df"/><stop offset="1" stop-color="#eeeef3"/></linearGradient><linearGradient id="_ÂÁ_Ï_ÌÌ_È_ËÂÌÚ_41-2" x1="121.25" y1="248.8" x2="637.94" y2="248.8" xlink:href="#_ÂÁ_Ï_ÌÌ_È_ËÂÌÚ_41"/><linearGradient id="_ÂÁ_Ï_ÌÌ_È_ËÂÌÚ_41-3" x1="121.25" y1="201.88" x2="637.94" y2="201.88" xlink:href="#_ÂÁ_Ï_ÌÌ_È_ËÂÌÚ_41"/><linearGradient id="_ÂÁ_Ï_ÌÌ_È_ËÂÌÚ_41-4" x1="121.25" y1="217.52" x2="637.94" y2="217.52" xlink:href="#_ÂÁ_Ï_ÌÌ_È_ËÂÌÚ_41"/><linearGradient id="_ÂÁ_Ï_ÌÌ_È_ËÂÌÚ_41-5" x1="121.25" y1="233.16" x2="637.94" y2="233.16" xlink:href="#_ÂÁ_Ï_ÌÌ_È_ËÂÌÚ_41"/><linearGradient id="_ÂÁ_Ï_ÌÌ_È_ËÂÌÚ_41-6" x1="121.25" y1="248.8" x2="637.94" y2="248.8" xlink:href="#_ÂÁ_Ï_ÌÌ_È_ËÂÌÚ_41"/><linearGradient id="_ÂÁ_Ï_ÌÌ_È_ËÂÌÚ_41-7" x1="121.25" y1="264.44" x2="637.94" y2="264.44" xlink:href="#_ÂÁ_Ï_ÌÌ_È_ËÂÌÚ_41"/><linearGradient id="_ÂÁ_Ï_ÌÌ_È_ËÂÌÚ_41-8" x1="121.25" y1="280.08" x2="637.94" y2="280.08" xlink:href="#_ÂÁ_Ï_ÌÌ_È_ËÂÌÚ_41"/><linearGradient id="_ÂÁ_Ï_ÌÌ_È_ËÂÌÚ_41-9" x1="121.25" y1="295.72" x2="637.94" y2="295.72" xlink:href="#_ÂÁ_Ï_ÌÌ_È_ËÂÌÚ_41"/><linearGradient id="_ÂÁ_Ï_ÌÌ_È_ËÂÌÚ_41-10" x1="121.25" y1="201.88" x2="637.94" y2="201.88" xlink:href="#_ÂÁ_Ï_ÌÌ_È_ËÂÌÚ_41"/><linearGradient id="_ÂÁ_Ï_ÌÌ_È_ËÂÌÚ_41-11" x1="121.25" y1="217.52" x2="637.94" y2="217.52" xlink:href="#_ÂÁ_Ï_ÌÌ_È_ËÂÌÚ_41"/><linearGradient id="_ÂÁ_Ï_ÌÌ_È_ËÂÌÚ_41-12" x1="121.25" y1="264.44" x2="637.94" y2="264.44" xlink:href="#_ÂÁ_Ï_ÌÌ_È_ËÂÌÚ_41"/><linearGradient id="_ÂÁ_Ï_ÌÌ_È_ËÂÌÚ_41-13" x1="121.25" y1="280.08" x2="637.94" y2="280.08" xlink:href="#_ÂÁ_Ï_ÌÌ_È_ËÂÌÚ_41"/><linearGradient id="_ÂÁ_Ï_ÌÌ_È_ËÂÌÚ_41-14" x1="121.25" y1="170.59" x2="637.94" y2="170.59" xlink:href="#_ÂÁ_Ï_ÌÌ_È_ËÂÌÚ_41"/><linearGradient id="_ÂÁ_Ï_ÌÌ_È_ËÂÌÚ_41-15" x1="121.25" y1="186.23" x2="637.94" y2="186.23" xlink:href="#_ÂÁ_Ï_ÌÌ_È_ËÂÌÚ_41"/><linearGradient id="_ÂÁ_Ï_ÌÌ_È_ËÂÌÚ_41-16" x1="121.25" y1="201.88" x2="637.94" y2="201.88" xlink:href="#_ÂÁ_Ï_ÌÌ_È_ËÂÌÚ_41"/><linearGradient id="_ÂÁ_Ï_ÌÌ_È_ËÂÌÚ_41-17" x1="121.25" y1="217.52" x2="637.94" y2="217.52" xlink:href="#_ÂÁ_Ï_ÌÌ_È_ËÂÌÚ_41"/><linearGradient id="_ÂÁ_Ï_ÌÌ_È_ËÂÌÚ_41-18" x1="121.25" y1="233.16" x2="637.94" y2="233.16" xlink:href="#_ÂÁ_Ï_ÌÌ_È_ËÂÌÚ_41"/><linearGradient id="_ÂÁ_Ï_ÌÌ_È_ËÂÌÚ_41-19" x1="121.25" y1="248.8" x2="637.94" y2="248.8" xlink:href="#_ÂÁ_Ï_ÌÌ_È_ËÂÌÚ_41"/><linearGradient id="_ÂÁ_Ï_ÌÌ_È_ËÂÌÚ_41-20" x1="121.25" y1="264.44" x2="637.94" y2="264.44" xlink:href="#_ÂÁ_Ï_ÌÌ_È_ËÂÌÚ_41"/><linearGradient id="_ÂÁ_Ï_ÌÌ_È_ËÂÌÚ_41-21" x1="121.25" y1="154.95" x2="637.94" y2="154.95" xlink:href="#_ÂÁ_Ï_ÌÌ_È_ËÂÌÚ_41"/><linearGradient id="_ÂÁ_Ï_ÌÌ_È_ËÂÌÚ_41-22" x1="121.25" y1="170.59" x2="637.94" y2="170.59" xlink:href="#_ÂÁ_Ï_ÌÌ_È_ËÂÌÚ_41"/><linearGradient id="_ÂÁ_Ï_ÌÌ_È_ËÂÌÚ_41-23" x1="121.25" y1="186.23" x2="637.94" y2="186.23" xlink:href="#_ÂÁ_Ï_ÌÌ_È_ËÂÌÚ_41"/><linearGradient id="_ÂÁ_Ï_ÌÌ_È_ËÂÌÚ_41-24" x1="121.25" y1="201.88" x2="637.94" y2="201.88" xlink:href="#_ÂÁ_Ï_ÌÌ_È_ËÂÌÚ_41"/><linearGradient id="_ÂÁ_Ï_ÌÌ_È_ËÂÌÚ_41-25" x1="121.25" y1="217.52" x2="637.94" y2="217.52" xlink:href="#_ÂÁ_Ï_ÌÌ_È_ËÂÌÚ_41"/><linearGradient id="_ÂÁ_Ï_ÌÌ_È_ËÂÌÚ_41-26" x1="121.25" y1="233.15" x2="637.94" y2="233.15" xlink:href="#_ÂÁ_Ï_ÌÌ_È_ËÂÌÚ_41"/><linearGradient id="_ÂÁ_Ï_ÌÌ_È_ËÂÌÚ_41-27" x1="121.25" y1="248.8" x2="637.94" y2="248.8" xlink:href="#_ÂÁ_Ï_ÌÌ_È_ËÂÌÚ_41"/><linearGradient id="_ÂÁ_Ï_ÌÌ_È_ËÂÌÚ_41-28" x1="121.25" y1="139.31" x2="637.94" y2="139.31" xlink:href="#_ÂÁ_Ï_ÌÌ_È_ËÂÌÚ_41"/><linearGradient id="_ÂÁ_Ï_ÌÌ_È_ËÂÌÚ_41-29" x1="121.25" y1="154.95" x2="637.94" y2="154.95" xlink:href="#_ÂÁ_Ï_ÌÌ_È_ËÂÌÚ_41"/><linearGradient id="_ÂÁ_Ï_ÌÌ_È_ËÂÌÚ_41-30" x1="121.25" y1="170.59" x2="637.94" y2="170.59" xlink:href="#_ÂÁ_Ï_ÌÌ_È_ËÂÌÚ_41"/><linearGradient id="_ÂÁ_Ï_ÌÌ_È_ËÂÌÚ_41-31" x1="121.25" y1="186.23" x2="637.94" y2="186.23" xlink:href="#_ÂÁ_Ï_ÌÌ_È_ËÂÌÚ_41"/><linearGradient id="_ÂÁ_Ï_ÌÌ_È_ËÂÌÚ_41-32" x1="121.25" y1="201.87" x2="637.94" y2="201.87" xlink:href="#_ÂÁ_Ï_ÌÌ_È_ËÂÌÚ_41"/><linearGradient id="_ÂÁ_Ï_ÌÌ_È_ËÂÌÚ_41-33" x1="121.25" y1="217.52" x2="637.94" y2="217.52" xlink:href="#_ÂÁ_Ï_ÌÌ_È_ËÂÌÚ_41"/></defs><title>contact</title><g class="cls-1"><g id="Camada_1" data-name="Camada 1"><path class="cls-2" d="M336,219.07c0,40.91-34.46,70.86-83.31,89C230.68,316.26,166.77,319,140,319c-53.57,0-28.39-42.29-56.47-70.64C66.46,231.12,24,241.51,24,219.07c0-59.35,69.5-100.26,155.66-100.26,34.29,0,56.09,33.52,81.84,46.44C300.44,184.78,336,183.34,336,219.07Z"/><polygon class="cls-3" points="187.49 233.16 163.08 219.06 138.66 233.16 163.07 247.25 187.49 233.16"/><polygon class="cls-4" points="214.58 248.8 190.17 234.7 165.75 248.8 190.16 262.89 214.58 248.8"/><polygon class="cls-5" points="79.13 201.88 54.72 187.78 30.3 201.88 54.71 215.97 79.13 201.88"/><polygon class="cls-6" points="106.22 217.52 81.81 203.42 57.39 217.52 81.8 231.61 106.22 217.52"/><polygon class="cls-7" points="133.31 233.16 108.9 219.06 84.48 233.16 108.89 247.25 133.31 233.16"/><polygon class="cls-8" points="160.4 248.8 135.99 234.7 111.57 248.8 135.98 262.89 160.4 248.8"/><polygon class="cls-9" points="187.49 264.44 163.07 250.34 138.66 264.44 163.07 278.53 187.49 264.44"/><polygon class="cls-10" points="214.58 280.08 190.16 265.98 165.75 280.08 190.16 294.17 214.58 280.08"/><polygon class="cls-11" points="241.66 295.72 217.25 281.63 192.84 295.72 217.25 309.81 241.66 295.72"/><polygon class="cls-12" points="133.31 201.88 108.9 187.78 84.48 201.88 108.9 215.97 133.31 201.88"/><polygon class="cls-13" points="160.4 217.52 135.99 203.42 111.58 217.52 135.99 231.61 160.4 217.52"/><polygon class="cls-14" points="241.67 264.44 217.26 250.34 192.84 264.44 217.25 278.53 241.67 264.44"/><polygon class="cls-15" points="268.76 280.08 244.35 265.98 219.93 280.08 244.34 294.17 268.76 280.08"/><polygon class="cls-16" points="133.31 170.59 108.9 156.5 84.49 170.59 108.9 184.69 133.31 170.59"/><polygon class="cls-17" points="160.4 186.24 135.99 172.14 111.58 186.24 135.99 200.33 160.4 186.24"/><polygon class="cls-18" points="187.49 201.88 163.08 187.78 138.67 201.88 163.08 215.97 187.49 201.88"/><polygon class="cls-19" points="214.58 217.52 190.17 203.42 165.76 217.52 190.17 231.61 214.58 217.52"/><polygon class="cls-20" points="241.67 233.16 217.26 219.06 192.85 233.16 217.26 247.25 241.67 233.16"/><polygon class="cls-21" points="268.76 248.8 244.35 234.7 219.94 248.8 244.35 262.89 268.76 248.8"/><polygon class="cls-22" points="295.85 264.44 271.44 250.34 247.03 264.44 271.44 278.53 295.85 264.44"/><polygon class="cls-23" points="160.41 154.95 135.99 140.86 111.58 154.95 135.99 169.05 160.41 154.95"/><polygon class="cls-24" points="187.49 170.59 163.08 156.5 138.67 170.59 163.08 184.69 187.49 170.59"/><polygon class="cls-25" points="214.58 186.23 190.17 172.14 165.76 186.24 190.17 200.33 214.58 186.23"/><polygon class="cls-26" points="241.67 201.88 217.26 187.78 192.85 201.88 217.26 215.97 241.67 201.88"/><polygon class="cls-27" points="268.76 217.51 244.35 203.42 219.94 217.52 244.35 231.61 268.76 217.51"/><polygon class="cls-28" points="295.85 233.15 271.44 219.06 247.03 233.15 271.44 247.25 295.85 233.15"/><polygon class="cls-29" points="322.94 248.8 298.53 234.7 274.12 248.8 298.53 262.89 322.94 248.8"/><polygon class="cls-30" points="187.5 139.31 163.09 125.22 138.67 139.31 163.08 153.41 187.5 139.31"/><polygon class="cls-31" points="214.59 154.95 190.18 140.86 165.76 154.95 190.17 169.05 214.59 154.95"/><polygon class="cls-32" points="241.68 170.59 217.26 156.5 192.85 170.59 217.26 184.69 241.68 170.59"/><polygon class="cls-33" points="268.77 186.23 244.35 172.14 219.94 186.23 244.35 200.33 268.77 186.23"/><polygon class="cls-34" points="295.86 201.88 271.44 187.78 247.03 201.88 271.44 215.97 295.86 201.88"/><polygon class="cls-35" points="322.94 217.51 298.53 203.42 274.12 217.51 298.53 231.61 322.94 217.51"/><path class="cls-36" d="M164.58,137.42l-1.42-.16.16-.39,2,.2.46.26-4.76,3-.57-.33Z"/><path class="cls-36" d="M187.3,155l3.31.12a4.54,4.54,0,0,0,2.5-.38c.58-.37.41-.88-.12-1.18a3.38,3.38,0,0,0-2.08-.31l-.09-.42a4.25,4.25,0,0,1,2.68.43c.86.5,1,1.27.19,1.81a5.2,5.2,0,0,1-3,.49l-2.39-.07,2.53,1.46-.51.33-3.44-2Z"/><path class="cls-36" d="M214.44,170.19h.75a1.21,1.21,0,0,0,.74,1.26,2.08,2.08,0,0,0,2.08.09c.56-.35.34-.82-.44-1.27L217,170l.5-.32.53.32a2,2,0,0,0,2,.14c.5-.31.38-.82-.24-1.18a3.32,3.32,0,0,0-2-.32l-.06-.43a4.28,4.28,0,0,1,2.55.46c1,.55,1.12,1.28.36,1.77a2.56,2.56,0,0,1-2.08.14c.4.37.61.92-.08,1.35a3.13,3.13,0,0,1-3.11-.13C214.62,171.28,214.35,170.69,214.44,170.19Z"/><path class="cls-36" d="M243,186.25l-2.5-1.44.38-.33,5.63-.56.66.37-3.12,2,.75.44-.49.31-.75-.44-1.16.74-.56-.33Zm.49-.31,2.46-1.56-4.38.45Z"/><path class="cls-36" d="M187.11,280.54h.75a1.2,1.2,0,0,0,.74,1.25,2.09,2.09,0,0,0,2.07.1c.57-.36.35-.83-.44-1.28l-.53-.31.5-.31.53.31a2,2,0,0,0,2,.15c.5-.32.38-.83-.24-1.19a3.41,3.41,0,0,0-2-.32l-.05-.43A4.28,4.28,0,0,1,193,279c.95.55,1.12,1.29.36,1.77a2.6,2.6,0,0,1-2.08.15c.39.36.61.91-.08,1.35a3.16,3.16,0,0,1-3.11-.14C187.29,281.64,187,281,187.11,280.54Z"/><path class="cls-36" d="M215.63,296.6l-2.49-1.44.38-.33,5.63-.56.66.38-3.12,2,.75.43-.49.31-.75-.43-1.16.73-.56-.33Zm.5-.31,2.46-1.56-4.38.45Z"/><path class="cls-36" d="M268.69,201.59l.76,0a1.32,1.32,0,0,0,.75,1.23,2.29,2.29,0,0,0,2.24,0c.61-.38.53-.93-.17-1.34a3.61,3.61,0,0,0-1.48-.4l-.22-.37,2.52-1.5,3,1.7-.51.32-2.4-1.38-1.65,1a3.38,3.38,0,0,1,1.38.42c.91.52,1.11,1.29.17,1.89a3.35,3.35,0,0,1-3.34,0A1.62,1.62,0,0,1,268.69,201.59Z"/><path class="cls-36" d="M165.63,171.8a4.85,4.85,0,0,1-4.56.44,1.44,1.44,0,0,1-.85-1.18L161,171a1.08,1.08,0,0,0,.62,1,3.78,3.78,0,0,0,3.47-.47l.07,0a3.33,3.33,0,0,1-2.14-.35c-.91-.53-1.13-1.31-.19-1.91a3.43,3.43,0,0,1,3.33,0C167.47,170,167,171,165.63,171.8Zm0-.8c.58-.54.69-1.11,0-1.51a2.41,2.41,0,0,0-2.28,0c-.65.41-.51,1,.15,1.35A2.54,2.54,0,0,0,165.67,171Z"/><path class="cls-36" d="M189.41,183.54l-1.41-.17.15-.39,2,.2.45.27-4.76,3-.57-.33Z"/><path class="cls-36" d="M189.37,185.6a4.59,4.59,0,0,1,4.54-.36c1.22.7,1.06,1.84-.39,2.75a4.62,4.62,0,0,1-4.54.37C187.76,187.65,187.93,186.51,189.37,185.6Zm3.58,2.06c1.15-.73,1.34-1.6.47-2.1a3.57,3.57,0,0,0-3.47.37c-1.15.73-1.35,1.61-.47,2.11A3.58,3.58,0,0,0,193,187.66Z"/><path class="cls-36" d="M217.21,199.69l-1.41-.16.15-.4,2,.2.46.27-4.77,3-.56-.32Z"/><path class="cls-36" d="M219.78,201.17l-1.42-.16.16-.4,2,.21.46.26-4.76,3-.57-.32Z"/><path class="cls-36" d="M242.74,214.41l-1.41-.16.16-.4,2,.21.46.26-4.76,3-.57-.33Z"/><path class="cls-36" d="M240.7,217.66l3.31.11a4.52,4.52,0,0,0,2.5-.38c.58-.37.41-.87-.12-1.18a3.29,3.29,0,0,0-2.07-.3l-.09-.43a4.16,4.16,0,0,1,2.67.44c.87.49,1,1.26.19,1.8a5.17,5.17,0,0,1-3,.49l-2.39-.07,2.54,1.47-.51.32-3.45-2Z"/><path class="cls-36" d="M271.76,231.08l-1.42-.16.16-.4,2,.21.46.26-4.76,3-.57-.32Z"/><path class="cls-36" d="M269.93,234.11h.75a1.2,1.2,0,0,0,.74,1.25,2.1,2.1,0,0,0,2.08.1c.56-.36.34-.83-.44-1.28l-.53-.31.49-.31.54.31a2,2,0,0,0,2,.15c.5-.32.38-.82-.24-1.19a3.48,3.48,0,0,0-2-.32l-.06-.43a4.28,4.28,0,0,1,2.55.46c1,.55,1.12,1.29.36,1.77a2.6,2.6,0,0,1-2.08.15c.4.36.61.91-.08,1.35a3.16,3.16,0,0,1-3.11-.14C270.11,235.2,269.84,234.6,269.93,234.11Z"/><path class="cls-36" d="M108.91,168.65l-1.41-.16.15-.4,2,.2.46.27-4.77,3-.56-.33Z"/><path class="cls-36" d="M107.14,171.78l.77,0a1.32,1.32,0,0,0,.74,1.24,2.29,2.29,0,0,0,2.24,0c.61-.39.53-.94-.16-1.34a3.47,3.47,0,0,0-1.48-.41l-.22-.36,2.52-1.51,3,1.7-.52.33L111.59,170l-1.66,1a3.4,3.4,0,0,1,1.39.41c.9.52,1.11,1.3.17,1.89a3.35,3.35,0,0,1-3.34,0A1.64,1.64,0,0,1,107.14,171.78Z"/><path class="cls-36" d="M162.94,200l-1.41-.16.15-.39,2,.2.46.26-4.77,3-.56-.33Z"/><path class="cls-36" d="M167.47,202.46l-2.7-1.57.51-.32,3.38,2-.41.26-6.5,1.51-.65-.37Z"/><path class="cls-36" d="M190,215.43l-1.42-.16.16-.4,2,.21.46.26-4.76,3-.57-.33Z"/><path class="cls-36" d="M188.74,218.18a3.06,3.06,0,0,1,2.32-.13c-.36-.46-.4-.92.15-1.27a3.13,3.13,0,0,1,3,.18c.89.51,1.21,1.29.43,1.78a2.73,2.73,0,0,1-2.09.15c.41.47.48,1-.12,1.4a3.26,3.26,0,0,1-3.15-.21C188.21,219.48,187.94,218.69,188.74,218.18Zm3.11,1.76c.58-.37.18-1-.32-1.31a2.56,2.56,0,0,0-2.18-.14c-.52.33-.31.88.38,1.28A2.23,2.23,0,0,0,191.85,219.94Zm2.13-1.5c.47-.3.32-.81-.31-1.17a2,2,0,0,0-1.94-.12c-.55.35-.18.89.27,1.18A2.23,2.23,0,0,0,194,218.44Z"/><path class="cls-36" d="M216.32,230.55l-1.41-.16.15-.4,2,.2.46.27-4.77,3-.57-.32Z"/><path class="cls-36" d="M220,234.68a4.88,4.88,0,0,1-4.56.44,1.44,1.44,0,0,1-.85-1.18l.74-.09a1.08,1.08,0,0,0,.62,1,3.81,3.81,0,0,0,3.47-.47l.07,0a3.4,3.4,0,0,1-2.14-.35c-.91-.53-1.13-1.31-.19-1.91a3.4,3.4,0,0,1,3.33,0C221.86,232.85,221.36,233.83,220,234.68Zm0-.8c.58-.54.69-1.11,0-1.51a2.37,2.37,0,0,0-2.27,0c-.65.41-.52,1,.15,1.35A2.54,2.54,0,0,0,220.06,233.88Z"/><path class="cls-36" d="M238,247.66l3.31.12a4.52,4.52,0,0,0,2.5-.38c.58-.37.41-.88-.12-1.18a3.38,3.38,0,0,0-2.08-.31l-.09-.42a4.25,4.25,0,0,1,2.68.43c.86.5,1,1.27.19,1.81a5.27,5.27,0,0,1-3,.49l-2.39-.07,2.54,1.46-.52.33-3.44-2Z"/><path class="cls-36" d="M244.27,249a4.64,4.64,0,0,1,4.54-.36c1.21.7,1.05,1.84-.4,2.76a4.62,4.62,0,0,1-4.53.36C242.65,251,242.82,249.87,244.27,249Zm3.57,2.07c1.15-.73,1.35-1.6.47-2.11a3.57,3.57,0,0,0-3.47.37c-1.15.73-1.34,1.61-.47,2.12A3.61,3.61,0,0,0,247.84,251Z"/><path class="cls-36" d="M299.19,196.57l3.31.12a4.52,4.52,0,0,0,2.5-.38c.58-.37.41-.88-.12-1.19a3.45,3.45,0,0,0-2.08-.3l-.09-.43a4.32,4.32,0,0,1,2.68.44c.86.5,1,1.27.19,1.81a5.35,5.35,0,0,1-3,.49l-2.39-.07,2.54,1.46-.52.33-3.44-2Z"/><path class="cls-36" d="M308.08,197.28l-1.42-.16.16-.4,2,.21.46.26-4.76,3-.57-.32Z"/><path class="cls-36" d="M306,200.52l3.31.12a4.52,4.52,0,0,0,2.5-.38c.58-.37.42-.88-.12-1.18a3.36,3.36,0,0,0-2.07-.31l-.09-.42a4.22,4.22,0,0,1,2.67.43c.87.5,1,1.27.19,1.81a5.25,5.25,0,0,1-3,.49L307,201l2.54,1.46-.51.33-3.45-2Z"/><path class="cls-36" d="M310.31,203l3.31.12a4.52,4.52,0,0,0,2.5-.38c.58-.37.41-.88-.12-1.18a3.38,3.38,0,0,0-2.08-.31l-.08-.42a4.22,4.22,0,0,1,2.67.43c.87.5,1,1.27.19,1.81a5.17,5.17,0,0,1-3,.49l-2.39-.07,2.54,1.46-.51.33-3.45-2Z"/><path class="cls-36" d="M102.66,200.56l3.31.11a4.52,4.52,0,0,0,2.5-.38c.58-.37.41-.88-.12-1.18a3.31,3.31,0,0,0-2.08-.3l-.08-.43a4.22,4.22,0,0,1,2.67.43c.87.5,1,1.27.19,1.81a5.17,5.17,0,0,1-3,.49l-2.39-.07,2.54,1.46-.51.33-3.45-2Z"/><path class="cls-36" d="M107.16,202.81h.75a1.2,1.2,0,0,0,.74,1.25,2.06,2.06,0,0,0,2.07.1c.56-.36.35-.83-.44-1.28l-.53-.3.5-.32.53.31a2,2,0,0,0,2,.15c.5-.32.38-.82-.24-1.18a3.43,3.43,0,0,0-2-.33l0-.42a4.2,4.2,0,0,1,2.55.45c1,.55,1.12,1.29.36,1.77a2.54,2.54,0,0,1-2.09.15c.4.36.62.91-.07,1.35a3.16,3.16,0,0,1-3.11-.14C107.34,203.9,107.07,203.31,107.16,202.81Z"/><path class="cls-36" d="M157.45,232.2l3.31.12a4.52,4.52,0,0,0,2.5-.38c.58-.37.41-.88-.12-1.18a3.38,3.38,0,0,0-2.08-.31L161,230a4.25,4.25,0,0,1,2.68.43c.86.5,1,1.27.19,1.81a5.18,5.18,0,0,1-3,.49l-2.39-.07,2.54,1.46-.52.33-3.44-2Z"/><path class="cls-36" d="M162,234.56l.77,0a1.31,1.31,0,0,0,.74,1.23,2.29,2.29,0,0,0,2.24,0c.61-.39.53-.93-.17-1.34a3.58,3.58,0,0,0-1.48-.41l-.22-.36,2.52-1.5,2.95,1.7-.51.32-2.4-1.38-1.65,1a3.46,3.46,0,0,1,1.39.42c.9.52,1.11,1.29.16,1.89a3.35,3.35,0,0,1-3.34,0A1.62,1.62,0,0,1,162,234.56Z"/><path class="cls-36" d="M184.58,247.85l3.31.11a4.52,4.52,0,0,0,2.5-.38c.58-.37.41-.87-.12-1.18a3.31,3.31,0,0,0-2.08-.3l-.09-.43a4.25,4.25,0,0,1,2.68.43c.86.5,1,1.27.19,1.81a5.18,5.18,0,0,1-3,.49l-2.39-.07,2.54,1.47-.52.32-3.44-2Z"/><path class="cls-36" d="M193.63,251.81a3.4,3.4,0,0,1-3.33,0c-1.35-.78-.85-1.76.5-2.61a4.83,4.83,0,0,1,4.55-.44,1.44,1.44,0,0,1,.85,1.18l-.73.08a1.08,1.08,0,0,0-.62-1,3.8,3.8,0,0,0-3.48.47l-.06,0a3.34,3.34,0,0,1,2.14.35C194.35,250.44,194.58,251.22,193.63,251.81Zm-.6-.31c.65-.41.52-1-.15-1.35a2.53,2.53,0,0,0-2.13-.16c-.58.54-.69,1.1,0,1.51A2.39,2.39,0,0,0,193,251.5Z"/><path class="cls-36" d="M211.46,263.53l3.31.11a4.52,4.52,0,0,0,2.5-.38c.58-.36.41-.87-.12-1.18a3.38,3.38,0,0,0-2.08-.3l-.09-.43a4.19,4.19,0,0,1,2.68.44c.86.5,1,1.26.19,1.8a5.18,5.18,0,0,1-3,.49l-2.39-.07,2.54,1.47-.52.32-3.44-2Z"/><path class="cls-36" d="M222.31,265.2l-2.7-1.56.51-.33,3.38,1.95-.41.26-6.5,1.51-.66-.37Z"/><path class="cls-36" d="M238.66,279.05l3.31.12a4.52,4.52,0,0,0,2.5-.38c.59-.37.42-.88-.11-1.18a3.33,3.33,0,0,0-2.08-.3l-.09-.43a4.22,4.22,0,0,1,2.67.43c.87.5,1,1.27.19,1.81a5.15,5.15,0,0,1-3,.49l-2.39-.07,2.53,1.46-.51.33-3.45-2Z"/><path class="cls-36" d="M243.76,281a3.06,3.06,0,0,1,2.32-.13c-.36-.46-.4-.92.15-1.27a3.13,3.13,0,0,1,3,.18c.89.52,1.21,1.29.43,1.78a2.73,2.73,0,0,1-2.09.15c.41.47.48,1-.12,1.4a3.26,3.26,0,0,1-3.15-.21C243.22,282.33,243,281.54,243.76,281Zm3.11,1.76c.58-.37.18-1-.33-1.31a2.54,2.54,0,0,0-2.17-.14c-.52.33-.31.88.38,1.28A2.23,2.23,0,0,0,246.87,282.79Zm2.13-1.5c.47-.3.32-.81-.31-1.17a2,2,0,0,0-1.94-.12c-.56.35-.18.89.27,1.18A2.23,2.23,0,0,0,249,281.29Z"/><path class="cls-36" d="M48.45,201l3.31.11a4.54,4.54,0,0,0,2.5-.37c.58-.37.41-.88-.12-1.19a3.43,3.43,0,0,0-2.07-.3l-.09-.43a4.16,4.16,0,0,1,2.67.44c.87.5,1.05,1.26.19,1.8a5.17,5.17,0,0,1-3,.49l-2.39-.07L52,202.91l-.51.32-3.45-2Z"/><path class="cls-36" d="M58.47,204.32a4.88,4.88,0,0,1-4.56.44,1.43,1.43,0,0,1-.84-1.18l.73-.09a1.06,1.06,0,0,0,.62,1A3.8,3.8,0,0,0,57.9,204l.06,0a3.41,3.41,0,0,1-2.14-.36c-.91-.52-1.13-1.3-.19-1.9a3.42,3.42,0,0,1,3.34,0C60.32,202.49,59.82,203.47,58.47,204.32Zm.05-.81c.57-.54.69-1.1,0-1.5a2.37,2.37,0,0,0-2.27,0c-.66.42-.52,1,.15,1.36A2.53,2.53,0,0,0,58.52,203.51Z"/><path class="cls-36" d="M76.12,216.19h.74a1.23,1.23,0,0,0,.75,1.25,2.09,2.09,0,0,0,2.07.1c.56-.36.34-.83-.44-1.28l-.53-.31.5-.31.53.31a2,2,0,0,0,2,.14c.49-.31.38-.82-.25-1.18a3.32,3.32,0,0,0-2-.32l0-.43a4.26,4.26,0,0,1,2.54.46c1,.55,1.12,1.28.36,1.77a2.56,2.56,0,0,1-2.08.14c.4.37.61.92-.08,1.35a3.13,3.13,0,0,1-3.11-.13C76.29,217.29,76,216.69,76.12,216.19Z"/><path class="cls-36" d="M82.16,217.69a4.59,4.59,0,0,1,4.54-.36c1.21.7,1,1.84-.39,2.75a4.62,4.62,0,0,1-4.54.37C80.55,219.74,80.71,218.6,82.16,217.69Zm3.58,2.06c1.15-.73,1.34-1.6.46-2.1a3.56,3.56,0,0,0-3.46.37c-1.16.73-1.35,1.61-.47,2.11A3.58,3.58,0,0,0,85.74,219.75Z"/><path class="cls-36" d="M103.07,232h.75a1.2,1.2,0,0,0,.74,1.25,2.09,2.09,0,0,0,2.07.1c.56-.36.35-.83-.44-1.28l-.53-.31.5-.31.53.31a2,2,0,0,0,2,.15c.5-.32.38-.82-.24-1.19a3.51,3.51,0,0,0-2-.32l0-.43a4.28,4.28,0,0,1,2.55.46c1,.55,1.12,1.29.36,1.77a2.62,2.62,0,0,1-2.09.15c.4.36.62.91-.07,1.35a3.16,3.16,0,0,1-3.11-.14C103.25,233.09,103,232.49,103.07,232Z"/><path class="cls-36" d="M111.72,232.91l-1.42-.16.16-.4,2,.2.46.27-4.76,3-.57-.32Z"/><path class="cls-37" d="M281.65,183.85c0-1.16-.09-2.31-.16-3.46a2,2,0,0,0,0-.25c-.07-1.2-.17-2.4-.28-3.59l-.06-.73c-.12-1.17-.24-2.32-.39-3.48,0-.19-.05-.38-.08-.57-.14-1.09-.3-2.18-.47-3.25l-.06-.42c-.19-1.13-.39-2.26-.6-3.38-.05-.23-.1-.47-.14-.7-.22-1.11-.46-2.21-.71-3.28,0-.15-.07-.29-.1-.44-.24-1-.49-2-.75-3,0-.15-.09-.32-.13-.48-.28-1-.58-2.05-.89-3.05-.06-.21-.13-.42-.2-.63-.31-1-.64-2-1-3,0-.08-.07-.17-.1-.26-.32-.91-.66-1.8-1-2.67-.07-.17-.13-.33-.2-.49-.36-.9-.74-1.77-1.12-2.61l-.24-.51c-.4-.86-.81-1.71-1.24-2.51l0-.07c-.41-.79-.84-1.53-1.28-2.26l-.25-.43c-.44-.71-.88-1.38-1.33-2l-.1-.15-.16-.21c-.49-.68-1-1.34-1.5-2l0,0a22.56,22.56,0,0,0-1.54-1.67l-.16-.18-.13-.11c-.25-.24-.5-.46-.75-.68l-.37-.33c-.38-.31-.76-.6-1.15-.87l-18.07-12.62h0a12.13,12.13,0,0,0-1.21-.76c-.11-.06-.23-.11-.34-.18l-.42-.22-.52-.22c-.1,0-.2-.09-.3-.12a10,10,0,0,0-1.09-.37h-.07a9.92,9.92,0,0,0-1.39-.25,8.72,8.72,0,0,0-1.25,0h-.08l-.59.08-.4,0a6.45,6.45,0,0,0-.84.21,1.8,1.8,0,0,0-.22.06h0a9.1,9.1,0,0,0-1.05.41l-11.82,5.32a8.58,8.58,0,0,1,1.06-.41l.2-.06c.29-.08.57-.16.86-.21.13,0,.26,0,.39,0l.68-.08a10.48,10.48,0,0,1,1.25,0,8.61,8.61,0,0,1,1.39.24,11.19,11.19,0,0,1,1.16.38c.1,0,.2.08.3.12.31.13.62.28.94.45a2.79,2.79,0,0,1,.34.18c.41.23.82.48,1.23.76l18.07,12.62c.39.27.77.56,1.15.88.12.1.24.22.37.32s.5.44.75.68l.29.3a22.53,22.53,0,0,1,1.54,1.66l0,0c.51.61,1,1.27,1.5,2l.26.35c.45.65.89,1.33,1.33,2l.25.42c.43.73.86,1.48,1.28,2.26a.43.43,0,0,0,0,.07c.42.81.83,1.65,1.24,2.51l.23.51c.39.84.77,1.71,1.13,2.61.07.16.13.33.2.49.35.87.68,1.76,1,2.68,0,.08.07.17.1.26.34,1,.66,1.95,1,3,.07.2.14.41.2.63.31,1,.6,2,.89,3,0,.16.08.33.13.49.26,1,.51,2,.75,3,0,.14.07.28.1.42.25,1.09.49,2.18.71,3.29,0,.24.09.47.13.7.22,1.12.42,2.25.61,3.39l.06.4c.17,1.08.33,2.17.47,3.26,0,.2,0,.38.08.57.14,1.16.27,2.32.38,3.48,0,.25.05.48.07.73.11,1.19.21,2.38.28,3.59a2,2,0,0,1,0,.25c.07,1.15.12,2.31.15,3.46l0,.66c0,1.18,0,2.36,0,3.54v.72c0,1.22-.05,2.44-.1,3.66l0,1c-.83,18.47-6.13,31.31-13.18,34.59L268.36,228c7.05-3.28,12.35-16.12,13.19-34.59l0-1c.06-1.21.09-2.43.1-3.65,0-.24,0-.48,0-.72q0-1.77,0-3.54C281.66,184.29,281.65,184.07,281.65,183.85Z"/><path class="cls-38" d="M251.11,135.45,233,122.83a11.29,11.29,0,0,0-5.36-2.13c-9.18-.87-16.62,13.19-17.62,35.38l0,.95c-.81,17.81,2.73,36.31,8.66,48.92-2.6,7.33-6,13.54-10.37,14.19.28.26,5.51,5.2,11.69,5.79,3.54.33,7.3-.85,10.36-5.41L246.74,232a11.31,11.31,0,0,0,5.36,2.14c9.18.87,16.62-13.19,17.62-35.38l0-1C271,171.37,262.61,143.47,251.11,135.45Z"/><path class="cls-39" d="M249.81,200.56c-1.7-1.12-3.29,1.06-3.56,4.89s.89,7.83,2.59,9,3.29-1.06,3.56-4.88S251.51,201.69,249.81,200.56Z"/><path class="cls-39" d="M241.21,194.87c-1.7-1.12-3.29,1.06-3.56,4.88s.89,7.83,2.59,8.95,3.29-1,3.56-4.88S242.91,196,241.21,194.87Z"/><path class="cls-39" d="M232.61,189.18c-1.69-1.13-3.29,1-3.56,4.87s.89,7.84,2.59,9,3.3-1.06,3.56-4.88S234.31,190.3,232.61,189.18Z"/><path class="cls-40" d="M234.39,109.52c0-1.16-.08-2.31-.15-3.46,0-.09,0-.17,0-.26-.07-1.19-.16-2.39-.27-3.58,0-.24,0-.49-.07-.73-.11-1.17-.24-2.33-.39-3.47,0-.2-.05-.39-.07-.58-.14-1.09-.3-2.18-.47-3.25,0-.14,0-.28-.07-.42-.18-1.13-.39-2.26-.6-3.37-.05-.24-.09-.48-.14-.71-.22-1.11-.45-2.2-.7-3.28,0-.15-.07-.29-.11-.44-.24-1-.49-2-.75-3,0-.16-.08-.32-.13-.48-.28-1-.58-2.06-.89-3.06-.06-.21-.12-.42-.19-.63-.32-1-.64-2-1-3l-.09-.27q-.49-1.36-1-2.67c-.06-.16-.12-.33-.19-.49-.37-.89-.74-1.76-1.13-2.61l-.24-.51c-.4-.87-.81-1.71-1.24-2.51a.25.25,0,0,0,0-.07c-.41-.79-.84-1.53-1.27-2.26L222.9,64c-.43-.71-.88-1.39-1.33-2a.78.78,0,0,0-.1-.15l-.16-.21c-.49-.68-1-1.34-1.49-2l0,0c-.5-.6-1-1.15-1.53-1.67l-.17-.17-.12-.12c-.25-.24-.5-.46-.76-.68l-.37-.33q-.57-.47-1.14-.87L197.61,43.18h0c-.41-.28-.81-.53-1.21-.75l-.34-.18-.43-.23-.52-.22-.3-.12a9.34,9.34,0,0,0-1.09-.37h-.07a8.5,8.5,0,0,0-1.38-.24A8.72,8.72,0,0,0,191,41h-.09c-.2,0-.39,0-.59.07l-.39,0a8.11,8.11,0,0,0-.85.21,1.66,1.66,0,0,0-.21.06h0a7.66,7.66,0,0,0-1,.42L176,47.16a7.41,7.41,0,0,1,1.07-.42l.2-.05a8.33,8.33,0,0,1,.86-.22l.38,0c.23,0,.46-.06.68-.07a8.7,8.7,0,0,1,1.25,0,9.87,9.87,0,0,1,1.39.24A11.19,11.19,0,0,1,183,47l.3.12a10,10,0,0,1,.94.45l.34.18c.41.23.82.48,1.24.77l18.06,12.61c.39.27.77.56,1.15.88l.37.32c.25.22.5.44.75.69l.3.29c.51.51,1,1.06,1.53,1.66l0,.05c.51.6,1,1.26,1.5,1.95l.26.35c.45.65.9,1.33,1.33,2,.09.14.17.28.25.42.44.73.87,1.48,1.28,2.26l0,.08c.43.8.84,1.64,1.24,2.5l.24.51c.38.85.76,1.72,1.13,2.61.06.16.12.33.19.49.35.87.69,1.76,1,2.68a2.77,2.77,0,0,1,.1.26c.34,1,.67,2,1,3,.07.21.14.42.2.63.31,1,.61,2,.89,3.06,0,.16.09.32.13.48.26,1,.51,2,.75,3,0,.14.07.28.11.43.25,1.08.48,2.18.7,3.28,0,.24.09.47.14.7.21,1.12.42,2.25.6,3.39l.06.41c.18,1.07.33,2.16.47,3.25,0,.19.06.38.08.57.15,1.16.27,2.32.39,3.49,0,.24,0,.48.07.72.1,1.19.2,2.38.27,3.59,0,.08,0,.16,0,.25.06,1.15.11,2.31.15,3.46,0,.22,0,.44,0,.66,0,1.18,0,2.37,0,3.55,0,.23,0,.47,0,.71,0,1.22,0,2.44-.1,3.66l0,1c-.84,18.47-6.14,31.31-13.18,34.59l11.82-5.32c7-3.28,12.34-16.12,13.18-34.59l0-1c.06-1.22.09-2.44.1-3.66,0-.24,0-.48,0-.72q0-1.77,0-3.54C234.4,110,234.4,109.74,234.39,109.52Z"/><path class="cls-41" d="M203.85,61.12,185.79,48.51a11.2,11.2,0,0,0-5.37-2.14c-9.17-.87-16.62,13.19-17.62,35.38l0,1c-.81,17.81,2.73,36.3,8.66,48.91-2.6,7.33-6,13.54-10.36,14.19.27.26,5.51,5.2,11.69,5.79,3.53.33,7.29-.85,10.35-5.4l16.38,11.43a11.21,11.21,0,0,0,5.36,2.14c9.19.87,16.62-13.2,17.63-35.38l0-1C223.71,97,215.35,69.15,203.85,61.12Z"/><path class="cls-39" d="M183.94,75.2l1.34,6.44c1.83.44,4.67,2.51,7.16,5.16,4.37,4.74,6.41,9.62,6.14,13.4-.23,3.34-2.17,4.38-5.57,5-3.78.75-5.33,3.8-5.2,8.25v2.07l5.4,5.77.07-2c.06-4,1.4-6.09,4.72-6.7,3.63-.68,6.51-1.51,6.87-6.55.4-5.64-2.84-14.74-10.81-23.24C190.39,78.88,186.36,75.85,183.94,75.2Z"/><path class="cls-39" d="M185.56,124.27c-.18,2.6,1.34,6.37,3.77,9s4.3,2.43,4.48-.17-1.33-6.44-3.76-9S185.75,121.53,185.56,124.27Z"/><g id="Группа"><path class="cls-42" d="M130.46,128.71a78.47,78.47,0,0,0-3.56,10.7l-5.89-.17-3,2s9.83,3.26,10.91,2.45,5.41-10.56,5.78-13.27-.15-3.81-.87-4.59S131.53,126.78,130.46,128.71Z"/><g class="cls-43"><path class="cls-39" d="M136.14,180.39a17.3,17.3,0,0,0-6.34,1.77,16.51,16.51,0,0,0-5.27,3.76c-.22.24-.41.49-.59.73a4.15,4.15,0,0,0-.68,4.33c.41.84,1.55,2.25,4.58,2.2h.34a17.46,17.46,0,0,0,6.34-1.76,16.92,16.92,0,0,0,5.27-3.77l.1-.12a5.43,5.43,0,0,0,.48-.62c1.44-2,1-3.58.68-4.33S139.4,180.23,136.14,180.39Z"/><path class="cls-44" d="M129.83,182.22a16.31,16.31,0,0,0-5.22,3.72,9,9,0,0,0-.57.72c-1.42,2-1,3.54-.68,4.27a3.91,3.91,0,0,0,3.11,2.07l.33.05a7.39,7.39,0,0,0,1.08,0h.34a18.57,18.57,0,0,0,11.49-5.47l.1-.12c.14-.17.28-.34.41-.52l.06-.09c1.42-2,1-3.54.67-4.27a4.05,4.05,0,0,0-3.47-2.12,10.2,10.2,0,0,0-1.38,0A16.92,16.92,0,0,0,129.83,182.22Z"/><path class="cls-45" d="M129.85,182.28A16.38,16.38,0,0,0,124.7,186a7.38,7.38,0,0,0-.57.71c-1.4,2-1,3.49-.67,4.22a3.86,3.86,0,0,0,3.07,2l.33,0a9,9,0,0,0,1.07,0h.33a16.79,16.79,0,0,0,6.2-1.72,16.61,16.61,0,0,0,5.16-3.69l.1-.11c.14-.17.28-.34.41-.52l.06-.08a3.72,3.72,0,0,0-2.77-6.31,8.56,8.56,0,0,0-1.36,0A17,17,0,0,0,129.85,182.28Z"/><path class="cls-46" d="M129.88,182.34a16.15,16.15,0,0,0-5.09,3.63,8.86,8.86,0,0,0-.57.71c-1.38,1.95-1,3.45-.67,4.16a3.82,3.82,0,0,0,3,2l.33.05a8.79,8.79,0,0,0,1.06,0h.32a16.61,16.61,0,0,0,6.13-1.7,16.35,16.35,0,0,0,5.1-3.65.52.52,0,0,0,.1-.11,5.93,5.93,0,0,0,.4-.51l.07-.08c1.38-1.95,1-3.45.66-4.17a3.93,3.93,0,0,0-3.4-2.05,7.3,7.3,0,0,0-1.34,0A16.73,16.73,0,0,0,129.88,182.34Z"/><path class="cls-47" d="M129.91,182.4a16.06,16.06,0,0,0-5,3.59c-.2.23-.39.47-.56.7-1.36,1.92-1,3.4-.66,4.11a3.78,3.78,0,0,0,3,2l.32,0a8.53,8.53,0,0,0,1,.05h.33a18.08,18.08,0,0,0,11.1-5.29l.09-.12a4.61,4.61,0,0,0,.4-.5.27.27,0,0,1,.07-.08c1.36-1.93,1-3.4.66-4.12a3.92,3.92,0,0,0-3.37-2,9.46,9.46,0,0,0-1.33,0A16.73,16.73,0,0,0,129.91,182.4Z"/><path class="cls-48" d="M129.94,182.46a15.8,15.8,0,0,0-5,3.55,6.64,6.64,0,0,0-.55.69c-1.35,1.89-1,3.35-.67,4.05a3.71,3.71,0,0,0,3,1.95l.32.05a8.37,8.37,0,0,0,1,0h.32a16.22,16.22,0,0,0,6-1.67,16,16,0,0,0,5-3.56l.1-.11c.14-.17.27-.33.39-.5l.06-.08c1.35-1.9,1-3.35.66-4.06a3.85,3.85,0,0,0-3.32-2,9.4,9.4,0,0,0-1.32,0A16.54,16.54,0,0,0,129.94,182.46Z"/><path class="cls-49" d="M130,182.52a15.43,15.43,0,0,0-4.92,3.51,5.65,5.65,0,0,0-.55.68c-1.33,1.86-1,3.3-.66,4a3.67,3.67,0,0,0,2.94,1.93l.32,0a8.2,8.2,0,0,0,1,0h.31a17.68,17.68,0,0,0,10.85-5.17l.09-.11c.14-.16.27-.33.39-.49l.06-.08c1.33-1.87,1-3.31.65-4a3.77,3.77,0,0,0-3.28-2,9.07,9.07,0,0,0-1.3,0A16.3,16.3,0,0,0,130,182.52Z"/><path class="cls-50" d="M130,182.58a15.59,15.59,0,0,0-4.87,3.46c-.2.23-.38.45-.54.67a3.79,3.79,0,0,0-.66,3.95,3.63,3.63,0,0,0,2.91,1.89l.32,0a6.37,6.37,0,0,0,1,0h.31a16,16,0,0,0,5.84-1.63,15.72,15.72,0,0,0,4.88-3.48l.09-.11q.21-.24.39-.48l.06-.08c1.31-1.84,1-3.26.65-4a3.75,3.75,0,0,0-3.25-1.93,7.66,7.66,0,0,0-1.28,0A16.12,16.12,0,0,0,130,182.58Z"/><path class="cls-51" d="M130,182.64a15.37,15.37,0,0,0-4.81,3.42,7.83,7.83,0,0,0-.54.66c-1.29,1.82-1,3.21-.65,3.89a3.57,3.57,0,0,0,2.88,1.87l.31,0a7.82,7.82,0,0,0,1,0h.31a15.76,15.76,0,0,0,5.76-1.61,15.58,15.58,0,0,0,4.82-3.44l.1-.1.38-.48.06-.08c1.29-1.81,1-3.21.64-3.89a3.69,3.69,0,0,0-3.21-1.9,7.52,7.52,0,0,0-1.27,0A15.89,15.89,0,0,0,130,182.64Z"/><path class="cls-52" d="M130.06,182.7a15.28,15.28,0,0,0-4.76,3.38,7.4,7.4,0,0,0-.52.65c-1.28,1.79-1,3.17-.65,3.84A3.52,3.52,0,0,0,127,192.4l.31,0a7.55,7.55,0,0,0,1,0h.3a17.11,17.11,0,0,0,10.46-5l.09-.11c.13-.16.26-.31.38-.47l.06-.08a3.34,3.34,0,0,0-2.54-5.7,7.29,7.29,0,0,0-1.25,0A15.7,15.7,0,0,0,130.06,182.7Z"/><path class="cls-53" d="M130.09,182.76a15,15,0,0,0-4.7,3.34,7.3,7.3,0,0,0-.52.64,3.62,3.62,0,0,0-.65,3.78,3.48,3.48,0,0,0,2.81,1.81l.3,0a7.47,7.47,0,0,0,1,0h.3a15.51,15.51,0,0,0,5.62-1.58,15.3,15.3,0,0,0,4.71-3.35l.09-.11a5,5,0,0,0,.37-.46l.06-.08c1.26-1.76,1-3.11.64-3.78a3.62,3.62,0,0,0-3.14-1.84,9.82,9.82,0,0,0-1.23,0A15.69,15.69,0,0,0,130.09,182.76Z"/><path class="cls-54" d="M130.12,182.82a15,15,0,0,0-4.64,3.29c-.19.22-.36.43-.52.64a3.57,3.57,0,0,0-.64,3.73,3.41,3.41,0,0,0,2.77,1.77l.3,0a7.4,7.4,0,0,0,1,0h.29a15.12,15.12,0,0,0,5.55-1.56,15.33,15.33,0,0,0,4.66-3.31l.08-.1c.14-.16.26-.31.37-.46l.06-.08a3.23,3.23,0,0,0-2.47-5.53,8,8,0,0,0-1.21,0A15.45,15.45,0,0,0,130.12,182.82Z"/><path class="cls-55" d="M130.15,182.87a15,15,0,0,0-4.59,3.26q-.27.31-.51.63a3.53,3.53,0,0,0-.64,3.67,3.38,3.38,0,0,0,2.75,1.75l.29,0a7.24,7.24,0,0,0,1,0h.29a16.57,16.57,0,0,0,10.07-4.81l.09-.1q.19-.23.36-.45l.06-.08a3.18,3.18,0,0,0-2.43-5.45,8.05,8.05,0,0,0-1.21,0A15.39,15.39,0,0,0,130.15,182.87Z"/><path class="cls-56" d="M130.18,182.93a14.62,14.62,0,0,0-4.53,3.22,7.14,7.14,0,0,0-.5.62,3.47,3.47,0,0,0-.64,3.62,3.31,3.31,0,0,0,2.71,1.71l.29,0c.29,0,.6,0,.93,0h.29a14.9,14.9,0,0,0,5.4-1.52,14.69,14.69,0,0,0,4.54-3.23l.09-.1c.13-.15.25-.29.36-.44l.06-.08a3.12,3.12,0,0,0-2.4-5.36,7.77,7.77,0,0,0-1.19,0A15.42,15.42,0,0,0,130.18,182.93Z"/><path class="cls-57" d="M130.21,183a14.52,14.52,0,0,0-4.47,3.18,5.57,5.57,0,0,0-.5.61,3.41,3.41,0,0,0-.64,3.56,3.31,3.31,0,0,0,2.68,1.69l.29,0a6.79,6.79,0,0,0,.92,0h.28a16.22,16.22,0,0,0,9.82-4.68l.08-.1.36-.44.06-.08a3.07,3.07,0,0,0-2.37-5.27,7.51,7.51,0,0,0-1.17,0A15,15,0,0,0,130.21,183Z"/><path class="cls-58" d="M130.24,183.05a14.58,14.58,0,0,0-4.42,3.13c-.18.2-.34.41-.49.61a3.36,3.36,0,0,0-.63,3.51,3.25,3.25,0,0,0,2.65,1.65l.28,0a6.64,6.64,0,0,0,.91,0h.27a14.71,14.71,0,0,0,5.26-1.49,14.53,14.53,0,0,0,4.43-3.14l.09-.1.35-.43a.35.35,0,0,0,.05-.08,3.33,3.33,0,0,0,.62-3.5,3.36,3.36,0,0,0-3-1.69,8.7,8.7,0,0,0-1.15,0A15,15,0,0,0,130.24,183.05Z"/><path class="cls-59" d="M130.27,183.11a14.32,14.32,0,0,0-4.36,3.09c-.18.2-.34.4-.49.59a3.34,3.34,0,0,0-.63,3.46,3.2,3.2,0,0,0,2.62,1.63l.28,0a8.48,8.48,0,0,0,.89,0h.28a14.48,14.48,0,0,0,5.18-1.47,14.32,14.32,0,0,0,4.38-3.1l.08-.1.35-.42.05-.08a3.29,3.29,0,0,0,.62-3.45,3.33,3.33,0,0,0-2.92-1.65,8.53,8.53,0,0,0-1.14,0A14.79,14.79,0,0,0,130.27,183.11Z"/><path class="cls-60" d="M130.3,183.17a14.1,14.1,0,0,0-4.3,3.05,6.13,6.13,0,0,0-.48.58,3.27,3.27,0,0,0-.63,3.41,3.12,3.12,0,0,0,2.58,1.59l.28,0a8.29,8.29,0,0,0,.88,0h.27a14.5,14.5,0,0,0,5.11-1.45,14.18,14.18,0,0,0,4.32-3.06l.08-.09a4.7,4.7,0,0,0,.35-.43l.05-.07a2.91,2.91,0,0,0-2.27-5,6.89,6.89,0,0,0-1.12,0A14.61,14.61,0,0,0,130.3,183.17Z"/><path class="cls-61" d="M130.33,183.23a14,14,0,0,0-4.25,3c-.17.19-.33.38-.47.57a3.2,3.2,0,0,0-.62,3.35,3.08,3.08,0,0,0,2.54,1.57l.28,0a6.05,6.05,0,0,0,.87,0h.26a14.26,14.26,0,0,0,5-1.43,14,14,0,0,0,4.26-3l.09-.09q.18-.21.33-.42l.06-.07a3.2,3.2,0,0,0,.61-3.34,3.23,3.23,0,0,0-2.85-1.59,6.72,6.72,0,0,0-1.1,0A14.58,14.58,0,0,0,130.33,183.23Z"/><path class="cls-62" d="M130.36,183.29a13.73,13.73,0,0,0-4.19,3c-.17.19-.33.38-.47.57a3.17,3.17,0,0,0-.62,3.29,3,3,0,0,0,2.52,1.54l.27,0a7.79,7.79,0,0,0,.85,0H129a15.28,15.28,0,0,0,9.18-4.39l.08-.09a4.23,4.23,0,0,0,.33-.41l.06-.07a3.13,3.13,0,0,0,.6-3.28,3.16,3.16,0,0,0-2.8-1.56,6.6,6.6,0,0,0-1.09,0A14.34,14.34,0,0,0,130.36,183.29Z"/><path class="cls-63" d="M130.39,183.35a13.64,13.64,0,0,0-4.13,2.92,5.67,5.67,0,0,0-.46.56,3.1,3.1,0,0,0-.62,3.24,3,3,0,0,0,2.48,1.5,2.23,2.23,0,0,0,.27,0,7.6,7.6,0,0,0,.84,0H129a13.82,13.82,0,0,0,4.89-1.4,13.59,13.59,0,0,0,4.15-2.93l.08-.09c.12-.14.23-.27.33-.41a.18.18,0,0,0,.05-.07,3.1,3.1,0,0,0,.61-3.23,3.13,3.13,0,0,0-2.77-1.52,7.69,7.69,0,0,0-1.08,0A14.36,14.36,0,0,0,130.39,183.35Z"/><path class="cls-64" d="M130.42,183.41a13.56,13.56,0,0,0-4.08,2.88c-.16.18-.32.37-.45.55a3.07,3.07,0,0,0-.62,3.18,3,3,0,0,0,2.45,1.48l.27,0a7.5,7.5,0,0,0,.83,0h.25a15,15,0,0,0,8.92-4.27l.07-.09c.12-.13.23-.27.33-.4a.18.18,0,0,0,.05-.07,3,3,0,0,0,.6-3.17,3.06,3.06,0,0,0-2.73-1.5,9.35,9.35,0,0,0-1.06,0A14,14,0,0,0,130.42,183.41Z"/><path class="cls-65" d="M130.45,183.47a13.17,13.17,0,0,0-4,2.84c-.16.18-.32.36-.45.54a3,3,0,0,0-.61,3.13,2.87,2.87,0,0,0,2.42,1.44l.25,0a7.38,7.38,0,0,0,.82,0h.25a14.8,14.8,0,0,0,8.79-4.21l.08-.09.32-.39,0-.07a3,3,0,0,0,.6-3.12,3.05,3.05,0,0,0-2.7-1.46,6,6,0,0,0-1,0A13.71,13.71,0,0,0,130.45,183.47Z"/><path class="cls-66" d="M130.48,183.53a13.23,13.23,0,0,0-4,2.79c-.17.18-.31.36-.45.54a3,3,0,0,0-.61,3.07,2.84,2.84,0,0,0,2.39,1.42l.25,0a7.06,7.06,0,0,0,.81,0h.24a13.42,13.42,0,0,0,4.68-1.34,13,13,0,0,0,4-2.81.34.34,0,0,0,.08-.09c.11-.12.22-.25.32-.38l0-.07a2.94,2.94,0,0,0,.59-3.06,3,3,0,0,0-2.66-1.44,7,7,0,0,0-1,0A13.68,13.68,0,0,0,130.48,183.53Z"/><path class="cls-67" d="M130.51,183.59a13.15,13.15,0,0,0-3.91,2.75,6.67,6.67,0,0,0-.43.53,2.91,2.91,0,0,0-.61,3,2.78,2.78,0,0,0,2.35,1.38l.25,0c.25,0,.51,0,.79,0h.25a13.18,13.18,0,0,0,4.6-1.32,13,13,0,0,0,3.93-2.77l.07-.08c.12-.13.22-.25.32-.38l0-.07a2.87,2.87,0,0,0,.58-3,2.93,2.93,0,0,0-2.62-1.41,6.89,6.89,0,0,0-1,0A13.51,13.51,0,0,0,130.51,183.59Z"/><path class="cls-68" d="M130.54,183.65a12.88,12.88,0,0,0-3.85,2.71,5.15,5.15,0,0,0-.43.52,2.82,2.82,0,0,0-.6,3A2.72,2.72,0,0,0,128,191.2l.25,0a6.64,6.64,0,0,0,.78,0h.24a13.25,13.25,0,0,0,4.53-1.31,12.88,12.88,0,0,0,3.87-2.72l.08-.09c.11-.12.21-.25.31-.37a.43.43,0,0,0,0-.07,2.84,2.84,0,0,0,.59-2.95,2.89,2.89,0,0,0-2.59-1.37,8.16,8.16,0,0,0-1,0A13.53,13.53,0,0,0,130.54,183.65Z"/><path class="cls-69" d="M130.57,183.71a12.79,12.79,0,0,0-3.79,2.67,6.37,6.37,0,0,0-.43.5,2.82,2.82,0,0,0-.6,2.92,2.71,2.71,0,0,0,2.29,1.32l.24,0a6.47,6.47,0,0,0,.77,0h.23a14.16,14.16,0,0,0,8.28-4l.07-.09q.17-.18.3-.36a.18.18,0,0,0,0-.07,2.77,2.77,0,0,0,.58-2.89,2.82,2.82,0,0,0-2.54-1.35,6.47,6.47,0,0,0-1,0A13.35,13.35,0,0,0,130.57,183.71Z"/><path class="cls-70" d="M130.6,183.77a12.56,12.56,0,0,0-3.74,2.62l-.42.5a2.75,2.75,0,0,0-.59,2.86,2.65,2.65,0,0,0,2.25,1.3l.24,0a6.25,6.25,0,0,0,.75,0h.23a13.93,13.93,0,0,0,8.15-3.91l.07-.08q.17-.18.3-.36l0-.07a2.75,2.75,0,0,0,.58-2.84,2.8,2.8,0,0,0-2.51-1.31,6.2,6.2,0,0,0-1,0A12.87,12.87,0,0,0,130.6,183.77Z"/><path class="cls-71" d="M130.63,183.83a12.43,12.43,0,0,0-3.68,2.58,5.92,5.92,0,0,0-.41.49,2.72,2.72,0,0,0-.6,2.81,2.61,2.61,0,0,0,2.22,1.26l.24,0a6,6,0,0,0,.74,0h.22a12.52,12.52,0,0,0,4.32-1.25,12.26,12.26,0,0,0,3.7-2.6.6.6,0,0,0,.08-.08c.1-.12.2-.23.29-.35l.05-.06a2.7,2.7,0,0,0,.57-2.79,2.73,2.73,0,0,0-2.47-1.28,6.09,6.09,0,0,0-1,0A12.64,12.64,0,0,0,130.63,183.83Z"/><path class="cls-72" d="M130.66,183.89a12.21,12.21,0,0,0-3.62,2.54,5.82,5.82,0,0,0-.41.48,2.65,2.65,0,0,0-.59,2.75,2.53,2.53,0,0,0,2.19,1.24l.23,0c.23,0,.47,0,.73,0h.22a13.53,13.53,0,0,0,7.89-3.79l.07-.08.29-.34.05-.06a2.65,2.65,0,0,0,.57-2.74,2.71,2.71,0,0,0-2.44-1.25,7.44,7.44,0,0,0-.93,0A12.62,12.62,0,0,0,130.66,183.89Z"/><path class="cls-73" d="M130.69,184a12,12,0,0,0-3.57,2.5,5.85,5.85,0,0,0-.4.47,2.63,2.63,0,0,0-.59,2.7,2.52,2.52,0,0,0,2.16,1.2l.23,0h.93a12.36,12.36,0,0,0,4.17-1.22,12,12,0,0,0,3.59-2.51l.07-.08.29-.34,0-.06a2.57,2.57,0,0,0,.57-2.68,2.65,2.65,0,0,0-2.4-1.22,7,7,0,0,0-.91,0A12.71,12.71,0,0,0,130.69,184Z"/><path class="cls-74" d="M130.72,184a12,12,0,0,0-3.51,2.45,5.56,5.56,0,0,0-.4.47,2.56,2.56,0,0,0-.58,2.64,2.46,2.46,0,0,0,2.12,1.18h.23a5.44,5.44,0,0,0,.7,0h.21a12.17,12.17,0,0,0,4.1-1.2,12,12,0,0,0,3.54-2.47l.06-.08a4.28,4.28,0,0,0,.29-.33l0-.06a2.55,2.55,0,0,0,.57-2.63,2.63,2.63,0,0,0-2.37-1.19,6.79,6.79,0,0,0-.89,0A12.46,12.46,0,0,0,130.72,184Z"/><path class="cls-75" d="M130.75,184.07a11.81,11.81,0,0,0-3.45,2.41,4,4,0,0,0-.39.46,2.48,2.48,0,0,0-.58,2.58,2.38,2.38,0,0,0,2.08,1.15l.23,0a5.39,5.39,0,0,0,.69,0h.2a13.06,13.06,0,0,0,7.51-3.61l.07-.08c.1-.1.19-.22.28-.32l0-.06A2.48,2.48,0,0,0,138,184a2.54,2.54,0,0,0-2.32-1.16,6.76,6.76,0,0,0-.89,0A12.29,12.29,0,0,0,130.75,184.07Z"/><path class="cls-76" d="M130.78,184.13a11.87,11.87,0,0,0-3.4,2.37,5,5,0,0,0-.38.45,2.46,2.46,0,0,0-.58,2.53,2.36,2.36,0,0,0,2.06,1.12h1.1a11.76,11.76,0,0,0,3.95-1.16A11.55,11.55,0,0,0,137,187,.46.46,0,0,0,137,187l.28-.33,0,0a2.42,2.42,0,0,0,.55-2.51,2.46,2.46,0,0,0-2.28-1.13,5.15,5.15,0,0,0-.87,0A11.81,11.81,0,0,0,130.78,184.13Z"/><path class="cls-77" d="M130.81,184.19a11.27,11.27,0,0,0-3.34,2.33,3.86,3.86,0,0,0-.38.44,2.39,2.39,0,0,0-.57,2.47,2.29,2.29,0,0,0,2,1.09h1.08a12.67,12.67,0,0,0,7.25-3.49l.06-.07a2.69,2.69,0,0,0,.27-.32s0,0,.05,0a2.39,2.39,0,0,0,.55-2.46,2.47,2.47,0,0,0-2.25-1.1,6.25,6.25,0,0,0-.85,0A11.86,11.86,0,0,0,130.81,184.19Z"/><path class="cls-78" d="M130.84,184.25a11.36,11.36,0,0,0-3.28,2.28c-.14.15-.27.29-.38.43a2.38,2.38,0,0,0-.57,2.43,2.31,2.31,0,0,0,2,1.06h1.06a11.6,11.6,0,0,0,3.81-1.13,11.43,11.43,0,0,0,3.31-2.3l.07-.08a3.88,3.88,0,0,0,.26-.31.1.1,0,0,0,0-.05,2.31,2.31,0,0,0,.55-2.4,2.37,2.37,0,0,0-2.21-1.07,7.85,7.85,0,0,0-.83,0A11.9,11.9,0,0,0,130.84,184.25Z"/><path class="cls-79" d="M130.87,184.31a11.28,11.28,0,0,0-3.23,2.24q-.19.21-.36.42a2.3,2.3,0,0,0-.57,2.37,2.19,2.19,0,0,0,2,1h.21a4.6,4.6,0,0,0,.64,0h.19a11.35,11.35,0,0,0,3.74-1.11A11.16,11.16,0,0,0,136.7,187l.06-.07.26-.31a.1.1,0,0,0,0-.05,2.29,2.29,0,0,0,.55-2.35,2.36,2.36,0,0,0-2.18-1,5.78,5.78,0,0,0-.82,0A11.67,11.67,0,0,0,130.87,184.31Z"/><path class="cls-80" d="M130.9,184.37a10.87,10.87,0,0,0-3.17,2.2c-.13.14-.25.27-.36.41a2.26,2.26,0,0,0-.57,2.32,2.19,2.19,0,0,0,1.93,1h.2c.2,0,.41,0,.63,0h.19a12.21,12.21,0,0,0,6.86-3.31l.06-.07.26-.3,0,0a2.22,2.22,0,0,0,.54-2.29c-.23-.49-.89-1-2.14-1a5.55,5.55,0,0,0-.8,0A11.41,11.41,0,0,0,130.9,184.37Z"/><path class="cls-81" d="M130.93,184.43a10.79,10.79,0,0,0-3.11,2.16c-.13.13-.25.27-.36.4a2.19,2.19,0,0,0-.56,2.26,2.1,2.1,0,0,0,1.89,1h1a10.87,10.87,0,0,0,3.59-1.07,10.67,10.67,0,0,0,3.14-2.18l.07-.07a3.47,3.47,0,0,0,.25-.29l0-.05a2.2,2.2,0,0,0,.54-2.24,2.29,2.29,0,0,0-2.11-1,5.28,5.28,0,0,0-.78,0A11.23,11.23,0,0,0,130.93,184.43Z"/><path class="cls-82" d="M131,184.49a10.9,10.9,0,0,0-3.06,2.11l-.35.4a2.14,2.14,0,0,0-.55,2.21,2.06,2.06,0,0,0,1.85.94h.2c.19,0,.39,0,.6,0h.18a10.93,10.93,0,0,0,3.52-1.05,10.59,10.59,0,0,0,3.09-2.14l.06-.06.25-.29,0-.05a2.13,2.13,0,0,0,.53-2.18,2.2,2.2,0,0,0-2.06-.94,5.1,5.1,0,0,0-.77,0A11.24,11.24,0,0,0,131,184.49Z"/><path class="cls-83" d="M131,184.55a10.63,10.63,0,0,0-3,2.07,4,4,0,0,0-.34.39,2.09,2.09,0,0,0-.56,2.15,2,2,0,0,0,1.83.91h.19c.19,0,.38,0,.59,0h.17a11,11,0,0,0,3.45-1,10.69,10.69,0,0,0,3-2.09l.06-.07c.09-.09.17-.19.25-.28l0,0a2.11,2.11,0,0,0,.53-2.13,2.18,2.18,0,0,0-2-.91l-.76,0A11.13,11.13,0,0,0,131,184.55Z"/><path class="cls-84" d="M131,184.61a10.55,10.55,0,0,0-3,2,3.9,3.9,0,0,0-.33.38,2,2,0,0,0-.55,2.1A2,2,0,0,0,129,190h.19a3.88,3.88,0,0,0,.58,0h.17a10.82,10.82,0,0,0,3.37-1,10.62,10.62,0,0,0,3-2l0-.07a2.91,2.91,0,0,0,.24-.27l0-.05a2,2,0,0,0,.53-2.07c-.22-.46-.86-.86-2-.88a4.72,4.72,0,0,0-.74,0A10.87,10.87,0,0,0,131,184.61Z"/><path class="cls-85" d="M131.05,184.67a10.13,10.13,0,0,0-2.89,2,3.8,3.8,0,0,0-.33.37,2,2,0,0,0-.55,2,2,2,0,0,0,1.76.85h.19a3.54,3.54,0,0,0,.56,0H130a10.56,10.56,0,0,0,3.3-1,10.4,10.4,0,0,0,2.92-2l.06-.06.23-.27,0-.05c.68-.87.74-1.58.52-2s-.84-.84-1.95-.86a6,6,0,0,0-.72,0A10.69,10.69,0,0,0,131.05,184.67Z"/><path class="cls-86" d="M131.08,184.73a10,10,0,0,0-2.83,1.94,3.8,3.8,0,0,0-.33.37,1.94,1.94,0,0,0-.54,2,1.87,1.87,0,0,0,1.72.81h.19l.55,0H130a11.14,11.14,0,0,0,6.09-2.95l.06-.06c.08-.09.16-.17.23-.26l0,0c.66-.84.73-1.54.52-2s-.84-.81-1.92-.82a5.8,5.8,0,0,0-.7,0A10.44,10.44,0,0,0,131.08,184.73Z"/><path class="cls-87" d="M131.11,184.79a10.19,10.19,0,0,0-2.78,1.9c-.11.12-.22.24-.31.36-.67.82-.75,1.51-.55,1.93a1.83,1.83,0,0,0,1.7.79h.18a5.06,5.06,0,0,0,.54,0H130a10.13,10.13,0,0,0,3.16-1,9.85,9.85,0,0,0,2.81-1.93l.05-.06.23-.25,0-.05c.64-.81.72-1.49.51-1.9s-.82-.78-1.88-.79a5.76,5.76,0,0,0-.69,0A10.49,10.49,0,0,0,131.11,184.79Z"/><path class="cls-88" d="M131.14,184.85a9.91,9.91,0,0,0-2.72,1.86c-.11.11-.22.23-.31.34-.65.8-.74,1.47-.54,1.88a1.77,1.77,0,0,0,1.66.76h.18l.52,0h.16a10.3,10.3,0,0,0,3.08-.95,9.82,9.82,0,0,0,2.75-1.88l.06-.06.22-.25,0-.05c.62-.78.71-1.44.51-1.85s-.82-.75-1.85-.76c-.21,0-.43,0-.67,0A10.56,10.56,0,0,0,131.14,184.85Z"/><path class="cls-89" d="M131.17,184.91a9.63,9.63,0,0,0-2.66,1.82c-.11.11-.22.22-.31.33-.63.77-.73,1.42-.54,1.83a1.76,1.76,0,0,0,1.63.73h.18l.51,0h.15a10,10,0,0,0,3-.93,9.75,9.75,0,0,0,2.7-1.84l0-.06.22-.24,0,0c.61-.75.71-1.39.51-1.79s-.8-.73-1.8-.73a5.07,5.07,0,0,0-.66,0A10.1,10.1,0,0,0,131.17,184.91Z"/><path class="cls-90" d="M131.2,185a10,10,0,0,0-2.61,1.77l-.3.33c-.61.74-.72,1.37-.53,1.77s.72.69,1.6.7h.16l.51,0h.14a9.78,9.78,0,0,0,2.94-.91,9.47,9.47,0,0,0,2.64-1.8l.05-.06.22-.23,0-.05c.59-.72.7-1.34.51-1.74s-.8-.7-1.77-.69a4.68,4.68,0,0,0-.64,0A9.84,9.84,0,0,0,131.2,185Z"/><path class="cls-91" d="M131.23,185a9.33,9.33,0,0,0-2.55,1.73,4.2,4.2,0,0,0-.29.32c-.6.71-.73,1.33-.53,1.72a1.6,1.6,0,0,0,1.56.67h.16l.49,0h.14a9.53,9.53,0,0,0,2.87-.89,9.26,9.26,0,0,0,2.58-1.76l.06-.05.21-.23,0-.05c.57-.7.69-1.29.5-1.68s-.78-.68-1.73-.67c-.2,0-.41,0-.63,0A9.7,9.7,0,0,0,131.23,185Z"/><path class="cls-92" d="M131.26,185.09a9,9,0,0,0-2.49,1.69,4.11,4.11,0,0,0-.29.31c-.58.68-.72,1.28-.53,1.66s.7.66,1.53.64h.16l.48,0h.14a9.39,9.39,0,0,0,2.79-.87,9.19,9.19,0,0,0,2.53-1.72l0-.05a2.2,2.2,0,0,0,.2-.23l0,0c.55-.67.68-1.25.5-1.63s-.78-.65-1.7-.63a4.42,4.42,0,0,0-.61.05A9.74,9.74,0,0,0,131.26,185.09Z"/><path class="cls-93" d="M131.29,185.15a9.21,9.21,0,0,0-2.44,1.65l-.28.3c-.56.66-.71,1.23-.52,1.61a1.53,1.53,0,0,0,1.49.61h.16l.47,0h.13a9.43,9.43,0,0,0,2.72-.85,9.11,9.11,0,0,0,2.47-1.67l0-.06a2.09,2.09,0,0,0,.2-.22l0,0c.53-.64.67-1.2.49-1.57s-.76-.63-1.66-.6c-.19,0-.39,0-.59,0A10,10,0,0,0,131.29,185.15Z"/><path class="cls-94" d="M131.32,185.21a9,9,0,0,0-2.38,1.6l-.28.3c-.54.63-.7,1.18-.52,1.55s.69.61,1.47.58h.15l.45,0h.13a9.63,9.63,0,0,0,2.65-.84,9.29,9.29,0,0,0,2.42-1.63l0-.05.2-.22,0,0c.52-.61.67-1.15.49-1.51s-.75-.61-1.62-.58c-.18,0-.37,0-.57.05A9.69,9.69,0,0,0,131.32,185.21Z"/><path class="cls-95" d="M131.35,185.27a8.86,8.86,0,0,0-2.32,1.56,3.58,3.58,0,0,0-.27.29c-.53.6-.7,1.13-.52,1.5s.67.56,1.43.55h.15l.44,0h.12a9.37,9.37,0,0,0,2.58-.82,9,9,0,0,0,2.36-1.59l.05,0,.19-.21,0,0c.5-.58.66-1.1.49-1.46s-.74-.58-1.59-.54a3.87,3.87,0,0,0-.56,0A9.47,9.47,0,0,0,131.35,185.27Z"/><path class="cls-96" d="M134.44,184.47a8.52,8.52,0,0,0-3.06.86,8.1,8.1,0,0,0-2.53,1.8c-.51.57-.69,1.09-.52,1.44s.67.53,1.4.52h.15a8.48,8.48,0,0,0,3.05-.86,8.27,8.27,0,0,0,2.54-1.8l0,0c.48-.56.65-1,.48-1.4S135.25,184.43,134.44,184.47Z"/></g><g class="cls-43"><path class="cls-39" d="M142.7,183.6a16.94,16.94,0,0,0-6.25,1.74,16.18,16.18,0,0,0-5.18,3.7,7.32,7.32,0,0,0-.58.72c-1.41,2-1,3.53-.67,4.25s1.52,2.22,4.5,2.17h.34a17.11,17.11,0,0,0,6.24-1.73,16.52,16.52,0,0,0,5.19-3.71l.09-.11.48-.61c1.41-2,1-3.53.66-4.27S145.9,183.44,142.7,183.6Z"/><path class="cls-44" d="M136.48,185.4a16.13,16.13,0,0,0-5.13,3.66,6,6,0,0,0-.56.71c-1.4,2-1,3.48-.67,4.2a3.88,3.88,0,0,0,3,2l.34,0a7,7,0,0,0,1.06,0h.33a16.44,16.44,0,0,0,6.17-1.71,16,16,0,0,0,5.13-3.67l.1-.11.39-.5.07-.1c1.4-2,1-3.48.66-4.21a4,4,0,0,0-3.41-2.08,9.94,9.94,0,0,0-1.36,0A16.76,16.76,0,0,0,136.48,185.4Z"/><path class="cls-45" d="M136.51,185.46a16.13,16.13,0,0,0-5.07,3.61,8.68,8.68,0,0,0-.56.71c-1.38,1.94-1,3.43-.66,4.14a3.81,3.81,0,0,0,3,2l.33,0a8.7,8.7,0,0,0,1.05,0h.32a16.25,16.25,0,0,0,6.1-1.69,15.63,15.63,0,0,0,5.07-3.63l.1-.11c.14-.16.27-.33.39-.49a.86.86,0,0,1,.07-.1,3.66,3.66,0,0,0-2.72-6.2,8.31,8.31,0,0,0-1.34,0A16.52,16.52,0,0,0,136.51,185.46Z"/><path class="cls-46" d="M136.54,185.52a15.87,15.87,0,0,0-5,3.57c-.21.23-.39.47-.56.69a3.91,3.91,0,0,0-.65,4.1,3.75,3.75,0,0,0,3,2l.33,0a6.77,6.77,0,0,0,1,0H135a16.21,16.21,0,0,0,6-1.67,15.77,15.77,0,0,0,5-3.58l.1-.11.39-.49a.36.36,0,0,1,.07-.1c1.36-1.92,1-3.39.65-4.1a3.89,3.89,0,0,0-3.34-2,8.09,8.09,0,0,0-1.32,0A16.48,16.48,0,0,0,136.54,185.52Z"/><path class="cls-47" d="M136.57,185.58a15.61,15.61,0,0,0-4.95,3.53,6.56,6.56,0,0,0-.55.68,3.86,3.86,0,0,0-.66,4,3.71,3.71,0,0,0,3,1.95l.32,0a8.1,8.1,0,0,0,1,.05H135A16,16,0,0,0,141,194.2a15.56,15.56,0,0,0,5-3.54l.09-.11q.21-.24.39-.48l.06-.1a3.54,3.54,0,0,0-2.65-6,7,7,0,0,0-1.31,0A16.25,16.25,0,0,0,136.57,185.58Z"/><path class="cls-48" d="M136.6,185.64a15.54,15.54,0,0,0-4.89,3.48,7.82,7.82,0,0,0-.55.68,3.79,3.79,0,0,0-.65,4,3.67,3.67,0,0,0,2.92,1.92l.32.05c.31,0,.64,0,1,0h.31a16,16,0,0,0,5.88-1.64,15.31,15.31,0,0,0,4.9-3.5l.09-.11c.14-.16.27-.32.38-.47l.07-.1a3.5,3.5,0,0,0-2.62-5.94,7.79,7.79,0,0,0-1.29,0A16.06,16.06,0,0,0,136.6,185.64Z"/><path class="cls-49" d="M136.63,185.7a15.56,15.56,0,0,0-4.84,3.44,7.76,7.76,0,0,0-.53.67,3.75,3.75,0,0,0-.65,3.93,3.62,3.62,0,0,0,2.88,1.89l.32,0a7.87,7.87,0,0,0,1,0h.31a15.83,15.83,0,0,0,5.8-1.62,15.2,15.2,0,0,0,4.84-3.46.94.94,0,0,0,.1-.1l.37-.47a.36.36,0,0,1,.07-.1,3.44,3.44,0,0,0-2.59-5.85,8.69,8.69,0,0,0-1.27,0A16,16,0,0,0,136.63,185.7Z"/><path class="cls-50" d="M136.66,185.76a15.18,15.18,0,0,0-4.78,3.4c-.19.22-.37.44-.53.66a3.68,3.68,0,0,0-.64,3.87,3.54,3.54,0,0,0,2.85,1.86l.31,0a7.63,7.63,0,0,0,1,0h.31a15.57,15.57,0,0,0,5.73-1.61,14.94,14.94,0,0,0,4.79-3.41l.09-.1.37-.47.06-.08a3.38,3.38,0,0,0-2.55-5.77,8.55,8.55,0,0,0-1.26,0A16,16,0,0,0,136.66,185.76Z"/><path class="cls-51" d="M136.69,185.82a14.93,14.93,0,0,0-4.72,3.36,7.93,7.93,0,0,0-.53.65,3.64,3.64,0,0,0-.64,3.81,3.52,3.52,0,0,0,2.82,1.83l.31,0a6,6,0,0,0,1,0h.3a15.38,15.38,0,0,0,5.66-1.59,14.84,14.84,0,0,0,4.73-3.37l.09-.1A5.19,5.19,0,0,0,146,190a.27.27,0,0,0,.07-.08,3.34,3.34,0,0,0-2.52-5.69,10,10,0,0,0-1.24,0A15.83,15.83,0,0,0,136.69,185.82Z"/><path class="cls-52" d="M136.72,185.88a14.81,14.81,0,0,0-4.66,3.31,7.4,7.4,0,0,0-.52.65,3.58,3.58,0,0,0-.64,3.76,3.48,3.48,0,0,0,2.79,1.8l.3,0a7.34,7.34,0,0,0,1,0h.3a15.15,15.15,0,0,0,5.58-1.57,14.45,14.45,0,0,0,4.67-3.32l.09-.11q.19-.22.36-.45l.07-.08a3.29,3.29,0,0,0-2.49-5.6,8.11,8.11,0,0,0-1.22,0A15.34,15.34,0,0,0,136.72,185.88Z"/><path class="cls-53" d="M136.75,185.94a14.72,14.72,0,0,0-4.61,3.27c-.18.21-.36.42-.51.63a3.52,3.52,0,0,0-.63,3.71,3.41,3.41,0,0,0,2.75,1.77l.3,0a7.18,7.18,0,0,0,.95,0h.29a15,15,0,0,0,5.51-1.55,14.36,14.36,0,0,0,4.62-3.28l.08-.1q.19-.22.36-.45l.06-.08a3.22,3.22,0,0,0-2.45-5.51,6.84,6.84,0,0,0-1.21,0A15.16,15.16,0,0,0,136.75,185.94Z"/><path class="cls-54" d="M136.78,186a14.62,14.62,0,0,0-4.55,3.23c-.18.2-.35.42-.5.62a3.48,3.48,0,0,0-.63,3.66,3.37,3.37,0,0,0,2.71,1.74l.3,0a7,7,0,0,0,.93,0h.29a14.92,14.92,0,0,0,5.44-1.53,14.26,14.26,0,0,0,4.56-3.24l.09-.1c.12-.14.24-.29.35-.44l.06-.08a3.17,3.17,0,0,0-2.42-5.42,6.64,6.64,0,0,0-1.19,0A14.92,14.92,0,0,0,136.78,186Z"/><path class="cls-55" d="M136.81,186.06a14.5,14.5,0,0,0-4.49,3.18c-.18.21-.35.42-.5.62a3.47,3.47,0,0,0-.63,3.6,3.35,3.35,0,0,0,2.69,1.71l.29,0c.28,0,.59,0,.92,0h.29a14.74,14.74,0,0,0,5.36-1.51,14,14,0,0,0,4.5-3.2l.09-.1a4.58,4.58,0,0,0,.34-.43l.06-.08a3.12,3.12,0,0,0-2.38-5.34,7.51,7.51,0,0,0-1.17,0A14.94,14.94,0,0,0,136.81,186.06Z"/><path class="cls-56" d="M136.84,186.12a14.36,14.36,0,0,0-4.43,3.14c-.18.2-.35.41-.5.61a3.4,3.4,0,0,0-.62,3.54,3.26,3.26,0,0,0,2.65,1.68l.29,0a6.64,6.64,0,0,0,.91,0h.28a14.68,14.68,0,0,0,5.29-1.5,14,14,0,0,0,4.45-3.16l.08-.09c.12-.14.24-.29.34-.43l.06-.08a3.07,3.07,0,0,0-2.35-5.25,7.38,7.38,0,0,0-1.16,0A14.7,14.7,0,0,0,136.84,186.12Z"/><path class="cls-57" d="M136.87,186.18a14.15,14.15,0,0,0-4.37,3.1,6.46,6.46,0,0,0-.49.6,3.33,3.33,0,0,0-.62,3.49A3.22,3.22,0,0,0,134,195l.28,0a6.49,6.49,0,0,0,.9,0h.27a14.49,14.49,0,0,0,5.22-1.48,13.94,13.94,0,0,0,4.39-3.11l.08-.1.34-.42.06-.08a3,3,0,0,0-2.32-5.16,7.13,7.13,0,0,0-1.14,0A14.52,14.52,0,0,0,136.87,186.18Z"/><path class="cls-58" d="M136.9,186.24a14.18,14.18,0,0,0-4.32,3.06,6.52,6.52,0,0,0-.48.59,3.27,3.27,0,0,0-.61,3.43,3.14,3.14,0,0,0,2.58,1.62,2.4,2.4,0,0,0,.28,0,6.25,6.25,0,0,0,.88,0h.28a14.16,14.16,0,0,0,5.13-1.46,13.66,13.66,0,0,0,4.34-3.07.39.39,0,0,0,.08-.1c.12-.13.23-.27.34-.41a.22.22,0,0,0,0-.08,3.27,3.27,0,0,0,.61-3.43,3.33,3.33,0,0,0-2.89-1.65,8.25,8.25,0,0,0-1.12,0A14.46,14.46,0,0,0,136.9,186.24Z"/><path class="cls-59" d="M136.93,186.3a13.78,13.78,0,0,0-4.26,3c-.17.2-.33.39-.47.59a3.19,3.19,0,0,0-.61,3.37,3.08,3.08,0,0,0,2.54,1.6l.28,0a8.16,8.16,0,0,0,.87,0h.27a14.18,14.18,0,0,0,5.06-1.44,13.69,13.69,0,0,0,4.29-3l.08-.09c.11-.14.22-.27.32-.41l.06-.08a2.9,2.9,0,0,0-2.25-5,8.08,8.08,0,0,0-1.11,0A14.49,14.49,0,0,0,136.93,186.3Z"/><path class="cls-60" d="M137,186.36a13.68,13.68,0,0,0-4.2,3c-.17.19-.33.38-.47.57a3.18,3.18,0,0,0-.61,3.33,3.07,3.07,0,0,0,2.52,1.56l.27,0a8,8,0,0,0,.86,0h.26a13.74,13.74,0,0,0,5-1.42,13.31,13.31,0,0,0,4.23-3l.08-.09.32-.4.06-.08a3.17,3.17,0,0,0,.59-3.32,3.2,3.2,0,0,0-2.81-1.58,7.81,7.81,0,0,0-1.09,0A14.25,14.25,0,0,0,137,186.36Z"/><path class="cls-61" d="M137,186.42a13.42,13.42,0,0,0-4.14,2.93c-.17.18-.33.38-.47.56a3.11,3.11,0,0,0-.6,3.27,3,3,0,0,0,2.48,1.53l.27,0a5.85,5.85,0,0,0,.85,0h.26a13.56,13.56,0,0,0,4.91-1.4,13.1,13.1,0,0,0,4.17-2.95l.08-.09.32-.39,0-.07A2.79,2.79,0,0,0,143,185a6.39,6.39,0,0,0-1.08,0A14.08,14.08,0,0,0,137,186.42Z"/><path class="cls-62" d="M137,186.48a13.31,13.31,0,0,0-4.08,2.88,7.12,7.12,0,0,0-.46.56,3.07,3.07,0,0,0-.6,3.22,3,3,0,0,0,2.45,1.5l.26,0a5.69,5.69,0,0,0,.83,0h.26a13.32,13.32,0,0,0,4.84-1.38,12.8,12.8,0,0,0,4.11-2.91l.08-.08c.11-.13.22-.26.31-.39l.06-.07a3.07,3.07,0,0,0,.59-3.21,3.12,3.12,0,0,0-2.74-1.53,7.48,7.48,0,0,0-1.06,0A13.83,13.83,0,0,0,137,186.48Z"/><path class="cls-63" d="M137.05,186.54a13.39,13.39,0,0,0-4,2.84c-.16.18-.31.37-.45.55a3,3,0,0,0-.59,3.16,2.88,2.88,0,0,0,2.41,1.47l.26,0a7.24,7.24,0,0,0,.82,0h.25a13.28,13.28,0,0,0,4.77-1.36,12.89,12.89,0,0,0,4.06-2.86l.07-.09c.11-.13.22-.25.31-.38l.06-.07a3,3,0,0,0,.58-3.16,3.07,3.07,0,0,0-2.7-1.49,6,6,0,0,0-1,0A13.65,13.65,0,0,0,137.05,186.54Z"/><path class="cls-64" d="M137.08,186.6a13.13,13.13,0,0,0-4,2.8,7,7,0,0,0-.44.54,3,3,0,0,0-.6,3.1,2.87,2.87,0,0,0,2.38,1.44l.26,0a7.06,7.06,0,0,0,.81,0h.25a13,13,0,0,0,4.69-1.34,12.74,12.74,0,0,0,4-2.82l.08-.09.3-.37,0-.07a3,3,0,0,0,.58-3.1,3,3,0,0,0-2.66-1.46,5.89,5.89,0,0,0-1,0A13.36,13.36,0,0,0,137.08,186.6Z"/><path class="cls-65" d="M137.11,186.66a12.86,12.86,0,0,0-3.91,2.76,5.37,5.37,0,0,0-.44.53,2.92,2.92,0,0,0-.59,3.05,2.84,2.84,0,0,0,2.35,1.41l.25,0a6.88,6.88,0,0,0,.8,0h.24a13.1,13.1,0,0,0,4.62-1.33,12.53,12.53,0,0,0,3.94-2.78l.08-.08.3-.37.05-.07a2.92,2.92,0,0,0,.58-3,3,3,0,0,0-2.63-1.44,6.89,6.89,0,0,0-1,0A13.17,13.17,0,0,0,137.11,186.66Z"/><path class="cls-66" d="M137.14,186.72a12.75,12.75,0,0,0-3.85,2.71,6.85,6.85,0,0,0-.44.53,2.85,2.85,0,0,0-.58,3,2.75,2.75,0,0,0,2.31,1.38l.25,0a6.78,6.78,0,0,0,.79,0h.23a12.86,12.86,0,0,0,4.55-1.31,12.44,12.44,0,0,0,3.89-2.74l.07-.08.29-.36.06-.07a2.89,2.89,0,0,0,.57-3,2.92,2.92,0,0,0-2.59-1.4,8.16,8.16,0,0,0-1,0A13.18,13.18,0,0,0,137.14,186.72Z"/><path class="cls-67" d="M137.17,186.78a12.67,12.67,0,0,0-3.8,2.67q-.23.26-.42.51a2.83,2.83,0,0,0-.58,2.95,2.74,2.74,0,0,0,2.28,1.35l.24,0a6.51,6.51,0,0,0,.77,0h.24a12.9,12.9,0,0,0,4.47-1.29,12.18,12.18,0,0,0,3.83-2.7l.07-.08c.1-.12.2-.23.29-.35l.05-.07a2.81,2.81,0,0,0,.57-2.93,2.84,2.84,0,0,0-2.55-1.37,8,8,0,0,0-1,0A13.23,13.23,0,0,0,137.17,186.78Z"/><path class="cls-68" d="M137.2,186.84a12.4,12.4,0,0,0-3.74,2.63c-.15.17-.29.33-.42.5a2.79,2.79,0,0,0-.58,2.89,2.69,2.69,0,0,0,2.25,1.32l.24,0a6.34,6.34,0,0,0,.76,0h.23a12.65,12.65,0,0,0,4.4-1.27,12.23,12.23,0,0,0,3.77-2.65l.07-.08.29-.35.05-.07a2.74,2.74,0,0,0,.56-2.87,2.77,2.77,0,0,0-2.5-1.34,6.27,6.27,0,0,0-1,0A13,13,0,0,0,137.2,186.84Z"/><path class="cls-69" d="M137.23,186.9a12.18,12.18,0,0,0-3.68,2.59,5.92,5.92,0,0,0-.41.49,2.71,2.71,0,0,0-.58,2.83,2.62,2.62,0,0,0,2.21,1.29l.24,0a6.25,6.25,0,0,0,.75,0H136a12.41,12.41,0,0,0,4.33-1.25,12.14,12.14,0,0,0,3.72-2.61l.07-.08.28-.34.05-.07A2.72,2.72,0,0,0,145,187a2.76,2.76,0,0,0-2.47-1.31,6.08,6.08,0,0,0-1,0A12.8,12.8,0,0,0,137.23,186.9Z"/><path class="cls-70" d="M137.26,187a12.21,12.21,0,0,0-3.62,2.54,5.92,5.92,0,0,0-.41.49,2.66,2.66,0,0,0-.57,2.78,2.58,2.58,0,0,0,2.18,1.26l.23,0a6.08,6.08,0,0,0,.74,0H136a12.18,12.18,0,0,0,4.25-1.23,12,12,0,0,0,3.66-2.57l.07-.08c.09-.11.19-.22.27-.33a.18.18,0,0,0,.05-.07,2.66,2.66,0,0,0,.56-2.76,2.7,2.7,0,0,0-2.43-1.28,6,6,0,0,0-.94,0A12.51,12.51,0,0,0,137.26,187Z"/><path class="cls-71" d="M137.29,187a11.81,11.81,0,0,0-3.56,2.5,5.82,5.82,0,0,0-.41.48,2.59,2.59,0,0,0-.56,2.72A2.52,2.52,0,0,0,134.9,194l.23,0a5.71,5.71,0,0,0,.72,0h.22a12.21,12.21,0,0,0,4.18-1.21,11.66,11.66,0,0,0,3.6-2.53l.07-.07a3.92,3.92,0,0,0,.27-.33l.05-.07a2.59,2.59,0,0,0,.55-2.7,2.66,2.66,0,0,0-2.39-1.25,5.71,5.71,0,0,0-.92,0A12.49,12.49,0,0,0,137.29,187Z"/><path class="cls-72" d="M137.32,187.08a11.86,11.86,0,0,0-3.51,2.46,5.71,5.71,0,0,0-.39.47,2.54,2.54,0,0,0-.57,2.66,2.5,2.5,0,0,0,2.12,1.21h.22a5.53,5.53,0,0,0,.71,0h.21a12,12,0,0,0,4.11-1.19,11.52,11.52,0,0,0,3.55-2.49l.06-.07.27-.32.05-.07a2.56,2.56,0,0,0,.54-2.65,2.6,2.6,0,0,0-2.35-1.22,6.91,6.91,0,0,0-.9,0A12.31,12.31,0,0,0,137.32,187.08Z"/><path class="cls-73" d="M137.35,187.14a11.81,11.81,0,0,0-3.45,2.41l-.39.46a2.53,2.53,0,0,0-.56,2.62A2.43,2.43,0,0,0,135,193.8l.22,0c.22,0,.45,0,.7,0h.21a12,12,0,0,0,4-1.18,11.31,11.31,0,0,0,3.49-2.45l.06-.07c.1-.1.18-.21.27-.31l0-.06a2.53,2.53,0,0,0,.55-2.6,2.57,2.57,0,0,0-2.32-1.19,6.79,6.79,0,0,0-.89,0A12.07,12.07,0,0,0,137.35,187.14Z"/><path class="cls-74" d="M137.38,187.2a11.48,11.48,0,0,0-3.39,2.37,5,5,0,0,0-.38.45,2.47,2.47,0,0,0-.56,2.56,2.39,2.39,0,0,0,2,1.14l.22,0H136s.07,0,.07,0h.13a11.81,11.81,0,0,0,4-1.16,11.07,11.07,0,0,0,3.43-2.4l.07-.07.25-.31.05-.06a2.48,2.48,0,0,0,.54-2.55,2.51,2.51,0,0,0-2.28-1.15,6.38,6.38,0,0,0-.87,0A12.16,12.16,0,0,0,137.38,187.2Z"/><path class="cls-75" d="M137.41,187.26a11.09,11.09,0,0,0-3.33,2.33,5,5,0,0,0-.38.44,2.42,2.42,0,0,0-.55,2.51,2.34,2.34,0,0,0,2,1.11h1.08a11.73,11.73,0,0,0,3.89-1.14,11.28,11.28,0,0,0,3.38-2.36l.06-.07.25-.3.05-.06a2.41,2.41,0,0,0,.53-2.49,2.45,2.45,0,0,0-2.24-1.12,6.09,6.09,0,0,0-.85,0A11.92,11.92,0,0,0,137.41,187.26Z"/><path class="cls-76" d="M137.44,187.32a11.13,11.13,0,0,0-3.27,2.29,4.72,4.72,0,0,0-.37.43,2.37,2.37,0,0,0-.56,2.45,2.3,2.3,0,0,0,2,1.08l.22,0a4.77,4.77,0,0,0,.65,0h.2a11.56,11.56,0,0,0,3.81-1.12,10.89,10.89,0,0,0,3.32-2.32l.06-.07.25-.29,0-.06a2.35,2.35,0,0,0,.53-2.43,2.4,2.4,0,0,0-2.2-1.1,8.1,8.1,0,0,0-.84,0A11.68,11.68,0,0,0,137.44,187.32Z"/><path class="cls-77" d="M137.47,187.39a11,11,0,0,0-3.22,2.23c-.13.14-.25.29-.36.43a2.3,2.3,0,0,0-.55,2.39,2.25,2.25,0,0,0,1.95,1.06h.21a4.62,4.62,0,0,0,.64,0h.19a11.08,11.08,0,0,0,3.74-1.1,10.93,10.93,0,0,0,3.26-2.28l.06-.06.24-.29.05-.06a2.33,2.33,0,0,0,.53-2.38,2.38,2.38,0,0,0-2.17-1.06,5.75,5.75,0,0,0-.82,0A11.23,11.23,0,0,0,137.47,187.39Z"/><path class="cls-78" d="M137.5,187.45a10.61,10.61,0,0,0-3.16,2.19q-.19.21-.36.42a2.27,2.27,0,0,0-.54,2.34,2.2,2.2,0,0,0,1.91,1h.21a4.5,4.5,0,0,0,.63,0h.18a10.9,10.9,0,0,0,3.67-1.08,10.53,10.53,0,0,0,3.2-2.24l.06-.06.24-.28.05-.06a2.26,2.26,0,0,0,.52-2.32,2.31,2.31,0,0,0-2.13-1,5.44,5.44,0,0,0-.8,0A11,11,0,0,0,137.5,187.45Z"/><path class="cls-79" d="M137.53,187.51a10.66,10.66,0,0,0-3.1,2.15,3.31,3.31,0,0,0-.35.41,2.19,2.19,0,0,0-.54,2.28,2.12,2.12,0,0,0,1.87,1l.21,0h.8a10.67,10.67,0,0,0,3.59-1.06,10.45,10.45,0,0,0,3.15-2.2l.06-.06.23-.27,0-.06a2.18,2.18,0,0,0,.52-2.26,2.27,2.27,0,0,0-2.09-1,5.47,5.47,0,0,0-.79,0A11.06,11.06,0,0,0,137.53,187.51Z"/><path class="cls-80" d="M137.56,187.57a10.43,10.43,0,0,0-3,2.1l-.35.4a2.17,2.17,0,0,0-.54,2.23,2.1,2.1,0,0,0,1.85,1h1A10.52,10.52,0,0,0,140,192.2a10.33,10.33,0,0,0,3.09-2.14l.06-.07.23-.27,0-.05a2.15,2.15,0,0,0,.51-2.21,2.2,2.2,0,0,0-2-1,5.15,5.15,0,0,0-.77,0A10.88,10.88,0,0,0,137.56,187.57Z"/><path class="cls-81" d="M137.59,187.63a10.29,10.29,0,0,0-3,2.06,4,4,0,0,0-.34.39,2.1,2.1,0,0,0-.54,2.18,2.07,2.07,0,0,0,1.81.93h.2c.18,0,.38,0,.59,0h.17a10.2,10.2,0,0,0,3.45-1,10.06,10.06,0,0,0,3-2.1L143,190l.22-.27a.1.1,0,0,0,0-.05,2.1,2.1,0,0,0,.52-2.15,2.18,2.18,0,0,0-2-.94,4.89,4.89,0,0,0-.75,0A10.63,10.63,0,0,0,137.59,187.63Z"/><path class="cls-82" d="M137.62,187.69a10.08,10.08,0,0,0-2.93,2c-.12.13-.23.25-.33.38a2,2,0,0,0-.53,2.12,2,2,0,0,0,1.78.9h.19a5.75,5.75,0,0,0,.58,0h.17a10.31,10.31,0,0,0,3.37-1,10,10,0,0,0,3-2.06l0-.06a2.75,2.75,0,0,0,.22-.26l0,0a2.05,2.05,0,0,0,.51-2.09,2.12,2.12,0,0,0-2-.91,6.31,6.31,0,0,0-.74,0A10.68,10.68,0,0,0,137.62,187.69Z"/><path class="cls-83" d="M137.65,187.75a9.94,9.94,0,0,0-2.87,2c-.12.12-.23.25-.33.37a2,2,0,0,0-.52,2.07,2,2,0,0,0,1.74.87h.19a5.43,5.43,0,0,0,.56,0h.17a10.06,10.06,0,0,0,3.3-1,9.7,9.7,0,0,0,2.92-2l.05-.06a2.62,2.62,0,0,0,.22-.25l0-.05a2,2,0,0,0,.5-2c-.21-.44-.82-.85-1.94-.88l-.72,0A10.43,10.43,0,0,0,137.65,187.75Z"/><path class="cls-84" d="M137.68,187.81a9.71,9.71,0,0,0-2.81,1.93,3.52,3.52,0,0,0-.32.37,2,2,0,0,0-.53,2,1.92,1.92,0,0,0,1.71.84h.19a5.24,5.24,0,0,0,.55,0h.16a10.13,10.13,0,0,0,3.23-1,9.49,9.49,0,0,0,2.86-2l.06,0,.21-.25,0,0a2,2,0,0,0,.51-2c-.22-.44-.82-.83-1.91-.85a5.7,5.7,0,0,0-.7,0A10.52,10.52,0,0,0,137.68,187.81Z"/><path class="cls-85" d="M137.71,187.87a9.78,9.78,0,0,0-2.75,1.89c-.12.12-.22.24-.32.36a1.91,1.91,0,0,0-.52,1.95,1.87,1.87,0,0,0,1.68.82H136a3.33,3.33,0,0,0,.54,0h.16a9.9,9.9,0,0,0,3.15-1,9.57,9.57,0,0,0,2.81-1.93l.05-.06.2-.24s0,0,0,0c.65-.84.7-1.52.5-1.93s-.81-.81-1.87-.82a4.16,4.16,0,0,0-.69,0A10.29,10.29,0,0,0,137.71,187.87Z"/><path class="cls-86" d="M137.74,187.93a9.56,9.56,0,0,0-2.7,1.85,3.27,3.27,0,0,0-.3.35c-.66.81-.72,1.49-.52,1.9a1.82,1.82,0,0,0,1.64.78H136l.53,0h.15a9.72,9.72,0,0,0,3.08-.94,9.3,9.3,0,0,0,2.75-1.89l0-.06a2.2,2.2,0,0,0,.2-.23l0,0c.63-.81.69-1.47.49-1.88s-.79-.77-1.83-.79a5.33,5.33,0,0,0-.67,0A9.85,9.85,0,0,0,137.74,187.93Z"/><path class="cls-87" d="M137.78,188a9.39,9.39,0,0,0-2.65,1.8l-.3.34c-.64.79-.71,1.45-.51,1.85s.71.71,1.61.75h.17l.51,0h.15a9.39,9.39,0,0,0,3-.92,9.09,9.09,0,0,0,2.69-1.85l0-.05c.07-.08.14-.15.2-.23l0,0c.61-.78.69-1.43.49-1.82s-.78-.75-1.79-.76a5,5,0,0,0-.65,0A9.46,9.46,0,0,0,137.78,188Z"/><path class="cls-88" d="M137.81,188.05a9.32,9.32,0,0,0-2.59,1.76q-.16.16-.3.33c-.62.76-.7,1.4-.51,1.79a1.74,1.74,0,0,0,1.58.73h.17l.5,0h.15a9.5,9.5,0,0,0,2.93-.9,9.14,9.14,0,0,0,2.64-1.81l0,0,.2-.22,0,0a1.78,1.78,0,0,0,.49-1.77c-.2-.4-.78-.72-1.76-.72a4.88,4.88,0,0,0-.64,0A9.5,9.5,0,0,0,137.81,188.05Z"/><path class="cls-89" d="M137.84,188.11a9,9,0,0,0-2.53,1.72,4.2,4.2,0,0,0-.29.32c-.6.73-.7,1.35-.51,1.74s.69.66,1.54.69h.17a4.1,4.1,0,0,0,.49,0h.14a9.24,9.24,0,0,0,2.86-.88,8.92,8.92,0,0,0,2.58-1.77l.05,0,.18-.21,0,0c.57-.72.66-1.33.48-1.71s-.76-.7-1.72-.69a4.59,4.59,0,0,0-.62,0A9.24,9.24,0,0,0,137.84,188.11Z"/><path class="cls-90" d="M137.87,188.17a8.56,8.56,0,0,0-2.47,1.68,2.81,2.81,0,0,0-.29.31c-.58.7-.69,1.3-.5,1.68s.68.64,1.51.67h.16l.48,0h.13a9.39,9.39,0,0,0,2.79-.87,8.79,8.79,0,0,0,2.52-1.73l.05,0,.18-.21,0,0c.56-.7.66-1.28.48-1.65s-.75-.68-1.68-.67c-.19,0-.39,0-.6,0A9.39,9.39,0,0,0,137.87,188.17Z"/><path class="cls-91" d="M137.9,188.23a8.89,8.89,0,0,0-2.42,1.63,3.74,3.74,0,0,0-.27.31c-.57.67-.69,1.25-.5,1.63s.67.61,1.47.63h.16l.46,0h.14a9.16,9.16,0,0,0,2.71-.85,9,9,0,0,0,2.47-1.68l0-.05.18-.2,0,0c.54-.67.65-1.23.47-1.6s-.74-.64-1.64-.63c-.18,0-.38,0-.59,0A9.16,9.16,0,0,0,137.9,188.23Z"/><path class="cls-92" d="M137.93,188.29a8.61,8.61,0,0,0-2.36,1.59,3.65,3.65,0,0,0-.27.3c-.55.64-.67,1.2-.5,1.57s.66.59,1.45.6h.15a3.4,3.4,0,0,0,.45,0H137a9.3,9.3,0,0,0,2.64-.83,8.48,8.48,0,0,0,2.41-1.64l0-.05.17-.19a.08.08,0,0,0,0,0c.52-.64.64-1.18.47-1.54s-.73-.62-1.61-.6c-.18,0-.37,0-.57,0A9.2,9.2,0,0,0,137.93,188.29Z"/><path class="cls-93" d="M138,188.35a8.33,8.33,0,0,0-2.3,1.55c-.1.09-.18.19-.27.28-.52.63-.66,1.17-.49,1.52s.65.57,1.41.58h.15l.44,0H137a9,9,0,0,0,2.57-.81,8.21,8.21,0,0,0,2.35-1.6l0,0,.17-.19,0,0c.5-.61.64-1.13.47-1.48s-.72-.6-1.56-.58a5.54,5.54,0,0,0-.56,0A8.94,8.94,0,0,0,138,188.35Z"/><path class="cls-94" d="M138,188.41a8.25,8.25,0,0,0-2.24,1.5l-.26.28c-.51.6-.66,1.12-.49,1.47s.64.55,1.38.54h.14l.43,0h.12a8.82,8.82,0,0,0,2.49-.79,8.13,8.13,0,0,0,2.29-1.56l.05,0,.16-.18,0,0c.48-.58.63-1.08.46-1.43s-.71-.57-1.52-.54a5.35,5.35,0,0,0-.55.05A8.72,8.72,0,0,0,138,188.41Z"/><path class="cls-95" d="M138,188.47a8.2,8.2,0,0,0-2.18,1.46,3.25,3.25,0,0,0-.26.27c-.49.57-.65,1.07-.48,1.41s.63.52,1.34.51h.14l.41,0h.12a8.56,8.56,0,0,0,2.42-.77,8.06,8.06,0,0,0,2.24-1.52l0,0,.16-.17,0,0c.46-.56.62-1,.45-1.38s-.69-.54-1.48-.51a3.27,3.27,0,0,0-.53,0A8.56,8.56,0,0,0,138,188.47Z"/><path class="cls-96" d="M140.91,187.72a7.94,7.94,0,0,0-2.86.81,7.32,7.32,0,0,0-2.37,1.68c-.48.54-.65,1-.49,1.35s.63.5,1.31.49h.14a7.71,7.71,0,0,0,2.86-.8,7.43,7.43,0,0,0,2.37-1.68l0,0c.45-.53.62-1,.46-1.32S141.67,187.69,140.91,187.72Z"/></g><path class="cls-97" d="M141.14,190.68a.09.09,0,0,0,.08.08h.32a.09.09,0,0,0,.09-.08l.26-4.63h-.75Z"/><path class="cls-37" d="M141.11,184.67c.07.33-.65.54-.65,1.12a.93.93,0,0,0,0,.23,21.17,21.17,0,0,1-1.31,1.84c-.34.39-.86.16-1.24.51a12.07,12.07,0,0,0-2.29,4.11,8,8,0,0,0,4.34-1,3.06,3.06,0,0,0,1.35-2.43c0-.28,0-.77,0-1.15a2,2,0,0,1,.19-.76,3.65,3.65,0,0,0,.38-1.31C141.93,184.85,141,184.11,141.11,184.67Z"/><path class="cls-98" d="M137.58,163s1.17,18.56,1.17,20.28a12.89,12.89,0,0,1-.82,5.14c-.08.21-.22.74,0,1a2.84,2.84,0,0,0,2.45-.12,2,2,0,0,0,.52-1.25,14.16,14.16,0,0,0,.25-2.15c0-.12,0-.24,0-.36,0-.81,1.84-7.57,1.94-12.53a38,38,0,0,0-1.37-10Z"/><path class="cls-97" d="M134.52,186.86a.09.09,0,0,0,.09.08h.32a.08.08,0,0,0,.08-.08l.26-4.62h-.75Z"/><path class="cls-37" d="M134.49,180.85c.07.34-.65.55-.65,1.13a1.8,1.8,0,0,0,0,.22,17.84,17.84,0,0,1-1.31,1.85c-.34.39-.86.15-1.24.5a12.53,12.53,0,0,0-2.29,4.11,8.12,8.12,0,0,0,4.35-1,3.09,3.09,0,0,0,1.34-2.44c0-.28,0-.77,0-1.14a1.87,1.87,0,0,1,.2-.77,3.79,3.79,0,0,0,.37-1.3C135.31,181,134.37,180.3,134.49,180.85Z"/><path class="cls-98" d="M131,159.13s1.17,18.57,1.17,20.28a12.85,12.85,0,0,1-.82,5.14c-.08.21-.21.75,0,1a2.9,2.9,0,0,0,2.46-.12,2.07,2.07,0,0,0,.52-1.26,15.56,15.56,0,0,0,.25-2.15c0-.12,0-.24,0-.35,0-.81,1.83-7.58,1.93-12.54a37.75,37.75,0,0,0-1.36-10Z"/><path class="cls-37" d="M130.42,146.61l-1.71,14.58c1.13,1,8.55,6.28,17.74,3.95l-2.68-16.56C139.19,149.78,134.72,148.92,130.42,146.61Z"/><path class="cls-99" d="M145.05,129.78c0-4.59-4.85-4.73-4.85-4.73l-3.89-.33a29.32,29.32,0,0,0-3.7,1.2c-.18.1-.3.83-.55,2.1-.93,1.6-2.08,3.81-2.1,5.3,0,1.93,1.23,4.05,1.41,4.84l-1.56,11.22s8.06,5.63,15.05,3.28c0,0-1.68-7.81-1.3-10.44C144.43,136.28,145.05,131.42,145.05,129.78Z"/><path class="cls-42" d="M143,127.22c-1.11-.42-2,1.93-2.3,4.26-.22,1.9.64,10.14,1,11.82L133,146.54l.61,4.37s11.48-3.16,12.26-4.43,1-12.52.17-15.28S144.13,127.63,143,127.22Z"/><path class="cls-96" d="M126,145.84l-2.24-1.36a.7.7,0,0,0-.63,0l-1.81,1.05c-.18.11-.19.27,0,.37l2.24,1.36a.7.7,0,0,0,.63,0l1.81-1C126.13,146.11,126.14,145.94,126,145.84Z"/><path class="cls-100" d="M138.26,145.13l-13.07-7.91a.76.76,0,0,0-.69,0l-9.3,5.39c-.2.11-.21.29,0,.41l13.07,7.91a.76.76,0,0,0,.69,0l9.3-5.39A.22.22,0,0,0,138.26,145.13ZM126,146.21l-1.81,1a.7.7,0,0,1-.63,0l-2.24-1.36c-.17-.1-.16-.26,0-.37l1.81-1.05a.7.7,0,0,1,.63,0l2.24,1.36C126.14,145.94,126.13,146.11,126,146.21Zm5.72,2.2-12.16-7.36,4.87-2.82,12.16,7.36Z"/><path class="cls-96" d="M138.24,145.54l-9.3,5.39-.07,0h0l-.06,0h0l-.08,0h-.26l-.05,0h0l-.1,0L115.18,143l0,0,0,0,0-.05h0s0,0,0,0h0v-.06l0,.66h0v0h0a0,0,0,0,1,0,0v0h0l0,0h0l0,0,0,0h0l13.07,7.91.09,0h.47l0,0h0l.07,0,9.3-5.39c.1-.06.15-.13.15-.2l0-.66A.24.24,0,0,1,138.24,145.54Z"/><polygon class="cls-101" points="119.23 140.88 131.89 148.54 136.96 145.61 124.3 137.95 119.23 140.88"/><path class="cls-97" d="M136.11,145.68l0,0H136l0,0-.57-.34,0,0,.4-.24a.05.05,0,0,0,0-.05v-.16a.05.05,0,0,1,0,0l-.46.27h-.17l-.57-.35s0,0,0,0l.4-.23a.07.07,0,0,0,0-.05v-.17a.09.09,0,0,1,0,.06l-.46.26,0,0h-.1l0,0-.58-.34,0,0,.4-.24a.05.05,0,0,0,0-.05v-.16a.07.07,0,0,1,0,.05l-.46.27h-.17l-.57-.35,0,0,.4-.23a.05.05,0,0,0,0,0v-.16s0,0,0,0l0,0-.46.26,0,0h-.09l0,0-.57-.34,0,0,.4-.23,0-.05v-.17a0,0,0,0,1,0,0,0,0,0,0,1,0,0l-.46.27h-.17l-.57-.35,0,0,.4-.23a.05.05,0,0,0,0-.05v-.16a.09.09,0,0,1,0,0l-.46.26,0,0h-.1l0,0-.57-.34s0,0,0,0l.4-.23a.09.09,0,0,0,0-.05v-.17a.07.07,0,0,1,0,0l-.46.27h-.17l-.57-.35a0,0,0,0,1,0,0l.4-.23a.05.05,0,0,0,0-.05v-.16s0,0,0,.05l-.46.26a.05.05,0,0,1,0,0h-.13l-.57-.35,0,0,.4-.23s0,0,0,0v-.17a.05.05,0,0,1,0,.05l-.46.27,0,0h-.13l-.57-.34,0,0,.39-.24a.05.05,0,0,0,0,0v-.16a.07.07,0,0,1,0,.05l-.46.27h-.17l-.57-.35,0,0,.4-.23s0,0,0,0v-.17a.07.07,0,0,1,0,.06l-.46.26,0,0H127l0,0-.57-.34,0,0h0l.39-.23s0,0,0,0v-.16s0,0,0,0l-.46.27,0,0h-.1l0,0-.57-.34,0,0,.4-.23a.09.09,0,0,0,0-.05v-.17a.05.05,0,0,1,0,0l-.46.27h-.17l-.57-.35h0l.41-.23a.05.05,0,0,0,0,0v-.16s0,0,0,.05l-.46.26,0,0h-.09l0,0-.57-.34,0,0h0a0,0,0,0,1,0,0v.16h0l.57.35h.17l0,0V139h0l.57.34h.17l0,0v.13h0l.25.15h0l-.46.27,0,0h-.13l-1.92-1.16,0,0h0s0,0,0,0v.17h0l.56.34h0l-.46.27h-.17l-.61-.37,0,0h0s0,0,0,0v.16h0l.38.23h0l-1.16.67,0,0h-.09l0,0-.43-.26,0,0h0a0,0,0,0,1,0,0v.17h0v0h0l.38.22,0,0-1.16.67,0,0h-.1l0,0-.43-.26,0,0h0s0,0,0,0V141h0l.43.26,0,0h.13s0,0,0,0l.74-.42V141h0l0,0h0l.65.39h.17l0,0v.13h0l.32.2h.17l.08-.05v.17h0a0,0,0,0,0,0,0h0l.1.06h0l-.46.27,0,0h-.09l0,0-.57-.34,0,0,.4-.23,0-.05v-.17a.05.05,0,0,1,0,0l-.46.27h-.17l-.57-.35s0,0,0,0h0a0,0,0,0,1,0,0v.17h0l0,0h0l.57.34h.17l0,0V142h0l.57.35h.17l0,0v.14h0l.57.35H123l0,0V143h0l.57.35h.17l0,0v.13h0l3.84,2.32,0,0h.14l0,0V146h0l.57.35h.17l.05,0v.13h0l0,0h0l.57.34s0,0,0,0h.15l0,0V147h0l.57.34,0,0h.14l0,0v.13h0l.57.35h.17l0,0V148h0l.44.27h.17l.46-.27a.1.1,0,0,0,0-.05v-.16h.07l.45-.26s0,0,0,0v-.12l.18.11h.17l.45-.27a.05.05,0,0,0,0-.05v-.11l0,0H134l.46-.27a.07.07,0,0,0,0-.05v-.11l0,0h.17l.46-.27a.05.05,0,0,0,0,0v-.16a.07.07,0,0,1,0,0l-.46.27h-.17l-1.25-.76,0,0h0l.39-.23a.1.1,0,0,0,0,0v-.11l.46.28h.17l0,0v.13h0s0,0,0,0h0l.57.35h.19l.44-.26s0,0,0,0v-.12l.3.19h.17l.46-.26s0,0,0-.05v-.16s0,0,0,0Zm-10.63-5.31-.62.36v.16l.22-.12v.14h0l.24.16h0l-.46.27,0,0h-.09l0,0-1.13-.68,0,0h0s0,0,0,0v.16h0v0h0a0,0,0,0,0,0,0h0l.51.31a0,0,0,0,1,0,0l-.46.27,0,0h-.09l0,0-.75-.45,0,0h0l.38-.22s0,0,0-.06v-.1l0,0s0,0,0,0h.12a0,0,0,0,1,0,0h0l.46-.27s0,0,0-.05v-.12l.21.13h.17l.46-.27a.07.07,0,0,0,0-.05v-.11l.5.29,0,0h.15l0,0v.14h0l.08.05Z"/><path class="cls-97" d="M122.49,140.22h0V140l-.69.4,0,0,.62.38h.17l.46-.27h0l-.56-.34Z"/><path class="cls-97" d="M123.37,139.91h0v-.12l0,0h-.15l0,0-.22-.13v.12a.09.09,0,0,1,0,.05l-.4.23,0,0,.61.37h.18l.46-.26v0l-.39-.24Z"/><path class="cls-97" d="M123.81,139.46l0,0-.4.23h0l.61.37,0,0h.09l0,0,.46-.26,0,0-.83-.5Z"/><path class="cls-97" d="M124.91,141.65h0v-.13l0,0h-.17l-.6-.36v.11s0,0,0,0l-.39.23h0l0,0,.57.35h.17l.46-.27h0Z"/><path class="cls-97" d="M125.32,142.76h0v-.13l-.05,0h-.17l-.3-.19v.12a.05.05,0,0,1,0,.05l-.4.23s0,0,0,0l.57.34h.17l.46-.27h0l-.25-.15Z"/><path class="cls-97" d="M126.14,143.25h0v-.12l0,0s0,0,0,0h-.12l0,0-.31-.18V143s0,0,0,.05l-.4.23,0,0,.58.34,0,0h.1l0,0,.45-.26,0,0-.24-.15Z"/><path class="cls-97" d="M127,143.75s0,0,0,0h0v-.13l-.05,0h-.17l-.31-.19v.12a.07.07,0,0,1,0,.05l-.4.23s0,0,0,0l.57.35h.17l.46-.27h0l-.25-.15Z"/><path class="cls-97" d="M127.77,144.24h0v-.13l0,0h-.17l-.31-.18V144l0,.06-.4.23,0,0,.57.34,0,0h.09l0,0,.46-.26,0,0-.25-.15Z"/><path class="cls-97" d="M128.59,144.73h0v0h0v-.13l-.05,0h-.17l-.31-.19v.12s0,0,0,0l-.4.23,0,0,.57.35h.17l.46-.27h0l-.25-.15Z"/><path class="cls-97" d="M129.4,145.23h0v-.13l0,0h-.17l-.31-.18V145s0,0,0,0l-.4.23,0,0,.57.34,0,0h.09l0,0,.46-.26,0,0-.24-.15Z"/><path class="cls-97" d="M130.22,145.72h0v-.13l0,0H130l-.31-.19v.12a.07.07,0,0,1,0,.05l-.4.23s0,0,0,0l.57.35H130l.46-.27h0l-.25-.15Z"/><path class="cls-97" d="M131,146.22h0V146l0,0h-.17l-.3-.19V146a.07.07,0,0,1,0,.06l-.39.23,0,0,.57.34,0,0h.1l0,0,.46-.27h0l-.25-.15Z"/><path class="cls-97" d="M131.87,146.72h0v-.14l-.06,0h-.17l-.31-.19v.12a.05.05,0,0,1,0,.05l-.4.23,0,0,.58.35h.17l.45-.27,0,0-.23-.14Z"/><path class="cls-97" d="M132.76,144.75h0v-.13l0,0h-.17l-.45-.28v.11a.05.05,0,0,1,0,.05l-.39.24,0,0,.57.34,0,0h.1l0,0,.46-.26s0,0,0,0l-.09-.05Z"/><path class="cls-97" d="M131.94,144.26h0v-.13l0,0h-.15l0,0-.46-.27V144a.1.1,0,0,1,0,.05l-.4.23a0,0,0,0,0,0,0l.57.35h.17l.46-.27a0,0,0,0,0,0,0l-.09-.06Z"/><path class="cls-97" d="M131.12,143.77a0,0,0,0,0,0,0h0v-.13l0,0h-.17l-.46-.28v.11s0,0,0,.06l-.4.23,0,0,.57.34,0,0h.09l0,0,.46-.26,0,0-.09,0Z"/><path class="cls-97" d="M130.31,143.27h0v-.14l-.05,0h-.14l0,0-.46-.27V143a.05.05,0,0,1,0,0l-.4.23,0,0,.58.35h.16l.46-.27h0l-.09-.06Z"/><path class="cls-97" d="M129.49,142.78h0v-.13l-.05,0h-.17l-.45-.28v.11a.09.09,0,0,1,0,.06l-.4.23,0,0,.57.34,0,0h.09l0,0,.46-.26v0l-.09-.05Z"/><path class="cls-97" d="M128.67,142.28h0v-.12l-.05,0h-.17l-.46-.28V142a.07.07,0,0,1,0,.05l-.4.23,0,0,.57.35h.17l.46-.27h0l-.1-.06Z"/><path class="cls-97" d="M127.85,141.79h0v-.13l0,0h-.17l-.46-.27v.11s0,0,0,.05l-.4.23,0,0,.58.34,0,0h.1l0,0,.45-.26h0l-.09-.06Z"/><path class="cls-97" d="M127,141.29h0v-.13l-.05,0h-.17l-.45-.28V141a.05.05,0,0,1,0,.05l-.4.23a0,0,0,0,0,0,0l.57.35h.13l0,0,.46-.27h0l-.09-.06Z"/><path class="cls-97" d="M126.22,140.8h0v-.13l0,0H126l-.47-.28v.11a.05.05,0,0,1,0,.05l-.39.23h0l0,0,.57.34,0,0h.09l0,0,.46-.26h0l-.1-.06Z"/><path class="cls-97" d="M125.91,141.45h0v-.13l0,0h-.17l-.3-.18v.11a.05.05,0,0,1,0,.05l-.39.23a0,0,0,0,0,0,0l.57.35h.13l0,0,.46-.26a0,0,0,0,1,0,0l-.25-.15Z"/><path class="cls-97" d="M126.54,142.65h0v-.12l0,0h-.15s0,0,0,0l-.57-.35h0v.11a.05.05,0,0,1,0,.05l-.39.23a0,0,0,0,0,0,0l.57.35h.17l.46-.27h0Z"/><path class="cls-97" d="M127.32,143h-.17l-.58-.35h0v.11s0,0,0,.05l-.4.23,0,0,.57.34,0,0h.09l0,0,.46-.26,0,0h0V143Z"/><path class="cls-97" d="M128.18,143.63h0v-.12l-.05,0H128l0,0-.57-.34h0v.11a.05.05,0,0,1,0,.05l-.4.23,0,0,.57.35h.17l.46-.27,0,0h0Z"/><path class="cls-97" d="M129,144.12V144l-.05,0h-.17l-.57-.35h0v.12s0,0,0,.05l-.39.23,0,0,.57.34,0,0h.1l0,0,.46-.26,0,0h0Z"/><path class="cls-97" d="M129.81,144.62h0v-.12l0,0h-.15l0,0-.57-.34h0v.11a.05.05,0,0,1,0,0l-.4.23,0,0,.57.35h.17l.46-.27,0,0h0Z"/><path class="cls-97" d="M130.63,145.12h0V145l0,0h-.17l-.57-.35h0v.11s0,0,0,.06l-.4.23,0,0,.57.34,0,0h.09l0,0,.46-.26,0,0Z"/><path class="cls-97" d="M131.44,145.61h0v-.13l0,0h-.17l-.57-.34h0v.11a.05.05,0,0,1,0,.05l-.4.23a0,0,0,0,0,0,0l.57.35h.13l0,0,.46-.26,0,0h0Z"/><path class="cls-97" d="M131.63,144.91h0v-.13l0,0h-.18l-.3-.18v.11a.05.05,0,0,1,0,.05l-.4.23,0,0,.57.35h.17l.46-.27h0l-.25-.15Z"/><path class="cls-97" d="M130.81,144.42v0h0v-.13l0,0h-.17l-.3-.19v.12s0,0,0,.05l-.4.23s0,0,0,0l.57.34,0,0h.09l0,0,.46-.26a0,0,0,0,1,0,0l-.25-.15Z"/><path class="cls-97" d="M130,143.92h0v-.13l-.05,0h-.17l-.3-.18v.11a.1.1,0,0,1,0,.05l-.4.23a0,0,0,0,0,0,0l.57.35h.17l.46-.27h0l-.25-.15Z"/><path class="cls-97" d="M129.18,143.42h0v-.13l-.05,0h-.17l-.3-.18v.11s0,0,0,0l-.4.23,0,0,.57.34,0,0h.1l0,0,.46-.26h0l-.25-.15Z"/><path class="cls-97" d="M128.36,142.93h0v-.13l0,0h-.15l0,0-.3-.18v.11a.05.05,0,0,1,0,0l-.4.23,0,0,.57.35h.17l.46-.27h0l-.25-.15Z"/><path class="cls-97" d="M127.54,142.44h0v-.13l0,0h-.17l-.3-.18v.11s0,0,0,.05l-.4.23,0,0,.57.35h.13l0,0,.46-.26h0l-.25-.15Z"/><path class="cls-97" d="M126.73,141.94h0v-.12l0,0h-.14l0,0-.3-.18v.11a.05.05,0,0,1,0,.05l-.4.23,0,0,.57.34,0,0h.09l0,0,.46-.27h0l-.25-.15Z"/><path class="cls-97" d="M132.45,145.4h0v-.12l0,0h-.17l-.3-.19v.12s0,0,0,.05l-.4.23s0,0,0,0l.57.34,0,0h.09l0,0,.46-.27h0l-.25-.16Z"/><path class="cls-97" d="M132.26,146.11h0V146l0,0h-.17l-.57-.35h0v.11a.05.05,0,0,1,0,.05l-.4.24,0,0,.57.34,0,0h.1l0,0,.46-.26,0,0Z"/><path class="cls-97" d="M125.73,142l0,0h-.17l-.57-.35h0v.11s0,0,0,0l-.4.23,0,0,.57.34a.05.05,0,0,0,0,0h.09a.05.05,0,0,0,0,0l.46-.26,0,0h0Z"/><path class="cls-97" d="M126.38,140.06h0v-.14l-.06,0h-.17l-.29-.18v.11s0,0,0,0l-.4.23h0l0,0,.57.35h.17l.46-.27h0l-.24-.15Z"/><path class="cls-97" d="M127.19,140.55h0v-.12l0,0,0,0H127l-.3-.19v.12a.09.09,0,0,1,0,0l-.4.23,0,0,.57.34,0,0h.09l0,0,.46-.26v0l-.25-.14Z"/><path class="cls-97" d="M128,141.05h0v-.13l0,0h-.17l-.3-.18v.11a.05.05,0,0,1,0,0l-.39.23,0,0,.57.35h.17l.46-.27h0l-.25-.15Z"/><path class="cls-97" d="M128.83,141.54h0v-.12l-.05,0h-.14l0,0-.3-.18v.11a.07.07,0,0,1,0,.05l-.4.24,0,0,.57.34,0,0h.09l0,0,.46-.27h0l-.24-.15Z"/><path class="cls-97" d="M129.64,142h0v-.13l-.05,0h-.17l-.3-.18v.11s0,0,0,.05l-.4.23s0,0,0,0l.57.34,0,0h.09l0,0,.46-.26h0l-.25-.15Z"/><path class="cls-97" d="M130.46,142.53h0v-.12l0,0h-.15l0,0-.29-.18v.11a.05.05,0,0,1,0,.05l-.4.23,0,0,.57.35h.17l.46-.27h0l-.25-.15Z"/><path class="cls-97" d="M131.28,143h0v-.13l-.05,0h-.11a0,0,0,0,1,0,0H131l-.3-.18v.11s0,0,0,.05l-.4.23,0,0,.57.34,0,0h.1l0,0,.46-.26h0l-.25-.15Z"/><path class="cls-97" d="M132.09,143.52a0,0,0,0,1,0,0h0v-.12l0,0h-.14l0,0-.3-.18v.11a.07.07,0,0,1,0,0l-.4.24s0,0,0,0l.57.34h.17l.46-.27s0,0,0,0l-.24-.15Z"/><path class="cls-97" d="M132.91,144v0h0v-.13l0,0h-.17l-.3-.18v.11s0,0,0,0l-.4.23,0,0,.57.34,0,0h.1l0,0,.46-.26h0l-.25-.15Z"/><path class="cls-97" d="M133.73,144.51h0v-.13l0,0h-.17l-.3-.18v.11a.05.05,0,0,1,0,.05l-.4.23s0,0,0,0l.57.35h.17l.47-.27h0l-.25-.15Z"/><path class="cls-97" d="M135.36,145.5h0v-.13l0,0h-.15s0,0,0,0l-.3-.18v.11a.05.05,0,0,1,0,.05l-.4.23a0,0,0,0,0,0,0l.57.35h.17l.46-.27h0l-.25-.15Z"/><path class="cls-97" d="M134.55,145l0,0h0v-.13l-.05,0h-.17l-.3-.19v.12s0,0,0,.05l-.4.23,0,0,.57.34,0,0h.09l0,0,.46-.26h0l-.24-.15Z"/><path class="cls-97" d="M133.57,145.25h0v-.13l-.05,0h-.17l-.46-.27v.11s0,0,0,.05l-.4.23,0,0,.57.35h.17l.46-.27h0l-.09-.06Z"/><path class="cls-97" d="M133.28,145.9h0v-.14l-.06,0H133l-.3-.18v.11a.05.05,0,0,1,0,0l-.4.23a0,0,0,0,0,0,0l.57.35H133l.46-.27h0l-.23-.14Z"/><path class="cls-97" d="M133.53,146.17a.05.05,0,0,1,0,.05l-.4.24h0l.7.43,0,0h.1l0,0,.45-.26h0l-.93-.57Z"/><path class="cls-97" d="M133.11,146.64h0v-.13l0,0h-.18l-.57-.34h0v.11a.09.09,0,0,1,0,.05l-.39.23h0l0,0,1.25.75,0,0h.09l0,0,.46-.26v0l-.65-.39Z"/><path class="cls-97" d="M132.12,147a.07.07,0,0,1,0,0l-.4.23,0,0,.57.35,0,0h.09l0,0,.46-.27h0l-.8-.49Z"/><path class="cls-97" d="M132.35,147.82h-.06l0,0-.58-.34h0v.11a.07.07,0,0,1,0,.05l-.4.24h0l.44.27,0,0h.09l0,0,.46-.26a.1.1,0,0,0,0-.05h0Z"/><path class="cls-97" d="M131.66,147.42h0v-.13l0,0h-.17l-.57-.34h0l0,0v.12s0,0,0,.05l-.4.23,0,0,.57.35h.18l.46-.27,0,0Z"/><path class="cls-97" d="M130.85,146.79l0,0h-.17l-.57-.35h0v.11a.09.09,0,0,1,0,.06l-.4.23,0,0,.57.34,0,0h.09l0,0,.46-.27h0Z"/><path class="cls-97" d="M130,146.43h0v-.13l0,0h-.17l-.57-.34h0v.1a.07.07,0,0,1,0,0l-.4.23,0,0,.57.35h.17l.46-.27,0,0h0Z"/><path class="cls-97" d="M129.21,145.94h0v-.13l-.05,0H129l-.57-.35h0v.12s0,0,0,0l-.4.23,0,0,.58.34,0,0h.1l0,0,.46-.27h0Z"/><path class="cls-97" d="M128.4,145.44h0v-.12l-.05,0h-.14l0,0-.57-.34h0v0h0v-.13l0,0h-.17l-.57-.35h0v-.12l0,0h-.17L126,144h0v-.13l0,0h-.17l-.57-.35h0v-.12l0,0h-.14l0,0-.57-.34h0v.11a.1.1,0,0,1,0,0l-.4.24h0l3.84,2.33h.17l.46-.27,0,0h0Z"/><path class="cls-97" d="M124.31,143h0v-.13l0,0h-.17l-.59-.35v.11s0,0,0,0l-.4.23,0,0,.57.35h.13a.05.05,0,0,0,0,0l.46-.26,0,0Z"/><path class="cls-97" d="M123.16,142.29h0v-.14l-.06,0h-.17l-.21-.13v.11a.05.05,0,0,1,0,0l-.4.23h0l0,0,.57.34H123l.46-.27h0l-.33-.2Z"/><path class="cls-97" d="M124.5,142.26h0v-.12l0,0h-.15l0,0-.57-.34h0v-.14l-.06,0h-.17l-.47-.29v.12a.05.05,0,0,1,0,.05l-.38.22a0,0,0,0,0,0,0h0l0,0,.34.2,0,0H123l0,0,.46-.26s0,0,0-.06v.17a.05.05,0,0,1,0,.05l-.39.23h0l0,0,.93.57h.17l.46-.27,0,0-.25-.15Z"/><path class="cls-97" d="M122.68,141.16h0V141l-.07,0h-.19v.11a.07.07,0,0,1,0,.05l-.4.24,0,0,.32.19,0,0h.1l0,0,.46-.26,0,0-.27-.16Z"/><path class="cls-97" d="M121.79,140.62h0v0h0v-.13l0,0s0,0,0,0h-.15l0,0v.11a.07.07,0,0,1,0,.05l-.4.23h0l.65.4h.17l.46-.27h0l-.58-.35Z"/><path class="cls-102" d="M124.58,138.05a.17.17,0,0,0-.17,0l-.46.27s0,.07,0,.1l.57.34a.17.17,0,0,0,.17,0l.46-.26s0-.07,0-.1Z"/><path class="cls-102" d="M125.38,138.54a.17.17,0,0,0-.17,0l-.46.26s0,.08,0,.1l.57.35a.17.17,0,0,0,.17,0l.46-.27s0-.07,0-.1Z"/><path class="cls-102" d="M126.19,139a.17.17,0,0,0-.17,0l-.46.27s0,.07,0,.09l.57.35a.17.17,0,0,0,.17,0l.46-.27s0-.07,0-.09Z"/><path class="cls-102" d="M127,139.53a.17.17,0,0,0-.17,0l-.46.26a.06.06,0,0,0,0,.11l.57.34a.17.17,0,0,0,.17,0l.46-.27a.05.05,0,0,0,0-.1Z"/><path class="cls-102" d="M127.83,140a.25.25,0,0,0-.17,0l-.46.27s0,.07,0,.1l.57.35a.25.25,0,0,0,.17,0l.46-.27s0-.07,0-.1Z"/><path class="cls-102" d="M128.65,140.52a.17.17,0,0,0-.17,0l-.46.26c-.05,0-.05.08,0,.1l.57.35a.17.17,0,0,0,.17,0l.46-.27a.05.05,0,0,0,0-.1Z"/><path class="cls-102" d="M129.47,141a.17.17,0,0,0-.17,0l-.46.27c-.05,0-.05.07,0,.1l.57.34a.17.17,0,0,0,.17,0l.46-.26c.05,0,.05-.07,0-.1Z"/><path class="cls-102" d="M130.28,141.51a.17.17,0,0,0-.17,0l-.45.26s-.06.08,0,.1l.57.35a.17.17,0,0,0,.17,0l.46-.27c.05,0,.05-.07,0-.1Z"/><path class="cls-102" d="M131.1,142a.17.17,0,0,0-.17,0l-.46.27c-.05,0-.05.07,0,.1l.57.34a.17.17,0,0,0,.17,0l.46-.26s.05-.08,0-.1Z"/><path class="cls-102" d="M131.92,142.5a.17.17,0,0,0-.17,0l-.46.26s0,.07,0,.1l.57.35a.17.17,0,0,0,.17,0l.46-.27a.06.06,0,0,0,0-.1Z"/><path class="cls-102" d="M132.74,143a.17.17,0,0,0-.17,0l-.46.27c-.05,0-.05.07,0,.1l.57.34a.17.17,0,0,0,.17,0l.46-.26s0-.08,0-.1Z"/><path class="cls-102" d="M133.55,143.49a.17.17,0,0,0-.17,0l-.46.26s0,.07,0,.1l.57.35a.17.17,0,0,0,.17,0l.46-.27s0-.07,0-.1Z"/><path class="cls-102" d="M134.37,144a.17.17,0,0,0-.17,0l-.46.27a.05.05,0,0,0,0,.1l.57.34a.19.19,0,0,0,.18,0l.46-.26s.05-.08,0-.1Z"/><path class="cls-102" d="M135.19,144.47a.25.25,0,0,0-.17,0l-.46.27c-.05,0-.05.07,0,.1l.57.35a.25.25,0,0,0,.17,0l.46-.27c.05,0,.05-.07,0-.1Z"/><path class="cls-102" d="M136,145a.17.17,0,0,0-.17,0l-.46.27c-.05,0-.05.07,0,.1l.57.34a.17.17,0,0,0,.17,0l.46-.27c.05,0,.05-.07,0-.1Z"/><path class="cls-102" d="M123.87,138.46a.17.17,0,0,0-.17,0l-.46.26a.06.06,0,0,0,0,.11l1.92,1.16a.17.17,0,0,0,.17,0l.46-.27a.05.05,0,0,0,0-.1Z"/><path class="cls-102" d="M126.05,139.78a.17.17,0,0,0-.17,0l-.46.26s0,.08,0,.1l.57.35a.17.17,0,0,0,.17,0l.46-.27s0-.07,0-.1Z"/><path class="cls-102" d="M126.86,140.27a.17.17,0,0,0-.17,0l-.46.27s0,.07,0,.1l.57.34a.17.17,0,0,0,.17,0l.46-.26s0-.08,0-.1Z"/><path class="cls-102" d="M127.68,140.77a.17.17,0,0,0-.17,0l-.46.26s0,.07,0,.1l.57.35a.25.25,0,0,0,.17,0l.46-.27s.05-.07,0-.1Z"/><path class="cls-102" d="M128.5,141.26a.17.17,0,0,0-.17,0l-.46.27a.05.05,0,0,0,0,.1l.57.34a.17.17,0,0,0,.17,0l.46-.27a.05.05,0,0,0,0-.1Z"/><path class="cls-102" d="M129.31,141.75a.25.25,0,0,0-.17,0l-.46.27s-.05.07,0,.1l.57.34a.17.17,0,0,0,.17,0l.46-.26c.05,0,.05-.07,0-.1Z"/><path class="cls-102" d="M130.13,142.25a.17.17,0,0,0-.17,0l-.46.26c-.05,0-.05.08,0,.1l.57.35a.17.17,0,0,0,.17,0l.46-.27s.05-.07,0-.1Z"/><path class="cls-102" d="M131,142.74a.25.25,0,0,0-.17,0l-.46.27s0,.07,0,.1l.57.34a.17.17,0,0,0,.17,0l.46-.26c.05,0,.06-.07,0-.1Z"/><path class="cls-102" d="M131.76,143.24a.15.15,0,0,0-.16,0l-.46.26a.06.06,0,0,0,0,.11l.57.34a.17.17,0,0,0,.17,0l.46-.27a.05.05,0,0,0,0-.1Z"/><path class="cls-102" d="M132.58,143.73a.17.17,0,0,0-.17,0L132,144s0,.07,0,.1l.57.34a.17.17,0,0,0,.17,0l.46-.26s0-.08,0-.1Z"/><path class="cls-102" d="M133.4,144.23a.17.17,0,0,0-.17,0l-.46.26c-.05,0-.05.08,0,.1l.57.35a.17.17,0,0,0,.17,0l.47-.27a.06.06,0,0,0,0-.1Z"/><path class="cls-102" d="M134.22,144.72a.17.17,0,0,0-.17,0l-.46.27c-.05,0-.05.07,0,.1l.57.34a.17.17,0,0,0,.17,0l.46-.26c.05,0,.05-.08,0-.1Z"/><path class="cls-102" d="M135,145.21a.25.25,0,0,0-.17,0l-.46.27c-.05,0-.05.07,0,.1l.57.35a.25.25,0,0,0,.17,0l.46-.27c.05,0,.05-.07,0-.1Z"/><path class="cls-102" d="M123.16,138.87a.17.17,0,0,0-.17,0l-.46.27s0,.07,0,.1l.61.37a.17.17,0,0,0,.17,0l.46-.27s0-.07,0-.1Z"/><path class="cls-102" d="M124,139.39a.2.2,0,0,0-.17,0l-.46.27s0,.07,0,.1l.61.37a.17.17,0,0,0,.17,0l.46-.26s0-.07,0-.1Z"/><path class="cls-102" d="M122.46,139.28a.19.19,0,0,0-.18,0l-1.15.67s0,.07,0,.1l.43.26a.17.17,0,0,0,.17,0l1.16-.67c.05,0,.05-.07,0-.1Z"/><path class="cls-102" d="M123.13,139.69a.17.17,0,0,0-.17,0l-.46.27a.05.05,0,0,0,0,.1l.61.37a.19.19,0,0,0,.18,0l.46-.26s0-.08,0-.11Z"/><path class="cls-102" d="M125.74,140.42a.2.2,0,0,0-.17,0l-.46.27s0,.07,0,.1l.57.34a.17.17,0,0,0,.17,0l.46-.26s0-.07,0-.1Z"/><path class="cls-102" d="M124.91,139.92a.25.25,0,0,0-.17,0l-.7.41-.17.1-.29.17a.05.05,0,0,0,0,.1l1.13.68a.17.17,0,0,0,.17,0l.46-.27a.05.05,0,0,0,0-.1l-.48-.28.62-.36s0-.07,0-.1Z"/><path class="cls-102" d="M126.55,140.92a.17.17,0,0,0-.17,0l-.46.26s0,.08,0,.1l.57.35a.17.17,0,0,0,.17,0l.46-.27s0-.07,0-.1Z"/><path class="cls-102" d="M127.37,141.41a.17.17,0,0,0-.17,0l-.46.27s0,.07,0,.1l.58.34a.17.17,0,0,0,.17,0l.45-.26s.06-.08,0-.1Z"/><path class="cls-102" d="M128.19,141.91a.17.17,0,0,0-.17,0l-.47.26a.06.06,0,0,0,0,.1l.57.35a.17.17,0,0,0,.17,0l.46-.27c.05,0,.05-.07,0-.1Z"/><path class="cls-102" d="M129,142.4a.17.17,0,0,0-.17,0l-.46.27c-.05,0-.05.07,0,.1l.57.34a.17.17,0,0,0,.17,0l.46-.26c.05,0,.05-.08,0-.1Z"/><path class="cls-102" d="M129.82,142.89a.25.25,0,0,0-.17,0l-.46.27c-.05,0-.05.07,0,.1l.58.35a.18.18,0,0,0,.16,0l.46-.27c.05,0,.06-.07,0-.1Z"/><path class="cls-102" d="M130.64,143.39a.17.17,0,0,0-.17,0l-.46.27a.05.05,0,0,0,0,.1l.57.34a.17.17,0,0,0,.17,0l.46-.26a.06.06,0,0,0,0-.11Z"/><path class="cls-102" d="M131.45,143.88a.25.25,0,0,0-.17,0l-.46.27s0,.07,0,.1l.57.35a.25.25,0,0,0,.17,0l.46-.27s0-.07,0-.1Z"/><path class="cls-102" d="M132.27,144.38a.17.17,0,0,0-.17,0l-.46.27s0,.07,0,.1l.57.34a.17.17,0,0,0,.17,0l.46-.26a.06.06,0,0,0,0-.11Z"/><path class="cls-102" d="M133.09,144.87a.25.25,0,0,0-.17,0l-.46.27c-.05,0-.05.07,0,.1l.57.35a.25.25,0,0,0,.17,0l.46-.27s0-.07,0-.1Z"/><path class="cls-102" d="M133.92,145.38a.17.17,0,0,0-.17,0l-.46.26s0,.07,0,.1l1.25.76a.25.25,0,0,0,.17,0l.46-.27c.05,0,.05-.07,0-.1Z"/><path class="cls-102" d="M125.58,141.16a.17.17,0,0,0-.17,0l-.46.27s0,.07,0,.1l.57.35a.2.2,0,0,0,.17,0l.46-.26s0-.08,0-.1Z"/><path class="cls-102" d="M126.4,141.66a.17.17,0,0,0-.17,0l-.46.27a.05.05,0,0,0,0,.1l.57.34a.17.17,0,0,0,.17,0l.46-.27a.05.05,0,0,0,0-.1Z"/><path class="cls-102" d="M127.22,142.15a.23.23,0,0,0-.18,0l-.46.27s0,.07,0,.1l.57.35a.2.2,0,0,0,.17,0l.46-.26s0-.08,0-.1Z"/><path class="cls-102" d="M128,142.92s-.09-.3-.14-.27l-.46.26c-.05,0-.05.08,0,.1l.57.35a.17.17,0,0,0,.17,0l.46-.27c.05,0,.05-.07,0-.1Z"/><path class="cls-102" d="M128.85,143.14a.17.17,0,0,0-.17,0l-.46.27c-.05,0-.05.07,0,.1l.57.34a.17.17,0,0,0,.17,0l.46-.26c.05,0,.05-.07,0-.1Z"/><path class="cls-102" d="M129.67,143.64a.17.17,0,0,0-.17,0l-.46.26s0,.08,0,.1l.57.35a.17.17,0,0,0,.17,0l.46-.27a.05.05,0,0,0,0-.1Z"/><path class="cls-102" d="M130.48,144.13a.17.17,0,0,0-.17,0l-.46.27s0,.07,0,.1l.57.34a.17.17,0,0,0,.17,0l.46-.26s0-.08,0-.1Z"/><path class="cls-102" d="M131.3,144.63a.17.17,0,0,0-.17,0l-.46.26s0,.08,0,.1l.57.35a.17.17,0,0,0,.17,0l.46-.27s0-.07,0-.1Z"/><path class="cls-102" d="M132.12,145.12a.17.17,0,0,0-.17,0l-.46.27a.05.05,0,0,0,0,.1l.57.34a.17.17,0,0,0,.17,0l.46-.27a.05.05,0,0,0,0-.1Z"/><path class="cls-102" d="M132.93,145.62a.17.17,0,0,0-.17,0l-.46.26s-.05.07,0,.1l.57.35a.25.25,0,0,0,.17,0l.46-.27c.05,0,.05-.07,0-.1Z"/><path class="cls-102" d="M133.75,146.11a.17.17,0,0,0-.17,0l-.46.26c-.05,0-.05.08,0,.1l.7.43a.19.19,0,0,0,.18,0l.45-.26c.05,0,.05-.07,0-.1Z"/><path class="cls-102" d="M122.43,140.1a.17.17,0,0,0-.17,0l-.46.26s0,.07,0,.1l.62.38a.25.25,0,0,0,.17,0l.46-.27s0-.07,0-.1Z"/><path class="cls-102" d="M123.32,140.63a.17.17,0,0,0-.17,0l-.46.27s0,.07,0,.1l.75.45a.17.17,0,0,0,.17,0l.46-.27c.05,0,.05-.07,0-.1Z"/><path class="cls-102" d="M124.33,141.24a.17.17,0,0,0-.17,0l-.46.26s0,.08,0,.1l.57.35a.17.17,0,0,0,.17,0l.46-.27s0-.07,0-.1Z"/><path class="cls-102" d="M125.14,141.73a.17.17,0,0,0-.17,0l-.46.27s-.05.07,0,.1l.57.34a.17.17,0,0,0,.17,0l.46-.26c.05,0,.05-.07,0-.1Z"/><path class="cls-102" d="M126,142.23a.17.17,0,0,0-.17,0l-.46.26s0,.08,0,.1l.57.35a.17.17,0,0,0,.17,0l.46-.27a.05.05,0,0,0,0-.1Z"/><path class="cls-102" d="M126.78,142.72a.17.17,0,0,0-.17,0l-.46.27a.05.05,0,0,0,0,.1l.57.34a.17.17,0,0,0,.17,0l.46-.26s0-.08,0-.1Z"/><path class="cls-102" d="M127.59,143.21a.25.25,0,0,0-.17,0l-.46.27s0,.08,0,.1l.57.35a.17.17,0,0,0,.17,0l.46-.27c.05,0,.05-.07,0-.1Z"/><path class="cls-102" d="M128.41,143.71a.17.17,0,0,0-.17,0l-.46.27s0,.07,0,.1l.57.34a.17.17,0,0,0,.17,0l.46-.26s.05-.08,0-.1Z"/><path class="cls-102" d="M129.23,144.21a.17.17,0,0,0-.17,0l-.46.26s0,.07,0,.1l.57.35a.17.17,0,0,0,.17,0l.46-.27s0-.07,0-.1Z"/><path class="cls-102" d="M130.05,144.7a.17.17,0,0,0-.17,0l-.46.27a.05.05,0,0,0,0,.1l.57.34a.17.17,0,0,0,.17,0l.46-.26s0-.08,0-.1Z"/><path class="cls-102" d="M130.86,145.19a.25.25,0,0,0-.17,0l-.46.27s0,.07,0,.1l.57.35a.17.17,0,0,0,.17,0l.46-.26s0-.07,0-.1Z"/><path class="cls-102" d="M131.68,145.69a.17.17,0,0,0-.17,0l-.46.27c-.05,0-.05.07,0,.1l.57.34a.17.17,0,0,0,.17,0l.46-.26s.05-.08,0-.11Z"/><path class="cls-102" d="M132.51,146.19a.17.17,0,0,0-.17,0l-.46.27a.05.05,0,0,0,0,.1l1.25.75a.17.17,0,0,0,.17,0l.46-.26c.05,0,.05-.08,0-.1Z"/><path class="cls-102" d="M121.05,140.1a.17.17,0,0,0-.17,0l-1.17.67s0,.07,0,.1l.43.26a.17.17,0,0,0,.17,0l1.16-.67s0-.08,0-.1Z"/><path class="cls-102" d="M121.71,140.5a.17.17,0,0,0-.17,0l-.46.26s0,.08,0,.1l.65.4a.25.25,0,0,0,.17,0l.46-.27c.05,0,.06-.07,0-.1Z"/><path class="cls-102" d="M122.61,141a.17.17,0,0,0-.17,0l-.46.27s0,.07,0,.1l.32.19a.17.17,0,0,0,.17,0l.46-.26s0-.08,0-.1Z"/><path class="cls-102" d="M123.21,141.4a.17.17,0,0,0-.17,0l-.46.27s0,.07,0,.1l.34.2a.17.17,0,0,0,.17,0l.46-.26s0-.08,0-.1Z"/><path class="cls-102" d="M123.8,141.76a.17.17,0,0,0-.17,0l-.46.27s0,.07,0,.1l.93.57a.25.25,0,0,0,.17,0l.46-.27s0-.07,0-.1Z"/><path class="cls-102" d="M125,142.48a.17.17,0,0,0-.17,0l-.46.26s0,.08,0,.11l.57.34a.17.17,0,0,0,.17,0l.46-.27s0-.07,0-.1Z"/><path class="cls-102" d="M125.8,143a.17.17,0,0,0-.17,0l-.46.27s0,.07,0,.1l.58.34a.17.17,0,0,0,.17,0l.45-.26s.06-.08,0-.1Z"/><path class="cls-102" d="M126.62,143.47a.17.17,0,0,0-.17,0l-.46.26s0,.07,0,.1l.57.35a.17.17,0,0,0,.17,0l.46-.27s0-.07,0-.1Z"/><path class="cls-102" d="M127.43,144a.17.17,0,0,0-.17,0l-.46.27a.05.05,0,0,0,0,.1l.57.34a.17.17,0,0,0,.17,0l.46-.26c.05,0,.05-.08,0-.1Z"/><path class="cls-102" d="M128.25,144.46a.17.17,0,0,0-.17,0l-.46.26c-.05,0-.05.08,0,.1l.57.35a.17.17,0,0,0,.17,0l.46-.27c.05,0,.05-.07,0-.1Z"/><path class="cls-102" d="M129.07,145a.17.17,0,0,0-.17,0l-.46.27a.05.05,0,0,0,0,.1l.57.34a.17.17,0,0,0,.17,0l.46-.26a.06.06,0,0,0,0-.11Z"/><path class="cls-102" d="M129.89,145.44a.23.23,0,0,0-.18,0l-.46.26s-.05.07,0,.1l.57.35a.17.17,0,0,0,.17,0l.46-.27c.05,0,.05-.07,0-.1Z"/><path class="cls-102" d="M130.7,145.94a.17.17,0,0,0-.17,0l-.46.27s0,.07,0,.1l.57.34a.17.17,0,0,0,.17,0l.46-.27s0-.07,0-.1Z"/><path class="cls-102" d="M131.52,146.43a.25.25,0,0,0-.17,0l-.46.27s0,.07,0,.1l.58.35a.25.25,0,0,0,.17,0l.45-.27s0-.07,0-.1Z"/><path class="cls-102" d="M132.34,146.93a.19.19,0,0,0-.18,0l-.46.26s0,.08,0,.1l.57.35a.17.17,0,0,0,.17,0l.46-.27s0-.07,0-.1Z"/><path class="cls-102" d="M121.27,141.06a.25.25,0,0,0-.17,0l-.46.27s0,.07,0,.1l.57.35a.17.17,0,0,0,.17,0l.46-.27s0-.07,0-.1Z"/><path class="cls-102" d="M122.09,141.56a.17.17,0,0,0-.17,0l-.46.27a.05.05,0,0,0,0,.1l.57.34a.17.17,0,0,0,.17,0l.46-.27a.05.05,0,0,0,0-.1Z"/><path class="cls-102" d="M122.91,142.06a.17.17,0,0,0-.17,0l-.46.26a.06.06,0,0,0,0,.11l.57.34a.17.17,0,0,0,.17,0l.46-.27a.05.05,0,0,0,0-.1Z"/><path class="cls-102" d="M123.73,142.55a.17.17,0,0,0-.17,0l-.46.27s0,.07,0,.1l.57.35a.2.2,0,0,0,.17,0l.46-.26s0-.07,0-.1Z"/><path class="cls-102" d="M124.54,143.05a.17.17,0,0,0-.17,0l-.46.26s0,.08,0,.1l3.84,2.33a.17.17,0,0,0,.17,0l.46-.27c.05,0,.05-.07,0-.1Z"/><path class="cls-102" d="M128.63,145.52a.17.17,0,0,0-.17,0l-.46.27a.05.05,0,0,0,0,.1l.58.34a.17.17,0,0,0,.17,0l.46-.27a.05.05,0,0,0,0-.1Z"/><path class="cls-102" d="M129.45,146a.17.17,0,0,0-.17,0l-.46.26s0,.07,0,.1l.57.35a.2.2,0,0,0,.17,0l.46-.27c.05,0,.05-.07,0-.1Z"/><path class="cls-102" d="M130.26,146.51a.17.17,0,0,0-.17,0l-.46.27s0,.07,0,.1l.57.34a.17.17,0,0,0,.17,0l.46-.27s0-.07,0-.09Z"/><path class="cls-102" d="M131.08,147a.25.25,0,0,0-.17,0l-.46.27s0,.07,0,.1l.57.35a.28.28,0,0,0,.18,0l.46-.27s0-.07,0-.1Z"/><path class="cls-102" d="M131.9,147.5a.17.17,0,0,0-.17,0l-.46.26c-.05,0-.05.08,0,.1l.44.27a.17.17,0,0,0,.17,0l.46-.26s0-.08,0-.1Z"/><g class="cls-1"><g class="cls-1"><path class="cls-103" d="M125.45,136.11a.45.45,0,0,0,.13.11l.56-.33-.13-.11Z"/><path class="cls-104" d="M125.4,136.07l0,0,.56-.33,0-.05Z"/><path class="cls-105" d="M125.37,136l0,0,.57-.34,0,0Z"/><path class="cls-106" d="M125.35,136l0,0,.57-.33,0,0Z"/><path class="cls-107" d="M125.32,136l0,0,.56-.33,0,0Z"/><path class="cls-108" d="M125.3,135.92l0,0,.57-.33,0,0Z"/><path class="cls-109" d="M125.29,135.88v0l.57-.34s0,0,0,0Z"/><path class="cls-110" d="M125.27,135.85s0,0,0,0l.56-.33v0Z"/><path class="cls-111" d="M125.26,135.81a.06.06,0,0,0,0,0l.57-.33,0,0Z"/><path class="cls-112" d="M125.24,135.77l0,0,.56-.33v0Z"/><path class="cls-113" d="M125.23,135.73s0,0,0,0l.57-.33s0,0,0,0Z"/><path class="cls-114" d="M125.22,135.69v0l.57-.33a.06.06,0,0,1,0,0Z"/><path class="cls-115" d="M125.21,135.65a.06.06,0,0,0,0,0l.57-.33a.07.07,0,0,1,0-.05Z"/><path class="cls-116" d="M125.2,135.59s0,0,0,.06l.57-.34a.09.09,0,0,1,0-.05Z"/><path class="cls-117" d="M125.2,135.51v.08l.57-.33v-.08Z"/></g></g><polygon class="cls-118" points="125.2 135.51 125.77 135.18 126.11 126.73 125.54 127.06 125.2 135.51"/><polygon class="cls-119" points="125.58 136.22 137.8 143.57 138.37 143.24 126.14 135.89 125.58 136.22"/><g class="cls-1"><g class="cls-1"><path class="cls-117" d="M132,129.93a.09.09,0,0,0,0,.08v0l.57-.33v0a.09.09,0,0,1,0-.08Z"/></g></g><polygon class="cls-120" points="125.95 126.83 138.18 134.18 138.75 133.85 126.52 126.5 125.95 126.83"/><g class="cls-1"><g class="cls-1"><path class="cls-117" d="M132,129.93a.09.09,0,0,0,0,.08v0l.57-.33v0a.09.09,0,0,1,0-.08Z"/></g></g><g class="cls-1"><g class="cls-1"><polygon class="cls-112" points="132.17 130.25 132.17 130.25 132.74 129.92 132.74 129.92 132.17 130.25"/><polygon class="cls-111" points="132.16 130.25 132.17 130.25 132.74 129.92 132.73 129.92 132.16 130.25"/><polygon class="cls-110" points="132.16 130.25 132.16 130.25 132.73 129.92 132.72 129.92 132.16 130.25"/><polygon class="cls-109" points="132.15 130.26 132.16 130.25 132.72 129.92 132.72 129.93 132.15 130.26"/><polygon class="cls-108" points="132.14 130.26 132.15 130.26 132.72 129.93 132.71 129.93 132.14 130.26"/><polygon class="cls-107" points="132.13 130.26 132.14 130.26 132.71 129.93 132.7 129.93 132.13 130.26"/><path class="cls-106" d="M132.12,130.26h0l.57-.33h0Z"/><polygon class="cls-105" points="132.11 130.25 132.12 130.26 132.69 129.93 132.68 129.92 132.11 130.25"/><path class="cls-104" d="M132.1,130.25h0l.57-.33h0Z"/><path class="cls-103" d="M132.61,129.87l-.57.34,0,0h0l.56-.33h0A.08.08,0,0,1,132.61,129.87Z"/><path class="cls-104" d="M132,130.19l0,0,.57-.34h0Z"/><path class="cls-105" d="M132,130.18h0l.57-.33h0Z"/><path class="cls-106" d="M132,130.16v0l.57-.33v0Z"/><path class="cls-107" d="M132,130.15h0l.57-.33h0Z"/><path class="cls-108" d="M132,130.14h0l.57-.33h0Z"/><path class="cls-109" d="M132,130.13h0l.57-.33h0Z"/><path class="cls-110" d="M132,130.12h0l.57-.33h0Z"/><path class="cls-111" d="M132,130.11h0l.57-.33h0Z"/><path class="cls-112" d="M132,130.1h0l.57-.33h0Z"/><path class="cls-113" d="M132,130.09h0l.57-.33v0Z"/><path class="cls-114" d="M132,130.07v0l.57-.34h0Z"/><path class="cls-115" d="M132,130.06h0l.56-.33h0Z"/><path class="cls-116" d="M132,130v0l.57-.33v0Z"/><path class="cls-117" d="M132,129.93a.09.09,0,0,0,0,.08v0l.57-.33v0a.09.09,0,0,1,0-.08Z"/></g></g><g class="cls-1"><g class="cls-1"><path class="cls-121" d="M132.07,129.93h0l.57-.33h0Z"/><path class="cls-122" d="M132.06,129.93h0l.57-.33h0Z"/><polygon class="cls-123" points="132.05 129.92 132.06 129.93 132.63 129.59 132.62 129.59 132.05 129.92"/><polygon class="cls-124" points="132.04 129.92 132.05 129.92 132.62 129.59 132.61 129.59 132.04 129.92"/><polygon class="cls-125" points="132.03 129.92 132.04 129.92 132.61 129.59 132.6 129.59 132.03 129.92"/><polygon class="cls-126" points="132.02 129.92 132.03 129.92 132.6 129.59 132.59 129.59 132.02 129.92"/><polygon class="cls-127" points="132.01 129.92 132.02 129.92 132.59 129.59 132.58 129.59 132.01 129.92"/><polygon class="cls-128" points="132.01 129.93 132.01 129.92 132.58 129.59 132.58 129.59 132.01 129.93"/><polygon class="cls-129" points="132 129.93 132.01 129.93 132.58 129.59 132.57 129.6 132 129.93"/><polygon class="cls-130" points="132.57 129.6 132.57 129.6 132.4 129.69 132.57 129.6"/><polygon class="cls-130" points="132 129.93 132.4 129.69 132 129.93 132 129.93"/></g></g><path class="cls-102" d="M132,130a.29.29,0,0,0,.12.23c.07,0,.13,0,.13-.08a.27.27,0,0,0-.12-.22C132,129.9,132,129.93,132,130Z"/><g class="cls-1"><g class="cls-1"><path class="cls-131" d="M132.21,130.14v0a.1.1,0,0,1,0,.09l.57-.33a.13.13,0,0,0,0-.09v0Z"/><path class="cls-132" d="M132.21,130.12v0l.57-.33v0Z"/><path class="cls-133" d="M132.2,130.11h0l.57-.33v0Z"/><path class="cls-134" d="M132.2,130.09v0l.57-.34h0Z"/><path class="cls-135" d="M132.2,130.08h0l.57-.33h0Z"/><path class="cls-130" d="M132.19,130.07h0l.57-.33h0Z"/><path class="cls-129" d="M132.19,130.06h0l.57-.33h0Z"/><path class="cls-128" d="M132.18,130v0l.57-.33v0Z"/><path class="cls-127" d="M132.18,130h0l.57-.33h0Z"/><path class="cls-126" d="M132.17,130h0l.57-.33h0Z"/><path class="cls-125" d="M132.16,130h0l.57-.33h0Z"/><path class="cls-124" d="M132.16,130h0l.57-.33h0Z"/><path class="cls-123" d="M132.15,130h0l.57-.33h0Z"/><path class="cls-122" d="M132.13,130l0,0,.57-.33,0,0Z"/><path class="cls-121" d="M132.09,129.94l0,0,.57-.33s0,0,0,0Z"/></g></g><g class="cls-1"><g class="cls-1"><path class="cls-136" d="M138.56,134.81v.08l.57-.33v-.08Z"/><path class="cls-137" d="M138.55,134.76a.11.11,0,0,0,0,.05l.57-.33a.13.13,0,0,1,0-.06Z"/><path class="cls-138" d="M138.54,134.71a.43.43,0,0,1,0,0l.57-.34v0Z"/><path class="cls-139" d="M138.53,134.67s0,0,0,0l.57-.33s0,0,0,0Z"/><path class="cls-140" d="M138.52,134.63a.08.08,0,0,0,0,0l.57-.34a0,0,0,0,1,0,0Z"/><path class="cls-141" d="M138.5,134.59l0,0,.57-.33s0,0,0,0Z"/><path class="cls-142" d="M138.49,134.55s0,0,0,0l.57-.33v0Z"/><path class="cls-143" d="M138.47,134.52l0,0,.57-.33,0,0Z"/><path class="cls-144" d="M138.45,134.48l0,0,.57-.33,0,0Z"/><path class="cls-145" d="M138.43,134.45l0,0,.57-.33,0,0Z"/><path class="cls-146" d="M138.41,134.41l0,0,.57-.33a.05.05,0,0,0,0,0Z"/><path class="cls-147" d="M138.39,134.38l0,0,.57-.33,0,0Z"/><path class="cls-148" d="M138.36,134.33l0,0L139,134l0,0Z"/><path class="cls-149" d="M138.31,134.29l.05,0,.56-.33s0,0,0,0Z"/><path class="cls-150" d="M138.18,134.18a.69.69,0,0,1,.13.11l.57-.33a.45.45,0,0,0-.13-.11Z"/></g></g><path class="cls-39" d="M138.68,133.63l-13.16-7.92c-.19-.11-.34,0-.35.21l-.43,10.68a.74.74,0,0,0,.32.61l13.16,7.91c.19.12.34,0,.35-.2l.43-10.68A.72.72,0,0,0,138.68,133.63Zm-6.6-3.39A.29.29,0,0,1,132,130c0-.08.06-.11.13-.07a.27.27,0,0,1,.12.22C132.21,130.25,132.15,130.28,132.08,130.24Z"/><path class="cls-102" d="M138.18,134.18,126,126.83c-.21-.13-.4,0-.41.23l-.34,8.45a.87.87,0,0,0,.38.71l12.22,7.35c.22.14.41,0,.42-.23l.34-8.45A.87.87,0,0,0,138.18,134.18Z"/><path class="cls-96" d="M139.56,133.79v0h0v0l0,0h0s0,0,0,0,0-.05,0-.06h0s0-.05,0-.06h0v0l0-.05h0l0,0,0,0-.06-.05-13.16-7.91-.06,0s-.08,0-.08,0h-.08s0,0,0,0h0l-.57.33,0,0h.12l.07,0,13.16,7.92.06,0,0,0,.05,0h0s0,0,.05.07h0l0,.07h0a.94.94,0,0,1,0,.09h0s0,.05,0,.08h0a.19.19,0,0,1,0,.07v.1l-.43,10.68a.25.25,0,0,1-.11.23l.57-.34a.22.22,0,0,0,.11-.22l.43-10.68v-.12Z"/><path class="cls-98" d="M135.36,122.19l1,3.71c-.43,1.72-1.48,4.78-1.48,4.78S140,128,140,126.11a20.14,20.14,0,0,0-.69-4.39Z"/><path class="cls-98" d="M132.93,118.79a8.56,8.56,0,0,0,1.55,5.73c.77.87,2.51,0,2.51,0l2.61-1.93.29-1,.49-3.77-6.09-3.28A9.09,9.09,0,0,0,132.93,118.79Z"/><path class="cls-37" d="M142.78,119.23c.58-2.67-.83-4.66-2.44-6.15a4.41,4.41,0,0,0-4.85-.71c-1.29.71-1.29,1-1.29,1a1.12,1.12,0,0,0-1.3.32,6.73,6.73,0,0,0-1.41,5,5.48,5.48,0,0,0,2,4c-1.56-5.66.77-7.72.77-7.72a7.17,7.17,0,0,0,.91,2.44c1.59,2.48,5.45,1.6,4.87,3s-2.62,2.93-1.1,6.18c2.19,4.66.7,10.6.7,10.6s5.36-2.64,5.36-8a6.71,6.71,0,0,0-1.42-4.16C142.89,124.2,142.2,121.91,142.78,119.23Z"/><path class="cls-151" d="M134.5,146.78c-.22.1-.22.1-.49.42-.47.58-1.45.8-1.6,1.57-.12.58-.12.8.59,1s2.43-.52,2.54-1.38-.06-1.14-.34-1.44A.57.57,0,0,0,134.5,146.78Z"/><path class="cls-151" d="M119.76,139.08a1.81,1.81,0,0,0-.49.41c-.51.52-1.37.89-1.67,1.48s-.27.61.28.59a3.83,3.83,0,0,0,2.41-1.55c.28-.65.19-.81,0-1S120,138.92,119.76,139.08Z"/></g></g></g></svg>
