<svg xmlns="http://www.w3.org/2000/svg" xmlns:xlink="http://www.w3.org/1999/xlink" viewBox="0 0 300 258"><defs><style>.cls-1,.cls-7{fill:none;}.cls-14,.cls-16,.cls-2{fill:#0d0d59;}.cls-2,.cls-3,.cls-4,.cls-5,.cls-6,.cls-7{clip-rule:evenodd;}.cls-19,.cls-21,.cls-3{fill:#9498c5;}.cls-22,.cls-24,.cls-4{fill:#d9ff83;}.cls-10,.cls-12,.cls-5{fill:#e5e6f1;}.cls-29,.cls-31,.cls-6{fill:#0101ff;}.cls-8{isolation:isolate;}.cls-9{clip-path:url(#clip-path);}.cls-10,.cls-14,.cls-19,.cls-22,.cls-29{fill-rule:evenodd;}.cls-11{clip-path:url(#clip-path-2);}.cls-13{clip-path:url(#clip-path-3);}.cls-15{clip-path:url(#clip-path-4);}.cls-17{clip-path:url(#clip-path-5);}.cls-18{clip-path:url(#clip-path-6);}.cls-20{clip-path:url(#clip-path-7);}.cls-23{clip-path:url(#clip-path-8);}.cls-25{clip-path:url(#clip-path-9);}.cls-26{clip-path:url(#clip-path-10);}.cls-27{clip-path:url(#clip-path-11);}.cls-28{clip-path:url(#clip-path-12);}.cls-30{clip-path:url(#clip-path-13);}.cls-32{clip-path:url(#clip-path-14);}.cls-33{clip-path:url(#clip-path-15);}.cls-34{clip-path:url(#clip-path-16);}.cls-35{clip-path:url(#clip-path-17);}.cls-36{clip-path:url(#clip-path-18);}.cls-37{clip-path:url(#clip-path-19);}.cls-38{clip-path:url(#clip-path-20);}.cls-39{clip-path:url(#clip-path-21);}.cls-40{clip-path:url(#clip-path-22);}.cls-41{fill:#eef0f8;}.cls-42{fill:url(#Gradiente_sem_nome_24);}.cls-43{fill:#fff;}.cls-44{fill:#f2f2f2;}.cls-45{fill:#b5b7d5;}.cls-46{fill:#36365c;}.cls-47{opacity:0.7;}.cls-48,.cls-49,.cls-50,.cls-51,.cls-52,.cls-53,.cls-54,.cls-55,.cls-56,.cls-57,.cls-58,.cls-59,.cls-60,.cls-61,.cls-62,.cls-63,.cls-64,.cls-65,.cls-66,.cls-67,.cls-68,.cls-69,.cls-70,.cls-71,.cls-72,.cls-73,.cls-74,.cls-75,.cls-76,.cls-77,.cls-78,.cls-79,.cls-80,.cls-81,.cls-82,.cls-83,.cls-84,.cls-85,.cls-86,.cls-87,.cls-88,.cls-89{fill:#3c5185;}.cls-100,.cls-48{opacity:0;}.cls-101,.cls-49{opacity:0.02;}.cls-102,.cls-50{opacity:0.05;}.cls-103,.cls-51{opacity:0.07;}.cls-104,.cls-52{opacity:0.1;}.cls-105,.cls-53{opacity:0.12;}.cls-106,.cls-54{opacity:0.15;}.cls-107,.cls-55{opacity:0.17;}.cls-108,.cls-56{opacity:0.2;}.cls-109,.cls-57{opacity:0.22;}.cls-110,.cls-58{opacity:0.24;}.cls-59{opacity:0.27;}.cls-60{opacity:0.29;}.cls-61{opacity:0.32;}.cls-62{opacity:0.34;}.cls-63{opacity:0.37;}.cls-64{opacity:0.39;}.cls-65{opacity:0.41;}.cls-66{opacity:0.44;}.cls-111,.cls-67{opacity:0.46;}.cls-112,.cls-68{opacity:0.49;}.cls-113,.cls-69{opacity:0.51;}.cls-114,.cls-70{opacity:0.54;}.cls-115,.cls-71{opacity:0.56;}.cls-116,.cls-72{opacity:0.59;}.cls-117,.cls-73{opacity:0.61;}.cls-118,.cls-74{opacity:0.63;}.cls-119,.cls-75{opacity:0.66;}.cls-120,.cls-76{opacity:0.68;}.cls-121,.cls-77{opacity:0.71;}.cls-122,.cls-78{opacity:0.73;}.cls-123,.cls-79{opacity:0.76;}.cls-124,.cls-80{opacity:0.78;}.cls-81{opacity:0.8;}.cls-82{opacity:0.83;}.cls-83{opacity:0.85;}.cls-84{opacity:0.88;}.cls-85{opacity:0.9;}.cls-86{opacity:0.93;}.cls-87{opacity:0.95;}.cls-88{opacity:0.98;}.cls-90{fill:url(#linear-gradient);}.cls-91{fill:#edf3fa;}.cls-92{fill:url(#linear-gradient-2);}.cls-93{fill:#d1e1f2;}.cls-94{fill:url(#linear-gradient-3);}.cls-95{fill:url(#linear-gradient-4);}.cls-96{fill:#ff3e7d;}.cls-97{fill:#c9e0f5;}.cls-98{fill:#a5cbef;}.cls-99{fill:#f6f8fb;}.cls-100{fill:#d3daed;}.cls-101{fill:#d4d8e7;}.cls-102{fill:#d5d7e1;}.cls-103{fill:#d6d5dc;}.cls-104{fill:#d7d4d6;}.cls-105{fill:#d8d2d0;}.cls-106{fill:#d9d0ca;}.cls-107{fill:#dbcfc5;}.cls-108{fill:#dccdbf;}.cls-109{fill:#ddccb9;}.cls-110{fill:#decab3;}.cls-111{fill:#e7bb7f;}.cls-112{fill:#e8ba79;}.cls-113{fill:#eab874;}.cls-114{fill:#ebb76e;}.cls-115{fill:#ecb568;}.cls-116{fill:#edb362;}.cls-117{fill:#eeb25c;}.cls-118{fill:#efb057;}.cls-119{fill:#f0af51;}.cls-120{fill:#f1ad4b;}.cls-121{fill:#f2ab45;}.cls-122{fill:#f3aa40;}.cls-123{fill:#f4a83a;}.cls-124{fill:#f5a634;}.cls-125{fill:url(#linear-gradient-5);}.cls-126{fill:url(#Gradiente_sem_nome_47);}.cls-127{opacity:0.78;mix-blend-mode:multiply;}.cls-128{fill:#fefefe;}.cls-129{fill:#fdfdfd;}.cls-130{fill:#fcfcfc;}.cls-131{fill:#fbfbfb;}.cls-132{fill:#fafafb;}.cls-133{fill:#f9f9fa;}.cls-134{fill:#f8f8f9;}.cls-135{fill:#f7f7f8;}.cls-136{fill:#f6f6f7;}.cls-137{fill:#f5f5f6;}.cls-138{fill:#f4f4f5;}.cls-139{fill:#f3f3f4;}.cls-140{fill:#f2f2f3;}.cls-141{fill:#f1f2f3;}.cls-142{fill:#f0f1f2;}.cls-143{fill:#eff0f1;}.cls-144{fill:#eeeff0;}.cls-145{fill:#edeeef;}.cls-146{fill:#ecedee;}.cls-147{fill:#ebeced;}.cls-148{fill:#eaebec;}.cls-149{fill:#e9eaeb;}.cls-150{fill:#e8e9eb;}.cls-151{fill:#e7e8ea;}.cls-152{fill:#e6e7e9;}.cls-153{fill:#e5e6e8;}.cls-154{fill:#e5e5e7;}.cls-155{fill:#e4e4e6;}.cls-156{fill:#e3e3e5;}.cls-157{fill:#e2e2e4;}.cls-158{fill:#e1e1e4;}.cls-159{fill:#e0e0e3;}.cls-160{fill:#dfdfe2;}.cls-161{fill:#dedee1;}.cls-162{fill:#dddde0;}.cls-163{fill:#dcdcdf;}.cls-164{fill:#dbdbde;}.cls-165{fill:#dadadd;}.cls-166{fill:#d9d9dc;}.cls-167{fill:#d8d9dc;}.cls-168{fill:#d7d8db;}.cls-169{fill:#d6d7da;}.cls-170{fill:#d5d6d9;}.cls-171{fill:#d4d5d8;}.cls-172{fill:#d3d4d7;}.cls-173{fill:#d2d3d6;}.cls-174{fill:#d1d2d5;}.cls-175{fill:#d0d1d4;}.cls-176{fill:#cfd0d4;}.cls-177{fill:#cecfd3;}.cls-178{fill:#cdced2;}.cls-179{fill:#cccdd1;}.cls-180{fill:#cbccd0;}.cls-181{fill:#f8376f;}.cls-182{fill:#fb5d89;}.cls-183{fill:#48486a;}</style><clipPath id="clip-path"><rect class="cls-1" x="356.47" y="-204.22" width="70.79" height="189.68"/></clipPath><clipPath id="clip-path-2"><path class="cls-5" d="M421.14-156.69c0-4.55-2.79-9.88-6.2-11.85l-54.4-31.41c-3.41-2-6.2.14-6.2,4.69v12l66.8,38.56Z"/></clipPath><clipPath id="clip-path-3"><path class="cls-5" d="M354.34-58.17c0,4.54,2.79,9.88,6.2,11.85l54.4,31.4c3.41,2,6.2-.14,6.2-4.69V-31.56l-66.8-38.57Z"/></clipPath><clipPath id="clip-path-4"><path class="cls-2" d="M396.34-168.24l-17.2-9.94a1.64,1.64,0,0,1-.7-1.32c0-.51.31-.74.7-.52l17.2,9.93a1.66,1.66,0,0,1,.7,1.33c0,.5-.31.74-.7.52"/></clipPath><clipPath id="clip-path-5"><path class="cls-2" d="M374.65-180.18a2.72,2.72,0,0,1-1.13-2.16c0-.83.51-1.22,1.13-.86a2.72,2.72,0,0,1,1.13,2.16c0,.83-.51,1.22-1.13.86"/></clipPath><clipPath id="clip-path-6"><polygon class="cls-2" points="411.19 -150.49 392.64 -161.19 380.66 -168.11 354.34 -183.3 354.34 -122.53 354.34 -94.86 354.34 -70.13 362.18 -65.6 421.14 -31.56 421.14 -144.74 411.19 -150.49"/></clipPath><clipPath id="clip-path-7"><path class="cls-3" d="M370.3-147.64l-8.76-5.05a3.12,3.12,0,0,1-1.29-2.48v-11.67c0-.95.58-1.39,1.29-1l8.76,5a3.14,3.14,0,0,1,1.29,2.48v11.67c0,1-.58,1.39-1.29,1"/></clipPath><clipPath id="clip-path-8"><path class="cls-4" d="M384.84-139.24l-8.75-5a3.13,3.13,0,0,1-1.3-2.48v-11.67c0-.95.59-1.39,1.3-1l8.75,5a3.1,3.1,0,0,1,1.3,2.48v11.67c0,.95-.58,1.39-1.3,1"/></clipPath><clipPath id="clip-path-9"><path class="cls-3" d="M399.39-130.84l-8.75-5a3.12,3.12,0,0,1-1.3-2.48V-150c0-1,.58-1.39,1.3-1l8.75,5.05a3.13,3.13,0,0,1,1.3,2.48v11.67c0,.95-.59,1.39-1.3,1"/></clipPath><clipPath id="clip-path-10"><path class="cls-3" d="M413.94-122.44l-8.76-5a3.14,3.14,0,0,1-1.29-2.48v-11.67c0-1,.58-1.39,1.29-1l8.76,5.05a3.12,3.12,0,0,1,1.29,2.48v11.67c0,1-.58,1.39-1.29,1"/></clipPath><clipPath id="clip-path-11"><path class="cls-3" d="M370.3-126.31l-8.76-5.05a3.14,3.14,0,0,1-1.29-2.48v-11.67c0-1,.58-1.39,1.29-1l8.76,5.05a3.12,3.12,0,0,1,1.29,2.48v11.67c0,1-.58,1.39-1.29,1"/></clipPath><clipPath id="clip-path-12"><path class="cls-3" d="M384.84-117.91,376.09-123a3.11,3.11,0,0,1-1.3-2.47v-11.67c0-.95.59-1.4,1.3-1l8.75,5.05a3.1,3.1,0,0,1,1.3,2.48v11.67c0,1-.58,1.39-1.3,1"/></clipPath><clipPath id="clip-path-13"><path class="cls-6" d="M399.39-109.51l-8.75-5.06a3.09,3.09,0,0,1-1.3-2.47v-11.68c0-.95.58-1.39,1.3-1l8.75,5.06a3.12,3.12,0,0,1,1.3,2.48v11.67c0,.95-.59,1.39-1.3,1"/></clipPath><clipPath id="clip-path-14"><path class="cls-3" d="M413.94-101.11l-8.76-5.06a3.11,3.11,0,0,1-1.29-2.48v-11.67c0-1,.58-1.39,1.29-1l8.76,5.06a3.1,3.1,0,0,1,1.29,2.47v11.68c0,1-.58,1.39-1.29,1"/></clipPath><clipPath id="clip-path-15"><path class="cls-3" d="M370.3-105,361.54-110a3.11,3.11,0,0,1-1.29-2.48v-11.67c0-1,.58-1.39,1.29-1l8.76,5.06a3.1,3.1,0,0,1,1.29,2.47V-106c0,.95-.58,1.39-1.29,1"/></clipPath><clipPath id="clip-path-16"><path class="cls-3" d="M384.84-96.59l-8.75-5a3.13,3.13,0,0,1-1.3-2.48v-11.67c0-.95.59-1.39,1.3-1l8.75,5.06a3.09,3.09,0,0,1,1.3,2.47v11.67c0,.95-.58,1.4-1.3,1"/></clipPath><clipPath id="clip-path-17"><path class="cls-6" d="M399.39-88.19l-8.75-5a3.1,3.1,0,0,1-1.3-2.48v-11.67c0-1,.58-1.39,1.3-1l8.75,5.05a3.15,3.15,0,0,1,1.3,2.48v11.67c0,1-.59,1.39-1.3,1"/></clipPath><clipPath id="clip-path-18"><path class="cls-7" d="M413.94-79.79l-8.76-5a3.12,3.12,0,0,1-1.29-2.48V-99c0-1,.58-1.39,1.29-1l8.76,5a3.14,3.14,0,0,1,1.29,2.48v11.67c0,1-.58,1.39-1.29,1"/></clipPath><clipPath id="clip-path-19"><path class="cls-3" d="M370.3-70.12l-8.76-5a3.12,3.12,0,0,1-1.29-2.48V-89.32c0-1,.58-1.39,1.29-1l8.76,5a3.12,3.12,0,0,1,1.29,2.48V-71.1c0,.95-.58,1.39-1.29,1"/></clipPath><clipPath id="clip-path-20"><path class="cls-3" d="M384.84-61.72l-8.75-5a3.15,3.15,0,0,1-1.3-2.48V-80.92c0-1,.59-1.39,1.3-1l8.75,5.05a3.1,3.1,0,0,1,1.3,2.48V-62.7c0,1-.58,1.39-1.3,1"/></clipPath><clipPath id="clip-path-21"><path class="cls-7" d="M399.39-53.32l-8.75-5.06a3.09,3.09,0,0,1-1.3-2.47V-72.52c0-1,.58-1.4,1.3-1l8.75,5a3.13,3.13,0,0,1,1.3,2.48V-54.3c0,.95-.59,1.39-1.3,1"/></clipPath><clipPath id="clip-path-22"><path class="cls-7" d="M413.94-44.92,405.18-50a3.1,3.1,0,0,1-1.29-2.47V-64.12c0-1,.58-1.4,1.29-1l8.76,5a3.12,3.12,0,0,1,1.29,2.48V-45.9c0,.95-.58,1.39-1.29,1"/></clipPath><linearGradient id="Gradiente_sem_nome_24" x1="61.1" y1="97.15" x2="221.41" y2="97.15" gradientUnits="userSpaceOnUse"><stop offset="0" stop-color="#d3daed"/><stop offset="1" stop-color="#d1e1f2"/></linearGradient><linearGradient id="linear-gradient" x1="45.62" y1="137.93" x2="94.3" y2="137.93" gradientUnits="userSpaceOnUse"><stop offset="0" stop-color="#fff"/><stop offset="0.4" stop-color="#d5e7f8"/><stop offset="0.79" stop-color="#b2d3f1"/><stop offset="1" stop-color="#a5cbef"/></linearGradient><linearGradient id="linear-gradient-2" x1="13.51" y1="167.63" x2="92.97" y2="167.63" gradientUnits="userSpaceOnUse"><stop offset="0" stop-color="#a5cbef"/><stop offset="0.21" stop-color="#b2d3f1"/><stop offset="0.6" stop-color="#d5e7f8"/><stop offset="1" stop-color="#fff"/></linearGradient><linearGradient id="linear-gradient-3" x1="-497.68" y1="137.93" x2="-448.99" y2="137.93" gradientTransform="matrix(-1, 0, 0, 1, -261.11, 0)" xlink:href="#linear-gradient"/><linearGradient id="linear-gradient-4" x1="-529.79" y1="167.63" x2="-450.33" y2="167.63" gradientTransform="matrix(-1, 0, 0, 1, -261.11, 0)" xlink:href="#linear-gradient-2"/><linearGradient id="linear-gradient-5" x1="119.36" y1="170.04" x2="162.23" y2="170.04" gradientUnits="userSpaceOnUse"><stop offset="0" stop-color="#d3daed"/><stop offset="1" stop-color="#99a7d8"/></linearGradient><linearGradient id="Gradiente_sem_nome_47" x1="119.36" y1="192.45" x2="162.23" y2="192.45" gradientUnits="userSpaceOnUse"><stop offset="0.01" stop-color="#b3b3b3"/><stop offset="0.6" stop-color="#b5b5b5"/><stop offset="0.81" stop-color="#bcbcbc"/><stop offset="0.96" stop-color="#c7c7c7"/><stop offset="1" stop-color="#ccc"/></linearGradient></defs><title>forgot-password</title><g class="cls-8"><g id="Camada_1" data-name="Camada 1"><path class="cls-10" d="M421.14-156.69c0-4.55-2.79-9.88-6.2-11.85l-54.4-31.41c-3.41-2-6.2.14-6.2,4.69v12l66.8,38.56Z"/><g class="cls-11"><rect class="cls-12" x="91.97" y="-302.15" width="622.46" height="466.84"/></g><path class="cls-10" d="M354.34-58.17c0,4.54,2.79,9.88,6.2,11.85l54.4,31.4c3.41,2,6.2-.14,6.2-4.69V-31.56l-66.8-38.57Z"/><g class="cls-13"><rect class="cls-12" x="91.97" y="-302.15" width="622.46" height="466.84"/></g><path class="cls-14" d="M396.34-168.24l-17.2-9.94a1.64,1.64,0,0,1-.7-1.32c0-.51.31-.74.7-.52l17.2,9.93a1.66,1.66,0,0,1,.7,1.33c0,.5-.31.74-.7.52"/><g class="cls-15"><rect class="cls-16" x="91.97" y="-302.15" width="622.46" height="466.84"/></g><path class="cls-14" d="M374.65-180.18a2.72,2.72,0,0,1-1.13-2.16c0-.83.51-1.22,1.13-.86a2.72,2.72,0,0,1,1.13,2.16c0,.83-.51,1.22-1.13.86"/><g class="cls-17"><rect class="cls-16" x="91.97" y="-302.15" width="622.46" height="466.84"/></g><polygon class="cls-14" points="411.19 -150.49 392.64 -161.19 380.66 -168.11 354.34 -183.3 354.34 -122.53 354.34 -94.86 354.34 -70.13 362.18 -65.6 421.14 -31.56 421.14 -144.74 411.19 -150.49"/><g class="cls-18"><rect class="cls-16" x="91.97" y="-302.15" width="622.46" height="466.84"/></g><path class="cls-19" d="M370.3-147.64l-8.76-5.05a3.12,3.12,0,0,1-1.29-2.48v-11.67c0-.95.58-1.39,1.29-1l8.76,5a3.14,3.14,0,0,1,1.29,2.48v11.67c0,1-.58,1.39-1.29,1"/><g class="cls-20"><rect class="cls-21" x="91.97" y="-302.15" width="622.46" height="466.84"/></g><path class="cls-22" d="M384.84-139.24l-8.75-5a3.13,3.13,0,0,1-1.3-2.48v-11.67c0-.95.59-1.39,1.3-1l8.75,5a3.1,3.1,0,0,1,1.3,2.48v11.67c0,.95-.58,1.39-1.3,1"/><g class="cls-23"><rect class="cls-24" x="91.97" y="-302.15" width="622.46" height="466.84"/></g><path class="cls-19" d="M399.39-130.84l-8.75-5a3.12,3.12,0,0,1-1.3-2.48V-150c0-1,.58-1.39,1.3-1l8.75,5.05a3.13,3.13,0,0,1,1.3,2.48v11.67c0,.95-.59,1.39-1.3,1"/><g class="cls-25"><rect class="cls-21" x="91.97" y="-302.15" width="622.46" height="466.84"/></g><path class="cls-19" d="M413.94-122.44l-8.76-5a3.14,3.14,0,0,1-1.29-2.48v-11.67c0-1,.58-1.39,1.29-1l8.76,5.05a3.12,3.12,0,0,1,1.29,2.48v11.67c0,1-.58,1.39-1.29,1"/><g class="cls-26"><rect class="cls-21" x="91.97" y="-302.15" width="622.46" height="466.84"/></g><path class="cls-19" d="M370.3-126.31l-8.76-5.05a3.14,3.14,0,0,1-1.29-2.48v-11.67c0-1,.58-1.39,1.29-1l8.76,5.05a3.12,3.12,0,0,1,1.29,2.48v11.67c0,1-.58,1.39-1.29,1"/><g class="cls-27"><rect class="cls-21" x="91.97" y="-302.15" width="622.46" height="466.84"/></g><path class="cls-19" d="M384.84-117.91,376.09-123a3.11,3.11,0,0,1-1.3-2.47v-11.67c0-.95.59-1.4,1.3-1l8.75,5.05a3.1,3.1,0,0,1,1.3,2.48v11.67c0,1-.58,1.39-1.3,1"/><g class="cls-28"><rect class="cls-21" x="91.97" y="-302.15" width="622.46" height="466.84"/></g><path class="cls-29" d="M399.39-109.51l-8.75-5.06a3.09,3.09,0,0,1-1.3-2.47v-11.68c0-.95.58-1.39,1.3-1l8.75,5.06a3.12,3.12,0,0,1,1.3,2.48v11.67c0,.95-.59,1.39-1.3,1"/><g class="cls-30"><rect class="cls-31" x="91.97" y="-302.15" width="622.46" height="466.84"/></g><path class="cls-19" d="M413.94-101.11l-8.76-5.06a3.11,3.11,0,0,1-1.29-2.48v-11.67c0-1,.58-1.39,1.29-1l8.76,5.06a3.1,3.1,0,0,1,1.29,2.47v11.68c0,1-.58,1.39-1.29,1"/><g class="cls-32"><rect class="cls-21" x="91.97" y="-302.15" width="622.46" height="466.84"/></g><path class="cls-19" d="M370.3-105,361.54-110a3.11,3.11,0,0,1-1.29-2.48v-11.67c0-1,.58-1.39,1.29-1l8.76,5.06a3.1,3.1,0,0,1,1.29,2.47V-106c0,.95-.58,1.39-1.29,1"/><g class="cls-33"><rect class="cls-21" x="91.97" y="-302.15" width="622.46" height="466.84"/></g><path class="cls-19" d="M384.84-96.59l-8.75-5a3.13,3.13,0,0,1-1.3-2.48v-11.67c0-.95.59-1.39,1.3-1l8.75,5.06a3.09,3.09,0,0,1,1.3,2.47v11.67c0,.95-.58,1.4-1.3,1"/><g class="cls-34"><rect class="cls-21" x="91.97" y="-302.15" width="622.46" height="466.84"/></g><path class="cls-29" d="M399.39-88.19l-8.75-5a3.1,3.1,0,0,1-1.3-2.48v-11.67c0-1,.58-1.39,1.3-1l8.75,5.05a3.15,3.15,0,0,1,1.3,2.48v11.67c0,1-.59,1.39-1.3,1"/><g class="cls-35"><rect class="cls-31" x="91.97" y="-302.15" width="622.46" height="466.84"/></g><path class="cls-19" d="M370.3-70.12l-8.76-5a3.12,3.12,0,0,1-1.29-2.48V-89.32c0-1,.58-1.39,1.29-1l8.76,5a3.12,3.12,0,0,1,1.29,2.48V-71.1c0,.95-.58,1.39-1.29,1"/><g class="cls-37"><rect class="cls-21" x="91.97" y="-302.15" width="622.46" height="466.84"/></g><path class="cls-19" d="M384.84-61.72l-8.75-5a3.15,3.15,0,0,1-1.3-2.48V-80.92c0-1,.59-1.39,1.3-1l8.75,5.05a3.1,3.1,0,0,1,1.3,2.48V-62.7c0,1-.58,1.39-1.3,1"/><g class="cls-38"><rect class="cls-21" x="91.97" y="-302.15" width="622.46" height="466.84"/></g><path class="cls-41" d="M288.73,143.11c0,42.39-21.94,66.2-66.16,85-19.92,8.47-78.9,17.22-103.13,17.22-48.49,0-37.68-26.23-63.1-55.59-15.46-17.86-41.9-24.67-41.9-47.92,0-61.49,63.22-111.33,141.2-111.33,31,0,50.46,42.18,73.76,55.57C264.65,106.31,288.73,106.1,288.73,143.11Z"/><path class="cls-42" d="M138,50.89,61.1,87.44V97.92A1.7,1.7,0,0,0,62,99.4l76.08,44a6.44,6.44,0,0,0,6.44,0l76-43.93a2,2,0,0,0,1-1.68V87.44L144.47,50.89A6.44,6.44,0,0,0,138,50.89Z"/><path class="cls-43" d="M138,41.19,62.69,84.69a3.18,3.18,0,0,0,0,5.51L138,133.7a6.44,6.44,0,0,0,6.44,0l75.35-43.5a3.18,3.18,0,0,0,0-5.51l-75.35-43.5A6.44,6.44,0,0,0,138,41.19Z"/><path class="cls-44" d="M138.53,53,84.78,84a2.27,2.27,0,0,0,0,3.93l53.75,31a4.59,4.59,0,0,0,4.59,0l53.74-31a2.27,2.27,0,0,0,0-3.93L143.12,53A4.59,4.59,0,0,0,138.53,53Z"/><path class="cls-45" d="M196.86,85.4l-53.74,31a4.59,4.59,0,0,1-4.59,0l-53.75-31a2.23,2.23,0,0,1-.73-.7,2.26,2.26,0,0,0,.73,3.23l53.75,31a4.59,4.59,0,0,0,4.59,0l53.74-31a2.26,2.26,0,0,0,.73-3.23A2.14,2.14,0,0,1,196.86,85.4Z"/><path class="cls-46" d="M85.49,93.46a1,1,0,0,1-.95-.94v-.9a3.41,3.41,0,0,1,1.7-2.94l.88-.51a.95.95,0,1,1,.94,1.64l-.87.5a1.52,1.52,0,0,0-.76,1.31v.9A.94.94,0,0,1,85.49,93.46Z"/><path class="cls-46" d="M91.52,96.84a.94.94,0,0,1-.94-.94V95a3.41,3.41,0,0,1,1.69-2.94l.88-.51a.95.95,0,0,1,.95,1.64l-.88.5A1.51,1.51,0,0,0,92.46,95v.9A.94.94,0,0,1,91.52,96.84Z"/><path class="cls-46" d="M97.37,100.22a.94.94,0,0,1-.94-.94v-.9a3.39,3.39,0,0,1,1.7-2.94l.88-.51a.94.94,0,1,1,.94,1.63l-.88.51a1.52,1.52,0,0,0-.75,1.31v.9A.94.94,0,0,1,97.37,100.22Z"/><path class="cls-46" d="M103.11,103.6a.94.94,0,0,1-.94-.94v-.9a3.39,3.39,0,0,1,1.7-2.94l.88-.51a.94.94,0,0,1,.94,1.63l-.88.51a1.51,1.51,0,0,0-.76,1.31v.9A.94.94,0,0,1,103.11,103.6Z"/><path class="cls-46" d="M109.08,107a.94.94,0,0,1-.94-.94v-.9a3.39,3.39,0,0,1,1.7-2.94l.88-.51a.94.94,0,1,1,.94,1.63l-.87.51a1.51,1.51,0,0,0-.76,1.31v.9A.94.94,0,0,1,109.08,107Z"/><path class="cls-46" d="M115.06,110.36a1,1,0,0,1-1-1v-.89a3.41,3.41,0,0,1,1.7-2.94l.88-.51a.94.94,0,1,1,1,1.63l-.88.51a1.51,1.51,0,0,0-.76,1.31v.89A.94.94,0,0,1,115.06,110.36Z"/><path class="cls-46" d="M121,113.74a.94.94,0,0,1-.94-.95v-.89a3.39,3.39,0,0,1,1.7-2.94l.88-.51a.94.94,0,0,1,.94,1.63l-.88.51a1.51,1.51,0,0,0-.76,1.31v.89A.94.94,0,0,1,121,113.74Z"/><path class="cls-46" d="M127,117.12a.94.94,0,0,1-.94-1v-.89a3.39,3.39,0,0,1,1.7-2.94l.88-.51a.94.94,0,1,1,.94,1.63l-.88.51a1.52,1.52,0,0,0-.75,1.31v.89A.94.94,0,0,1,127,117.12Z"/><path class="cls-46" d="M133,120.5a1,1,0,0,1-.95-1v-.89a3.41,3.41,0,0,1,1.7-2.94l.88-.51a.94.94,0,1,1,.94,1.63l-.87.51a1.51,1.51,0,0,0-.76,1.31v.89A1,1,0,0,1,133,120.5Z"/><path class="cls-46" d="M197,93.46a1,1,0,0,0,1-.94v-.9a3.41,3.41,0,0,0-1.7-2.94l-.88-.51a.95.95,0,0,0-.94,1.64l.87.5a1.52,1.52,0,0,1,.76,1.31v.9A.94.94,0,0,0,197,93.46Z"/><path class="cls-46" d="M190.92,96.84a.94.94,0,0,0,.94-.94V95a3.39,3.39,0,0,0-1.7-2.94l-.87-.51a.95.95,0,0,0-.95,1.64l.88.5A1.51,1.51,0,0,1,190,95v.9A.94.94,0,0,0,190.92,96.84Z"/><path class="cls-46" d="M185.07,100.22a.94.94,0,0,0,.94-.94v-.9a3.39,3.39,0,0,0-1.7-2.94l-.88-.51a.94.94,0,1,0-.94,1.63l.88.51a1.52,1.52,0,0,1,.75,1.31v.9A.94.94,0,0,0,185.07,100.22Z"/><path class="cls-46" d="M179.33,103.6a.94.94,0,0,0,.94-.94v-.9a3.39,3.39,0,0,0-1.7-2.94l-.88-.51a.94.94,0,0,0-.94,1.63l.88.51a1.51,1.51,0,0,1,.76,1.31v.9A.94.94,0,0,0,179.33,103.6Z"/><path class="cls-46" d="M173.35,107a.94.94,0,0,0,1-.94v-.9a3.39,3.39,0,0,0-1.7-2.94l-.88-.51a.94.94,0,1,0-.94,1.63l.87.51a1.51,1.51,0,0,1,.76,1.31v.9A.94.94,0,0,0,173.35,107Z"/><path class="cls-46" d="M167.38,110.36a.94.94,0,0,0,.94-1v-.89a3.41,3.41,0,0,0-1.69-2.94l-.88-.51a.94.94,0,1,0-.95,1.63l.88.51a1.51,1.51,0,0,1,.76,1.31v.89A.94.94,0,0,0,167.38,110.36Z"/><path class="cls-46" d="M161.41,113.74a.94.94,0,0,0,.94-.95v-.89a3.39,3.39,0,0,0-1.7-2.94l-.88-.51a.94.94,0,0,0-.94,1.63l.88.51a1.51,1.51,0,0,1,.76,1.31v.89A.94.94,0,0,0,161.41,113.74Z"/><path class="cls-46" d="M155.44,117.12a.94.94,0,0,0,.94-1v-.89a3.39,3.39,0,0,0-1.7-2.94l-.88-.51a.94.94,0,1,0-.94,1.63l.88.51a1.52,1.52,0,0,1,.75,1.31v.89A.94.94,0,0,0,155.44,117.12Z"/><path class="cls-46" d="M149.46,120.5a1,1,0,0,0,.95-1v-.89a3.41,3.41,0,0,0-1.7-2.94l-.88-.51a.94.94,0,1,0-.94,1.63l.87.51a1.51,1.51,0,0,1,.76,1.31v.89A1,1,0,0,0,149.46,120.5Z"/><path class="cls-46" d="M59.08,144.62a.83.83,0,0,1-.41-1.55l31.44-17.73a7.89,7.89,0,0,0,4-6.86v-4.26a.83.83,0,0,1,.83-.83.84.84,0,0,1,.84.83v4.26a9.56,9.56,0,0,1-4.86,8.31L59.49,144.52A.86.86,0,0,1,59.08,144.62Z"/><path class="cls-46" d="M64.26,147.65a.84.84,0,0,1-.41-1.56l31.44-17.73a7.86,7.86,0,0,0,4-6.86v-4.25a.84.84,0,0,1,.83-.84.85.85,0,0,1,.84.84v4.25a9.55,9.55,0,0,1-4.86,8.31L64.67,147.54A.87.87,0,0,1,64.26,147.65Z"/><g class="cls-47"><path class="cls-48" d="M42.4,145.36,11.77,162.87a1,1,0,0,0,0,1.73l47.69,27.53a4,4,0,0,0,3.94,0L94,174.63a1,1,0,0,0,0-1.72L46.33,145.37A4,4,0,0,0,42.4,145.36Z"/><path class="cls-49" d="M42.43,145.39,11.89,162.85a1,1,0,0,0,0,1.72L59.43,192a3.92,3.92,0,0,0,3.93,0l30.53-17.45a1,1,0,0,0,0-1.72L46.35,145.4A4,4,0,0,0,42.43,145.39Z"/><path class="cls-50" d="M42.46,145.42,12,162.82a1,1,0,0,0,0,1.72l47.4,27.36a3.93,3.93,0,0,0,3.91,0l30.44-17.4a1,1,0,0,0,0-1.72l-47.4-27.36A3.93,3.93,0,0,0,42.46,145.42Z"/><path class="cls-51" d="M42.49,145.45,12.14,162.8a1,1,0,0,0,0,1.71l47.25,27.28a3.93,3.93,0,0,0,3.9,0l30.35-17.35a1,1,0,0,0,0-1.71L46.39,145.46A3.91,3.91,0,0,0,42.49,145.45Z"/><path class="cls-52" d="M42.52,145.48,12.27,162.77a1,1,0,0,0,0,1.71l47.11,27.19a3.89,3.89,0,0,0,3.89,0l30.25-17.29a1,1,0,0,0,0-1.71L46.41,145.49A3.89,3.89,0,0,0,42.52,145.48Z"/><path class="cls-53" d="M42.56,145.51,12.39,162.75a1,1,0,0,0,0,1.7l47,27.11a3.92,3.92,0,0,0,3.88,0l30.16-17.24a1,1,0,0,0,0-1.7l-47-27.11A3.85,3.85,0,0,0,42.56,145.51Z"/><path class="cls-54" d="M42.59,145.54,12.52,162.72a1,1,0,0,0,0,1.7l46.82,27a3.88,3.88,0,0,0,3.87,0l30.06-17.18a1,1,0,0,0,0-1.7l-46.82-27A3.86,3.86,0,0,0,42.59,145.54Z"/><path class="cls-55" d="M42.62,145.56l-30,17.14a1,1,0,0,0,0,1.69l46.67,26.94a3.86,3.86,0,0,0,3.85,0l30-17.14a1,1,0,0,0,0-1.68l-46.67-27A3.86,3.86,0,0,0,42.62,145.56Z"/><path class="cls-56" d="M42.65,145.59,12.77,162.67a1,1,0,0,0,0,1.69l46.53,26.86a3.87,3.87,0,0,0,3.84,0L93,174.14a1,1,0,0,0,0-1.68L46.49,145.6A3.84,3.84,0,0,0,42.65,145.59Z"/><path class="cls-57" d="M42.68,145.62l-29.79,17a1,1,0,0,0,0,1.68L59.27,191.1a3.83,3.83,0,0,0,3.83,0l29.79-17a1,1,0,0,0,0-1.67L46.51,145.63A3.85,3.85,0,0,0,42.68,145.62Z"/><path class="cls-58" d="M42.71,145.65,13,162.62a1,1,0,0,0,0,1.68L59.25,191a3.86,3.86,0,0,0,3.82,0l29.69-17a1,1,0,0,0,0-1.67L46.53,145.66A3.83,3.83,0,0,0,42.71,145.65Z"/><path class="cls-59" d="M42.75,145.68,13.14,162.6a1,1,0,0,0,0,1.67l46.09,26.61a3.81,3.81,0,0,0,3.81,0L92.64,174a1,1,0,0,0,0-1.66L46.55,145.69A3.79,3.79,0,0,0,42.75,145.68Z"/><path class="cls-60" d="M42.78,145.71,13.27,162.57a1,1,0,0,0,0,1.67l45.94,26.52a3.8,3.8,0,0,0,3.79,0L92.51,173.9a1,1,0,0,0,0-1.66L46.57,145.71A3.8,3.8,0,0,0,42.78,145.71Z"/><path class="cls-61" d="M42.81,145.73,13.39,162.55a1,1,0,0,0,0,1.66l45.8,26.44a3.81,3.81,0,0,0,3.78,0l29.42-16.82a1,1,0,0,0,0-1.65l-45.8-26.45A3.81,3.81,0,0,0,42.81,145.73Z"/><path class="cls-62" d="M42.84,145.76,13.52,162.52a1,1,0,0,0,0,1.66l45.65,26.35a3.76,3.76,0,0,0,3.77,0l29.32-16.76a1,1,0,0,0,0-1.65L46.61,145.77A3.79,3.79,0,0,0,42.84,145.76Z"/><path class="cls-63" d="M42.87,145.79,13.64,162.5a1,1,0,0,0,0,1.64l45.51,26.28a3.79,3.79,0,0,0,3.76,0l29.23-16.71a1,1,0,0,0,0-1.65L46.63,145.8A3.77,3.77,0,0,0,42.87,145.79Z"/><path class="cls-64" d="M42.91,145.82,13.77,162.47a.94.94,0,0,0,0,1.64l45.36,26.2a3.75,3.75,0,0,0,3.75,0L92,173.66A.94.94,0,0,0,92,172L46.65,145.83A3.76,3.76,0,0,0,42.91,145.82Z"/><path class="cls-65" d="M42.94,145.85l-29,16.6a.94.94,0,0,0,0,1.63l45.22,26.11a3.74,3.74,0,0,0,3.73,0l29.05-16.6a1,1,0,0,0,0-1.64l-45.22-26.1A3.74,3.74,0,0,0,42.94,145.85Z"/><path class="cls-66" d="M43,145.88,14,162.43a.93.93,0,0,0,0,1.62l45.07,26a3.74,3.74,0,0,0,3.72,0l29-16.55a.94.94,0,0,0,0-1.63l-45.08-26A3.74,3.74,0,0,0,43,145.88Z"/><path class="cls-67" d="M43,145.9,14.14,162.4a.94.94,0,0,0,0,1.62L59.07,190a3.7,3.7,0,0,0,3.71,0l28.86-16.49a.94.94,0,0,0,0-1.63L46.71,145.91A3.75,3.75,0,0,0,43,145.9Z"/><path class="cls-68" d="M43,145.93,14.27,162.38a.92.92,0,0,0,0,1.61l44.78,25.86a3.73,3.73,0,0,0,3.7,0l28.76-16.44a.93.93,0,0,0,0-1.62L46.73,145.94A3.73,3.73,0,0,0,43,145.93Z"/><path class="cls-69" d="M43.07,146,14.39,162.35a.93.93,0,0,0,0,1.61L59,189.74a3.71,3.71,0,0,0,3.69,0l28.67-16.39a.94.94,0,0,0,0-1.62L46.75,146A3.69,3.69,0,0,0,43.07,146Z"/><path class="cls-70" d="M43.1,146,14.52,162.33a.92.92,0,0,0,0,1.6L59,189.62a3.67,3.67,0,0,0,3.67,0L91.26,173.3a.93.93,0,0,0,0-1.61L46.77,146A3.67,3.67,0,0,0,43.1,146Z"/><path class="cls-71" d="M43.13,146,14.65,162.3a.92.92,0,0,0,0,1.6L59,189.51a3.68,3.68,0,0,0,3.66,0l28.49-16.29a.92.92,0,0,0,0-1.6L46.79,146A3.65,3.65,0,0,0,43.13,146Z"/><path class="cls-72" d="M43.16,146.05,14.77,162.28a.91.91,0,0,0,0,1.59L59,189.4a3.66,3.66,0,0,0,3.65,0L91,173.17a.92.92,0,0,0,0-1.59L46.81,146.05A3.66,3.66,0,0,0,43.16,146.05Z"/><path class="cls-73" d="M43.19,146.07,14.9,162.25a.92.92,0,0,0,0,1.59L59,189.28a3.67,3.67,0,0,0,3.64,0l28.3-16.18a.92.92,0,0,0,0-1.59L46.83,146.08A3.67,3.67,0,0,0,43.19,146.07Z"/><path class="cls-74" d="M43.23,146.1,15,162.23a.91.91,0,0,0,0,1.58l43.91,25.36a3.65,3.65,0,0,0,3.63,0l28.2-16.13a.91.91,0,0,0,0-1.58L46.85,146.11A3.63,3.63,0,0,0,43.23,146.1Z"/><path class="cls-75" d="M43.26,146.13,15.15,162.2a.91.91,0,0,0,0,1.58l43.77,25.27a3.63,3.63,0,0,0,3.62,0L90.64,173a.91.91,0,0,0,0-1.58L46.87,146.14A3.61,3.61,0,0,0,43.26,146.13Z"/><path class="cls-76" d="M43.29,146.16l-28,16a.9.9,0,0,0,0,1.57l43.62,25.19a3.62,3.62,0,0,0,3.6,0l28-16a.91.91,0,0,0,0-1.58L46.89,146.17A3.59,3.59,0,0,0,43.29,146.16Z"/><path class="cls-77" d="M43.32,146.19l-27.92,16a.91.91,0,0,0,0,1.57l43.48,25.11a3.6,3.6,0,0,0,3.59,0l27.93-16a.91.91,0,0,0,0-1.57L46.91,146.2A3.57,3.57,0,0,0,43.32,146.19Z"/><path class="cls-78" d="M43.35,146.22,15.52,162.13a.9.9,0,0,0,0,1.56l43.33,25a3.6,3.6,0,0,0,3.58,0l27.83-15.91a.91.91,0,0,0,0-1.57l-43.34-25A3.6,3.6,0,0,0,43.35,146.22Z"/><path class="cls-79" d="M43.39,146.24,15.65,162.1a.9.9,0,0,0,0,1.56L58.83,188.6a3.58,3.58,0,0,0,3.57,0l27.74-15.86a.9.9,0,0,0,0-1.56L47,146.25A3.59,3.59,0,0,0,43.39,146.24Z"/><path class="cls-80" d="M43.42,146.27,15.77,162.08a.89.89,0,0,0,0,1.55l43,24.85a3.56,3.56,0,0,0,3.56,0L90,172.69a.9.9,0,0,0,0-1.56L47,146.28A3.57,3.57,0,0,0,43.42,146.27Z"/><path class="cls-81" d="M43.45,146.3,15.9,162.05a.89.89,0,0,0,0,1.55l42.9,24.77a3.55,3.55,0,0,0,3.54,0l27.56-15.75a.89.89,0,0,0,0-1.55L47,146.31A3.55,3.55,0,0,0,43.45,146.3Z"/><path class="cls-82" d="M43.48,146.33,16,162a.88.88,0,0,0,0,1.54l42.75,24.69a3.53,3.53,0,0,0,3.53,0l27.46-15.69a.9.9,0,0,0,0-1.55L47,146.34A3.53,3.53,0,0,0,43.48,146.33Z"/><path class="cls-83" d="M43.51,146.36,16.15,162a.89.89,0,0,0,0,1.54l42.61,24.6a3.54,3.54,0,0,0,3.52,0l27.37-15.64a.89.89,0,0,0,0-1.54L47,146.37A3.54,3.54,0,0,0,43.51,146.36Z"/><path class="cls-84" d="M43.54,146.39,16.27,162a.88.88,0,0,0,0,1.53L58.73,188a3.52,3.52,0,0,0,3.51,0l27.27-15.59a.89.89,0,0,0,0-1.54L47.05,146.39A3.54,3.54,0,0,0,43.54,146.39Z"/><path class="cls-85" d="M43.58,146.42,16.4,162a.88.88,0,0,0,0,1.53l42.32,24.44a3.53,3.53,0,0,0,3.5,0l27.18-15.53a.88.88,0,0,0,0-1.53L47.07,146.42A3.51,3.51,0,0,0,43.58,146.42Z"/><path class="cls-86" d="M43.61,146.44,16.52,161.93a.87.87,0,0,0,0,1.52L58.69,187.8a3.49,3.49,0,0,0,3.48,0l27.09-15.49a.87.87,0,0,0,0-1.52L47.09,146.45A3.51,3.51,0,0,0,43.61,146.44Z"/><path class="cls-87" d="M43.64,146.47l-27,15.43a.88.88,0,0,0,0,1.52l42,24.27a3.49,3.49,0,0,0,3.47,0l27-15.44a.87.87,0,0,0,0-1.51l-42-24.27A3.49,3.49,0,0,0,43.64,146.47Z"/><path class="cls-88" d="M43.67,146.5l-26.9,15.38a.87.87,0,0,0,0,1.51l41.88,24.18a3.47,3.47,0,0,0,3.46,0L89,172.2a.87.87,0,0,0,0-1.51L47.13,146.51A3.47,3.47,0,0,0,43.67,146.5Z"/><path class="cls-89" d="M43.7,146.53,16.9,161.85a.87.87,0,0,0,0,1.51l41.74,24.1a3.46,3.46,0,0,0,3.45,0l26.81-15.33a.87.87,0,0,0,0-1.51L47.15,146.54A3.46,3.46,0,0,0,43.7,146.53Z"/></g><path class="cls-90" d="M93.29,132.56,47,105.86a.94.94,0,0,0-1.41.81v34.86a2,2,0,0,0,1,1.76L92.9,170a.93.93,0,0,0,1.4-.81V134.33A2,2,0,0,0,93.29,132.56Z"/><path class="cls-46" d="M92.69,133,46.43,106.25a.94.94,0,0,0-1.41.82v34.86a2,2,0,0,0,1,1.76L92.3,170.4a.94.94,0,0,0,1.41-.81V134.73A2.05,2.05,0,0,0,92.69,133Z"/><polygon class="cls-91" points="90.97 135.16 47.44 109.89 47.44 141.78 90.97 167.05 90.97 135.16"/><path class="cls-92" d="M43.15,145.37,13.53,161s-.17,2.31.47,2.68l45.38,26.2a3.77,3.77,0,0,0,3.75,0l29.15-16.67c1.2-.74.47-2.68.47-2.68L46.9,145.38A3.77,3.77,0,0,0,43.15,145.37Z"/><path class="cls-43" d="M43.15,143.58,14,160.24a.94.94,0,0,0,0,1.64l45.38,26.21a3.77,3.77,0,0,0,3.75,0l29.15-16.66a1,1,0,0,0,0-1.64L46.9,143.59A3.75,3.75,0,0,0,43.15,143.58Z"/><path class="cls-93" d="M40.56,165.15l-7.68,4.4a.24.24,0,0,0,0,.43l12,6.91a1,1,0,0,0,1,0l7.68-4.39a.25.25,0,0,0,0-.44l-12-6.9A1,1,0,0,0,40.56,165.15Z"/><path class="cls-93" d="M46.36,146.12l2.51,1.45a.15.15,0,0,1,0,.26l-1.24.72a.32.32,0,0,1-.33,0l-2.51-1.45a.15.15,0,0,1,0-.26l1.25-.72A.36.36,0,0,1,46.36,146.12Z"/><path class="cls-93" d="M50,148.32l2.51,1.45a.15.15,0,0,1,0,.26l-1.24.71a.32.32,0,0,1-.33,0l-2.51-1.45a.15.15,0,0,1,0-.26l1.25-.71A.31.31,0,0,1,50,148.32Z"/><path class="cls-93" d="M53.74,150.39l2.51,1.45a.15.15,0,0,1,0,.26l-1.25.72a.31.31,0,0,1-.32,0l-2.52-1.45a.15.15,0,0,1,0-.26l1.24-.72A.32.32,0,0,1,53.74,150.39Z"/><path class="cls-93" d="M57.54,152.54,60.05,154a.15.15,0,0,1,0,.26L58.8,155a.31.31,0,0,1-.32,0L56,153.51a.15.15,0,0,1,0-.26l1.25-.72A.33.33,0,0,1,57.54,152.54Z"/><path class="cls-93" d="M61.2,154.57,63.71,156a.15.15,0,0,1,0,.26l-1.25.72a.31.31,0,0,1-.32,0l-2.51-1.45a.15.15,0,0,1,0-.26l1.24-.72A.32.32,0,0,1,61.2,154.57Z"/><path class="cls-93" d="M64.75,156.76l2.51,1.45a.15.15,0,0,1,0,.26l-1.25.72a.31.31,0,0,1-.32,0l-2.51-1.45a.15.15,0,0,1,0-.26l1.25-.72A.36.36,0,0,1,64.75,156.76Z"/><path class="cls-93" d="M68.47,158.82,71,160.27a.15.15,0,0,1,0,.26l-1.25.71a.31.31,0,0,1-.32,0l-2.51-1.45a.15.15,0,0,1,0-.26l1.25-.71A.31.31,0,0,1,68.47,158.82Z"/><path class="cls-93" d="M72.14,161l2.51,1.45a.15.15,0,0,1,0,.26l-1.25.71a.31.31,0,0,1-.32,0L70.56,162a.14.14,0,0,1,0-.25l1.25-.72A.33.33,0,0,1,72.14,161Z"/><path class="cls-93" d="M75.74,163.13l2.51,1.45a.14.14,0,0,1,0,.25l-1.25.72a.31.31,0,0,1-.32,0l-2.51-1.45a.15.15,0,0,1,0-.26l1.25-.72A.33.33,0,0,1,75.74,163.13Z"/><path class="cls-93" d="M79.54,165.31l2.51,1.45a.15.15,0,0,1,0,.26l-1.25.72a.31.31,0,0,1-.32,0L78,166.29a.15.15,0,0,1,0-.26l1.25-.72A.36.36,0,0,1,79.54,165.31Z"/><path class="cls-93" d="M83.23,167.38l2.51,1.45a.15.15,0,0,1,0,.26l-1.25.72a.31.31,0,0,1-.32,0l-2.51-1.45a.15.15,0,0,1,0-.26l1.25-.72A.36.36,0,0,1,83.23,167.38Z"/><path class="cls-93" d="M41.25,148.86l1.71-1a.7.7,0,0,1,.71,0l1.66,1a.35.35,0,0,1,0,.61l-1.65,1a.71.71,0,0,1-.73,0l-1.7-1A.35.35,0,0,1,41.25,148.86Z"/><path class="cls-93" d="M45.06,151.05l1.71-1a.7.7,0,0,1,.71,0l1.66,1a.35.35,0,0,1,0,.61l-1.65,1a.71.71,0,0,1-.73,0l-1.7-1A.35.35,0,0,1,45.06,151.05Z"/><path class="cls-93" d="M48.76,153.12l1.7-1a.71.71,0,0,1,.72,0l1.66,1a.36.36,0,0,1,0,.61l-1.65,1a.73.73,0,0,1-.73,0l-1.71-1A.36.36,0,0,1,48.76,153.12Z"/><path class="cls-93" d="M52.7,155.27l1.7-1a.7.7,0,0,1,.71,0l1.67,1a.36.36,0,0,1,0,.61l-1.65,1a.71.71,0,0,1-.73,0l-1.7-1A.35.35,0,0,1,52.7,155.27Z"/><path class="cls-93" d="M56.16,157.3l1.71-1a.7.7,0,0,1,.71,0l1.66,1a.34.34,0,0,1,0,.6l-1.65,1a.73.73,0,0,1-.73,0l-1.7-1A.36.36,0,0,1,56.16,157.3Z"/><path class="cls-93" d="M59.69,159.49l1.7-1a.7.7,0,0,1,.71,0l1.67,1a.35.35,0,0,1,0,.6l-1.65,1a.71.71,0,0,1-.73,0l-1.7-1A.35.35,0,0,1,59.69,159.49Z"/><path class="cls-93" d="M63.45,161.55l1.7-1a.71.71,0,0,1,.72,0l1.66,1a.36.36,0,0,1,0,.61l-1.66,1a.69.69,0,0,1-.72,0l-1.71-1A.36.36,0,0,1,63.45,161.55Z"/><path class="cls-93" d="M67.13,163.64l1.71-1a.7.7,0,0,1,.71,0l1.66,1a.35.35,0,0,1,0,.61l-1.65,1a.71.71,0,0,1-.73,0l-1.7-1A.35.35,0,0,1,67.13,163.64Z"/><path class="cls-93" d="M70.76,165.86l1.7-1a.7.7,0,0,1,.71,0l1.66,1a.35.35,0,0,1,0,.61l-1.65,1a.71.71,0,0,1-.73,0l-1.7-1A.35.35,0,0,1,70.76,165.86Z"/><path class="cls-93" d="M74.7,168.18l1.7-1a.74.74,0,0,1,.72,0l1.66,1a.36.36,0,0,1,0,.61l-1.65,1a.71.71,0,0,1-.73,0l-1.71-1A.36.36,0,0,1,74.7,168.18Z"/><path class="cls-93" d="M78.27,170.12l1.7-1a.71.71,0,0,1,.72,0l1.66,1a.36.36,0,0,1,0,.61l-1.66,1a.69.69,0,0,1-.72,0l-1.71-1A.35.35,0,0,1,78.27,170.12Z"/><path class="cls-93" d="M37.46,150.92l1.7-1a.71.71,0,0,1,.72,0l1.66,1a.36.36,0,0,1,0,.61l-1.65,1a.71.71,0,0,1-.73,0l-1.7-1A.35.35,0,0,1,37.46,150.92Z"/><path class="cls-93" d="M41.27,153.11l1.7-1a.71.71,0,0,1,.72,0l1.66,1a.36.36,0,0,1,0,.61l-1.65,1a.71.71,0,0,1-.73,0l-1.7-1A.35.35,0,0,1,41.27,153.11Z"/><path class="cls-93" d="M45,155.19l1.7-1a.71.71,0,0,1,.72,0l1.66,1a.35.35,0,0,1,0,.6l-1.65,1a.71.71,0,0,1-.73,0l-1.71-1A.36.36,0,0,1,45,155.19Z"/><path class="cls-93" d="M48.91,157.33l1.7-1a.7.7,0,0,1,.71,0l1.67,1a.36.36,0,0,1,0,.61l-1.65,1a.71.71,0,0,1-.73,0l-1.7-1A.35.35,0,0,1,48.91,157.33Z"/><path class="cls-93" d="M52.37,159.37l1.7-1a.71.71,0,0,1,.72,0l1.66,1a.35.35,0,0,1,0,.6l-1.65,1a.71.71,0,0,1-.73,0l-1.7-1A.35.35,0,0,1,52.37,159.37Z"/><path class="cls-93" d="M55.9,161.55l1.7-1a.7.7,0,0,1,.71,0l1.66,1a.35.35,0,0,1,0,.61l-1.65,1a.71.71,0,0,1-.73,0l-1.7-1A.35.35,0,0,1,55.9,161.55Z"/><path class="cls-93" d="M59.66,163.61l1.7-1a.71.71,0,0,1,.72,0l1.66,1a.36.36,0,0,1,0,.61l-1.66,1a.69.69,0,0,1-.72,0l-1.71-1A.35.35,0,0,1,59.66,163.61Z"/><path class="cls-93" d="M63.34,165.7l1.7-1a.71.71,0,0,1,.72,0l1.66,1a.36.36,0,0,1,0,.61l-1.65,1a.71.71,0,0,1-.73,0l-1.71-1A.36.36,0,0,1,63.34,165.7Z"/><path class="cls-93" d="M67,167.92l1.71-1a.7.7,0,0,1,.71,0l1.66,1a.35.35,0,0,1,0,.61l-1.65,1a.71.71,0,0,1-.73,0l-1.7-1A.35.35,0,0,1,67,167.92Z"/><path class="cls-93" d="M70.91,170.24l1.7-1a.74.74,0,0,1,.72,0l1.66,1a.36.36,0,0,1,0,.61l-1.66,1a.71.71,0,0,1-.72,0l-1.71-1A.36.36,0,0,1,70.91,170.24Z"/><path class="cls-93" d="M74.48,172.18l1.7-1a.71.71,0,0,1,.72,0l1.66,1a.36.36,0,0,1,0,.61l-1.66,1a.71.71,0,0,1-.73,0l-1.7-1A.35.35,0,0,1,74.48,172.18Z"/><path class="cls-93" d="M33.67,153l1.7-1a.71.71,0,0,1,.72,0l1.66,1a.36.36,0,0,1,0,.61l-1.65,1a.71.71,0,0,1-.73,0l-1.71-1A.36.36,0,0,1,33.67,153Z"/><path class="cls-93" d="M37.48,155.17l1.7-1a.74.74,0,0,1,.72,0l1.66,1a.36.36,0,0,1,0,.61l-1.65,1a.73.73,0,0,1-.73,0l-1.71-1A.36.36,0,0,1,37.48,155.17Z"/><path class="cls-93" d="M41.18,157.25l1.7-1a.71.71,0,0,1,.72,0l1.66,1a.36.36,0,0,1,0,.61l-1.65,1a.71.71,0,0,1-.73,0l-1.71-1A.36.36,0,0,1,41.18,157.25Z"/><path class="cls-93" d="M45.12,159.39l1.7-1a.7.7,0,0,1,.71,0l1.66,1a.35.35,0,0,1,0,.61l-1.65,1a.71.71,0,0,1-.73,0l-1.7-1A.35.35,0,0,1,45.12,159.39Z"/><path class="cls-93" d="M48.58,161.43l1.7-1a.71.71,0,0,1,.72,0l1.66,1a.36.36,0,0,1,0,.61L51,163a.71.71,0,0,1-.73,0l-1.71-1A.36.36,0,0,1,48.58,161.43Z"/><path class="cls-93" d="M52.1,163.61l1.71-1a.7.7,0,0,1,.71,0l1.66,1a.35.35,0,0,1,0,.61l-1.65,1a.71.71,0,0,1-.73,0l-1.7-1A.35.35,0,0,1,52.1,163.61Z"/><path class="cls-93" d="M55.87,165.67l1.7-1a.74.74,0,0,1,.72,0l1.66,1a.36.36,0,0,1,0,.61l-1.66,1a.69.69,0,0,1-.72,0l-1.71-1A.35.35,0,0,1,55.87,165.67Z"/><path class="cls-93" d="M59.55,167.76l1.7-1a.71.71,0,0,1,.72,0l1.66,1a.36.36,0,0,1,0,.61l-1.65,1a.71.71,0,0,1-.73,0l-1.71-1A.36.36,0,0,1,59.55,167.76Z"/><path class="cls-93" d="M63.17,170l1.71-1a.7.7,0,0,1,.71,0l1.66,1a.36.36,0,0,1,0,.61l-1.65,1a.71.71,0,0,1-.73,0l-1.7-1A.35.35,0,0,1,63.17,170Z"/><path class="cls-93" d="M67.12,172.3l1.7-1a.71.71,0,0,1,.72,0l1.66,1a.35.35,0,0,1,0,.6l-1.66,1a.71.71,0,0,1-.72,0l-1.71-1A.36.36,0,0,1,67.12,172.3Z"/><path class="cls-93" d="M70.69,174.24l1.7-1a.7.7,0,0,1,.71,0l1.67,1a.36.36,0,0,1,0,.61l-1.65,1a.71.71,0,0,1-.73,0l-1.7-1A.35.35,0,0,1,70.69,174.24Z"/><path class="cls-93" d="M29.88,155l1.7-1a.71.71,0,0,1,.72,0L34,155a.36.36,0,0,1,0,.61l-1.65,1a.71.71,0,0,1-.73,0l-1.71-1A.36.36,0,0,1,29.88,155Z"/><path class="cls-93" d="M33.69,157.23l1.7-1a.74.74,0,0,1,.72,0l1.66,1a.36.36,0,0,1,0,.61l-1.65,1a.73.73,0,0,1-.73,0l-1.71-1A.36.36,0,0,1,33.69,157.23Z"/><path class="cls-93" d="M37.39,159.31l1.7-1a.71.71,0,0,1,.72,0l1.66,1a.36.36,0,0,1,0,.61l-1.66,1a.69.69,0,0,1-.72,0l-1.71-1A.36.36,0,0,1,37.39,159.31Z"/><path class="cls-93" d="M41.32,161.45l1.71-1a.72.72,0,0,1,.71,0l1.66,1a.35.35,0,0,1,0,.61l-1.65,1a.73.73,0,0,1-.73,0l-1.7-1A.35.35,0,0,1,41.32,161.45Z"/><path class="cls-93" d="M45.12,163.71l1.7-1a.7.7,0,0,1,.71,0l8.65,5a.35.35,0,0,1,0,.61l-1.65,1a.73.73,0,0,1-.73,0l-8.69-5A.36.36,0,0,1,45.12,163.71Z"/><path class="cls-93" d="M55.76,169.82l1.7-1a.74.74,0,0,1,.72,0l1.66,1a.36.36,0,0,1,0,.61l-1.65,1a.71.71,0,0,1-.73,0l-1.71-1A.36.36,0,0,1,55.76,169.82Z"/><path class="cls-93" d="M59.38,172l1.7-1a.74.74,0,0,1,.72,0l1.66,1a.36.36,0,0,1,0,.61l-1.65,1a.73.73,0,0,1-.73,0l-1.71-1A.36.36,0,0,1,59.38,172Z"/><path class="cls-93" d="M63.33,174.37l1.7-1a.71.71,0,0,1,.72,0l1.66,1a.35.35,0,0,1,0,.6l-1.66,1a.71.71,0,0,1-.73,0l-1.7-1A.35.35,0,0,1,63.33,174.37Z"/><path class="cls-93" d="M66.9,176.3l1.7-1a.7.7,0,0,1,.71,0l1.67,1a.36.36,0,0,1,0,.61l-1.65,1a.73.73,0,0,1-.73,0l-1.7-1A.35.35,0,0,1,66.9,176.3Z"/><path class="cls-24" d="M91,142.31s0-.05-.06-.07a3.92,3.92,0,0,0-3.67-1,14.69,14.69,0,0,0-3.64,1.54,14.84,14.84,0,0,1-5.37,1.8A6.8,6.8,0,0,1,72.94,143c-1.4-1.33-2.12-3.47-3.91-4.2-1.59-.65-3.37.07-5,.58-3.62,1.13-8,1-10.67-1.67-1.55-1.59-2.51-4-4.66-4.56a2.79,2.79,0,0,0-.4-.07,3.45,3.45,0,0,0-.85,0v8.66L91,167.05Z"/><polygon class="cls-93" points="62.29 123.89 62.29 126.25 50.05 119.18 50.05 116.73 62.29 123.89"/><polygon class="cls-93" points="70.4 132.84 70.4 135.19 50.05 123.57 50.05 121.12 70.4 132.84"/><path class="cls-46" d="M225.4,144.62a.86.86,0,0,1-.41-.1l-31.44-17.73a9.56,9.56,0,0,1-4.86-8.31v-4.26a.83.83,0,0,1,.83-.83.84.84,0,0,1,.84.83v4.26a7.9,7.9,0,0,0,4,6.86l31.45,17.73a.83.83,0,0,1-.41,1.55Z"/><path class="cls-46" d="M220.22,147.65a.87.87,0,0,1-.41-.11l-31.44-17.73a9.55,9.55,0,0,1-4.86-8.31v-4.25a.85.85,0,0,1,.84-.84.84.84,0,0,1,.83.84v4.25a7.86,7.86,0,0,0,4,6.86l31.44,17.73a.84.84,0,0,1-.41,1.56Z"/><g class="cls-47"><path class="cls-48" d="M239.79,145.36l30.63,17.51a1,1,0,0,1,0,1.73l-47.69,27.53a4,4,0,0,1-3.94,0l-30.63-17.51a1,1,0,0,1,0-1.72l47.69-27.54A4,4,0,0,1,239.79,145.36Z"/><path class="cls-49" d="M239.76,145.39l30.54,17.46a1,1,0,0,1,0,1.72L222.76,192a3.92,3.92,0,0,1-3.93,0L188.3,174.57a1,1,0,0,1,0-1.72l47.54-27.45A4,4,0,0,1,239.76,145.39Z"/><path class="cls-50" d="M239.73,145.42l30.44,17.4a1,1,0,0,1,0,1.72l-47.4,27.36a3.93,3.93,0,0,1-3.91,0l-30.45-17.4a1,1,0,0,1,0-1.72l47.4-27.36A3.93,3.93,0,0,1,239.73,145.42Z"/><path class="cls-51" d="M239.7,145.45l30.35,17.35a1,1,0,0,1,0,1.71L222.8,191.79a3.93,3.93,0,0,1-3.9,0l-30.35-17.35a1,1,0,0,1,0-1.71l47.25-27.28A3.91,3.91,0,0,1,239.7,145.45Z"/><path class="cls-52" d="M239.67,145.48l30.25,17.29a1,1,0,0,1,0,1.71l-47.11,27.19a3.89,3.89,0,0,1-3.89,0l-30.25-17.29a1,1,0,0,1,0-1.71l47.11-27.19A3.89,3.89,0,0,1,239.67,145.48Z"/><path class="cls-53" d="M239.63,145.51l30.17,17.24a1,1,0,0,1,0,1.7l-47,27.11a3.92,3.92,0,0,1-3.88,0L188.8,174.33a1,1,0,0,1,0-1.7l47-27.11A3.85,3.85,0,0,1,239.63,145.51Z"/><path class="cls-54" d="M239.6,145.54l30.07,17.18a1,1,0,0,1,0,1.7l-46.82,27a3.88,3.88,0,0,1-3.87,0l-30.06-17.18a1,1,0,0,1,0-1.7l46.82-27A3.86,3.86,0,0,1,239.6,145.54Z"/><path class="cls-55" d="M239.57,145.56l30,17.14a1,1,0,0,1,0,1.69l-46.67,26.94a3.86,3.86,0,0,1-3.85,0l-30-17.14a1,1,0,0,1,0-1.68l46.67-27A3.86,3.86,0,0,1,239.57,145.56Z"/><path class="cls-56" d="M239.54,145.59l29.88,17.08a1,1,0,0,1,0,1.69L222.9,191.22a3.87,3.87,0,0,1-3.84,0l-29.88-17.09a1,1,0,0,1,0-1.68L235.7,145.6A3.84,3.84,0,0,1,239.54,145.59Z"/><path class="cls-57" d="M239.51,145.62l29.79,17a1,1,0,0,1,0,1.68L222.92,191.1a3.83,3.83,0,0,1-3.83,0l-29.79-17a1,1,0,0,1,0-1.67l46.38-26.78A3.85,3.85,0,0,1,239.51,145.62Z"/><path class="cls-58" d="M239.47,145.65l29.7,17a1,1,0,0,1,0,1.68L222.94,191a3.86,3.86,0,0,1-3.82,0l-29.69-17a1,1,0,0,1,0-1.67l46.24-26.69A3.81,3.81,0,0,1,239.47,145.65Z"/><path class="cls-59" d="M239.44,145.68l29.61,16.92a1,1,0,0,1,0,1.67L223,190.88a3.81,3.81,0,0,1-3.81,0L189.55,174a1,1,0,0,1,0-1.66l46.09-26.61A3.79,3.79,0,0,1,239.44,145.68Z"/><path class="cls-60" d="M239.41,145.71l29.51,16.86a1,1,0,0,1,0,1.67L223,190.76a3.8,3.8,0,0,1-3.79,0L189.68,173.9a1,1,0,0,1,0-1.66l46-26.53A3.8,3.8,0,0,1,239.41,145.71Z"/><path class="cls-61" d="M239.38,145.73l29.42,16.82a1,1,0,0,1,0,1.66L223,190.65a3.81,3.81,0,0,1-3.78,0L189.8,173.84a1,1,0,0,1,0-1.65l45.8-26.45A3.81,3.81,0,0,1,239.38,145.73Z"/><path class="cls-62" d="M239.35,145.76l29.32,16.76a1,1,0,0,1,0,1.66L223,190.53a3.76,3.76,0,0,1-3.77,0l-29.32-16.76a1,1,0,0,1,0-1.65l45.66-26.36A3.79,3.79,0,0,1,239.35,145.76Z"/><path class="cls-63" d="M239.32,145.79l29.23,16.71a1,1,0,0,1,0,1.64L223,190.42a3.79,3.79,0,0,1-3.76,0l-29.23-16.71a1,1,0,0,1,0-1.65l45.51-26.27A3.77,3.77,0,0,1,239.32,145.79Z"/><path class="cls-64" d="M239.28,145.82l29.14,16.65a.94.94,0,0,1,0,1.64l-45.36,26.2a3.75,3.75,0,0,1-3.75,0l-29.13-16.65a.94.94,0,0,1,0-1.64l45.37-26.19A3.76,3.76,0,0,1,239.28,145.82Z"/><path class="cls-65" d="M239.25,145.85l29.05,16.6a.94.94,0,0,1,0,1.63l-45.22,26.11a3.74,3.74,0,0,1-3.73,0l-29-16.6a1,1,0,0,1,0-1.64l45.22-26.1A3.74,3.74,0,0,1,239.25,145.85Z"/><path class="cls-66" d="M239.22,145.88l29,16.55a.93.93,0,0,1,0,1.62l-45.07,26a3.74,3.74,0,0,1-3.72,0l-28.95-16.55a.94.94,0,0,1,0-1.63l45.08-26A3.74,3.74,0,0,1,239.22,145.88Z"/><path class="cls-67" d="M239.19,145.9l28.86,16.5a.94.94,0,0,1,0,1.62L223.12,190a3.7,3.7,0,0,1-3.71,0l-28.86-16.49a.94.94,0,0,1,0-1.63l44.93-25.94A3.75,3.75,0,0,1,239.19,145.9Z"/><path class="cls-68" d="M239.16,145.93l28.76,16.45a.92.92,0,0,1,0,1.61l-44.78,25.86a3.73,3.73,0,0,1-3.7,0l-28.76-16.44a.93.93,0,0,1,0-1.62l44.79-25.86A3.73,3.73,0,0,1,239.16,145.93Z"/><path class="cls-69" d="M239.12,146l28.67,16.39a.93.93,0,0,1,0,1.61l-44.64,25.78a3.71,3.71,0,0,1-3.69,0L190.8,173.36a.94.94,0,0,1,0-1.62L235.44,146A3.69,3.69,0,0,1,239.12,146Z"/><path class="cls-70" d="M239.09,146l28.58,16.34a.92.92,0,0,1,0,1.6l-44.49,25.69a3.69,3.69,0,0,1-3.68,0L190.93,173.3a.93.93,0,0,1,0-1.61L235.42,146A3.67,3.67,0,0,1,239.09,146Z"/><path class="cls-71" d="M239.06,146l28.48,16.28a.92.92,0,0,1,0,1.6L223.2,189.51a3.68,3.68,0,0,1-3.66,0l-28.49-16.29a.92.92,0,0,1,0-1.6L235.4,146A3.65,3.65,0,0,1,239.06,146Z"/><path class="cls-72" d="M239,146.05l28.39,16.23a.91.91,0,0,1,0,1.59l-44.2,25.53a3.66,3.66,0,0,1-3.65,0l-28.39-16.23a.92.92,0,0,1,0-1.59l44.21-25.53A3.66,3.66,0,0,1,239,146.05Z"/><path class="cls-73" d="M239,146.07l28.29,16.18a.92.92,0,0,1,0,1.59l-44.06,25.44a3.67,3.67,0,0,1-3.64,0l-28.3-16.18a.92.92,0,0,1,0-1.59l44.06-25.44A3.67,3.67,0,0,1,239,146.07Z"/><path class="cls-74" d="M239,146.1l28.21,16.13a.91.91,0,0,1,0,1.58l-43.91,25.36a3.65,3.65,0,0,1-3.63,0l-28.2-16.13a.91.91,0,0,1,0-1.58l43.92-25.36A3.63,3.63,0,0,1,239,146.1Z"/><path class="cls-75" d="M238.93,146.13,267,162.2a.91.91,0,0,1,0,1.58l-43.77,25.27a3.63,3.63,0,0,1-3.62,0L191.55,173a.91.91,0,0,1,0-1.58l43.77-25.27A3.61,3.61,0,0,1,238.93,146.13Z"/><path class="cls-76" d="M238.9,146.16l28,16a.9.9,0,0,1,0,1.57L223.3,188.94a3.62,3.62,0,0,1-3.6,0l-28-16a.91.91,0,0,1,0-1.58l43.63-25.18A3.59,3.59,0,0,1,238.9,146.16Z"/><path class="cls-77" d="M238.87,146.19l27.92,16a.91.91,0,0,1,0,1.57l-43.48,25.11a3.6,3.6,0,0,1-3.59,0l-27.93-16a.91.91,0,0,1,0-1.57l43.48-25.1A3.57,3.57,0,0,1,238.87,146.19Z"/><path class="cls-78" d="M238.84,146.22l27.83,15.91a.9.9,0,0,1,0,1.56l-43.33,25a3.6,3.6,0,0,1-3.58,0l-27.83-15.91a.91.91,0,0,1,0-1.57l43.34-25A3.6,3.6,0,0,1,238.84,146.22Z"/><path class="cls-79" d="M238.8,146.24l27.74,15.86a.9.9,0,0,1,0,1.56L223.36,188.6a3.58,3.58,0,0,1-3.57,0l-27.74-15.86a.9.9,0,0,1,0-1.56l43.19-24.94A3.59,3.59,0,0,1,238.8,146.24Z"/><path class="cls-80" d="M238.77,146.27l27.65,15.81a.89.89,0,0,1,0,1.55l-43,24.85a3.56,3.56,0,0,1-3.56,0l-27.64-15.8a.9.9,0,0,1,0-1.56l43.05-24.85A3.57,3.57,0,0,1,238.77,146.27Z"/><path class="cls-81" d="M238.74,146.3l27.55,15.75a.9.9,0,0,1,0,1.55l-42.9,24.77a3.55,3.55,0,0,1-3.54,0L192.3,172.63a.89.89,0,0,1,0-1.55l42.9-24.77A3.55,3.55,0,0,1,238.74,146.3Z"/><path class="cls-82" d="M238.71,146.33,266.17,162a.88.88,0,0,1,0,1.54l-42.75,24.69a3.53,3.53,0,0,1-3.53,0l-27.46-15.69a.9.9,0,0,1,0-1.55l42.76-24.68A3.53,3.53,0,0,1,238.71,146.33Z"/><path class="cls-83" d="M238.68,146.36,266,162a.89.89,0,0,1,0,1.54l-42.61,24.6a3.54,3.54,0,0,1-3.52,0l-27.37-15.64a.89.89,0,0,1,0-1.54l42.61-24.6A3.54,3.54,0,0,1,238.68,146.36Z"/><path class="cls-84" d="M238.64,146.39,265.92,162a.88.88,0,0,1,0,1.53L223.46,188a3.52,3.52,0,0,1-3.51,0l-27.27-15.59a.89.89,0,0,1,0-1.54l42.47-24.52A3.53,3.53,0,0,1,238.64,146.39Z"/><path class="cls-85" d="M238.61,146.42,265.79,162a.88.88,0,0,1,0,1.53l-42.32,24.44a3.53,3.53,0,0,1-3.5,0L192.8,172.39a.88.88,0,0,1,0-1.53l42.32-24.44A3.51,3.51,0,0,1,238.61,146.42Z"/><path class="cls-86" d="M238.58,146.44l27.09,15.49a.87.87,0,0,1,0,1.52L223.5,187.8a3.49,3.49,0,0,1-3.48,0l-27.09-15.49a.88.88,0,0,1,0-1.52l42.18-24.35A3.51,3.51,0,0,1,238.58,146.44Z"/><path class="cls-87" d="M238.55,146.47l27,15.43a.88.88,0,0,1,0,1.52l-42,24.27a3.49,3.49,0,0,1-3.47,0l-27-15.44a.87.87,0,0,1,0-1.51l42-24.27A3.49,3.49,0,0,1,238.55,146.47Z"/><path class="cls-88" d="M238.52,146.5l26.9,15.38a.87.87,0,0,1,0,1.51l-41.88,24.18a3.47,3.47,0,0,1-3.46,0l-26.9-15.38a.87.87,0,0,1,0-1.51l41.88-24.18A3.47,3.47,0,0,1,238.52,146.5Z"/><path class="cls-89" d="M238.49,146.53l26.8,15.32a.87.87,0,0,1,0,1.51l-41.74,24.1a3.46,3.46,0,0,1-3.45,0L193.3,172.14a.87.87,0,0,1,0-1.51L235,146.54A3.46,3.46,0,0,1,238.49,146.53Z"/></g><path class="cls-94" d="M188.9,132.56l46.26-26.7a.94.94,0,0,1,1.41.81v34.86a2,2,0,0,1-1,1.76L189.29,170a.93.93,0,0,1-1.4-.81V134.33A2,2,0,0,1,188.9,132.56Z"/><path class="cls-46" d="M189.5,133l46.26-26.71a.94.94,0,0,1,1.41.82v34.86a2,2,0,0,1-1,1.76L189.89,170.4a.94.94,0,0,1-1.41-.81V134.73A2.05,2.05,0,0,1,189.5,133Z"/><polygon class="cls-91" points="191.22 135.16 234.75 109.89 234.75 141.78 191.22 167.05 191.22 135.16"/><path class="cls-95" d="M239,145.37,268.66,161s.17,2.31-.47,2.68l-45.38,26.2a3.77,3.77,0,0,1-3.75,0l-29.15-16.67c-1.2-.74-.47-2.68-.47-2.68l45.85-25.16A3.77,3.77,0,0,1,239,145.37Z"/><path class="cls-43" d="M239,143.58l29.15,16.66a.94.94,0,0,1,0,1.64l-45.38,26.21a3.77,3.77,0,0,1-3.75,0l-29.15-16.66a1,1,0,0,1,0-1.64l45.38-26.2A3.75,3.75,0,0,1,239,143.58Z"/><path class="cls-93" d="M241.63,165.15l7.68,4.4a.24.24,0,0,1,0,.43l-12,6.91a1,1,0,0,1-1,0l-7.68-4.39a.25.25,0,0,1,0-.44l12-6.9A1,1,0,0,1,241.63,165.15Z"/><path class="cls-93" d="M235.83,146.12l-2.51,1.45a.15.15,0,0,0,0,.26l1.24.72a.33.33,0,0,0,.33,0l2.51-1.45a.15.15,0,0,0,0-.26l-1.25-.72A.36.36,0,0,0,235.83,146.12Z"/><path class="cls-93" d="M232.15,148.32l-2.51,1.45a.15.15,0,0,0,0,.26l1.24.71a.33.33,0,0,0,.33,0l2.51-1.45a.15.15,0,0,0,0-.26l-1.25-.71A.31.31,0,0,0,232.15,148.32Z"/><path class="cls-93" d="M228.45,150.39l-2.51,1.45a.15.15,0,0,0,0,.26l1.25.72a.31.31,0,0,0,.32,0l2.51-1.45a.15.15,0,0,0,0-.26l-1.24-.72A.33.33,0,0,0,228.45,150.39Z"/><path class="cls-93" d="M224.65,152.54,222.14,154a.15.15,0,0,0,0,.26l1.25.72a.31.31,0,0,0,.32,0l2.51-1.45a.15.15,0,0,0,0-.26l-1.25-.72A.33.33,0,0,0,224.65,152.54Z"/><path class="cls-93" d="M221,154.57,218.48,156a.15.15,0,0,0,0,.26l1.25.72a.31.31,0,0,0,.32,0l2.51-1.45a.15.15,0,0,0,0-.26l-1.24-.72A.32.32,0,0,0,221,154.57Z"/><path class="cls-93" d="M217.44,156.76l-2.51,1.45a.15.15,0,0,0,0,.26l1.25.72a.31.31,0,0,0,.32,0l2.51-1.45a.15.15,0,0,0,0-.26l-1.25-.72A.36.36,0,0,0,217.44,156.76Z"/><path class="cls-93" d="M213.72,158.82l-2.51,1.45a.15.15,0,0,0,0,.26l1.25.71a.31.31,0,0,0,.32,0l2.51-1.45a.15.15,0,0,0,0-.26l-1.25-.71A.31.31,0,0,0,213.72,158.82Z"/><path class="cls-93" d="M210.05,161l-2.51,1.45a.15.15,0,0,0,0,.26l1.25.71a.31.31,0,0,0,.32,0l2.52-1.45a.14.14,0,0,0,0-.25l-1.25-.72A.32.32,0,0,0,210.05,161Z"/><path class="cls-93" d="M206.45,163.13l-2.51,1.45a.14.14,0,0,0,0,.25l1.25.72a.31.31,0,0,0,.32,0L208,164.1a.15.15,0,0,0,0-.26l-1.25-.72A.33.33,0,0,0,206.45,163.13Z"/><path class="cls-93" d="M202.65,165.31l-2.51,1.45a.15.15,0,0,0,0,.26l1.25.72a.31.31,0,0,0,.32,0l2.51-1.45a.15.15,0,0,0,0-.26l-1.25-.72A.36.36,0,0,0,202.65,165.31Z"/><path class="cls-93" d="M199,167.38l-2.51,1.45a.15.15,0,0,0,0,.26l1.25.72a.31.31,0,0,0,.32,0l2.51-1.45a.15.15,0,0,0,0-.26l-1.25-.72A.36.36,0,0,0,199,167.38Z"/><path class="cls-93" d="M240.94,148.86l-1.71-1a.7.7,0,0,0-.71,0l-1.66,1a.35.35,0,0,0,0,.61l1.65,1a.71.71,0,0,0,.73,0l1.7-1A.35.35,0,0,0,240.94,148.86Z"/><path class="cls-93" d="M237.13,151.05l-1.71-1a.7.7,0,0,0-.71,0l-1.66,1a.35.35,0,0,0,0,.61l1.65,1a.71.71,0,0,0,.73,0l1.7-1A.35.35,0,0,0,237.13,151.05Z"/><path class="cls-93" d="M233.43,153.12l-1.7-1a.71.71,0,0,0-.72,0l-1.66,1a.36.36,0,0,0,0,.61l1.65,1a.73.73,0,0,0,.73,0l1.7-1A.36.36,0,0,0,233.43,153.12Z"/><path class="cls-93" d="M229.49,155.27l-1.7-1a.7.7,0,0,0-.71,0l-1.67,1a.36.36,0,0,0,0,.61l1.65,1a.71.71,0,0,0,.73,0l1.7-1A.35.35,0,0,0,229.49,155.27Z"/><path class="cls-93" d="M226,157.3l-1.71-1a.7.7,0,0,0-.71,0l-1.66,1a.34.34,0,0,0,0,.6l1.65,1a.73.73,0,0,0,.73,0l1.7-1A.36.36,0,0,0,226,157.3Z"/><path class="cls-93" d="M222.5,159.49l-1.7-1a.7.7,0,0,0-.71,0l-1.67,1a.35.35,0,0,0,0,.6l1.65,1a.71.71,0,0,0,.73,0l1.7-1A.35.35,0,0,0,222.5,159.49Z"/><path class="cls-93" d="M218.74,161.55l-1.7-1a.71.71,0,0,0-.72,0l-1.66,1a.36.36,0,0,0,0,.61l1.65,1a.71.71,0,0,0,.73,0l1.71-1A.36.36,0,0,0,218.74,161.55Z"/><path class="cls-93" d="M215.06,163.64l-1.71-1a.7.7,0,0,0-.71,0l-1.66,1a.35.35,0,0,0,0,.61l1.65,1a.71.71,0,0,0,.73,0l1.7-1A.35.35,0,0,0,215.06,163.64Z"/><path class="cls-93" d="M211.43,165.86l-1.7-1a.7.7,0,0,0-.71,0l-1.66,1a.35.35,0,0,0,0,.61l1.65,1a.71.71,0,0,0,.73,0l1.7-1A.35.35,0,0,0,211.43,165.86Z"/><path class="cls-93" d="M207.49,168.18l-1.7-1a.74.74,0,0,0-.72,0l-1.66,1a.36.36,0,0,0,0,.61l1.65,1a.71.71,0,0,0,.73,0l1.71-1A.36.36,0,0,0,207.49,168.18Z"/><path class="cls-93" d="M203.92,170.12l-1.7-1a.71.71,0,0,0-.72,0l-1.66,1a.36.36,0,0,0,0,.61l1.66,1a.69.69,0,0,0,.72,0l1.71-1A.35.35,0,0,0,203.92,170.12Z"/><path class="cls-93" d="M244.73,150.92l-1.7-1a.71.71,0,0,0-.72,0l-1.66,1a.36.36,0,0,0,0,.61l1.65,1a.71.71,0,0,0,.73,0l1.7-1A.35.35,0,0,0,244.73,150.92Z"/><path class="cls-93" d="M240.92,153.11l-1.7-1a.71.71,0,0,0-.72,0l-1.66,1a.36.36,0,0,0,0,.61l1.65,1a.71.71,0,0,0,.73,0l1.7-1A.35.35,0,0,0,240.92,153.11Z"/><path class="cls-93" d="M237.22,155.19l-1.7-1a.71.71,0,0,0-.72,0l-1.66,1a.35.35,0,0,0,0,.6l1.65,1a.71.71,0,0,0,.73,0l1.71-1A.36.36,0,0,0,237.22,155.19Z"/><path class="cls-93" d="M233.28,157.33l-1.7-1a.7.7,0,0,0-.71,0l-1.67,1a.36.36,0,0,0,0,.61l1.65,1a.71.71,0,0,0,.73,0l1.7-1A.35.35,0,0,0,233.28,157.33Z"/><path class="cls-93" d="M229.82,159.37l-1.71-1a.7.7,0,0,0-.71,0l-1.66,1a.35.35,0,0,0,0,.6l1.65,1a.71.71,0,0,0,.73,0l1.7-1A.35.35,0,0,0,229.82,159.37Z"/><path class="cls-93" d="M226.29,161.55l-1.7-1a.7.7,0,0,0-.71,0l-1.66,1a.35.35,0,0,0,0,.61l1.65,1a.71.71,0,0,0,.73,0l1.7-1A.35.35,0,0,0,226.29,161.55Z"/><path class="cls-93" d="M222.53,163.61l-1.7-1a.71.71,0,0,0-.72,0l-1.66,1a.36.36,0,0,0,0,.61l1.66,1a.69.69,0,0,0,.72,0l1.71-1A.36.36,0,0,0,222.53,163.61Z"/><path class="cls-93" d="M218.85,165.7l-1.7-1a.71.71,0,0,0-.72,0l-1.66,1a.36.36,0,0,0,0,.61l1.65,1a.71.71,0,0,0,.73,0l1.7-1A.35.35,0,0,0,218.85,165.7Z"/><path class="cls-93" d="M215.23,167.92l-1.71-1a.7.7,0,0,0-.71,0l-1.66,1a.35.35,0,0,0,0,.61l1.65,1a.71.71,0,0,0,.73,0l1.7-1A.35.35,0,0,0,215.23,167.92Z"/><path class="cls-93" d="M211.28,170.24l-1.7-1a.74.74,0,0,0-.72,0l-1.66,1a.36.36,0,0,0,0,.61l1.66,1a.71.71,0,0,0,.72,0l1.71-1A.36.36,0,0,0,211.28,170.24Z"/><path class="cls-93" d="M207.71,172.18l-1.7-1a.71.71,0,0,0-.72,0l-1.66,1a.36.36,0,0,0,0,.61l1.66,1a.69.69,0,0,0,.72,0l1.71-1A.35.35,0,0,0,207.71,172.18Z"/><path class="cls-93" d="M248.52,153l-1.7-1a.71.71,0,0,0-.72,0l-1.66,1a.36.36,0,0,0,0,.61l1.65,1a.71.71,0,0,0,.73,0l1.71-1A.36.36,0,0,0,248.52,153Z"/><path class="cls-93" d="M244.71,155.17l-1.7-1a.74.74,0,0,0-.72,0l-1.66,1a.36.36,0,0,0,0,.61l1.65,1a.73.73,0,0,0,.73,0l1.71-1A.36.36,0,0,0,244.71,155.17Z"/><path class="cls-93" d="M241,157.25l-1.7-1a.71.71,0,0,0-.72,0l-1.66,1a.36.36,0,0,0,0,.61l1.65,1a.71.71,0,0,0,.73,0l1.71-1A.36.36,0,0,0,241,157.25Z"/><path class="cls-93" d="M237.07,159.39l-1.7-1a.7.7,0,0,0-.71,0l-1.66,1a.35.35,0,0,0,0,.61l1.65,1a.71.71,0,0,0,.73,0l1.7-1A.35.35,0,0,0,237.07,159.39Z"/><path class="cls-93" d="M233.61,161.43l-1.7-1a.71.71,0,0,0-.72,0l-1.66,1a.36.36,0,0,0,0,.61l1.65,1a.71.71,0,0,0,.73,0l1.71-1A.36.36,0,0,0,233.61,161.43Z"/><path class="cls-93" d="M230.09,163.61l-1.71-1a.7.7,0,0,0-.71,0l-1.66,1a.35.35,0,0,0,0,.61l1.65,1a.71.71,0,0,0,.73,0l1.7-1A.35.35,0,0,0,230.09,163.61Z"/><path class="cls-93" d="M226.32,165.67l-1.7-1a.74.74,0,0,0-.72,0l-1.66,1a.36.36,0,0,0,0,.61l1.66,1a.69.69,0,0,0,.72,0l1.71-1A.35.35,0,0,0,226.32,165.67Z"/><path class="cls-93" d="M222.64,167.76l-1.7-1a.71.71,0,0,0-.72,0l-1.66,1a.36.36,0,0,0,0,.61l1.65,1a.71.71,0,0,0,.73,0l1.71-1A.36.36,0,0,0,222.64,167.76Z"/><path class="cls-93" d="M219,170l-1.71-1a.7.7,0,0,0-.71,0l-1.66,1a.35.35,0,0,0,0,.61l1.65,1a.71.71,0,0,0,.73,0l1.7-1A.35.35,0,0,0,219,170Z"/><path class="cls-93" d="M215.07,172.3l-1.7-1a.71.71,0,0,0-.72,0l-1.66,1a.35.35,0,0,0,0,.6l1.66,1a.71.71,0,0,0,.72,0l1.71-1A.36.36,0,0,0,215.07,172.3Z"/><path class="cls-93" d="M211.5,174.24l-1.7-1a.7.7,0,0,0-.71,0l-1.67,1a.36.36,0,0,0,0,.61l1.65,1a.71.71,0,0,0,.73,0l1.7-1A.35.35,0,0,0,211.5,174.24Z"/><path class="cls-93" d="M252.31,155l-1.7-1a.71.71,0,0,0-.72,0l-1.66,1a.36.36,0,0,0,0,.61l1.65,1a.71.71,0,0,0,.73,0l1.71-1A.36.36,0,0,0,252.31,155Z"/><path class="cls-93" d="M248.5,157.23l-1.7-1a.74.74,0,0,0-.72,0l-1.66,1a.36.36,0,0,0,0,.61l1.65,1a.73.73,0,0,0,.73,0l1.71-1A.36.36,0,0,0,248.5,157.23Z"/><path class="cls-93" d="M244.8,159.31l-1.7-1a.71.71,0,0,0-.72,0l-1.66,1a.36.36,0,0,0,0,.61l1.66,1a.69.69,0,0,0,.72,0l1.71-1A.36.36,0,0,0,244.8,159.31Z"/><path class="cls-93" d="M240.87,161.45l-1.71-1a.72.72,0,0,0-.71,0l-1.66,1a.35.35,0,0,0,0,.61l1.65,1a.73.73,0,0,0,.73,0l1.7-1A.35.35,0,0,0,240.87,161.45Z"/><path class="cls-93" d="M237.07,163.71l-1.7-1a.7.7,0,0,0-.71,0l-8.65,5a.35.35,0,0,0,0,.61l1.65,1a.73.73,0,0,0,.73,0l8.69-5A.36.36,0,0,0,237.07,163.71Z"/><path class="cls-93" d="M226.43,169.82l-1.7-1a.74.74,0,0,0-.72,0l-1.66,1a.36.36,0,0,0,0,.61l1.65,1a.71.71,0,0,0,.73,0l1.71-1A.36.36,0,0,0,226.43,169.82Z"/><path class="cls-93" d="M222.81,172l-1.7-1a.74.74,0,0,0-.72,0l-1.66,1a.36.36,0,0,0,0,.61l1.65,1a.73.73,0,0,0,.73,0l1.71-1A.36.36,0,0,0,222.81,172Z"/><path class="cls-93" d="M218.86,174.37l-1.7-1a.71.71,0,0,0-.72,0l-1.66,1a.35.35,0,0,0,0,.6l1.66,1a.69.69,0,0,0,.72,0l1.71-1A.35.35,0,0,0,218.86,174.37Z"/><path class="cls-93" d="M215.29,176.3l-1.7-1a.7.7,0,0,0-.71,0l-1.67,1a.36.36,0,0,0,0,.61l1.65,1a.73.73,0,0,0,.73,0l1.7-1A.35.35,0,0,0,215.29,176.3Z"/><polygon class="cls-46" points="214.72 143.5 220.38 137.13 226.37 138.05 226.43 138.03 231.53 136.68 231.4 136.18 226.34 137.52 220.17 136.58 214.59 142.86 204.33 137.81 204.11 138.28 214.72 143.5"/><polygon class="cls-89" points="204.67 139.5 205.11 139.22 204.42 138.14 205.52 137.74 205.34 137.25 203.64 137.88 204.67 139.5"/><path class="cls-96" d="M227.51,117.91c.41-.24.75,0,.75.44a1.67,1.67,0,0,1-.76,1.31c-.41.24-.75,0-.75-.44A1.67,1.67,0,0,1,227.51,117.91Z"/><path class="cls-46" d="M224.76,119.55c.41-.24.75,0,.75.43a1.66,1.66,0,0,1-.76,1.31c-.41.24-.75,0-.75-.43A1.67,1.67,0,0,1,224.76,119.55Z"/><polygon class="cls-96" points="197.66 135.68 197.84 136.17 197.04 136.46 207.9 141.29 211.26 134.73 222.5 139.47 225.72 134.09 231.46 138.03 231.53 138.75 225.88 134.83 222.71 140.13 211.5 135.4 208.14 141.96 197.03 137.02 197.43 137.65 196.99 137.92 195.96 136.3 197.66 135.68"/><rect class="cls-97" x="227.74" y="143.44" width="0.26" height="1.02"/><rect class="cls-97" x="222.3" y="146.47" width="0.26" height="1.02"/><rect class="cls-97" x="216.86" y="149.51" width="0.26" height="1.02"/><rect class="cls-97" x="211.43" y="152.55" width="0.26" height="1.02"/><rect class="cls-97" x="205.99" y="155.58" width="0.26" height="1.02"/><rect class="cls-98" x="200.55" y="158.62" width="0.26" height="1.02"/><rect class="cls-97" x="193.54" y="150.2" width="42.23" height="0.26" transform="translate(-46.37 127.07) rotate(-29.91)"/><rect class="cls-97" x="231.73" y="138.76" width="0.56" height="0.26" transform="translate(-38.35 134.27) rotate(-29.93)"/><rect class="cls-97" x="231.73" y="137.02" width="0.56" height="0.26" transform="translate(-37.49 133.94) rotate(-29.91)"/><polygon class="cls-97" points="231.83 135.66 232.32 135.38 232.19 135.16 231.7 135.44 231.83 135.66"/><rect class="cls-97" x="231.73" y="133.54" width="0.56" height="0.26" transform="translate(-35.75 133.58) rotate(-29.93)"/><rect class="cls-97" x="231.73" y="131.8" width="0.56" height="0.26" transform="translate(-34.88 133.14) rotate(-29.88)"/><polygon class="cls-97" points="231.83 130.44 232.32 130.16 232.19 129.93 231.7 130.21 231.83 130.44"/><polygon class="cls-97" points="231.83 128.7 232.32 128.42 232.19 128.19 231.7 128.47 231.83 128.7"/><polygon class="cls-97" points="231.83 126.96 232.32 126.68 232.19 126.45 231.7 126.73 231.83 126.96"/><rect class="cls-97" x="231.73" y="124.83" width="0.56" height="0.26" transform="translate(-31.41 132.41) rotate(-29.93)"/><polygon class="cls-97" points="231.83 123.47 232.32 123.19 232.19 122.97 231.7 123.25 231.83 123.47"/><rect class="cls-97" x="231.73" y="121.35" width="0.56" height="0.26" transform="translate(-29.67 131.85) rotate(-29.91)"/><polygon class="cls-97" points="231.83 119.99 232.32 119.71 232.19 119.49 231.7 119.77 231.83 119.99"/><rect class="cls-97" x="231.73" y="117.87" width="0.56" height="0.26" transform="translate(-27.93 131.49) rotate(-29.93)"/><polygon class="cls-97" points="231.83 116.51 232.32 116.23 232.19 116.01 231.7 116.29 231.83 116.51"/><rect class="cls-97" x="231.33" y="113.9" width="0.26" height="28.68"/><path class="cls-99" d="M144.22,171.93a7.58,7.58,0,0,0-6.85,0l-16.6,9.58c-1.88,1.09-1.88,2.87,0,4l16.6,9.58a7.58,7.58,0,0,0,6.85,0l16.6-9.58c1.88-1.09,1.88-2.87,0-4Z"/><path class="cls-100" d="M143.62,175.62a6.29,6.29,0,0,0-5.64,0l-13.68,7.9c-1.55.89-1.55,2.36,0,3.25l13.68,7.9a6.29,6.29,0,0,0,5.64,0l13.67-7.9c1.55-.89,1.55-2.36,0-3.25Z"/><path class="cls-101" d="M143.62,175.31a6.23,6.23,0,0,0-5.64,0L124.3,183.2c-1.55.9-1.55,2.36,0,3.26L138,194.35a6.23,6.23,0,0,0,5.64,0l13.67-7.89c1.55-.9,1.55-2.36,0-3.26Z"/><path class="cls-102" d="M143.62,175a6.29,6.29,0,0,0-5.64,0l-13.68,7.9c-1.55.89-1.55,2.36,0,3.26L138,194a6.29,6.29,0,0,0,5.64,0l13.67-7.89c1.55-.9,1.55-2.37,0-3.26Z"/><path class="cls-103" d="M143.62,174.68a6.23,6.23,0,0,0-5.64,0l-13.68,7.89c-1.55.9-1.55,2.37,0,3.26L138,193.72a6.23,6.23,0,0,0,5.64,0l13.67-7.89c1.55-.89,1.55-2.36,0-3.26Z"/><path class="cls-104" d="M143.62,174.37a6.23,6.23,0,0,0-5.64,0l-13.68,7.89c-1.55.9-1.55,2.36,0,3.26L138,193.41a6.23,6.23,0,0,0,5.64,0l13.67-7.89c1.55-.9,1.55-2.36,0-3.26Z"/><path class="cls-105" d="M143.62,174.05a6.29,6.29,0,0,0-5.64,0L124.3,182c-1.55.89-1.55,2.36,0,3.25L138,193.1a6.29,6.29,0,0,0,5.64,0l13.67-7.9c1.55-.89,1.55-2.36,0-3.25Z"/><path class="cls-106" d="M143.62,173.74a6.23,6.23,0,0,0-5.64,0l-13.68,7.89c-1.55.9-1.55,2.36,0,3.26L138,192.78a6.23,6.23,0,0,0,5.64,0l13.67-7.89c1.55-.9,1.55-2.36,0-3.26Z"/><path class="cls-107" d="M143.62,173.42a6.29,6.29,0,0,0-5.64,0l-13.68,7.9c-1.55.89-1.55,2.36,0,3.26L138,192.47a6.23,6.23,0,0,0,5.64,0l13.67-7.89c1.55-.9,1.55-2.37,0-3.26Z"/><path class="cls-108" d="M143.62,173.11a6.29,6.29,0,0,0-5.64,0L124.3,181c-1.55.9-1.55,2.37,0,3.26l13.68,7.9a6.29,6.29,0,0,0,5.64,0l13.67-7.9c1.55-.89,1.55-2.36,0-3.26Z"/><path class="cls-109" d="M143.62,172.8a6.23,6.23,0,0,0-5.64,0l-13.68,7.89c-1.55.9-1.55,2.36,0,3.26L138,191.84a6.23,6.23,0,0,0,5.64,0L157.29,184c1.55-.9,1.55-2.36,0-3.26Z"/><path class="cls-110" d="M143.62,172.48a6.29,6.29,0,0,0-5.64,0l-13.68,7.9c-1.55.89-1.55,2.36,0,3.25l13.68,7.9a6.29,6.29,0,0,0,5.64,0l13.67-7.9c1.55-.89,1.55-2.36,0-3.25Z"/><path class="cls-111" d="M157.29,177.55l-13.67-7.89a6.23,6.23,0,0,0-5.64,0l-13.68,7.89c-1.55.9-1.55,2.36,0,3.26L138,188.7a6.23,6.23,0,0,0,5.64,0l13.67-7.89"/><path class="cls-112" d="M143.62,169.34a6.29,6.29,0,0,0-5.64,0l-13.68,7.9c-1.55.89-1.55,2.36,0,3.26L138,188.39a6.23,6.23,0,0,0,5.64,0l13.67-7.89c1.55-.9,1.55-2.37,0-3.26Z"/><path class="cls-113" d="M143.62,169a6.23,6.23,0,0,0-5.64,0l-13.68,7.89c-1.55.9-1.55,2.37,0,3.26l13.68,7.9a6.29,6.29,0,0,0,5.64,0l13.67-7.9c1.55-.89,1.55-2.36,0-3.26Z"/><path class="cls-114" d="M143.62,168.72a6.23,6.23,0,0,0-5.64,0l-13.68,7.89c-1.55.9-1.55,2.36,0,3.26L138,187.76a6.23,6.23,0,0,0,5.64,0l13.67-7.89c1.55-.9,1.55-2.36,0-3.26Z"/><path class="cls-115" d="M143.62,168.4a6.29,6.29,0,0,0-5.64,0l-13.68,7.9c-1.55.89-1.55,2.36,0,3.25l13.68,7.9a6.29,6.29,0,0,0,5.64,0l13.67-7.9c1.55-.89,1.55-2.36,0-3.25Z"/><path class="cls-116" d="M143.62,168.09a6.23,6.23,0,0,0-5.64,0L124.3,176c-1.55.9-1.55,2.36,0,3.26L138,187.13a6.23,6.23,0,0,0,5.64,0l13.67-7.89c1.55-.9,1.55-2.36,0-3.26Z"/><path class="cls-117" d="M143.62,167.78a6.23,6.23,0,0,0-5.64,0l-13.68,7.89c-1.55.89-1.55,2.36,0,3.26L138,186.82a6.23,6.23,0,0,0,5.64,0l13.67-7.89c1.55-.9,1.55-2.37,0-3.26Z"/><path class="cls-118" d="M143.62,167.46a6.29,6.29,0,0,0-5.64,0l-13.68,7.89c-1.55.9-1.55,2.37,0,3.26l13.68,7.9a6.29,6.29,0,0,0,5.64,0l13.67-7.9c1.55-.89,1.55-2.36,0-3.26Z"/><path class="cls-119" d="M143.62,167.15a6.23,6.23,0,0,0-5.64,0L124.3,175c-1.55.9-1.55,2.36,0,3.26L138,186.19a6.23,6.23,0,0,0,5.64,0l13.67-7.89c1.55-.9,1.55-2.36,0-3.26Z"/><path class="cls-120" d="M143.62,166.83a6.29,6.29,0,0,0-5.64,0l-13.68,7.9c-1.55.89-1.55,2.36,0,3.26L138,185.88a6.29,6.29,0,0,0,5.64,0L157.29,178c1.55-.9,1.55-2.37,0-3.26Z"/><path class="cls-121" d="M143.62,166.52a6.23,6.23,0,0,0-5.64,0l-13.68,7.89c-1.55.9-1.55,2.37,0,3.26L138,185.56a6.23,6.23,0,0,0,5.64,0l13.67-7.89c1.55-.89,1.55-2.36,0-3.26Z"/><path class="cls-122" d="M143.62,166.21a6.23,6.23,0,0,0-5.64,0L124.3,174.1c-1.55.9-1.55,2.36,0,3.26L138,185.25a6.23,6.23,0,0,0,5.64,0l13.67-7.89c1.55-.9,1.55-2.36,0-3.26Z"/><path class="cls-123" d="M143.62,165.89a6.29,6.29,0,0,0-5.64,0l-13.68,7.9c-1.55.89-1.55,2.36,0,3.25l13.68,7.9a6.29,6.29,0,0,0,5.64,0l13.67-7.9c1.55-.89,1.55-2.36,0-3.25Z"/><path class="cls-124" d="M143.62,165.58a6.23,6.23,0,0,0-5.64,0l-13.68,7.89c-1.55.9-1.55,2.36,0,3.26L138,184.62a6.23,6.23,0,0,0,5.64,0l13.67-7.89c1.55-.9,1.55-2.36,0-3.26Z"/><path class="cls-46" d="M143.62,165.26a6.29,6.29,0,0,0-5.64,0l-13.68,7.9c-1.55.89-1.55,2.36,0,3.26L138,184.31a6.29,6.29,0,0,0,5.64,0l13.67-7.89c1.55-.9,1.55-2.37,0-3.26Z"/><path class="cls-46" d="M143.62,165a6.23,6.23,0,0,0-5.64,0l-13.68,7.89c-1.55.9-1.55,2.37,0,3.26L138,184a6.29,6.29,0,0,0,5.64,0l13.67-7.9c1.55-.89,1.55-2.36,0-3.26Z"/><path class="cls-46" d="M143.62,164.64a6.23,6.23,0,0,0-5.64,0l-13.68,7.89c-1.55.9-1.55,2.36,0,3.26L138,183.68a6.23,6.23,0,0,0,5.64,0l13.67-7.89c1.55-.9,1.55-2.36,0-3.26Z"/><path class="cls-46" d="M143.62,164.32a6.29,6.29,0,0,0-5.64,0l-13.68,7.9c-1.55.89-1.55,2.36,0,3.25l13.68,7.9a6.29,6.29,0,0,0,5.64,0l13.67-7.9c1.55-.89,1.55-2.36,0-3.25Z"/><path class="cls-46" d="M143.62,164a6.23,6.23,0,0,0-5.64,0L124.3,171.9c-1.55.9-1.55,2.36,0,3.26L138,183.05a6.23,6.23,0,0,0,5.64,0l13.67-7.89c1.55-.9,1.55-2.36,0-3.26Z"/><path class="cls-46" d="M143.62,163.7a6.23,6.23,0,0,0-5.64,0l-13.68,7.89c-1.55.89-1.55,2.36,0,3.26L138,182.74a6.23,6.23,0,0,0,5.64,0l13.67-7.89c1.55-.9,1.55-2.37,0-3.26Z"/><path class="cls-46" d="M143.62,163.38a6.29,6.29,0,0,0-5.64,0l-13.68,7.89c-1.55.9-1.55,2.37,0,3.26l13.68,7.9a6.29,6.29,0,0,0,5.64,0l13.67-7.9c1.55-.89,1.55-2.36,0-3.26Z"/><path class="cls-46" d="M143.62,163.07a6.23,6.23,0,0,0-5.64,0L124.3,171c-1.55.9-1.55,2.36,0,3.26L138,182.11a6.23,6.23,0,0,0,5.64,0l13.67-7.89c1.55-.9,1.55-2.36,0-3.26Z"/><path class="cls-46" d="M143.62,162.75a6.29,6.29,0,0,0-5.64,0l-13.68,7.9c-1.55.89-1.55,2.36,0,3.26L138,181.8a6.29,6.29,0,0,0,5.64,0l13.67-7.89c1.55-.9,1.55-2.37,0-3.26Z"/><path class="cls-125" d="M144.22,158.48a7.58,7.58,0,0,0-6.85,0l-18,6v4.2a3.67,3.67,0,0,0,1.78,3.14l16.23,9.76a7.58,7.58,0,0,0,6.85,0l16.17-9.25a3.65,3.65,0,0,0,1.84-3.18V164.5Z"/><path class="cls-99" d="M144.22,152.94a7.58,7.58,0,0,0-6.85,0l-16.6,9.58c-1.88,1.09-1.88,2.87,0,4l16.6,9.58a7.58,7.58,0,0,0,6.85,0l16.6-9.58c1.88-1.09,1.88-2.87,0-4Z"/><path class="cls-126" d="M160.82,185.47l-16.6,9.58a7.58,7.58,0,0,1-6.85,0l-16.6-9.58a2.41,2.41,0,0,1-1.41-2h0v4.19a3.64,3.64,0,0,0,1.78,3.14l16.23,9.77a7.58,7.58,0,0,0,6.85,0l16.17-9.25a3.66,3.66,0,0,0,1.84-3.18v-4.67A2.41,2.41,0,0,1,160.82,185.47Z"/><path class="cls-46" d="M157.29,176.33l-13.67,7.89a6.23,6.23,0,0,1-5.64,0l-13.68-7.89a2,2,0,0,1-1.16-1.63h0v3.46a3,3,0,0,0,1.46,2.58l13.38,8a6.29,6.29,0,0,0,5.64,0l13.31-7.62a3,3,0,0,0,1.52-2.62V174.7A2,2,0,0,1,157.29,176.33Z"/><path class="cls-46" d="M113.56,203.89a4.94,4.94,0,0,1-2.47-.66L75.71,182.8a.83.83,0,0,1,.83-1.44l35.38,20.43a3.29,3.29,0,0,0,3.27,0L130,193.25a.83.83,0,0,1,.84,1.44L116,203.23A4.94,4.94,0,0,1,113.56,203.89Z"/><path class="cls-46" d="M114.35,198.83a4.09,4.09,0,0,1-2-.54L80.55,179.9a.83.83,0,0,1,.83-1.44l31.78,18.39a2.38,2.38,0,0,0,2.39,0l10.25-6.08a.84.84,0,0,1,1.14.29.82.82,0,0,1-.29,1.14l-10.25,6.08A4.05,4.05,0,0,1,114.35,198.83Z"/><path class="cls-46" d="M167.85,203.89a4.92,4.92,0,0,1-2.47-.66l-14.78-8.54a.82.82,0,0,1-.31-1.13.84.84,0,0,1,1.14-.31l14.78,8.54a3.29,3.29,0,0,0,3.27,0l35.38-20.43a.83.83,0,1,1,.83,1.44l-35.38,20.43A4.91,4.91,0,0,1,167.85,203.89Z"/><path class="cls-46" d="M167.06,198.83a4.09,4.09,0,0,1-2.06-.56l-10.25-6.08a.83.83,0,1,1,.85-1.43l10.25,6.08a2.39,2.39,0,0,0,2.4,0L200,178.46a.84.84,0,0,1,1.14.31.83.83,0,0,1-.31,1.13l-31.77,18.39A4,4,0,0,1,167.06,198.83Z"/><g class="cls-127"><path class="cls-43" d="M163.31,100.2c-.79-1.73-3.34-5.35-11.49-10.09a98.87,98.87,0,0,0-16.33-7.48c-5.73-2-10.8-3.23-14.28-3.39a15.3,15.3,0,0,0-1.67,0c-4.22.3-3.72,2.81-3.05,4.26.74,1.64,3.12,5.09,10.66,9.62l.33.19.52.31a99.37,99.37,0,0,0,16.31,7.46c5.73,2,10.8,3.24,14.29,3.4h.28c.5,0,1,0,1.39,0C164.49,104.17,164,101.67,163.31,100.2Z"/><path class="cls-128" d="M119.74,79.43c-4.14.32-3.64,2.76-3,4.19.74,1.62,3.09,5,10.5,9.47l.33.19.52.3A99.77,99.77,0,0,0,144.25,101a63.41,63.41,0,0,0,11.68,3.11l.15,0c.85.12,1.63.19,2.35.22h.28c.49,0,.95,0,1.36,0,4.14-.32,3.64-2.76,3-4.21-.79-1.71-3.31-5.27-11.33-9.94a97.63,97.63,0,0,0-16.16-7.4,65.11,65.11,0,0,0-11.66-3.11,24.91,24.91,0,0,0-2.5-.24A12.56,12.56,0,0,0,119.74,79.43Z"/><path class="cls-129" d="M119.93,79.6c-4,.35-3.55,2.72-2.9,4.13.74,1.6,3.06,4.93,10.35,9.32l.32.19.51.3a99.15,99.15,0,0,0,16,7.31,63.73,63.73,0,0,0,11.57,3.09l.16,0a20.77,20.77,0,0,0,2.32.21h.28a11.22,11.22,0,0,0,1.34-.05c4-.35,3.56-2.72,2.9-4.15-.79-1.69-3.28-5.19-11.16-9.78a97.4,97.4,0,0,0-16-7.33A63.74,63.74,0,0,0,124,79.79a24.28,24.28,0,0,0-2.48-.24A12,12,0,0,0,119.93,79.6Z"/><path class="cls-130" d="M120.13,79.77c-4,.38-3.47,2.68-2.83,4.07.74,1.58,3,4.86,10.2,9.17l.31.19.51.29a97.92,97.92,0,0,0,15.82,7.24,62.66,62.66,0,0,0,11.48,3.06l.16,0a23.08,23.08,0,0,0,2.3.21h.28a13,13,0,0,0,1.31-.06c4-.38,3.49-2.68,2.83-4.09-.79-1.67-3.25-5.11-11-9.63A96.54,96.54,0,0,0,135.66,83a62.67,62.67,0,0,0-11.47-3,21.46,21.46,0,0,0-2.46-.23A11.39,11.39,0,0,0,120.13,79.77Z"/><path class="cls-131" d="M120.33,79.94c-3.88.41-3.4,2.64-2.76,4,.74,1.56,3,4.78,10,9l.32.18.5.3a96.79,96.79,0,0,0,15.66,7.16,62.12,62.12,0,0,0,11.38,3l.15,0a23,23,0,0,0,2.29.2h.27a12.23,12.23,0,0,0,1.29-.07c3.88-.41,3.41-2.65,2.75-4-.78-1.64-3.21-5-10.83-9.47a94.87,94.87,0,0,0-15.67-7.18,62.41,62.41,0,0,0-11.38-3,21,21,0,0,0-2.44-.22A10.85,10.85,0,0,0,120.33,79.94Z"/><path class="cls-132" d="M120.53,80.11c-3.79.44-3.32,2.6-2.68,4,.72,1.54,3,4.71,9.88,8.87l.31.18.49.29a95.6,95.6,0,0,0,15.5,7.09,61.06,61.06,0,0,0,11.29,3l.15,0a19.81,19.81,0,0,0,2.27.19H158a11.82,11.82,0,0,0,1.27-.08c3.79-.43,3.32-2.61,2.67-4-.78-1.62-3.18-5-10.67-9.32a94.57,94.57,0,0,0-15.51-7.1,61.06,61.06,0,0,0-11.28-3,18.72,18.72,0,0,0-2.42-.21A10.24,10.24,0,0,0,120.53,80.11Z"/><path class="cls-133" d="M120.73,80.28c-3.71.46-3.25,2.56-2.61,3.89.72,1.51,2.92,4.63,9.73,8.72l.3.18.49.29a95.62,95.62,0,0,0,15.33,7,60,60,0,0,0,11.2,3l.15,0a19.31,19.31,0,0,0,2.25.19h.26a8.92,8.92,0,0,0,1.25-.1c3.71-.45,3.24-2.56,2.6-3.9-.78-1.6-3.15-4.88-10.5-9.16a93.4,93.4,0,0,0-15.35-7,60.93,60.93,0,0,0-11.18-3,18.58,18.58,0,0,0-2.4-.21A11.05,11.05,0,0,0,120.73,80.28Z"/><path class="cls-134" d="M120.93,80.45c-3.62.49-3.17,2.52-2.54,3.83.72,1.49,2.89,4.56,9.57,8.57l.31.18.48.28a93.64,93.64,0,0,0,15.17,6.94A58.82,58.82,0,0,0,155,103.19l.15,0a19.18,19.18,0,0,0,2.23.18h.27a8.36,8.36,0,0,0,1.22-.11c3.62-.48,3.17-2.52,2.52-3.84-.77-1.58-3.11-4.8-10.33-9a92.27,92.27,0,0,0-15.19-7,59.59,59.59,0,0,0-11.08-2.93,20.06,20.06,0,0,0-2.38-.2A10.34,10.34,0,0,0,120.93,80.45Z"/><path class="cls-135" d="M121.13,80.63c-3.54.51-3.09,2.47-2.47,3.76.72,1.47,2.86,4.48,9.42,8.42l.3.18.48.28a92.79,92.79,0,0,0,15,6.86,58.55,58.55,0,0,0,11,2.91l.15,0a15.33,15.33,0,0,0,2.21.17h.26a9.33,9.33,0,0,0,1.2-.12c3.53-.51,3.09-2.48,2.45-3.78-.77-1.56-3.07-4.72-10.17-8.85a91.43,91.43,0,0,0-15-6.88,58.54,58.54,0,0,0-11-2.9,17.85,17.85,0,0,0-2.36-.19A9.64,9.64,0,0,0,121.13,80.63Z"/><path class="cls-136" d="M121.33,80.8c-3.45.54-3,2.43-2.39,3.7.71,1.45,2.82,4.4,9.25,8.27l.3.18.47.27A90.94,90.94,0,0,0,143.81,100a57.44,57.44,0,0,0,10.9,2.88l.15,0a13.6,13.6,0,0,0,2.19.16h.26a10.46,10.46,0,0,0,1.17-.14c3.45-.54,3-2.44,2.38-3.72-.77-1.53-3-4.64-10-8.7A90.57,90.57,0,0,0,136,83.71a58.6,58.6,0,0,0-10.9-2.88,19.1,19.1,0,0,0-2.34-.18A10.15,10.15,0,0,0,121.33,80.8Z"/><path class="cls-137" d="M121.53,81c-3.36.57-2.94,2.39-2.32,3.64.71,1.43,2.79,4.33,9.1,8.12l.3.18.46.27a90.94,90.94,0,0,0,14.68,6.71,57.29,57.29,0,0,0,10.81,2.86h.14a13.56,13.56,0,0,0,2.18.16h.26a9.66,9.66,0,0,0,1.14-.15c3.36-.57,2.94-2.4,2.3-3.66-.76-1.51-3-4.57-9.83-8.54a88.75,88.75,0,0,0-14.7-6.73A57.09,57.09,0,0,0,125.25,81a18.63,18.63,0,0,0-2.32-.17A8.34,8.34,0,0,0,121.53,81Z"/><path class="cls-138" d="M121.73,81.14c-3.28.6-2.86,2.35-2.25,3.58.71,1.41,2.76,4.25,9,8l.29.17.46.27a89.64,89.64,0,0,0,14.51,6.64,57,57,0,0,0,10.72,2.83h.14a15.91,15.91,0,0,0,2.16.15H157a8.82,8.82,0,0,0,1.12-.16c3.27-.6,2.86-2.36,2.23-3.6-.75-1.49-3-4.49-9.67-8.39A88.72,88.72,0,0,0,136.11,84a56.81,56.81,0,0,0-10.71-2.82,16.58,16.58,0,0,0-2.3-.16A7.72,7.72,0,0,0,121.73,81.14Z"/><path class="cls-139" d="M121.93,81.31c-3.19.63-2.79,2.31-2.18,3.52.71,1.38,2.73,4.18,8.79,7.82l.29.17.45.27a89,89,0,0,0,14.36,6.56,55.83,55.83,0,0,0,10.61,2.8l.15,0a15.31,15.31,0,0,0,2.13.13h.26a8.12,8.12,0,0,0,1.09-.17c3.19-.63,2.78-2.32,2.16-3.54-.75-1.47-2.94-4.41-9.51-8.23a86.78,86.78,0,0,0-14.37-6.58,55.63,55.63,0,0,0-10.6-2.79,16.42,16.42,0,0,0-2.28-.16A8.09,8.09,0,0,0,121.93,81.31Z"/><path class="cls-140" d="M122.12,81.48c-3.09.66-2.7,2.27-2.09,3.46.7,1.36,2.69,4.1,8.63,7.67l.29.17.44.26a87.33,87.33,0,0,0,14.19,6.49,54.62,54.62,0,0,0,10.52,2.77l.14,0a17,17,0,0,0,2.12.13l.25,0a6.13,6.13,0,0,0,1.07-.19c3.1-.65,2.71-2.27,2.08-3.47-.74-1.45-2.9-4.33-9.34-8.08a85.92,85.92,0,0,0-14.2-6.5,54.61,54.61,0,0,0-10.51-2.76,14.63,14.63,0,0,0-2.26-.15A7.85,7.85,0,0,0,122.12,81.48Z"/><path class="cls-141" d="M122.32,81.66c-3,.68-2.62,2.22-2,3.39.69,1.34,2.66,4,8.48,7.52l.28.17.44.26a87.06,87.06,0,0,0,14,6.41A54.07,54.07,0,0,0,154,102.15l.14,0a14.77,14.77,0,0,0,2.1.12l.25,0a5.65,5.65,0,0,0,1-.2c3-.68,2.63-2.23,2-3.41-.74-1.43-2.87-4.25-9.17-7.92a85.13,85.13,0,0,0-14-6.43,53.59,53.59,0,0,0-10.42-2.73,14.34,14.34,0,0,0-2.24-.14A6.33,6.33,0,0,0,122.32,81.66Z"/><path class="cls-142" d="M122.52,81.83c-2.91.71-2.54,2.18-2,3.33.69,1.32,2.63,4,8.32,7.37l.28.17.44.25a85,85,0,0,0,13.86,6.34A53.06,53.06,0,0,0,153.8,102l.14,0a13.07,13.07,0,0,0,2.08.11l.24,0a5.17,5.17,0,0,0,1-.21c2.92-.71,2.55-2.2,1.94-3.35-.74-1.41-2.84-4.18-9-7.77a84.83,84.83,0,0,0-13.88-6.35A52.34,52.34,0,0,0,126,81.73a12.88,12.88,0,0,0-2.22-.13A5.81,5.81,0,0,0,122.52,81.83Z"/><path class="cls-143" d="M122.72,82c-2.82.74-2.47,2.14-1.88,3.27.69,1.3,2.6,3.87,8.17,7.22l.27.17.43.25a84.63,84.63,0,0,0,13.7,6.26,52.06,52.06,0,0,0,10.24,2.68l.13,0a14.31,14.31,0,0,0,2.06.11l.25,0a5,5,0,0,0,1-.22c2.82-.74,2.46-2.16,1.86-3.29-.74-1.38-2.81-4.1-8.85-7.61a83.16,83.16,0,0,0-13.71-6.28,52,52,0,0,0-10.23-2.67,12.67,12.67,0,0,0-2.2-.13A5.38,5.38,0,0,0,122.72,82Z"/><path class="cls-144" d="M122.92,82.17c-2.73.77-2.39,2.11-1.81,3.21.69,1.28,2.57,3.8,8,7.07a2.4,2.4,0,0,0,.27.16l.42.25a83.51,83.51,0,0,0,13.54,6.19,50.82,50.82,0,0,0,10.14,2.65l.13,0a12.58,12.58,0,0,0,2,.1,1.75,1.75,0,0,0,.24,0,5.48,5.48,0,0,0,1-.23c2.73-.77,2.39-2.12,1.78-3.23-.73-1.36-2.77-4-8.67-7.46a82.8,82.8,0,0,0-13.55-6.2A51,51,0,0,0,126.31,82a12.28,12.28,0,0,0-2.17-.12A5,5,0,0,0,122.92,82.17Z"/><path class="cls-145" d="M123.12,82.34c-2.74.3-2.32,2.07-1.73,3.15.68,1.26,2.53,3.72,7.85,6.93l.27.15.42.25a82.66,82.66,0,0,0,13.37,6.11,49.94,49.94,0,0,0,10,2.62l.14,0a11.22,11.22,0,0,0,2,.09l.24,0a3,3,0,0,0,.95-.25c2.74-.3,2.31-2.08,1.71-3.18-.73-1.33-2.74-3.93-8.51-7.29a81.69,81.69,0,0,0-13.39-6.13,50.73,50.73,0,0,0-10-2.62,12,12,0,0,0-2.16-.1A3.12,3.12,0,0,0,123.12,82.34Z"/><path class="cls-146" d="M123.32,82.51c-2.66.3-2.24,2-1.66,3.09.68,1.24,2.5,3.65,7.7,6.78l.26.15.41.24a81.48,81.48,0,0,0,13.21,6,50.45,50.45,0,0,0,9.95,2.6h.13a11,11,0,0,0,2,.08l.23,0a2.73,2.73,0,0,0,.93-.26c2.65-.3,2.23-2,1.64-3.12-.73-1.31-2.7-3.85-8.35-7.14a80.45,80.45,0,0,0-13.22-6,49.74,49.74,0,0,0-9.94-2.59,11.79,11.79,0,0,0-2.14-.1A2.83,2.83,0,0,0,123.32,82.51Z"/><path class="cls-147" d="M123.52,82.68c-2.58.3-2.16,2-1.59,3,.67,1.21,2.47,3.57,7.55,6.63l.26.15.4.24a80.35,80.35,0,0,0,13.05,6,50.08,50.08,0,0,0,9.85,2.57h.13a11.81,11.81,0,0,0,2,.08l.23,0a2.33,2.33,0,0,0,.9-.28c2.57-.3,2.16-2,1.56-3.05-.72-1.29-2.66-3.78-8.18-7a78.52,78.52,0,0,0-13.06-6,48.52,48.52,0,0,0-9.84-2.56,11.48,11.48,0,0,0-2.12-.09A2.66,2.66,0,0,0,123.52,82.68Z"/><path class="cls-148" d="M123.72,82.86c-2.5.29-2.09,1.94-1.52,3,.67,1.19,2.43,3.5,7.39,6.48l.26.15.4.23a79.12,79.12,0,0,0,12.88,5.89,49.08,49.08,0,0,0,9.76,2.54H153a10.45,10.45,0,0,0,2,.07l.23,0a2.16,2.16,0,0,0,.88-.29c2.49-.3,2.08-2,1.49-3-.72-1.27-2.63-3.7-8-6.83a79,79,0,0,0-12.9-5.9,47.55,47.55,0,0,0-9.75-2.53,10.38,10.38,0,0,0-2.1-.08A2.25,2.25,0,0,0,123.72,82.86Z"/><path class="cls-149" d="M123.92,83c-2.42.29-2,1.9-1.44,2.9.66,1.17,2.39,3.42,7.23,6.33l.25.15.4.23a78,78,0,0,0,12.72,5.81,47.86,47.86,0,0,0,9.66,2.51h.12a10.25,10.25,0,0,0,1.95.06,1.6,1.6,0,0,0,.23,0,2,2,0,0,0,.85-.3c2.41-.3,2-1.91,1.42-2.93-.72-1.24-2.6-3.62-7.85-6.67a77.31,77.31,0,0,0-12.73-5.83,47.91,47.91,0,0,0-9.66-2.5A10,10,0,0,0,125,82.7,2.09,2.09,0,0,0,123.92,83Z"/><path class="cls-150" d="M124.12,83.2c-2.33.29-1.93,1.86-1.37,2.84.66,1.15,2.36,3.35,7.07,6.18l.26.15.38.22A76.82,76.82,0,0,0,143,98.33a47,47,0,0,0,9.56,2.48h.13a10,10,0,0,0,1.93.06l.22,0a1.85,1.85,0,0,0,.83-.31c2.33-.3,1.92-1.87,1.34-2.87-.71-1.22-2.56-3.54-7.68-6.52a76.18,76.18,0,0,0-12.57-5.75,46.79,46.79,0,0,0-9.55-2.47,10.71,10.71,0,0,0-2.06-.07A1.92,1.92,0,0,0,124.12,83.2Z"/><path class="cls-151" d="M124.32,83.37c-2.25.29-1.86,1.82-1.3,2.78.66,1.13,2.33,3.27,6.92,6l.25.14.38.23A76.81,76.81,0,0,0,143,98.21a45.86,45.86,0,0,0,9.47,2.45h.13a9,9,0,0,0,1.91,0l.22,0a1.61,1.61,0,0,0,.8-.32c2.25-.3,1.85-1.83,1.27-2.81-.71-1.2-2.53-3.46-7.52-6.36a75.34,75.34,0,0,0-12.4-5.68,45.83,45.83,0,0,0-9.46-2.44,9.69,9.69,0,0,0-2-.06A1.81,1.81,0,0,0,124.32,83.37Z"/><path class="cls-152" d="M124.51,83.54c-2.16.29-1.77,1.78-1.22,2.72.66,1.11,2.3,3.19,6.77,5.88l.24.14.38.22a74.85,74.85,0,0,0,12.23,5.59,44.68,44.68,0,0,0,9.37,2.42l.13,0a9.37,9.37,0,0,0,1.89,0l.21,0a1.58,1.58,0,0,0,.78-.33c2.17-.3,1.77-1.79,1.2-2.75-.71-1.18-2.5-3.38-7.35-6.21a74.71,74.71,0,0,0-12.25-5.6,44.66,44.66,0,0,0-9.36-2.41,9.42,9.42,0,0,0-2,0A1.73,1.73,0,0,0,124.51,83.54Z"/><path class="cls-153" d="M124.71,83.71c-2.08.3-1.69,1.74-1.15,2.66.66,1.09,2.27,3.12,6.61,5.73l.25.14.36.22A74.5,74.5,0,0,0,142.85,98a44.36,44.36,0,0,0,9.28,2.39l.12,0a8.43,8.43,0,0,0,1.87,0,.78.78,0,0,0,.22,0,1.35,1.35,0,0,0,.75-.35c2.09-.29,1.69-1.75,1.12-2.68-.7-1.16-2.46-3.31-7.18-6A73.42,73.42,0,0,0,137,85.75a43.72,43.72,0,0,0-9.27-2.38,9.23,9.23,0,0,0-2-.05A1.63,1.63,0,0,0,124.71,83.71Z"/><path class="cls-154" d="M124.91,83.89c-2,.29-1.62,1.69-1.07,2.59.64,1.06,2.23,3,6.45,5.58l.24.14.36.21a72.55,72.55,0,0,0,11.91,5.44,43.82,43.82,0,0,0,9.18,2.36l.12,0a8.89,8.89,0,0,0,1.85,0l.21,0a1.32,1.32,0,0,0,.74-.37c2-.3,1.6-1.71,1-2.62-.7-1.14-2.43-3.23-7-5.9A73,73,0,0,0,137,85.87a43.51,43.51,0,0,0-9.18-2.36,8.8,8.8,0,0,0-2,0A1.45,1.45,0,0,0,124.91,83.89Z"/><path class="cls-155" d="M125.11,84.06c-1.92.29-1.54,1.65-1,2.53.64,1,2.2,3,6.3,5.43l.23.14.36.21a72.54,72.54,0,0,0,11.74,5.36,43.62,43.62,0,0,0,9.09,2.34H152a8,8,0,0,0,1.83,0l.21,0a1.22,1.22,0,0,0,.71-.38c1.91-.3,1.53-1.67,1-2.56-.7-1.11-2.4-3.15-6.86-5.74A71.07,71.07,0,0,0,137.06,86,43,43,0,0,0,128,83.66a8.54,8.54,0,0,0-2,0A1.3,1.3,0,0,0,125.11,84.06Z"/><path class="cls-156" d="M125.31,84.23c-1.84.29-1.46,1.61-.93,2.47.64,1,2.17,2.89,6.14,5.28l.23.14.36.2a70.85,70.85,0,0,0,11.57,5.29,42.76,42.76,0,0,0,9,2.31h.12a7.83,7.83,0,0,0,1.82,0l.2,0a1.09,1.09,0,0,0,.69-.39c1.83-.3,1.45-1.63.9-2.5-.7-1.09-2.37-3.07-6.69-5.59a70.71,70.71,0,0,0-11.59-5.3,42.26,42.26,0,0,0-9-2.3,7.85,7.85,0,0,0-1.94,0A1.23,1.23,0,0,0,125.31,84.23Z"/><path class="cls-157" d="M125.51,84.4c-1.76.29-1.39,1.57-.86,2.41.64,1,2.14,2.82,6,5.13l.23.14.34.2a70.23,70.23,0,0,0,11.42,5.21,41.75,41.75,0,0,0,8.89,2.28h.12a8.14,8.14,0,0,0,1.79,0l.21,0a1.06,1.06,0,0,0,.66-.4c1.75-.3,1.37-1.59.82-2.44-.69-1.07-2.33-3-6.52-5.43a68.78,68.78,0,0,0-11.43-5.23A41.57,41.57,0,0,0,128.29,84a7.69,7.69,0,0,0-1.92,0A1.16,1.16,0,0,0,125.51,84.4Z"/><path class="cls-158" d="M125.71,84.57c-1.68.29-1.31,1.53-.78,2.35.63,1,2.1,2.74,5.83,5L131,92l.34.2a68.55,68.55,0,0,0,11.25,5.14,41.43,41.43,0,0,0,8.8,2.25h.12a7.33,7.33,0,0,0,1.77,0l.2-.05a1,1,0,0,0,.64-.41c1.67-.3,1.3-1.55.75-2.38-.69-1-2.29-2.92-6.36-5.28a68.74,68.74,0,0,0-11.26-5.15,40.65,40.65,0,0,0-8.79-2.24,7.46,7.46,0,0,0-1.9,0A1.06,1.06,0,0,0,125.71,84.57Z"/><path class="cls-159" d="M125.91,84.74c-1.59.29-1.23,1.49-.71,2.29.63,1,2.07,2.66,5.67,4.83l.22.13.34.2a68.26,68.26,0,0,0,11.09,5.06,40.29,40.29,0,0,0,8.7,2.22h.11a6.69,6.69,0,0,0,1.76,0l.2,0a.88.88,0,0,0,.61-.42c1.59-.3,1.22-1.51.68-2.32-.69-1-2.26-2.84-6.19-5.12a67.57,67.57,0,0,0-11.1-5.08,39.74,39.74,0,0,0-8.7-2.21,6.73,6.73,0,0,0-1.87,0A1,1,0,0,0,125.91,84.74Z"/><path class="cls-160" d="M126.11,84.91c-1.51.29-1.16,1.45-.64,2.23.63.94,2,2.59,5.52,4.68l.22.13.33.19a66.58,66.58,0,0,0,10.92,5,39.37,39.37,0,0,0,8.61,2.19h.11a7,7,0,0,0,1.74,0l.19-.06a.79.79,0,0,0,.59-.44c1.51-.29,1.14-1.46.6-2.25-.68-1-2.22-2.76-6-5a66.44,66.44,0,0,0-10.94-5,38.63,38.63,0,0,0-8.6-2.18,6.59,6.59,0,0,0-1.85,0C126.46,84.51,126.19,84.68,126.11,84.91Z"/><path class="cls-161" d="M126.31,85.09c-1.43.29-1.08,1.4-.57,2.16a16.67,16.67,0,0,0,5.36,4.53l.22.13.32.19A65.84,65.84,0,0,0,142.4,97a38.4,38.4,0,0,0,8.51,2.16H151a6.33,6.33,0,0,0,1.72,0l.19-.06a.77.77,0,0,0,.56-.45c1.43-.3,1.06-1.42.53-2.19-.68-1-2.19-2.68-5.86-4.82a66.43,66.43,0,0,0-10.77-4.92,38.3,38.3,0,0,0-8.51-2.15,6.39,6.39,0,0,0-1.83,0C126.64,84.67,126.38,84.84,126.31,85.09Z"/><path class="cls-162" d="M126.51,85.26c-1.35.29-1,1.36-.49,2.1a16,16,0,0,0,5.2,4.38l.21.13.32.18a64.73,64.73,0,0,0,10.6,4.84A37.87,37.87,0,0,0,150.76,99h.11a6.1,6.1,0,0,0,1.7,0,.53.53,0,0,0,.19-.06c.31-.1.49-.25.54-.46,1.35-.3,1-1.38.46-2.13-.68-1-2.16-2.6-5.7-4.66a64.47,64.47,0,0,0-10.61-4.85,37.28,37.28,0,0,0-8.4-2.12,6.24,6.24,0,0,0-1.82,0C126.81,84.83,126.57,85,126.51,85.26Z"/><path class="cls-163" d="M126.7,85.43c-1.26.29-.91,1.32-.41,2a15.84,15.84,0,0,0,5,4.23l.21.13.31.18a63.87,63.87,0,0,0,10.43,4.76,37,37,0,0,0,8.32,2.1h.11a5.54,5.54,0,0,0,1.68,0,.6.6,0,0,0,.19-.06c.3-.1.47-.26.51-.47,1.26-.3.91-1.34.38-2.07-.67-.94-2.12-2.52-5.52-4.51A63.73,63.73,0,0,0,137.51,87a37,37,0,0,0-8.31-2.1,6.81,6.81,0,0,0-1.8,0C127,85,126.75,85.18,126.7,85.43Z"/><path class="cls-164" d="M126.9,85.6c-1.18.29-.84,1.28-.34,2a15.64,15.64,0,0,0,4.89,4.08l.21.12.3.18a62.43,62.43,0,0,0,10.28,4.69,37.1,37.1,0,0,0,8.22,2.08h.11a5.41,5.41,0,0,0,1.66,0l.19-.06a.65.65,0,0,0,.48-.49c1.18-.3.83-1.3.31-2a16.81,16.81,0,0,0-5.36-4.35,62.89,62.89,0,0,0-10.28-4.7A36.7,36.7,0,0,0,129.35,85a6.12,6.12,0,0,0-1.77,0C127.17,85.15,126.94,85.34,126.9,85.6Z"/><path class="cls-165" d="M127.1,85.77c-1.1.29-.76,1.24-.27,1.92a15.53,15.53,0,0,0,4.74,3.93l.2.12.3.18a61.19,61.19,0,0,0,10.11,4.61,36.21,36.21,0,0,0,8.13,2h.1a5.6,5.6,0,0,0,1.65-.06l.18-.06a.62.62,0,0,0,.46-.5c1.1-.3.75-1.26.24-1.95a16.74,16.74,0,0,0-5.2-4.2,61.77,61.77,0,0,0-10.12-4.62,35.63,35.63,0,0,0-8.12-2,5.58,5.58,0,0,0-1.75.06C127.35,85.31,127.13,85.51,127.1,85.77Z"/><path class="cls-166" d="M127.3,85.94c-1,.29-.68,1.2-.2,1.86a15.45,15.45,0,0,0,4.59,3.78,1.32,1.32,0,0,0,.2.12l.29.17a59.53,59.53,0,0,0,9.94,4.54,35.93,35.93,0,0,0,8,2h.11a5.37,5.37,0,0,0,1.63-.08l.18-.06a.64.64,0,0,0,.44-.52c1-.29.67-1.22.15-1.88a16.48,16.48,0,0,0-5-4,60.47,60.47,0,0,0-9.95-4.55,34.88,34.88,0,0,0-8-2,5.4,5.4,0,0,0-1.73.07C127.52,85.47,127.31,85.67,127.3,85.94Z"/><path class="cls-167" d="M127.5,86.12c-.94.28-.61,1.15-.12,1.79a15.17,15.17,0,0,0,4.42,3.64l.2.11.29.17a59.22,59.22,0,0,0,9.78,4.46,35,35,0,0,0,7.93,2h.11a5.45,5.45,0,0,0,1.6-.08l.18-.07a.59.59,0,0,0,.42-.53c.93-.29.59-1.18.08-1.82a16.49,16.49,0,0,0-4.86-3.89,61,61,0,0,0-9.79-4.47,34.59,34.59,0,0,0-7.93-2,5.32,5.32,0,0,0-1.72.07C127.7,85.63,127.5,85.84,127.5,86.12Z"/><path class="cls-168" d="M127.7,86.29c-.86.28-.53,1.11,0,1.73a15.3,15.3,0,0,0,4.27,3.49l.19.11.28.16A58,58,0,0,0,142,96.17a34.1,34.1,0,0,0,7.84,2h.1a5,5,0,0,0,1.59-.09l.18-.07a.56.56,0,0,0,.39-.54c.85-.29.51-1.14,0-1.77a16.54,16.54,0,0,0-4.7-3.72,59,59,0,0,0-9.63-4.4,33.42,33.42,0,0,0-7.83-2,5.14,5.14,0,0,0-1.7.08C127.88,85.79,127.69,86,127.7,86.29Z"/><path class="cls-169" d="M127.9,86.46c-.77.29-.45,1.07,0,1.67A15.1,15.1,0,0,0,132,91.47l.18.11.28.16A56.93,56.93,0,0,0,142,96.05,33.05,33.05,0,0,0,149.7,98h.1a4.83,4.83,0,0,0,1.57-.1l.17-.07a.54.54,0,0,0,.37-.55c.77-.3.43-1.1-.06-1.71A16.22,16.22,0,0,0,147.31,92a58.15,58.15,0,0,0-9.46-4.32,32.57,32.57,0,0,0-7.74-1.92,4.72,4.72,0,0,0-1.68.09C128.06,86,127.87,86.17,127.9,86.46Z"/><path class="cls-170" d="M128.1,86.63c-.69.29-.37,1,.09,1.61a15.18,15.18,0,0,0,4,3.19l.19.11.27.15a56.08,56.08,0,0,0,9.29,4.24,32.7,32.7,0,0,0,7.65,1.9h.1a4.4,4.4,0,0,0,1.55-.11l.17-.07a.54.54,0,0,0,.34-.56c.69-.3.35-1.06-.14-1.65A15.82,15.82,0,0,0,147.2,92a57,57,0,0,0-9.3-4.25,32,32,0,0,0-7.64-1.89,4.53,4.53,0,0,0-1.65.09C128.23,86.11,128.06,86.33,128.1,86.63Z"/><path class="cls-171" d="M128.3,86.8c-.61.29-.3,1,.17,1.55a14.71,14.71,0,0,0,3.8,3l.18.1.26.16a55.72,55.72,0,0,0,9.13,4.16,31.85,31.85,0,0,0,7.56,1.87h.09a4.24,4.24,0,0,0,1.53-.11.67.67,0,0,0,.17-.08.51.51,0,0,0,.32-.57c.6-.3.28-1-.21-1.59a16.16,16.16,0,0,0-4.2-3.26A56.7,56.7,0,0,0,138,87.91a31.2,31.2,0,0,0-7.55-1.86,4.37,4.37,0,0,0-1.63.1C128.41,86.27,128.25,86.5,128.3,86.8Z"/><path class="cls-172" d="M128.5,87c-.53.29-.22,1,.24,1.49a14.57,14.57,0,0,0,3.65,2.89l.17.1.26.15a53.79,53.79,0,0,0,9,4.09,30.78,30.78,0,0,0,7.45,1.84h.1a4.08,4.08,0,0,0,1.51-.12l.17-.08a.51.51,0,0,0,.29-.58c.52-.3.2-1-.28-1.53a16.08,16.08,0,0,0-4-3.1,54.62,54.62,0,0,0-9-4.1,30.94,30.94,0,0,0-7.46-1.84,4.4,4.4,0,0,0-1.61.12C128.59,86.44,128.43,86.67,128.5,87Z"/><path class="cls-173" d="M128.7,87.14c-.45.29-.14.91.31,1.43a15,15,0,0,0,3.49,2.74l.18.1.25.15a52.93,52.93,0,0,0,8.8,4,31,31,0,0,0,7.36,1.82h.1a3.73,3.73,0,0,0,1.49-.13l.16-.07a.52.52,0,0,0,.27-.61c.44-.29.12-.93-.36-1.46a15.92,15.92,0,0,0-3.87-3,53.5,53.5,0,0,0-8.81-4,30.47,30.47,0,0,0-7.35-1.81,4.25,4.25,0,0,0-1.6.13C128.77,86.6,128.62,86.83,128.7,87.14Z"/><path class="cls-174" d="M128.89,87.32c-.36.28-.06.86.39,1.36a14.91,14.91,0,0,0,3.34,2.59l.17.1a2,2,0,0,0,.25.14,51.82,51.82,0,0,0,8.64,3.94,30,30,0,0,0,7.26,1.79H149a4.08,4.08,0,0,0,1.48-.13l.16-.08a.51.51,0,0,0,.24-.62c.36-.29,0-.89-.43-1.4a16,16,0,0,0-3.7-2.79,53.16,53.16,0,0,0-8.65-4,29.64,29.64,0,0,0-7.26-1.78,4.16,4.16,0,0,0-1.58.13A.55.55,0,0,0,128.89,87.32Z"/><path class="cls-175" d="M129.09,87.49c-.28.28,0,.82.47,1.3a14.89,14.89,0,0,0,3.17,2.44l.17.1.24.14a51.45,51.45,0,0,0,8.48,3.86,29.16,29.16,0,0,0,7.17,1.76h.09a3.7,3.7,0,0,0,1.46-.14l.15-.08a.5.5,0,0,0,.22-.63c.28-.29,0-.85-.5-1.34a16,16,0,0,0-3.54-2.64,52,52,0,0,0-8.49-3.87A29.11,29.11,0,0,0,131,86.64a3.73,3.73,0,0,0-1.55.14A.54.54,0,0,0,129.09,87.49Z"/><path class="cls-176" d="M129.29,87.66c-.2.28.1.78.54,1.24a14.83,14.83,0,0,0,3,2.29l.17.1.23.13a49.79,49.79,0,0,0,8.31,3.79,28.8,28.8,0,0,0,7.08,1.73h.09a3.5,3.5,0,0,0,1.43-.15l.16-.08a.5.5,0,0,0,.19-.64c.2-.3-.11-.81-.58-1.28a16,16,0,0,0-3.37-2.48,50.35,50.35,0,0,0-8.32-3.8,28.39,28.39,0,0,0-7.07-1.72,3.6,3.6,0,0,0-1.53.15A.53.53,0,0,0,129.29,87.66Z"/><path class="cls-177" d="M129.49,87.83c-.12.28.18.74.61,1.18A14.87,14.87,0,0,0,133,91.15l.16.1.23.13a49.49,49.49,0,0,0,8.15,3.71,27.87,27.87,0,0,0,7,1.7h.09a3.43,3.43,0,0,0,1.42-.15l.15-.09a.51.51,0,0,0,.18-.65c.11-.3-.2-.77-.66-1.22a16.38,16.38,0,0,0-3.21-2.33,50.34,50.34,0,0,0-8.15-3.72,27.59,27.59,0,0,0-7-1.69,3.52,3.52,0,0,0-1.51.15A.54.54,0,0,0,129.49,87.83Z"/><path class="cls-178" d="M129.69,88c0,.29.25.7.68,1.12a15.56,15.56,0,0,0,2.71,2l.16.09.22.13a48.31,48.31,0,0,0,8,3.64,27.16,27.16,0,0,0,6.88,1.67.27.27,0,0,0,.09,0,3.32,3.32,0,0,0,1.4-.16l.15-.09a.51.51,0,0,0,.15-.66c0-.3-.28-.73-.73-1.16a16.75,16.75,0,0,0-3-2.17,49.27,49.27,0,0,0-8-3.65,26.64,26.64,0,0,0-6.88-1.66,3.37,3.37,0,0,0-1.49.16A.52.52,0,0,0,129.69,88Z"/><path class="cls-179" d="M129.89,88.17a2.66,2.66,0,0,0,.75,1.06,16.26,16.26,0,0,0,2.56,1.84l.15.09.22.13a47.45,47.45,0,0,0,7.82,3.56,26.79,26.79,0,0,0,6.79,1.64h.09a3.13,3.13,0,0,0,1.38-.18.67.67,0,0,0,.14-.09c.21-.16.22-.37.13-.67a2.8,2.8,0,0,0-.81-1.1,18,18,0,0,0-2.87-2,48.42,48.42,0,0,0-7.83-3.57,26.22,26.22,0,0,0-6.78-1.63,3.13,3.13,0,0,0-1.48.17C129.83,87.56,129.78,87.81,129.89,88.17Z"/><path class="cls-180" d="M149.72,95.38c-.33-.71-1.6-1.74-3.59-2.89a47.31,47.31,0,0,0-7.67-3.5,25.7,25.7,0,0,0-6.68-1.6c-1.4-.07-2,.27-1.69,1S131.53,90,133.32,91l.36.21a46,46,0,0,0,7.66,3.49A25.44,25.44,0,0,0,148,96.34h.08C149.46,96.39,150,96.05,149.72,95.38Z"/></g><path class="cls-181" d="M118.51,40.47h0a14.75,14.75,0,0,1,17.35-2.68l24.49,12.93a11.6,11.6,0,0,1,5.73,9.19V90.18c0,5.45-4.92,9.77-10.73,9.43l-1.08-.07a6,6,0,0,1-2.44-.67L123.15,83.73a11.58,11.58,0,0,1-5.73-9.19V43.14A3.85,3.85,0,0,1,118.51,40.47Z"/><path class="cls-182" d="M117.42,44.58c0-3.38,2.58-4.79,5.73-3.12l28,14.8a11.6,11.6,0,0,1,5.73,9.2V95.31c0,3.39-2.58,4.79-5.73,3.13l-28-14.81a11.6,11.6,0,0,1-5.73-9.19Z"/><path class="cls-46" d="M137.14,58.86c-3.29-1.78-6-.37-6,3.13s2.69,7.94,6,9.85,6,.5,6-3.14A12.42,12.42,0,0,0,137.14,58.86Z"/><path class="cls-46" d="M154.83,52.33V38.75c0-13.12-3.1-21.45-9.2-24.74a9.88,9.88,0,0,0-9.51-.25c-2.35,1.27-6.28,4.78-6.28,14.07V41.14h.07a1.24,1.24,0,0,0,.74.94,4.29,4.29,0,0,0,3.64,0,1.26,1.26,0,0,0,.75-.94h.07V27.83c0-4.91,1.36-8.57,3.64-9.8a4.41,4.41,0,0,1,4.24.25c4.24,2.28,6.57,9.55,6.57,20.47V52.3a1.21,1.21,0,0,0,.76,1.05,4.44,4.44,0,0,0,3.74,0A1.23,1.23,0,0,0,154.83,52.33Z"/><polygon class="cls-46" points="133.53 62.31 133.53 77.91 140.75 81.81 140.75 66.21 133.53 62.31"/><polygon class="cls-183" points="151.73 174.71 155.62 172.5 155.62 173.99 151.73 176.2 151.73 174.71"/><polygon class="cls-183" points="156.39 172.08 160.29 169.87 160.29 171.36 156.39 173.57 156.39 172.08"/><path class="cls-96" d="M122.36,169.8c-.45-.27-.82-.05-.82.47a1.82,1.82,0,0,0,.82,1.43c.46.27.83.05.83-.47A1.84,1.84,0,0,0,122.36,169.8Z"/><path class="cls-96" d="M125.71,172c-.46-.27-.83-.05-.83.47a1.81,1.81,0,0,0,.83,1.43c.45.27.82,0,.82-.47A1.82,1.82,0,0,0,125.71,172Z"/></g></g></svg>