<svg xmlns="http://www.w3.org/2000/svg" xmlns:xlink="http://www.w3.org/1999/xlink" viewBox="0 0 300 300"><defs><style>.cls-1{fill:none;}.cls-2,.cls-22,.cls-3{fill:#0d0d59;}.cls-3,.cls-4,.cls-6{clip-rule:evenodd;}.cls-15,.cls-4,.cls-5{fill:#8f909e;}.cls-18,.cls-6,.cls-7{fill:#e5e6f1;}.cls-8{isolation:isolate;}.cls-9{fill:#eef0f8;}.cls-10,.cls-31{fill:#9eaad4;}.cls-11,.cls-32{fill:#fff;}.cls-12{clip-path:url(#clip-path);}.cls-13{clip-path:url(#clip-path-2);}.cls-14{clip-path:url(#clip-path-3);}.cls-15,.cls-18,.cls-22,.cls-31,.cls-32{fill-rule:evenodd;}.cls-16{clip-path:url(#clip-path-4);}.cls-17{clip-path:url(#clip-path-5);}.cls-19{clip-path:url(#clip-path-6);}.cls-20{clip-path:url(#clip-path-7);}.cls-21{clip-path:url(#clip-path-8);}.cls-23{clip-path:url(#clip-path-10);}.cls-24{clip-path:url(#clip-path-11);}.cls-25{clip-path:url(#clip-path-12);}.cls-26{clip-path:url(#clip-path-14);}.cls-27{fill:#8585ab;}.cls-28{mix-blend-mode:multiply;}.cls-29{fill:#cbccd0;}.cls-30{fill:#1e3595;}.cls-33{fill:#151d79;}.cls-34{fill:#ffd5d5;}.cls-35{fill:#f79d56;}.cls-36{fill:#ff3e7d;}.cls-37{fill:#ccc;}.cls-38{fill:#0d1e80;}</style><clipPath id="clip-path"><rect class="cls-1" x="152.63" y="27" width="77.58" height="207.89"/></clipPath><clipPath id="clip-path-2"><rect class="cls-1" x="-137.25" y="-80.33" width="682.2" height="511.65"/></clipPath><clipPath id="clip-path-3"><rect class="cls-1" x="152.12" y="26.55" width="78.45" height="208.64"/></clipPath><clipPath id="clip-path-4"><path class="cls-4" d="M223.41,62.23,163.8,27.81c-1.75-1-3.35-1-4.55-.28l-6.62,3.82,4.37,13V183.19c0,5,3.06,10.83,6.8,13l54.85,31.67,2.37,7,6.75-3.91h0c1.49-.8,2.44-2.75,2.44-5.53V75.21c0-5-3.06-10.83-6.8-13"/></clipPath><clipPath id="clip-path-5"><rect class="cls-5" x="152.12" y="26.55" width="78.45" height="208.64"/></clipPath><clipPath id="clip-path-6"><path class="cls-6" d="M150.3,187.06c0,5,3.06,10.83,6.8,13l59.61,34.42c3.74,2.16,6.8-.16,6.8-5.14v-13.1L150.3,174Z"/></clipPath><clipPath id="clip-path-7"><rect class="cls-7" x="-137.25" y="-80.33" width="682.2" height="511.65"/></clipPath><clipPath id="clip-path-8"><path class="cls-6" d="M223.51,79.09c0-5-3.06-10.83-6.8-13L157.1,31.68c-3.74-2.15-6.8.16-6.8,5.14V49.93l73.21,42.26Z"/></clipPath><clipPath id="clip-path-10"><path class="cls-3" d="M196.33,66.43,177.47,55.54a1.81,1.81,0,0,1-.76-1.45c0-.55.34-.81.76-.57l18.86,10.89a1.81,1.81,0,0,1,.76,1.45c0,.56-.34.81-.76.57"/></clipPath><clipPath id="clip-path-11"><rect class="cls-2" x="-137.25" y="-80.33" width="682.2" height="511.65"/></clipPath><clipPath id="clip-path-12"><path class="cls-3" d="M172.56,53.34A3,3,0,0,1,171.32,51c0-.91.56-1.33,1.24-.94a3,3,0,0,1,1.24,2.37c0,.91-.56,1.33-1.24.93"/></clipPath><clipPath id="clip-path-14"><polygon class="cls-3" points="212.6 85.89 192.27 74.16 179.14 66.58 150.3 49.92 150.3 116.53 150.3 146.85 150.3 173.96 158.89 178.92 223.51 216.23 223.51 92.19 212.6 85.89"/></clipPath></defs><title>login</title><g class="cls-8"><g id="Camada_1" data-name="Camada 1"><path class="cls-9" d="M255.93,205.15c0,27.78-22.54,44.23-55.71,56.56C185.28,267.26,141,273,122.85,273c-36.39,0-19.28-28.72-38.36-48-11.59-11.71-40.42-4.65-40.42-19.89,0-40.3,47.42-73,105.93-73,23.29,0,37.86,27.65,55.34,36.42C231.79,181.87,255.93,180.89,255.93,205.15Z"/><path class="cls-10" d="M194.11,203.61l-11.22-6.75a7.23,7.23,0,0,0-3.71-1,7.14,7.14,0,0,0-3.5.85L169.77,200a3.06,3.06,0,0,0,0,5.64L181,212.38a7.28,7.28,0,0,0,3.71,1,7.19,7.19,0,0,0,3.5-.85l5.91-3.24a3.06,3.06,0,0,0,0-5.63Z"/><path class="cls-11" d="M192.73,205.25l-11.22-6.75a4.62,4.62,0,0,0-2.33-.58,4.52,4.52,0,0,0-2.19.52l-5.88,3.22a1.4,1.4,0,0,0-.84,1.14,1.44,1.44,0,0,0,.84,1.18l11.23,6.76a4.73,4.73,0,0,0,2.33.57,4.45,4.45,0,0,0,2.18-.51l5.89-3.22a1.43,1.43,0,0,0,.84-1.14A1.48,1.48,0,0,0,192.73,205.25Z"/><g class="cls-12"><g class="cls-13"><g class="cls-8"><g class="cls-14"><path class="cls-15" d="M223.41,62.23,163.8,27.81c-1.75-1-3.35-1-4.55-.28l-6.62,3.82,4.37,13V183.19c0,5,3.06,10.83,6.8,13l54.85,31.67,2.37,7,6.75-3.91h0c1.49-.8,2.44-2.75,2.44-5.53V75.21c0-5-3.06-10.83-6.8-13"/><g class="cls-16"><rect class="cls-5" x="152.12" y="26.55" width="78.45" height="208.64"/><g class="cls-17"><rect class="cls-5" x="149.79" y="24.16" width="83.27" height="213.57"/></g></g></g></g></g></g><path class="cls-18" d="M150.3,187.06c0,5,3.06,10.83,6.8,13l59.61,34.42c3.74,2.16,6.8-.16,6.8-5.14v-13.1L150.3,174Z"/><g class="cls-19"><rect class="cls-7" x="-137.25" y="-80.33" width="682.2" height="511.65"/><g class="cls-20"><rect class="cls-7" x="147.46" y="171.12" width="78.89" height="67"/></g></g><path class="cls-18" d="M223.51,79.09c0-5-3.06-10.83-6.8-13L157.1,31.68c-3.74-2.15-6.8.16-6.8,5.14V49.93l73.21,42.26Z"/><g class="cls-21"><rect class="cls-7" x="-137.25" y="-80.33" width="682.2" height="511.65"/><g class="cls-20"><rect class="cls-7" x="147.46" y="28.03" width="78.89" height="67"/></g></g><path class="cls-22" d="M196.33,66.43,177.47,55.54a1.81,1.81,0,0,1-.76-1.45c0-.55.34-.81.76-.57l18.86,10.89a1.81,1.81,0,0,1,.76,1.45c0,.56-.34.81-.76.57"/><g class="cls-23"><rect class="cls-2" x="-137.25" y="-80.33" width="682.2" height="511.65"/><g class="cls-24"><rect class="cls-2" x="173.87" y="50.59" width="26.06" height="18.78"/></g></g><path class="cls-22" d="M172.56,53.34A3,3,0,0,1,171.32,51c0-.91.56-1.33,1.24-.94a3,3,0,0,1,1.24,2.37c0,.91-.56,1.33-1.24.93"/><g class="cls-25"><rect class="cls-2" x="-137.25" y="-80.33" width="682.2" height="511.65"/><g class="cls-24"><rect class="cls-2" x="168.48" y="47.05" width="8.16" height="9.28"/></g></g><polygon class="cls-22" points="212.6 85.89 192.27 74.16 179.14 66.58 150.3 49.92 150.3 116.53 150.3 146.85 150.3 173.96 158.89 178.92 223.51 216.23 223.51 92.19 212.6 85.89"/><g class="cls-26"><rect class="cls-2" x="-137.25" y="-80.33" width="682.2" height="511.65"/><g class="cls-24"><rect class="cls-27" x="147.46" y="47.08" width="78.89" height="171.99"/></g></g><g class="cls-28"><path class="cls-29" d="M210,170.33l-37-21.16a4.2,4.2,0,0,0-3.63,0l-.26.14-1.89.95c-1,.55-1,1.43,0,2l37,21.16a4.22,4.22,0,0,0,3.64,0l2.14-1.09"/></g><path class="cls-29" d="M207.33,122.34c0-.38-.05-.77-.09-1.16,0-.11,0-.23,0-.35-.06-.5-.13-1-.21-1.49,0-.1,0-.19-.05-.3-.07-.42-.15-.84-.24-1.27l-.09-.4-.18-.76c0-.16-.07-.31-.11-.47l-.21-.76c0-.16-.09-.32-.14-.48s-.15-.49-.22-.74-.11-.33-.16-.49-.17-.49-.25-.74l-.15-.43c-.24-.66-.49-1.31-.76-2l-.12-.27q-.41-1-.87-2l-.1-.2c-.33-.68-.67-1.35-1-2l-.09-.16c-.38-.68-.76-1.34-1.17-2l0,0c-.49-.8-1-1.58-1.54-2.34a1.71,1.71,0,0,0-.11-.14c-.51-.73-1-1.44-1.59-2.12-.08-.09-.15-.19-.22-.28l-.8-.94-.21-.26c-.35-.39-.7-.78-1.05-1.15l-.11-.12c-.32-.33-.63-.65-1-1l-.29-.29c-.28-.27-.57-.54-.85-.79l-.28-.25c-.37-.34-.75-.66-1.13-1l-.08-.06c-.35-.28-.71-.56-1.07-.82l-.34-.25-.87-.6-.34-.23c-.4-.25-.79-.5-1.2-.73s-.72-.41-1.08-.59l-.28-.14-.8-.38-.33-.14c-.24-.11-.49-.21-.73-.3l-.35-.13-.68-.24-.38-.11-.58-.16-.4-.1-.54-.12-.42-.07-.51-.07-.41,0L180,88l-.36,0h-1.16L178,88l-.34,0-.42.07-.36.07-.38.1-.33.09a3.56,3.56,0,0,0-.39.13l-.31.11-.42.18-.25.11c-.21.1-.43.21-.64.33l3.62-2.1c.21-.12.42-.23.64-.33l.25-.11a3.79,3.79,0,0,1,.42-.18l.3-.11.39-.13.32-.09.22-.06.19,0,.35-.07.4-.07.37,0,.41,0,.39,0h.89l.27,0,.56,0,.36,0,.56.08.39.07c.18,0,.37.07.55.12l.42.1.56.15.19.06.21.07.64.22c.13.05.27.09.4.15l.65.26.41.18.69.33.38.18c.35.19.71.38,1.07.59s.8.48,1.19.73l.35.24.86.59.35.26q.52.38,1,.78l.13.1c.37.31.74.62,1.11,1l.32.28c.27.25.54.49.8.75l.34.32.89.91.16.17c.35.37.7.75,1,1.14l.23.27c.27.31.54.62.8,1l.14.16.14.18.54.7.32.42c.17.22.33.45.5.68l.32.45.48.71.3.44c.2.3.39.61.59.92,0,.08.09.15.14.23h0c.4.65.78,1.31,1.15,2a2.12,2.12,0,0,0,.11.21c.35.64.68,1.28,1,1.93a1.51,1.51,0,0,1,.09.18l.06.12c.29.62.57,1.24.84,1.87l.15.35c.26.63.5,1.26.73,1.89a1.12,1.12,0,0,1,.05.13c0,.14.1.28.14.41l.21.61c.07.2.13.41.19.61s.13.42.2.63.11.39.16.59l.18.65c.05.19.09.37.14.56s.11.45.16.68a2,2,0,0,1,.05.24,1.55,1.55,0,0,1,0,.21c.09.43.18.86.25,1.29,0,.08,0,.16.05.25.08.51.15,1,.21,1.52,0,.09,0,.18,0,.28,0,.41.08.83.11,1.24,0,.13,0,.25,0,.37,0,.5,0,1,0,1.48,0,6.14-2.18,10.45-5.67,12.48l-3.62,2.1c3.5-2,5.66-6.35,5.68-12.49,0-.47,0-1,0-1.45Z"/><path class="cls-11" d="M168.47,101.74c0,.75,0,1.5.09,2.28.87,10.92,7.93,23.33,16.92,29.77.78.57,1.59,1.09,2.39,1.56,10.76,6.21,19.49,1.22,19.53-11.14S198.75,96.82,188,90.61,168.5,89.38,168.47,101.74Z"/><path class="cls-30" d="M192.56,108.82c0,3.44-2.4,4.83-5.35,3.11a11.93,11.93,0,0,1-5.36-9.34c0-3.44,2.4-4.84,5.36-3.12A12,12,0,0,1,192.56,108.82Z"/><path class="cls-30" d="M187.21,111.61c-5.29-3.07-9.58-.58-9.58,5.57l19.15,11.14C196.78,122.17,192.49,114.69,187.21,111.61Z"/><polygon class="cls-31" points="209.5 168.9 209.5 176.69 210.52 176.08 210.52 168.33 209.5 168.9"/><polygon class="cls-31" points="164.72 143.08 209.5 168.93 210.52 168.33 165.58 142.37 164.72 143.08"/><polygon class="cls-32" points="209.5 168.93 209.5 176.69 164.72 150.84 164.72 143.08 209.5 168.93"/><path class="cls-33" d="M185.8,161.76a.69.69,0,0,1-.43-.17,1.39,1.39,0,0,1-.42-1.19.57.57,0,0,1,.54-.54.67.67,0,0,1,.43.17,1.39,1.39,0,0,1,.43,1.19.58.58,0,0,1-.55.54Z"/><path class="cls-33" d="M182.79,160a.67.67,0,0,1-.42-.17,1.37,1.37,0,0,1-.43-1.19.57.57,0,0,1,.55-.54.67.67,0,0,1,.42.17,1.39,1.39,0,0,1,.43,1.19.58.58,0,0,1-.55.54Z"/><path class="cls-33" d="M179.78,158.32a.67.67,0,0,1-.42-.17,1.37,1.37,0,0,1-.43-1.19.57.57,0,0,1,.55-.54.67.67,0,0,1,.42.17,1.37,1.37,0,0,1,.43,1.19.58.58,0,0,1-.55.54Z"/><path class="cls-33" d="M176.77,156.6a.67.67,0,0,1-.42-.17,1.37,1.37,0,0,1-.43-1.19.57.57,0,0,1,.55-.54.67.67,0,0,1,.42.17,1.37,1.37,0,0,1,.43,1.19.57.57,0,0,1-.55.54Z"/><path class="cls-33" d="M173.76,154.88a.67.67,0,0,1-.42-.17,1.39,1.39,0,0,1-.43-1.19.58.58,0,0,1,.55-.54.67.67,0,0,1,.42.17,1.37,1.37,0,0,1,.43,1.19.57.57,0,0,1-.55.54Z"/><path class="cls-33" d="M170.75,153.16a.67.67,0,0,1-.42-.17,1.39,1.39,0,0,1-.43-1.19.58.58,0,0,1,.55-.54.64.64,0,0,1,.42.17,1.37,1.37,0,0,1,.43,1.19.57.57,0,0,1-.54.54Z"/><path class="cls-33" d="M167.75,151.44a.69.69,0,0,1-.43-.17,1.39,1.39,0,0,1-.43-1.19.58.58,0,0,1,.55-.54.69.69,0,0,1,.43.17,1.42,1.42,0,0,1,.43,1.19.59.59,0,0,1-.55.54Z"/><polygon class="cls-31" points="209.5 184.66 209.5 192.45 210.52 191.85 210.52 184.09 209.5 184.66"/><polygon class="cls-31" points="164.72 158.84 209.5 184.69 210.52 184.09 165.58 158.13 164.72 158.84"/><polygon class="cls-32" points="209.5 184.7 209.5 192.45 164.72 166.6 164.72 158.84 209.5 184.7"/><path class="cls-33" d="M176.77,172.36a.67.67,0,0,1-.42-.17,1.37,1.37,0,0,1-.43-1.19.57.57,0,0,1,.55-.54.67.67,0,0,1,.42.17,1.37,1.37,0,0,1,.43,1.19.57.57,0,0,1-.55.54Z"/><path class="cls-33" d="M173.76,170.64a.67.67,0,0,1-.42-.17,1.39,1.39,0,0,1-.43-1.19.58.58,0,0,1,.55-.54.67.67,0,0,1,.42.17,1.37,1.37,0,0,1,.43,1.19.57.57,0,0,1-.55.54Z"/><path class="cls-33" d="M170.75,168.92a.67.67,0,0,1-.42-.17,1.39,1.39,0,0,1-.43-1.19.58.58,0,0,1,.55-.54.64.64,0,0,1,.42.17,1.37,1.37,0,0,1,.43,1.19.57.57,0,0,1-.54.54Z"/><path class="cls-33" d="M167.75,167.2a.69.69,0,0,1-.43-.17,1.39,1.39,0,0,1-.43-1.19.58.58,0,0,1,.55-.54.69.69,0,0,1,.43.17,1.42,1.42,0,0,1,.43,1.19.59.59,0,0,1-.55.54Z"/><g class="cls-28"><path class="cls-10" d="M126.31,202.23c-.58-.22-1.36.15-2.17,1a12.73,12.73,0,0,0-2.4,4.26,13,13,0,0,0-.85,4.92c.07,1.29.44,2.12,1,2.34s1.33-.14,2.13-1c0,0,0,0,.05,0a12.63,12.63,0,0,0,2.4-4.26,13.18,13.18,0,0,0,.85-4.92,1.79,1.79,0,0,0,0-.23C127.25,203.18,126.89,202.43,126.31,202.23Z"/></g><g class="cls-28"><path class="cls-10" d="M106.67,189.52a12.66,12.66,0,0,0-4.87.32,13.23,13.23,0,0,0-4.59,2c-1,.76-1.52,1.52-1.38,2.16s.85,1,2,1.24h.08a12.67,12.67,0,0,0,4.87-.32,13.23,13.23,0,0,0,4.59-2l.18-.14c.91-.71,1.33-1.43,1.19-2S107.86,189.72,106.67,189.52Z"/></g><path class="cls-34" d="M97.38,160.19a.32.32,0,0,0,.6.17,17.3,17.3,0,0,0,.89-2.66c.48-1.13,1.08-2,1.53-3a4.8,4.8,0,0,1-1.24-.31C98,155.45,97.39,159.45,97.38,160.19Z"/><path class="cls-34" d="M98.34,159.13a.23.23,0,0,0,.44.15,17.42,17.42,0,0,0,.89-2.67c.48-1.12,1.08-2,1.54-3a4.63,4.63,0,0,1-1.24-.32C98.83,154.37,98.51,158.41,98.34,159.13Z"/><path class="cls-34" d="M99,158.58a.22.22,0,0,0,.41.14,15.93,15.93,0,0,0,.83-2.5c.45-1.05,1-1.83,1.44-2.84a3.8,3.8,0,0,1-1.16-.29C99.43,154.12,99.14,157.91,99,158.58Z"/><path class="cls-34" d="M98.3,152.57c-.09.4-.19.81-.29,1.22s-.25,1-.34,1.44c0,.24-.83,4.23-.18,4.38.3.06.36-.58.42-.82.19-.81.6-4,.79-3.51.08.22-.46,2,.09,2.18.18,0,.43-.76.58-1a3.2,3.2,0,0,0,.68-2.72A4.37,4.37,0,0,1,98.3,152.57Z"/><path class="cls-11" d="M126.3,203.31l-4.26-.2a26.58,26.58,0,0,1-.38,2.77c-.35,1.52-1.13,3.86-1.31,4.62-.3,1.27.45,1.92,1.71,2.22,1.1.26,3.66-1.1,4-2.51.23-.93,1.34-4.35.25-5.41Z"/><path class="cls-35" d="M122,203.11s-.11,1.24-.27,2.16c.14.22.69-.09,1.55,0,1.08.15,2.13.7,2.51.35a3,3,0,0,0,.49-.85c0-.88,0-1.49,0-1.49Z"/><path class="cls-11" d="M103.38,186.76s-.74.9-1.34,1.49c-1.15,1.12-6,2.84-6,4.43,0,.81,2,1.53,3.62,1.59a5,5,0,0,0,3.5-1.36c.72-.64,3.26-1,3.62-1.53a1.92,1.92,0,0,0,.14-1.86c.17-.89.35-1.75.35-1.75Z"/><path class="cls-35" d="M102,188.25a5.31,5.31,0,0,0,2,1.56c.73.33,2.87-.29,2.87-.29.17-.89.35-1.75.35-1.75l-4-1.18A7,7,0,0,1,102,188.25Z"/><path class="cls-11" d="M97.51,153.22c2.57,1.29,3.3,2.16,3.38,2.3,2.14-2.49,4.08-6.05,6-9.19l-4.68-1.71C100.73,147.42,99,150.77,97.51,153.22Z"/><path class="cls-36" d="M98.23,151.53c3,1.41,3.72,2.9,3.82,3.05,2.5-3,12.55-24.66,12.74-25.2-1.17-.18-3.61-2.74-3.7-2.74C107.3,126.64,100.46,147.53,98.23,151.53Z"/><path class="cls-34" d="M155,130.59a7.89,7.89,0,0,1-2,1.39c.89-.25,1,.31,1.93.18.35-.16,1.33-1.57,1.06-1.86C155.61,129.82,155.36,130.27,155,130.59Z"/><path class="cls-34" d="M161.28,131.32a13.93,13.93,0,0,0-2.24,0c-.18,0-2.77.09-3.91.26a20.55,20.55,0,0,0-2.81.58l-.15,0c-.18.05-.36.12-.54.19s-.32.1-.49.17a9.2,9.2,0,0,1,.57.75,8.61,8.61,0,0,1,1.36,2.94c1.61-.2,5.74-1.18,5.87-1.18,2,0,2.48-.68,2.09-1.1-.1-.11,1.24-.57,1-1.06a1.23,1.23,0,0,0,.24-.69A4.94,4.94,0,0,0,161.28,131.32Z"/><path class="cls-11" d="M148.57,131.39v5.94a47.29,47.29,0,0,0,6.44-1.16,9.29,9.29,0,0,1-1.51-4.94C152,131.36,150.28,131.38,148.57,131.39Z"/><path class="cls-37" d="M111.9,127.18c-.38,1.33-2.13,7.07-2.21,8.52-.1,1.23-.91,4.48-.92,5.75l6.46,4.21c.93-1.31,6.26-15.83,6.62-16.34C121.34,129.71,111.9,127.18,111.9,127.18Z"/><path class="cls-38" d="M107.54,153.88c-.17.94-5.26,33.53-5.26,33.54,1.59,2.13,5.45,1.63,5.45,1.63s8-24.13,8-33.08C115.58,155.24,108,154.24,107.54,153.88Z"/><path class="cls-38" d="M114.77,160.67c.1.87,6.18,42.41,6.25,42.51,2.84,2.62,7,.67,7.07.59s-3.21-40.48-3.39-42.47C123.26,162.18,115.67,161.38,114.77,160.67Z"/><path class="cls-36" d="M110.83,127.17c.32-.29,1.79-.58,2.12-.8-4.41-.9-5.69,8.36-5.69,10.59,0,4.69-.75,20.39-.75,20.39a3.8,3.8,0,0,0,1.75,1.31l2.42-3.89s.1-2.08.4-5.2c.12-1.43.28-2.85.4-4.28,0-.5.19-1.94.19-1.94-.06-.16-1-1.62-1.25-2.33a2,2,0,0,1-.09-.22,26.1,26.1,0,0,1-1.24-4,19.89,19.89,0,0,1-.53-4.28,11.18,11.18,0,0,1,.35-2.53l1.76-.72c.18-.29-.47-1.14-.43-1.38A1.71,1.71,0,0,1,110.83,127.17Z"/><path class="cls-36" d="M122.37,128.06h0l-.76-.31-.12,0c-.25-.09-5.5,9-6.56,9.63a5.81,5.81,0,0,0-1.64,1.36,7.47,7.47,0,0,0-1.43,3.27s0,.1,0,.17c-.17.73-.73,2.91-1.12,4.69-.19.88-.34,1.67-.38,2.11a47.69,47.69,0,0,0-.11,5.83l2,4.85c5.37,3.17,12.91,2.13,12.91,2.13a140.91,140.91,0,0,1,2-30.22C127.29,130.26,124.55,129,122.37,128.06Z"/><path class="cls-36" d="M150.83,131.17c-4.56.41-23.8-.95-26.06-1.85a71.22,71.22,0,0,1-.21,8.73s10.33.95,27.89-1.07a18.33,18.33,0,0,1-1-2.21A11.91,11.91,0,0,1,150.83,131.17Z"/><path class="cls-11" d="M111.89,126.37a9.51,9.51,0,0,0-1.06.8,1.71,1.71,0,0,0-.59.75c0,.24.61,1.09.43,1.38l-1.76.72a11.18,11.18,0,0,0-.35,2.53,19.89,19.89,0,0,0,.53,4.28,26.1,26.1,0,0,0,1.24,4,2,2,0,0,0,.09.22,11.56,11.56,0,0,0,1.15,2.15c-.23-.61-.66-1.38-.86-2a7.58,7.58,0,0,1-.35-1.3,25.39,25.39,0,0,1-.12-4.45,2.69,2.69,0,0,1,0-.4,22.06,22.06,0,0,1,.92-5,5.61,5.61,0,0,1,.68-1.5h0a2.81,2.81,0,0,1,.19-.31,36.1,36.1,0,0,1,3.66-2.72C115.37,125.27,112,126.44,111.89,126.37Z"/><path class="cls-11" d="M118,126.26c-.34.32,1.73,3.15,1.43,3.56a14.07,14.07,0,0,1-1.2,1.29c-6.14,6.87-6.7,11.63-6.7,12,.12-.47,5.56-6.8,6.64-7.4.5-.29.13-1.75.31-2.21.33,0,1.15.64,1.53.17,0-.08,3-2.93,2.34-5S118.75,125.61,118,126.26Z"/><path class="cls-11" d="M119.33,126.75a3.28,3.28,0,0,0,.29,1.23c-1.4,1.72-5.49,1.17-5.68.1,0-.07.78-1.62.79-1.82a15.24,15.24,0,0,0-2.17,1.12,3.08,3.08,0,0,0-.73,2.43,5.42,5.42,0,0,1,2-1.05,6.25,6.25,0,0,1,.25,2.76,10.61,10.61,0,0,0,5.38-1.7C121.66,128.07,119.8,126.45,119.33,126.75Z"/><path class="cls-34" d="M114.09,124.61c0,.2.57,2.39-.25,3.48.19,1.07,4.38,1.61,5.78-.11-.45-.53-.42-3.4.24-4.67C119.48,123.47,115.16,124.77,114.09,124.61Z"/><path class="cls-34" d="M116.29,114.16c-2.57-.36-5.12.12-5.9,2.75-.28.94.13,2.31-.24,3.56-.62,2.12.54,5.37,2,7.09a1.47,1.47,0,0,0,.86.5c1.84.32,6.28-2.43,6.6-4.68,0,0,.43-3.07.44-3.1C120.52,117.29,119.05,114.55,116.29,114.16Z"/><path class="cls-38" d="M109.9,115.77c-.16.91.41,3.26,9.3,2.56,1.25,2,.4,5.31.4,5.31,2.88-1.94,4.43-7.25,1.81-10.33C118,109.27,110.61,111.62,109.9,115.77Z"/><path class="cls-34" d="M119.59,119a1.54,1.54,0,0,0-.66.06,4.32,4.32,0,0,1,.22,3.88c.66-.09,1.42-1.62,1.49-2.26A1.52,1.52,0,0,0,119.59,119Z"/><path class="cls-10" d="M189.81,203.22a5.33,5.33,0,0,0-1.92-2l-8.27-4.63a2.46,2.46,0,0,0-2.46-.14,2.41,2.41,0,0,0-1.07,2.18l.08,4.88a5.21,5.21,0,0,0,.72,2.5,5.36,5.36,0,0,0,1.93,2l8.27,4.63a2.46,2.46,0,0,0,2.46.14,2.41,2.41,0,0,0,1.07-2.18l-.09-4.88A5.1,5.1,0,0,0,189.81,203.22Z"/><path class="cls-11" d="M188.94,203.89a3.66,3.66,0,0,0-1.29-1.35l-8.89-5a1.13,1.13,0,0,0-1.13-.12,1.1,1.1,0,0,0-.45,1l.09,5.22a3.48,3.48,0,0,0,.5,1.67,3.61,3.61,0,0,0,1.29,1.36l8.89,5a1.13,1.13,0,0,0,1.13.12,1.1,1.1,0,0,0,.44-1l-.09-5.22A3.42,3.42,0,0,0,188.94,203.89Z"/></g></g></svg>