<?xml version="1.0" encoding="utf-8"?>
<!-- Generator: Adobe Illustrator 23.0.4, SVG Export Plug-In . SVG Version: 6.00 Build 0)  -->
<svg version="1.1" id="Camada_1" xmlns="http://www.w3.org/2000/svg" xmlns:xlink="http://www.w3.org/1999/xlink" x="0px" y="0px"
	 viewBox="0 0 300 258" style="enable-background:new 0 0 300 258;" xml:space="preserve">
<style type="text/css">
	.st0{fill:#EEF0F8;}
	.st1{fill:#EEEEF3;}
	.st2{fill:#D7D6DF;}
	.st3{fill:#FF3157;}
	.st4{fill:#DF2953;}
	.st5{fill:url(#SVGID_1_);}
	.st6{fill:url(#SVGID_2_);}
	.st7{fill:url(#SVGID_3_);}
	.st8{fill:url(#SVGID_4_);}
	.st9{fill:url(#SVGID_5_);}
	.st10{fill:url(#SVGID_6_);}
	.st11{fill:url(#SVGID_7_);}
	.st12{fill:url(#SVGID_8_);}
	.st13{fill:url(#SVGID_9_);}
	.st14{fill:url(#SVGID_10_);}
	.st15{fill:#FF457A;}
	.st16{fill:url(#SVGID_11_);}
	.st17{fill:url(#SVGID_12_);}
	.st18{fill:url(#SVGID_13_);}
	.st19{fill:url(#SVGID_14_);}
	.st20{fill:url(#SVGID_15_);}
	.st21{fill:url(#SVGID_16_);}
	.st22{fill:url(#SVGID_17_);}
	.st23{fill:url(#SVGID_18_);}
	.st24{fill:url(#SVGID_19_);}
	.st25{fill:url(#SVGID_20_);}
	.st26{fill:url(#SVGID_21_);}
	.st27{fill:url(#SVGID_22_);}
	.st28{fill:url(#SVGID_23_);}
	.st29{fill:url(#SVGID_24_);}
	.st30{fill:url(#SVGID_25_);}
	.st31{fill:url(#SVGID_26_);}
	.st32{fill:url(#SVGID_27_);}
	.st33{fill:url(#SVGID_28_);}
	.st34{fill:url(#SVGID_29_);}
	.st35{fill:url(#SVGID_30_);}
	.st36{fill:url(#SVGID_31_);}
	.st37{fill:url(#SVGID_32_);}
	.st38{fill:url(#SVGID_33_);}
	.st39{fill:url(#SVGID_34_);}
	.st40{fill:url(#SVGID_35_);}
	.st41{fill:url(#SVGID_36_);}
	.st42{fill:url(#SVGID_37_);}
	.st43{fill:url(#SVGID_38_);}
	.st44{fill:#F6F6F6;}
	.st45{fill:url(#SVGID_39_);}
	.st46{fill:url(#SVGID_40_);}
	.st47{fill:url(#SVGID_41_);}
	.st48{fill:url(#SVGID_42_);}
	.st49{fill:url(#SVGID_43_);}
	.st50{fill:url(#SVGID_44_);}
	.st51{fill:url(#SVGID_45_);}
	.st52{fill:url(#SVGID_46_);}
	.st53{fill:url(#SVGID_47_);}
	.st54{fill:url(#SVGID_48_);}
	.st55{fill:url(#SVGID_49_);}
	.st56{fill:url(#SVGID_50_);}
	.st57{fill:#FFFFFF;}
	.st58{fill:url(#SVGID_51_);}
	.st59{fill:#FFD6D6;}
	.st60{fill:#000B73;}
	.st61{fill:url(#SVGID_52_);}
	.st62{fill:url(#SVGID_53_);}
	.st63{fill:url(#SVGID_54_);}
	.st64{fill:url(#SVGID_55_);}
	.st65{fill:#005DFF;}
	.st66{fill:url(#SVGID_56_);}
	.st67{fill:url(#SVGID_57_);}
	.st68{fill:#51273A;}
	.st69{fill:url(#SVGID_58_);}
	.st70{fill:url(#SVGID_59_);}
	.st71{fill:url(#SVGID_60_);}
	.st72{fill:url(#SVGID_61_);}
	.st73{fill:url(#SVGID_62_);}
	.st74{fill:url(#SVGID_63_);}
	.st75{fill:url(#SVGID_64_);}
	.st76{fill:url(#SVGID_65_);}
	.st77{fill:url(#SVGID_66_);}
	.st78{fill:url(#SVGID_67_);}
	.st79{fill:#000073;}
	.st80{fill:url(#SVGID_68_);}
	.st81{fill:url(#SVGID_69_);}
	.st82{fill:url(#SVGID_70_);}
	.st83{fill:url(#SVGID_71_);}
	.st84{fill:#89869D;}
	.st85{fill:#D9FF83;}
	.st86{opacity:0.85;fill:#D9FF83;}
	.st87{fill:url(#SVGID_72_);}
	.st88{fill:url(#SVGID_73_);}
	.st89{fill:#6E5951;}
</style>
<title>register</title>
<g>
	<path class="st0" d="M292.6,148.6c0,36.7-24.4,54.1-70.1,70.3c-20.6,7.3-81.6,14.9-106.6,14.9c-50.1,0-26.6-37.9-52.9-63.3
		c-16-15.5-55.7-6.1-55.7-26.3c0-53.2,65.4-96.4,146-96.4c32.1,0,52.2,36.5,76.3,48.1C266.1,113.5,292.6,116.6,292.6,148.6z"/>
	<g>
		<g>
			<polygon class="st1" points="161,172.1 138.8,159.3 116.6,172.1 138.8,184.9 			"/>
			<polygon class="st1" points="138.8,73.9 116.6,61 116.6,61.5 138.8,74.3 			"/>
			<polygon class="st2" points="138.8,73.9 161,61 161,61.5 138.8,74.3 			"/>
			<g>
				<polygon class="st1" points="163.5,88.1 141.2,75.3 141.2,75.8 163.5,88.6 				"/>
				<polygon class="st2" points="163.5,88.1 185.7,75.3 185.7,75.8 163.5,88.6 				"/>
			</g>
			<g>
				<polygon class="st1" points="188.1,102.3 165.9,89.5 165.9,90 188.1,102.8 				"/>
				<polygon class="st2" points="188.1,102.3 210.3,89.5 210.3,90 188.1,102.8 				"/>
			</g>
			<g>
				<polygon class="st1" points="212.8,116.6 190.6,103.8 190.6,104.2 212.8,117.1 				"/>
				<polygon class="st2" points="212.8,116.6 235,103.8 235,104.2 212.8,117.1 				"/>
			</g>
			<g>
				<polygon class="st1" points="237.4,130.8 215.2,118 215.2,118.5 237.4,131.3 				"/>
				<polygon class="st2" points="237.4,130.8 259.7,118 259.7,118.5 237.4,131.3 				"/>
			</g>
			<g>
				<polygon class="st1" points="262.1,145.1 239.9,132.2 239.9,132.7 262.1,145.5 				"/>
				<polygon class="st2" points="262.1,145.1 284.3,132.2 284.3,132.7 262.1,145.5 				"/>
			</g>
			<polygon class="st1" points="114.1,88.1 91.9,75.3 91.9,75.8 114.1,88.6 			"/>
			<polygon class="st2" points="114.1,88.1 136.3,75.3 136.3,75.8 114.1,88.6 			"/>
			<g>
				<polygon class="st1" points="138.8,102.3 116.6,89.5 116.6,90 138.8,102.8 				"/>
				<polygon class="st2" points="138.8,102.3 161,89.5 161,90 138.8,102.8 				"/>
			</g>
			<g>
				<polygon class="st1" points="163.5,116.6 141.2,103.8 141.2,104.2 163.5,117.1 				"/>
				<polygon class="st2" points="163.5,116.6 185.7,103.8 185.7,104.2 163.5,117.1 				"/>
			</g>
			<g>
				<polygon class="st1" points="188.1,130.8 165.9,118 165.9,118.5 188.1,131.3 				"/>
				<polygon class="st2" points="188.1,130.8 210.3,118 210.3,118.5 188.1,131.3 				"/>
			</g>
			<g>
				<polygon class="st1" points="212.8,145.1 190.6,132.2 190.6,132.7 212.8,145.5 				"/>
				<polygon class="st2" points="212.8,145.1 235,132.2 235,132.7 212.8,145.5 				"/>
			</g>
			<g>
				<polygon class="st1" points="237.4,159.3 215.2,146.5 215.2,147 237.4,159.8 				"/>
				<polygon class="st2" points="237.4,159.3 259.7,146.5 259.7,147 237.4,159.8 				"/>
			</g>
			<g>
				<polygon class="st1" points="262.1,173.5 239.9,160.7 239.9,161.2 262.1,174 				"/>
				<polygon class="st2" points="262.1,173.5 284.3,160.7 284.3,161.2 262.1,174 				"/>
			</g>
			<polygon class="st1" points="89.5,102.3 67.2,89.5 67.2,90 89.5,102.8 			"/>
			<polygon class="st2" points="89.5,102.3 111.7,89.5 111.7,90 89.5,102.8 			"/>
			<g>
				<polygon class="st1" points="114.1,116.6 91.9,103.8 91.9,104.2 114.1,117.1 				"/>
				<polygon class="st2" points="114.1,116.6 136.3,103.8 136.3,104.2 114.1,117.1 				"/>
			</g>
			<g>
				<polygon class="st1" points="138.8,130.8 116.6,118 116.6,118.5 138.8,131.3 				"/>
				<polygon class="st2" points="138.8,130.8 161,118 161,118.5 138.8,131.3 				"/>
			</g>
			<g>
				<polygon class="st1" points="163.4,145.1 141.2,132.2 141.2,132.7 163.4,145.5 				"/>
				<polygon class="st2" points="163.4,145.1 185.7,132.2 185.7,132.7 163.4,145.5 				"/>
			</g>
			<g>
				<polygon class="st1" points="188.1,159.3 165.9,146.5 165.9,147 188.1,159.8 				"/>
				<polygon class="st2" points="188.1,159.3 210.3,146.5 210.3,147 188.1,159.8 				"/>
			</g>
			<g>
				<polygon class="st1" points="212.8,173.5 190.6,160.7 190.6,161.2 212.8,174 				"/>
				<polygon class="st2" points="212.8,173.5 235,160.7 235,161.2 212.8,174 				"/>
			</g>
			<g>
				<polygon class="st1" points="237.4,187.8 215.2,175 215.2,175.4 237.4,188.3 				"/>
				<polygon class="st2" points="237.4,187.8 259.7,175 259.7,175.4 237.4,188.3 				"/>
			</g>
			<polygon class="st3" points="64.8,116.6 42.6,103.8 42.6,104.2 64.8,117.1 			"/>
			<polygon class="st4" points="64.8,116.6 87,103.8 87,104.2 64.8,117.1 			"/>
			<g>
				<polygon class="st1" points="89.5,130.8 67.2,118 67.2,118.5 89.5,131.3 				"/>
				<polygon class="st2" points="89.5,130.8 111.7,118 111.7,118.5 89.5,131.3 				"/>
			</g>
			<g>
				<polygon class="st1" points="114.1,145.1 91.9,132.2 91.9,132.7 114.1,145.5 				"/>
				<polygon class="st2" points="114.1,145.1 136.3,132.2 136.3,132.7 114.1,145.5 				"/>
			</g>
			<g>
				<polygon class="st1" points="138.8,159.3 116.6,146.5 116.6,147 138.8,159.8 				"/>
				<polygon class="st2" points="138.8,159.3 161,146.5 161,147 138.8,159.8 				"/>
			</g>
			<g>
				<polygon class="st1" points="163.4,173.5 141.2,160.7 141.2,161.2 163.4,174 				"/>
				<polygon class="st2" points="163.4,173.5 185.7,160.7 185.7,161.2 163.4,174 				"/>
			</g>
			<g>
				<polygon class="st1" points="188.1,187.8 165.9,175 165.9,175.4 188.1,188.3 				"/>
				<polygon class="st2" points="188.1,187.8 210.3,175 210.3,175.4 188.1,188.3 				"/>
			</g>
			<g>
				<polygon class="st1" points="212.8,202 190.6,189.2 190.6,189.7 212.8,202.5 				"/>
				<polygon class="st2" points="212.8,202 235,189.2 235,189.7 212.8,202.5 				"/>
			</g>
			<polygon class="st1" points="40.1,130.8 17.9,118 17.9,118.5 40.1,131.3 			"/>
			<polygon class="st2" points="40.1,130.8 62.3,118 62.3,118.5 40.1,131.3 			"/>
			<g>
				<polygon class="st1" points="64.8,145.1 42.6,132.2 42.6,132.7 64.8,145.5 				"/>
				<polygon class="st2" points="64.8,145.1 87,132.2 87,132.7 64.8,145.5 				"/>
			</g>
			<g>
				<polygon class="st1" points="89.5,159.3 67.2,146.5 67.2,147 89.5,159.8 				"/>
				<polygon class="st2" points="89.5,159.3 111.7,146.5 111.7,147 89.5,159.8 				"/>
			</g>
			<g>
				<polygon class="st1" points="114.1,173.5 91.9,160.7 91.9,161.2 114.1,174 				"/>
				<polygon class="st2" points="114.1,173.5 136.3,160.7 136.3,161.2 114.1,174 				"/>
			</g>
			<g>
				<polygon class="st1" points="163.4,202 141.2,189.2 141.2,189.7 163.4,202.5 				"/>
				<polygon class="st2" points="163.4,202 185.7,189.2 185.7,189.7 163.4,202.5 				"/>
			</g>
			<g>
				<polygon class="st1" points="188.1,216.3 165.9,203.4 165.9,203.9 188.1,216.7 				"/>
				<polygon class="st2" points="188.1,216.3 210.3,203.4 210.3,203.9 188.1,216.7 				"/>
			</g>
		</g>
		<g>
			<linearGradient id="SVGID_1_" gradientUnits="userSpaceOnUse" x1="100.7008" y1="146.4741" x2="571.1341" y2="146.4741">
				<stop  offset="0" style="stop-color:#FFFFFF"/>
				<stop  offset="1" style="stop-color:#D7D6DF"/>
				<stop  offset="1" style="stop-color:#EEEEF3"/>
			</linearGradient>
			<polygon class="st5" points="161,146.5 138.8,133.6 116.6,146.5 138.8,159.3 			"/>
			<linearGradient id="SVGID_2_" gradientUnits="userSpaceOnUse" x1="100.7009" y1="160.7144" x2="571.1328" y2="160.7144">
				<stop  offset="0" style="stop-color:#FFFFFF"/>
				<stop  offset="1" style="stop-color:#D7D6DF"/>
				<stop  offset="1" style="stop-color:#EEEEF3"/>
			</linearGradient>
			<polygon class="st6" points="185.7,160.7 163.4,147.9 141.2,160.7 163.4,173.5 			"/>
			<linearGradient id="SVGID_3_" gradientUnits="userSpaceOnUse" x1="100.7008" y1="117.9934" x2="571.1326" y2="117.9934">
				<stop  offset="0" style="stop-color:#FFFFFF"/>
				<stop  offset="1" style="stop-color:#D7D6DF"/>
				<stop  offset="1" style="stop-color:#EEEEF3"/>
			</linearGradient>
			<polygon class="st7" points="62.4,118 40.1,105.2 17.9,118 40.1,130.8 			"/>
			<linearGradient id="SVGID_4_" gradientUnits="userSpaceOnUse" x1="100.7009" y1="132.2339" x2="571.1328" y2="132.2339">
				<stop  offset="0" style="stop-color:#FFFFFF"/>
				<stop  offset="1" style="stop-color:#D7D6DF"/>
				<stop  offset="1" style="stop-color:#EEEEF3"/>
			</linearGradient>
			<polygon class="st8" points="87,132.2 64.8,119.4 42.6,132.2 64.8,145.1 			"/>
			<linearGradient id="SVGID_5_" gradientUnits="userSpaceOnUse" x1="100.7009" y1="146.4741" x2="571.1324" y2="146.4741">
				<stop  offset="0" style="stop-color:#FFFFFF"/>
				<stop  offset="1" style="stop-color:#D7D6DF"/>
				<stop  offset="1" style="stop-color:#EEEEF3"/>
			</linearGradient>
			<polygon class="st9" points="111.7,146.5 89.5,133.6 67.2,146.5 89.5,159.3 			"/>
			<linearGradient id="SVGID_6_" gradientUnits="userSpaceOnUse" x1="100.7009" y1="160.7146" x2="571.1325" y2="160.7146">
				<stop  offset="0" style="stop-color:#FFFFFF"/>
				<stop  offset="1" style="stop-color:#D7D6DF"/>
				<stop  offset="1" style="stop-color:#EEEEF3"/>
			</linearGradient>
			<polygon class="st10" points="136.3,160.7 114.1,147.9 91.9,160.7 114.1,173.5 			"/>
			<linearGradient id="SVGID_7_" gradientUnits="userSpaceOnUse" x1="100.7009" y1="174.9551" x2="571.1328" y2="174.9551">
				<stop  offset="0" style="stop-color:#FFFFFF"/>
				<stop  offset="1" style="stop-color:#D7D6DF"/>
				<stop  offset="1" style="stop-color:#EEEEF3"/>
			</linearGradient>
			<polygon class="st11" points="161,175 138.8,162.1 116.6,175 138.8,187.8 			"/>
			<linearGradient id="SVGID_8_" gradientUnits="userSpaceOnUse" x1="100.3859" y1="157.6472" x2="251.2641" y2="214.4789">
				<stop  offset="9.900990e-03" style="stop-color:#8EDAFF"/>
				<stop  offset="1" style="stop-color:#348AFF"/>
			</linearGradient>
			<polygon class="st12" points="161,172.1 138.8,159.3 116.6,172.1 138.8,184.9 			"/>
			<linearGradient id="SVGID_9_" gradientUnits="userSpaceOnUse" x1="100.7008" y1="189.1955" x2="571.1341" y2="189.1955">
				<stop  offset="0" style="stop-color:#FFFFFF"/>
				<stop  offset="1" style="stop-color:#D7D6DF"/>
				<stop  offset="1" style="stop-color:#EEEEF3"/>
			</linearGradient>
			<polygon class="st13" points="185.7,189.2 163.4,176.4 141.2,189.2 163.4,202 			"/>
			<linearGradient id="SVGID_10_" gradientUnits="userSpaceOnUse" x1="100.7009" y1="203.4359" x2="571.1328" y2="203.4359">
				<stop  offset="0" style="stop-color:#FFFFFF"/>
				<stop  offset="1" style="stop-color:#D7D6DF"/>
				<stop  offset="1" style="stop-color:#EEEEF3"/>
			</linearGradient>
			<polygon class="st14" points="210.3,203.4 188.1,190.6 165.9,203.4 188.1,216.3 			"/>
			<polygon class="st15" points="87,103.8 64.8,90.9 42.6,103.8 64.8,116.6 			"/>
			<linearGradient id="SVGID_11_" gradientUnits="userSpaceOnUse" x1="100.7009" y1="117.9931" x2="571.1342" y2="117.9931">
				<stop  offset="0" style="stop-color:#FFFFFF"/>
				<stop  offset="1" style="stop-color:#D7D6DF"/>
				<stop  offset="1" style="stop-color:#EEEEF3"/>
			</linearGradient>
			<polygon class="st16" points="111.7,118 89.5,105.2 67.2,118 89.5,130.8 			"/>
			<linearGradient id="SVGID_12_" gradientUnits="userSpaceOnUse" x1="100.7009" y1="132.2336" x2="571.1342" y2="132.2336">
				<stop  offset="0" style="stop-color:#FFFFFF"/>
				<stop  offset="1" style="stop-color:#D7D6DF"/>
				<stop  offset="1" style="stop-color:#EEEEF3"/>
			</linearGradient>
			<polygon class="st17" points="136.3,132.2 114.1,119.4 91.9,132.2 114.1,145.1 			"/>
			<linearGradient id="SVGID_13_" gradientUnits="userSpaceOnUse" x1="100.7006" y1="174.9549" x2="571.1336" y2="174.9549">
				<stop  offset="0" style="stop-color:#FFFFFF"/>
				<stop  offset="1" style="stop-color:#D7D6DF"/>
				<stop  offset="1" style="stop-color:#EEEEF3"/>
			</linearGradient>
			<polygon class="st18" points="210.3,175 188.1,162.1 165.9,175 188.1,187.8 			"/>
			<linearGradient id="SVGID_14_" gradientUnits="userSpaceOnUse" x1="100.7004" y1="189.1954" x2="571.1349" y2="189.1954">
				<stop  offset="0" style="stop-color:#FFFFFF"/>
				<stop  offset="1" style="stop-color:#D7D6DF"/>
				<stop  offset="1" style="stop-color:#EEEEF3"/>
			</linearGradient>
			<polygon class="st19" points="235,189.2 212.8,176.4 190.6,189.2 212.8,202 			"/>
			<linearGradient id="SVGID_15_" gradientUnits="userSpaceOnUse" x1="102.2458" y1="92.0981" x2="506.5096" y2="92.0981">
				<stop  offset="0" style="stop-color:#FFFFFF"/>
				<stop  offset="1" style="stop-color:#D7D6DF"/>
				<stop  offset="1" style="stop-color:#EEEEF3"/>
			</linearGradient>
			<polygon class="st20" points="111.7,89.5 95.7,81.9 73.5,94.7 89.5,102.3 			"/>
			<linearGradient id="SVGID_16_" gradientUnits="userSpaceOnUse" x1="100.7008" y1="103.7526" x2="571.1342" y2="103.7526">
				<stop  offset="0" style="stop-color:#FFFFFF"/>
				<stop  offset="1" style="stop-color:#D7D6DF"/>
				<stop  offset="1" style="stop-color:#EEEEF3"/>
			</linearGradient>
			<polygon class="st21" points="136.3,103.8 114.1,90.9 91.9,103.8 114.1,116.6 			"/>
			<linearGradient id="SVGID_17_" gradientUnits="userSpaceOnUse" x1="100.701" y1="117.993" x2="571.1326" y2="117.993">
				<stop  offset="0" style="stop-color:#FFFFFF"/>
				<stop  offset="1" style="stop-color:#D7D6DF"/>
				<stop  offset="1" style="stop-color:#EEEEF3"/>
			</linearGradient>
			<polygon class="st22" points="161,118 138.8,105.2 116.6,118 138.8,130.8 			"/>
			<linearGradient id="SVGID_18_" gradientUnits="userSpaceOnUse" x1="100.701" y1="132.2334" x2="571.1326" y2="132.2334">
				<stop  offset="0" style="stop-color:#FFFFFF"/>
				<stop  offset="1" style="stop-color:#D7D6DF"/>
				<stop  offset="1" style="stop-color:#EEEEF3"/>
			</linearGradient>
			<polygon class="st23" points="185.7,132.2 163.5,119.4 141.2,132.2 163.4,145.1 			"/>
			<linearGradient id="SVGID_19_" gradientUnits="userSpaceOnUse" x1="100.7009" y1="146.4739" x2="571.1343" y2="146.4739">
				<stop  offset="0" style="stop-color:#FFFFFF"/>
				<stop  offset="1" style="stop-color:#D7D6DF"/>
				<stop  offset="1" style="stop-color:#EEEEF3"/>
			</linearGradient>
			<polygon class="st24" points="210.3,146.5 188.1,133.6 165.9,146.5 188.1,159.3 			"/>
			<linearGradient id="SVGID_20_" gradientUnits="userSpaceOnUse" x1="100.7008" y1="160.7142" x2="571.1328" y2="160.7142">
				<stop  offset="0" style="stop-color:#FFFFFF"/>
				<stop  offset="1" style="stop-color:#D7D6DF"/>
				<stop  offset="1" style="stop-color:#EEEEF3"/>
			</linearGradient>
			<polygon class="st25" points="235,160.7 212.8,147.9 190.6,160.7 212.8,173.5 			"/>
			<linearGradient id="SVGID_21_" gradientUnits="userSpaceOnUse" x1="100.7001" y1="174.9546" x2="571.1348" y2="174.9546">
				<stop  offset="0" style="stop-color:#FFFFFF"/>
				<stop  offset="1" style="stop-color:#D7D6DF"/>
				<stop  offset="1" style="stop-color:#EEEEF3"/>
			</linearGradient>
			<polygon class="st26" points="259.7,175 237.4,162.1 215.2,175 237.4,187.8 			"/>
			<linearGradient id="SVGID_22_" gradientUnits="userSpaceOnUse" x1="100.7009" y1="75.2716" x2="571.1325" y2="75.2716">
				<stop  offset="0" style="stop-color:#FFFFFF"/>
				<stop  offset="1" style="stop-color:#D7D6DF"/>
				<stop  offset="1" style="stop-color:#EEEEF3"/>
			</linearGradient>
			<polygon class="st27" points="136.4,75.3 114.1,62.4 91.9,75.3 114.1,88.1 			"/>
			<linearGradient id="SVGID_23_" gradientUnits="userSpaceOnUse" x1="100.7009" y1="89.512" x2="571.1326" y2="89.512">
				<stop  offset="0" style="stop-color:#FFFFFF"/>
				<stop  offset="1" style="stop-color:#D7D6DF"/>
				<stop  offset="1" style="stop-color:#EEEEF3"/>
			</linearGradient>
			<polygon class="st28" points="161,89.5 138.8,76.7 116.6,89.5 138.8,102.3 			"/>
			<linearGradient id="SVGID_24_" gradientUnits="userSpaceOnUse" x1="100.7008" y1="103.7524" x2="571.1341" y2="103.7524">
				<stop  offset="0" style="stop-color:#FFFFFF"/>
				<stop  offset="1" style="stop-color:#D7D6DF"/>
				<stop  offset="1" style="stop-color:#EEEEF3"/>
			</linearGradient>
			<polygon class="st29" points="185.7,103.8 163.5,90.9 141.2,103.8 163.5,116.6 			"/>
			<linearGradient id="SVGID_25_" gradientUnits="userSpaceOnUse" x1="100.701" y1="117.9929" x2="571.1329" y2="117.9929">
				<stop  offset="0" style="stop-color:#FFFFFF"/>
				<stop  offset="1" style="stop-color:#D7D6DF"/>
				<stop  offset="1" style="stop-color:#EEEEF3"/>
			</linearGradient>
			<polygon class="st30" points="210.3,118 188.1,105.2 165.9,118 188.1,130.8 			"/>
			<linearGradient id="SVGID_26_" gradientUnits="userSpaceOnUse" x1="100.7012" y1="132.2331" x2="571.1332" y2="132.2331">
				<stop  offset="0" style="stop-color:#FFFFFF"/>
				<stop  offset="1" style="stop-color:#D7D6DF"/>
				<stop  offset="1" style="stop-color:#EEEEF3"/>
			</linearGradient>
			<polygon class="st31" points="235,132.2 212.8,119.4 190.6,132.2 212.8,145.1 			"/>
			<linearGradient id="SVGID_27_" gradientUnits="userSpaceOnUse" x1="100.7001" y1="146.4718" x2="571.1348" y2="146.4718">
				<stop  offset="0" style="stop-color:#FFFFFF"/>
				<stop  offset="1" style="stop-color:#D7D6DF"/>
				<stop  offset="1" style="stop-color:#EEEEF3"/>
			</linearGradient>
			<polygon class="st32" points="259.7,146.5 237.4,133.6 215.2,146.5 237.4,159.3 			"/>
			<linearGradient id="SVGID_28_" gradientUnits="userSpaceOnUse" x1="100.7011" y1="160.7141" x2="571.1327" y2="160.7141">
				<stop  offset="0" style="stop-color:#FFFFFF"/>
				<stop  offset="1" style="stop-color:#D7D6DF"/>
				<stop  offset="1" style="stop-color:#EEEEF3"/>
			</linearGradient>
			<polygon class="st33" points="284.3,160.7 262.1,147.9 239.9,160.7 262.1,173.5 			"/>
			<linearGradient id="SVGID_29_" gradientUnits="userSpaceOnUse" x1="100.7008" y1="61.031" x2="571.1342" y2="61.031">
				<stop  offset="0" style="stop-color:#FFFFFF"/>
				<stop  offset="1" style="stop-color:#D7D6DF"/>
				<stop  offset="1" style="stop-color:#EEEEF3"/>
			</linearGradient>
			<polygon class="st34" points="161,61 138.8,48.2 116.6,61 138.8,73.9 			"/>
			<linearGradient id="SVGID_30_" gradientUnits="userSpaceOnUse" x1="100.7009" y1="75.2714" x2="571.1328" y2="75.2714">
				<stop  offset="0" style="stop-color:#FFFFFF"/>
				<stop  offset="1" style="stop-color:#D7D6DF"/>
				<stop  offset="1" style="stop-color:#EEEEF3"/>
			</linearGradient>
			<polygon class="st35" points="185.7,75.3 163.5,62.4 141.2,75.3 163.5,88.1 			"/>
			<linearGradient id="SVGID_31_" gradientUnits="userSpaceOnUse" x1="100.7006" y1="89.5118" x2="571.1339" y2="89.5118">
				<stop  offset="0" style="stop-color:#FFFFFF"/>
				<stop  offset="1" style="stop-color:#D7D6DF"/>
				<stop  offset="1" style="stop-color:#EEEEF3"/>
			</linearGradient>
			<polygon class="st36" points="210.3,89.5 188.1,76.7 165.9,89.5 188.1,102.3 			"/>
			<linearGradient id="SVGID_32_" gradientUnits="userSpaceOnUse" x1="100.7009" y1="103.7521" x2="571.1329" y2="103.7521">
				<stop  offset="0" style="stop-color:#FFFFFF"/>
				<stop  offset="1" style="stop-color:#D7D6DF"/>
				<stop  offset="1" style="stop-color:#EEEEF3"/>
			</linearGradient>
			<polygon class="st37" points="235,103.8 212.8,90.9 190.6,103.8 212.8,116.6 			"/>
			<linearGradient id="SVGID_33_" gradientUnits="userSpaceOnUse" x1="100.7012" y1="117.9926" x2="571.1329" y2="117.9926">
				<stop  offset="0" style="stop-color:#FFFFFF"/>
				<stop  offset="1" style="stop-color:#D7D6DF"/>
				<stop  offset="1" style="stop-color:#EEEEF3"/>
			</linearGradient>
			<polygon class="st38" points="259.7,118 237.5,105.2 215.2,118 237.4,130.8 			"/>
			<linearGradient id="SVGID_34_" gradientUnits="userSpaceOnUse" x1="100.7004" y1="132.2331" x2="571.1348" y2="132.2331">
				<stop  offset="0" style="stop-color:#FFFFFF"/>
				<stop  offset="1" style="stop-color:#D7D6DF"/>
				<stop  offset="1" style="stop-color:#EEEEF3"/>
			</linearGradient>
			<polygon class="st39" points="284.3,132.2 262.1,119.4 239.9,132.2 262.1,145.1 			"/>
			<linearGradient id="SVGID_35_" gradientUnits="userSpaceOnUse" x1="85.0567" y1="153.5571" x2="161.2167" y2="201.1571">
				<stop  offset="9.900990e-03" style="stop-color:#8EDAFF"/>
				<stop  offset="1" style="stop-color:#348AFF"/>
			</linearGradient>
			<polygon class="st40" points="116.6,172.1 116.6,175.4 138.8,188.3 138.8,184.9 			"/>
			
				<linearGradient id="SVGID_36_" gradientUnits="userSpaceOnUse" x1="-80.4042" y1="153.5569" x2="-4.2439" y2="201.1572" gradientTransform="matrix(-1 0 0 1 112.1025 0)">
				<stop  offset="0" style="stop-color:#2B3C8C"/>
				<stop  offset="1" style="stop-color:#348AFF"/>
			</linearGradient>
			<polygon class="st41" points="161,172.1 161,175.4 138.8,188.3 138.8,184.9 			"/>
			<path class="st2" d="M140.2,59.3l-1.3-0.1l0.1-0.4l1.8,0.2l0.4,0.2l-4.3,2.7l-0.5-0.3L140.2,59.3z"/>
			<path class="st2" d="M160.8,75.3l3,0.1c1.2,0,1.8-0.1,2.3-0.3c0.5-0.3,0.4-0.8-0.1-1.1c-0.5-0.3-1.2-0.4-1.9-0.3l-0.1-0.4
				c0.9-0.1,1.7,0,2.4,0.4c0.8,0.5,1,1.2,0.2,1.6c-0.6,0.4-1.4,0.5-2.8,0.4l-2.2-0.1l2.3,1.3l-0.5,0.3l-3.1-1.8L160.8,75.3z"/>
			<path class="st2" d="M185.6,89.1l0.7,0c-0.1,0.4,0.1,0.8,0.7,1.1c0.6,0.4,1.4,0.4,1.9,0.1c0.5-0.3,0.3-0.8-0.4-1.2l-0.5-0.3
				l0.5-0.3l0.5,0.3c0.6,0.4,1.3,0.4,1.8,0.1c0.5-0.3,0.3-0.7-0.2-1.1c-0.5-0.3-1.1-0.3-1.8-0.3l0-0.4c0.8-0.1,1.6,0,2.3,0.4
				c0.9,0.5,1,1.2,0.3,1.6c-0.6,0.4-1.3,0.3-1.9,0.1c0.4,0.3,0.6,0.8-0.1,1.2c-0.7,0.5-1.9,0.4-2.8-0.1
				C185.7,90.1,185.5,89.6,185.6,89.1z"/>
			<path class="st2" d="M211.5,103.8l-2.3-1.3l0.3-0.3l5.1-0.5l0.6,0.3l-2.8,1.8l0.7,0.4l-0.4,0.3l-0.7-0.4l-1.1,0.7l-0.5-0.3
				L211.5,103.8z M212,103.5l2.2-1.4l-4,0.4L212,103.5z"/>
			<path class="st2" d="M160.7,189.6l0.7,0c-0.1,0.4,0.1,0.8,0.7,1.1c0.6,0.4,1.4,0.4,1.9,0.1c0.5-0.3,0.3-0.8-0.4-1.2l-0.5-0.3
				l0.5-0.3l0.5,0.3c0.6,0.4,1.3,0.4,1.8,0.1c0.5-0.3,0.3-0.7-0.2-1.1c-0.5-0.3-1.1-0.3-1.8-0.3l0-0.4c0.8-0.1,1.6,0,2.3,0.4
				c0.9,0.5,1,1.2,0.3,1.6c-0.6,0.4-1.3,0.3-1.9,0.1c0.4,0.3,0.6,0.8-0.1,1.2c-0.7,0.5-1.9,0.4-2.8-0.1
				C160.8,190.6,160.6,190.1,160.7,189.6z"/>
			<path class="st2" d="M186.6,204.2l-2.3-1.3l0.3-0.3l5.1-0.5l0.6,0.3l-2.8,1.8l0.7,0.4l-0.4,0.3l-0.7-0.4l-1.1,0.7l-0.5-0.3
				L186.6,204.2z M187.1,204l2.2-1.4l-4,0.4L187.1,204z"/>
			<path class="st2" d="M234.9,117.7l0.7,0c0,0.4,0.2,0.8,0.7,1.1c0.6,0.4,1.5,0.4,2,0c0.6-0.4,0.5-0.9-0.2-1.2
				c-0.4-0.2-0.9-0.3-1.3-0.4l-0.2-0.3l2.3-1.4l2.7,1.6l-0.5,0.3l-2.2-1.3l-1.5,0.9c0.4,0,0.8,0.1,1.3,0.4c0.8,0.5,1,1.2,0.2,1.7
				c-0.9,0.5-2.1,0.5-3,0C235.2,118.7,234.9,118.2,234.9,117.7z"/>
			<path class="st2" d="M141.1,90.6c-1.3,0.8-3.1,1-4.1,0.4c-0.6-0.3-0.7-0.7-0.8-1.1l0.7-0.1c0,0.3,0.1,0.6,0.6,0.9
				c0.7,0.4,2.1,0.2,3.2-0.4l0.1,0c-0.7,0.1-1.4,0-1.9-0.3c-0.8-0.5-1-1.2-0.2-1.7c0.8-0.5,2.1-0.5,3,0
				C142.8,88.9,142.3,89.8,141.1,90.6z M141.1,89.9c0.5-0.5,0.6-1,0-1.4c-0.7-0.4-1.6-0.3-2.1,0c-0.6,0.4-0.5,0.9,0.1,1.2
				C139.8,90.1,140.6,90.1,141.1,89.9z"/>
			<path class="st2" d="M162.8,101.3l-1.3-0.1l0.1-0.4l1.8,0.2l0.4,0.2l-4.3,2.7l-0.5-0.3L162.8,101.3z"/>
			<path class="st2" d="M162.7,103.2c1.3-0.8,3-1,4.1-0.3c1.1,0.6,1,1.7-0.4,2.5c-1.3,0.8-3,1-4.1,0.3
				C161.3,105,161.4,104,162.7,103.2z M166,105.1c1-0.7,1.2-1.5,0.4-1.9c-0.8-0.5-2.1-0.3-3.2,0.3c-1,0.7-1.2,1.5-0.4,1.9
				C163.6,105.9,164.9,105.7,166,105.1z"/>
			<path class="st2" d="M188.1,116l-1.3-0.1l0.1-0.4l1.8,0.2l0.4,0.2l-4.3,2.7l-0.5-0.3L188.1,116z"/>
			<path class="st2" d="M190.4,117.4l-1.3-0.1l0.1-0.4l1.8,0.2l0.4,0.2l-4.3,2.7l-0.5-0.3L190.4,117.4z"/>
			<path class="st2" d="M211.3,129.4l-1.3-0.1l0.1-0.4l1.8,0.2l0.4,0.2l-4.3,2.7l-0.5-0.3L211.3,129.4z"/>
			<path class="st2" d="M209.5,132.4l3,0.1c1.2,0,1.8-0.1,2.3-0.3c0.5-0.3,0.4-0.8-0.1-1.1c-0.5-0.3-1.2-0.4-1.9-0.3l-0.1-0.4
				c0.9-0.1,1.7,0,2.4,0.4c0.8,0.5,1,1.2,0.2,1.6c-0.6,0.4-1.4,0.5-2.8,0.4l-2.2-0.1l2.3,1.3l-0.5,0.3l-3.1-1.8L209.5,132.4z"/>
			<path class="st2" d="M237.7,144.6l-1.3-0.1l0.1-0.4l1.8,0.2l0.4,0.2l-4.3,2.7l-0.5-0.3L237.7,144.6z"/>
			<path class="st2" d="M236.1,147.3l0.7,0c-0.1,0.4,0.1,0.8,0.7,1.1c0.6,0.4,1.4,0.4,1.9,0.1c0.5-0.3,0.3-0.8-0.4-1.2l-0.5-0.3
				l0.5-0.3l0.5,0.3c0.6,0.4,1.3,0.4,1.8,0.1c0.5-0.3,0.3-0.7-0.2-1.1c-0.5-0.3-1.1-0.3-1.8-0.3l0-0.4c0.8-0.1,1.6,0,2.3,0.4
				c0.9,0.5,1,1.2,0.3,1.6c-0.6,0.4-1.3,0.3-1.9,0.1c0.4,0.3,0.6,0.8-0.1,1.2c-0.7,0.5-1.9,0.4-2.8-0.1
				C236.2,148.3,236,147.8,236.1,147.3z"/>
			<path class="st2" d="M89.5,87.7l-1.3-0.1l0.1-0.4l1.8,0.2l0.4,0.2l-4.3,2.7l-0.5-0.3L89.5,87.7z"/>
			<path class="st2" d="M87.9,90.6l0.7,0c0,0.4,0.2,0.8,0.7,1.1c0.6,0.4,1.5,0.4,2,0c0.6-0.4,0.5-0.9-0.2-1.2
				c-0.4-0.2-0.9-0.3-1.3-0.4l-0.2-0.3l2.3-1.4l2.7,1.6l-0.5,0.3L91.9,89l-1.5,0.9c0.4,0,0.8,0.1,1.3,0.4c0.8,0.5,1,1.2,0.2,1.7
				c-0.9,0.5-2.1,0.5-3,0C88.1,91.5,87.8,91.1,87.9,90.6z"/>
			<path class="st2" d="M113.6,101.7l-1.3-0.1l0.1-0.4l1.8,0.2l0.4,0.2l-4.3,2.7l-0.5-0.3L113.6,101.7z"/>
			<path class="st2" d="M116.1,106c-0.8,0.5-2.1,0.5-3,0c-1.2-0.7-0.8-1.6,0.5-2.4c1.3-0.8,3.1-1,4.1-0.4c0.6,0.3,0.7,0.7,0.8,1.1
				l-0.7,0.1c0-0.3-0.1-0.6-0.6-0.9c-0.7-0.4-2.1-0.2-3.2,0.4l-0.1,0c0.7-0.1,1.4,0,1.9,0.3C116.8,104.8,117,105.5,116.1,106z
				 M115.6,105.8c0.6-0.4,0.5-0.9-0.1-1.2c-0.6-0.3-1.3-0.4-1.9-0.1c-0.5,0.5-0.6,1,0,1.4C114.2,106.1,115.1,106.1,115.6,105.8z"/>
			<path class="st2" d="M138.7,116.3l-1.3-0.1l0.1-0.4l1.8,0.2l0.4,0.2l-4.3,2.7l-0.5-0.3L138.7,116.3z"/>
			<path class="st2" d="M142.8,118.5l-2.5-1.4l0.5-0.3l3.1,1.8l-0.4,0.2l-5.9,1.4l-0.6-0.3L142.8,118.5z"/>
			<path class="st2" d="M163.3,130.3l-1.3-0.1l0.1-0.4l1.8,0.2l0.4,0.2L160,133l-0.5-0.3L163.3,130.3z"/>
			<path class="st2" d="M162.2,132.8c0.5-0.3,1.4-0.3,2.1-0.1c-0.3-0.4-0.4-0.8,0.1-1.2c0.7-0.5,1.9-0.3,2.7,0.2
				c0.8,0.5,1.1,1.2,0.4,1.6c-0.5,0.3-1.3,0.3-1.9,0.1c0.4,0.4,0.4,0.9-0.1,1.3c-0.7,0.5-1.9,0.3-2.9-0.2
				C161.7,134,161.4,133.3,162.2,132.8z M165,134.4c0.5-0.3,0.2-0.9-0.3-1.2c-0.5-0.3-1.5-0.5-2-0.1c-0.5,0.3-0.3,0.8,0.3,1.2
				C163.7,134.6,164.5,134.7,165,134.4z M166.9,133.1c0.4-0.3,0.3-0.7-0.3-1.1c-0.6-0.3-1.3-0.4-1.8-0.1c-0.5,0.3-0.2,0.8,0.2,1.1
				C165.6,133.2,166.4,133.4,166.9,133.1z"/>
			<path class="st2" d="M187.3,144.1L186,144l0.1-0.4l1.8,0.2l0.4,0.2l-4.3,2.7l-0.5-0.3L187.3,144.1z"/>
			<path class="st2" d="M190.6,147.9c-1.3,0.8-3.1,1-4.1,0.4c-0.6-0.3-0.7-0.7-0.8-1.1l0.7-0.1c0,0.3,0.1,0.6,0.6,0.9
				c0.7,0.4,2.1,0.2,3.2-0.4l0.1,0c-0.7,0.1-1.4,0-1.9-0.3c-0.8-0.5-1-1.2-0.2-1.7c0.8-0.5,2.1-0.5,3,0
				C192.3,146.2,191.9,147.1,190.6,147.9z M190.7,147.1c0.5-0.5,0.6-1,0-1.4c-0.7-0.4-1.6-0.3-2.1,0c-0.6,0.4-0.5,0.9,0.1,1.2
				C189.3,147.3,190.1,147.4,190.7,147.1z"/>
			<path class="st2" d="M207,159.7l3,0.1c1.2,0,1.8-0.1,2.3-0.3c0.5-0.3,0.4-0.8-0.1-1.1c-0.5-0.3-1.2-0.4-1.9-0.3l-0.1-0.4
				c0.9-0.1,1.7,0,2.4,0.4c0.8,0.5,1,1.2,0.2,1.6c-0.6,0.4-1.4,0.5-2.8,0.4l-2.2-0.1l2.3,1.3l-0.5,0.3l-3.1-1.8L207,159.7z"/>
			<path class="st2" d="M212.7,160.9c1.3-0.8,3-1,4.1-0.3c1.1,0.6,1,1.7-0.4,2.5c-1.3,0.8-3,1-4.1,0.3
				C211.2,162.7,211.4,161.7,212.7,160.9z M216,162.7c1-0.7,1.2-1.5,0.4-1.9c-0.8-0.5-2.1-0.3-3.2,0.3c-1,0.7-1.2,1.5-0.4,1.9
				C213.6,163.5,214.9,163.4,216,162.7z"/>
			<path class="st2" d="M262.7,113.2l3,0.1c1.2,0,1.8-0.1,2.3-0.3c0.5-0.3,0.4-0.8-0.1-1.1c-0.5-0.3-1.2-0.4-1.9-0.3l-0.1-0.4
				c0.9-0.1,1.7,0,2.4,0.4c0.8,0.5,1,1.2,0.2,1.6c-0.6,0.4-1.4,0.5-2.8,0.4l-2.2-0.1l2.3,1.3l-0.5,0.3l-3.1-1.8L262.7,113.2z"/>
			<path class="st2" d="M270.8,113.8l-1.3-0.1l0.1-0.4l1.8,0.2l0.4,0.2l-4.3,2.7l-0.5-0.3L270.8,113.8z"/>
			<path class="st2" d="M268.9,116.8l3,0.1c1.2,0,1.8-0.1,2.3-0.3c0.5-0.3,0.4-0.8-0.1-1.1c-0.5-0.3-1.2-0.4-1.9-0.3l-0.1-0.4
				c0.9-0.1,1.7,0,2.4,0.4c0.8,0.5,1,1.2,0.2,1.6c-0.6,0.4-1.4,0.5-2.8,0.4l-2.2-0.1l2.3,1.3l-0.5,0.3l-3.1-1.8L268.9,116.8z"/>
			<path class="st2" d="M272.8,119l3,0.1c1.2,0,1.8-0.1,2.3-0.3c0.5-0.3,0.4-0.8-0.1-1.1c-0.5-0.3-1.2-0.4-1.9-0.3L276,117
				c0.9-0.1,1.7,0,2.4,0.4c0.8,0.5,1,1.2,0.2,1.6c-0.6,0.4-1.4,0.5-2.8,0.4l-2.2-0.1l2.3,1.3l-0.5,0.3l-3.1-1.8L272.8,119z"/>
			<path class="st2" d="M83.8,116.8l3,0.1c1.2,0,1.8-0.1,2.3-0.3c0.5-0.3,0.4-0.8-0.1-1.1c-0.5-0.3-1.2-0.4-1.9-0.3l-0.1-0.4
				c0.9-0.1,1.7,0,2.4,0.4c0.8,0.5,1,1.2,0.2,1.6c-0.6,0.4-1.4,0.5-2.8,0.4l-2.2-0.1l2.3,1.3l-0.5,0.3l-3.1-1.8L83.8,116.8z"/>
			<path class="st2" d="M87.9,118.8l0.7,0c-0.1,0.4,0.1,0.8,0.7,1.1c0.6,0.4,1.4,0.4,1.9,0.1c0.5-0.3,0.3-0.8-0.4-1.2l-0.5-0.3
				l0.5-0.3l0.5,0.3c0.6,0.4,1.3,0.4,1.8,0.1c0.5-0.3,0.3-0.7-0.2-1.1c-0.5-0.3-1.1-0.3-1.8-0.3l0-0.4c0.8-0.1,1.6,0,2.3,0.4
				c0.9,0.5,1,1.2,0.3,1.6c-0.6,0.4-1.3,0.3-1.9,0.1c0.4,0.3,0.6,0.8-0.1,1.2c-0.7,0.5-1.9,0.4-2.8-0.1
				C88,119.8,87.8,119.3,87.9,118.8z"/>
			<path class="st2" d="M133.7,145.6l3,0.1c1.2,0,1.8-0.1,2.3-0.3c0.5-0.3,0.4-0.8-0.1-1.1c-0.5-0.3-1.2-0.4-1.9-0.3l-0.1-0.4
				c0.9-0.1,1.7,0,2.4,0.4c0.8,0.5,1,1.2,0.2,1.6c-0.6,0.4-1.4,0.5-2.8,0.4l-2.2-0.1l2.3,1.3l-0.5,0.3l-3.1-1.8L133.7,145.6z"/>
			<path class="st2" d="M137.8,147.8l0.7,0c0,0.4,0.2,0.8,0.7,1.1c0.6,0.4,1.5,0.4,2,0c0.6-0.4,0.5-0.9-0.2-1.2
				c-0.4-0.2-0.9-0.3-1.3-0.4l-0.2-0.3l2.3-1.4l2.7,1.6l-0.5,0.3l-2.2-1.3l-1.5,0.9c0.4,0,0.8,0.1,1.3,0.4c0.8,0.5,1,1.2,0.2,1.7
				c-0.9,0.5-2.1,0.5-3,0C138,148.7,137.8,148.2,137.8,147.8z"/>
			<path class="st2" d="M158.4,159.8l3,0.1c1.2,0,1.8-0.1,2.3-0.3c0.5-0.3,0.4-0.8-0.1-1.1c-0.5-0.3-1.2-0.4-1.9-0.3l-0.1-0.4
				c0.9-0.1,1.7,0,2.4,0.4c0.8,0.5,1,1.2,0.2,1.6c-0.6,0.4-1.4,0.5-2.8,0.4l-2.2-0.1l2.3,1.3l-0.5,0.3l-3.1-1.8L158.4,159.8z"/>
			<path class="st2" d="M166.6,163.5c-0.8,0.5-2.1,0.5-3,0c-1.2-0.7-0.8-1.6,0.5-2.4c1.3-0.8,3.1-1,4.2-0.4c0.6,0.3,0.7,0.7,0.8,1.1
				l-0.7,0.1c0-0.3-0.1-0.6-0.6-0.9c-0.7-0.4-2.1-0.2-3.2,0.4l-0.1,0c0.7-0.1,1.4,0,1.9,0.3C167.3,162.2,167.5,162.9,166.6,163.5z
				 M166.1,163.2c0.6-0.4,0.5-0.9-0.1-1.2c-0.6-0.3-1.3-0.4-1.9-0.1c-0.5,0.5-0.6,1,0,1.4C164.7,163.6,165.6,163.5,166.1,163.2z"/>
			<path class="st2" d="M182.8,174.1l3,0.1c1.2,0,1.8-0.1,2.3-0.3c0.5-0.3,0.4-0.8-0.1-1.1c-0.5-0.3-1.2-0.4-1.9-0.3l-0.1-0.4
				c0.9-0.1,1.7,0,2.4,0.4c0.8,0.5,1,1.2,0.2,1.6c-0.6,0.4-1.4,0.5-2.8,0.4l-2.2-0.1l2.3,1.3l-0.5,0.3l-3.1-1.8L182.8,174.1z"/>
			<path class="st2" d="M192.7,175.6l-2.5-1.4l0.5-0.3l3.1,1.8l-0.4,0.2l-5.9,1.4l-0.6-0.3L192.7,175.6z"/>
			<path class="st2" d="M207.6,188.3l3,0.1c1.2,0,1.8-0.1,2.3-0.3c0.5-0.3,0.4-0.8-0.1-1.1c-0.5-0.3-1.2-0.4-1.9-0.3l-0.1-0.4
				c0.9-0.1,1.7,0,2.4,0.4c0.8,0.5,1,1.2,0.2,1.6c-0.6,0.4-1.4,0.5-2.8,0.4l-2.2-0.1l2.3,1.3l-0.5,0.3l-3.1-1.8L207.6,188.3z"/>
			<path class="st2" d="M212.2,190.1c0.5-0.3,1.4-0.3,2.1-0.1c-0.3-0.4-0.4-0.8,0.1-1.2c0.7-0.5,1.9-0.3,2.7,0.2
				c0.8,0.5,1.1,1.2,0.4,1.6c-0.5,0.3-1.3,0.3-1.9,0.1c0.4,0.4,0.4,0.9-0.1,1.3c-0.7,0.5-1.9,0.3-2.9-0.2
				C211.8,191.2,211.5,190.5,212.2,190.1z M215.1,191.7c0.5-0.3,0.2-0.9-0.3-1.2c-0.5-0.3-1.5-0.5-2-0.1c-0.5,0.3-0.3,0.8,0.3,1.2
				C213.8,191.9,214.6,192,215.1,191.7z M217,190.3c0.4-0.3,0.3-0.7-0.3-1.1c-0.6-0.3-1.3-0.4-1.8-0.1c-0.5,0.3-0.2,0.8,0.2,1.1
				C215.7,190.4,216.5,190.6,217,190.3z"/>
			<path class="st2" d="M34.4,117.2l3,0.1c1.2,0,1.8-0.1,2.3-0.3c0.5-0.3,0.4-0.8-0.1-1.1c-0.5-0.3-1.2-0.4-1.9-0.3l-0.1-0.4
				c0.9-0.1,1.7,0,2.4,0.4c0.8,0.5,1,1.2,0.2,1.6c-0.6,0.4-1.4,0.5-2.8,0.4l-2.2-0.1l2.3,1.3l-0.5,0.3l-3.1-1.8L34.4,117.2z"/>
			<path class="st2" d="M43.5,120.2c-1.3,0.8-3.1,1-4.1,0.4c-0.6-0.3-0.7-0.7-0.8-1.1l0.7-0.1c0,0.3,0.1,0.6,0.6,0.9
				c0.7,0.4,2.1,0.2,3.2-0.4l0.1,0c-0.7,0.1-1.4,0-1.9-0.3c-0.8-0.5-1-1.2-0.2-1.7c0.8-0.5,2.1-0.5,3,0
				C45.2,118.6,44.8,119.4,43.5,120.2z M43.6,119.5c0.5-0.5,0.6-1,0-1.4c-0.7-0.4-1.6-0.3-2.1,0c-0.6,0.4-0.5,0.9,0.1,1.2
				C42.2,119.7,43,119.7,43.6,119.5z"/>
			<path class="st2" d="M59.6,131l0.7,0c-0.1,0.4,0.1,0.8,0.7,1.1c0.6,0.4,1.4,0.4,1.9,0.1c0.5-0.3,0.3-0.8-0.4-1.2l-0.5-0.3
				l0.5-0.3l0.5,0.3c0.6,0.4,1.3,0.4,1.8,0.1c0.5-0.3,0.3-0.7-0.2-1.1c-0.5-0.3-1.1-0.3-1.8-0.3l0-0.4c0.8-0.1,1.6,0,2.3,0.4
				c0.9,0.5,1,1.2,0.3,1.6c-0.6,0.4-1.3,0.3-1.9,0.1c0.4,0.3,0.6,0.8-0.1,1.2c-0.7,0.5-1.9,0.4-2.8-0.1
				C59.8,132,59.5,131.5,59.6,131z"/>
			<path class="st2" d="M65.1,132.4c1.3-0.8,3-1,4.1-0.3c1.1,0.6,1,1.7-0.4,2.5c-1.3,0.8-3,1-4.1,0.3
				C63.6,134.3,63.8,133.2,65.1,132.4z M68.4,134.3c1-0.7,1.2-1.5,0.4-1.9c-0.8-0.5-2.1-0.3-3.2,0.3c-1,0.7-1.2,1.5-0.4,1.9
				C66,135.1,67.3,134.9,68.4,134.3z"/>
			<path class="st2" d="M84.2,145.4l0.7,0c-0.1,0.4,0.1,0.8,0.7,1.1c0.6,0.4,1.4,0.4,1.9,0.1c0.5-0.3,0.3-0.8-0.4-1.2l-0.5-0.3
				l0.5-0.3l0.5,0.3c0.6,0.4,1.3,0.4,1.8,0.1c0.5-0.3,0.3-0.7-0.2-1.1c-0.5-0.3-1.1-0.3-1.8-0.3l0-0.4c0.8-0.1,1.6,0,2.3,0.4
				c0.9,0.5,1,1.2,0.3,1.6c-0.6,0.4-1.3,0.3-1.9,0.1c0.4,0.3,0.6,0.8-0.1,1.2c-0.7,0.5-1.9,0.4-2.8-0.1
				C84.3,146.4,84.1,145.9,84.2,145.4z"/>
			<path class="st2" d="M92,146.2l-1.3-0.1l0.1-0.4l1.8,0.2l0.4,0.2l-4.3,2.7l-0.5-0.3L92,146.2z"/>
		</g>
		<linearGradient id="SVGID_37_" gradientUnits="userSpaceOnUse" x1="141.1595" y1="87.4472" x2="230.5735" y2="87.4472">
			<stop  offset="0" style="stop-color:#D7D6DF"/>
			<stop  offset="1" style="stop-color:#FFFFFF"/>
		</linearGradient>
		<polygon class="st42" points="138.8,102.8 142.8,102.8 143.9,102.2 183.2,102.3 184.1,102.8 186.6,102.8 192.2,102.8 193.2,102.2 
			203.8,102.2 212.8,97.1 224,90.6 192.9,72.6 181,72.6 180.1,72.1 157.4,72.1 		"/>
		<linearGradient id="SVGID_38_" gradientUnits="userSpaceOnUse" x1="150.6057" y1="85.5" x2="186.0892" y2="110.4539">
			<stop  offset="0" style="stop-color:#D7D6DF"/>
			<stop  offset="1" style="stop-color:#FFFFFF"/>
		</linearGradient>
		<polygon class="st43" points="138.8,102.8 142.8,102.8 143.9,102.2 174.6,102.3 178.9,99.8 179.5,100.2 181.5,99 181.6,98.5 
			194.8,90.9 179.1,81.9 178.7,82.1 176.7,80.9 176.7,80.5 157.4,72.1 		"/>
		<polygon class="st44" points="259.7,151.3 237.4,138.5 215.2,151.3 237.4,164.2 		"/>
		<linearGradient id="SVGID_39_" gradientUnits="userSpaceOnUse" x1="191.992" y1="149.5213" x2="256.5634" y2="187.6647">
			<stop  offset="9.900990e-03" style="stop-color:#8EDAFF"/>
			<stop  offset="1" style="stop-color:#348AFF"/>
		</linearGradient>
		<polygon class="st45" points="215.2,175.4 215.2,151.3 237.4,164.2 237.4,188.3 		"/>
		<linearGradient id="SVGID_40_" gradientUnits="userSpaceOnUse" x1="207.4258" y1="119.8058" x2="289.3584" y2="168.2048">
			<stop  offset="9.900990e-03" style="stop-color:#8EDAFF"/>
			<stop  offset="1" style="stop-color:#348AFF"/>
		</linearGradient>
		<polygon class="st46" points="239.9,161.2 239.9,117.1 262.1,129.9 262.1,174 		"/>
		
			<linearGradient id="SVGID_41_" gradientUnits="userSpaceOnUse" x1="512.797" y1="149.7412" x2="577.3646" y2="187.8824" gradientTransform="matrix(-1 -2.000000e-04 -2.000000e-04 1 795.7255 -0.1074)">
			<stop  offset="0" style="stop-color:#2B3C8C"/>
			<stop  offset="1" style="stop-color:#348AFF"/>
		</linearGradient>
		<polygon class="st47" points="259.7,175.4 259.7,151.3 237.4,164.2 237.4,188.3 		"/>
		
			<linearGradient id="SVGID_42_" gradientUnits="userSpaceOnUse" x1="478.9095" y1="120.0227" x2="560.8259" y2="168.4121" gradientTransform="matrix(-1 -2.000000e-04 -2.000000e-04 1 795.7255 -0.1074)">
			<stop  offset="0" style="stop-color:#2B3C8C"/>
			<stop  offset="1" style="stop-color:#348AFF"/>
		</linearGradient>
		<polygon class="st48" points="284.3,161.2 284.3,117.1 262.1,129.9 262.1,174 		"/>
		<linearGradient id="SVGID_43_" gradientUnits="userSpaceOnUse" x1="219.4209" y1="140.2683" x2="410.9756" y2="257.9708">
			<stop  offset="9.900990e-03" style="stop-color:#8EDAFF"/>
			<stop  offset="1" style="stop-color:#348AFF"/>
		</linearGradient>
		<polygon class="st49" points="259.7,151.3 237.4,138.5 215.2,151.3 237.4,164.2 		"/>
		<linearGradient id="SVGID_44_" gradientUnits="userSpaceOnUse" x1="69.7698" y1="23.5362" x2="161.8725" y2="97.284">
			<stop  offset="0" style="stop-color:#FFFFFF"/>
			<stop  offset="1" style="stop-color:#D7D6DF"/>
			<stop  offset="1" style="stop-color:#EEEEF3"/>
		</linearGradient>
		<polygon class="st50" points="116.6,90 116.6,37 138.8,49.8 138.8,102.8 		"/>
		<linearGradient id="SVGID_45_" gradientUnits="userSpaceOnUse" x1="295.4736" y1="71.3976" x2="84.7448" y2="69.2341">
			<stop  offset="0" style="stop-color:#89869D"/>
			<stop  offset="0.1612" style="stop-color:#908EA3"/>
			<stop  offset="0.4053" style="stop-color:#A5A2B5"/>
			<stop  offset="0.7021" style="stop-color:#C6C5D1"/>
			<stop  offset="1" style="stop-color:#EEEEF3"/>
		</linearGradient>
		<polygon class="st51" points="161,90 161,37 138.8,49.8 138.8,102.8 		"/>
		<polygon class="st44" points="161,37 138.8,24.1 116.6,37 138.8,49.8 		"/>
		<linearGradient id="SVGID_46_" gradientUnits="userSpaceOnUse" x1="244.0867" y1="105.9859" x2="435.6413" y2="223.6882">
			<stop  offset="9.900990e-03" style="stop-color:#8EDAFF"/>
			<stop  offset="1" style="stop-color:#348AFF"/>
		</linearGradient>
		<polygon class="st52" points="284.3,117.1 262.1,104.2 239.9,117.1 262.1,129.9 		"/>
		<linearGradient id="SVGID_47_" gradientUnits="userSpaceOnUse" x1="287.0891" y1="122.214" x2="254.4901" y2="122.6467">
			<stop  offset="9.900990e-03" style="stop-color:#8EDAFF"/>
			<stop  offset="1" style="stop-color:#348AFF"/>
		</linearGradient>
		<path class="st53" d="M263.2,116.5c5.5,0.1,6.6,1.3,8.6,1.2c2.1-0.1,3.6-1.8,5.9,0c2.4,1.8-2.2,2.7-4.5,2.2c-1.9-0.5-3.5,2-3.9,3
			l1.7,1.1l-2.4,1.3c0,0-1.5,0.2-4.1,0.7c-2.6,0.5-4.7,2.7-4.7,2.7l-5.2-3L263.2,116.5z"/>
		<linearGradient id="SVGID_48_" gradientUnits="userSpaceOnUse" x1="252.3457" y1="124.2994" x2="257.5776" y2="147.2505">
			<stop  offset="0" style="stop-color:#2B3C8C"/>
			<stop  offset="1" style="stop-color:#348AFF"/>
		</linearGradient>
		<path class="st54" d="M253.1,139.2c-1.2-1-1.5-10-0.8-12.2c0.7-2.2,3-2.3,3-2.3l-0.7,3.6C254.6,128.3,255.2,141,253.1,139.2z"/>
		<linearGradient id="SVGID_49_" gradientUnits="userSpaceOnUse" x1="256.9949" y1="126.4948" x2="262.3447" y2="149.9633">
			<stop  offset="0" style="stop-color:#2B3C8C"/>
			<stop  offset="1" style="stop-color:#348AFF"/>
		</linearGradient>
		<path class="st55" d="M258.2,141.7c-1.2-1-1.1-12.1-0.4-14.3l2.1,1.2C260,128.7,260.3,143.5,258.2,141.7z"/>
		<g>
			
				<linearGradient id="SVGID_50_" gradientUnits="userSpaceOnUse" x1="-384.1573" y1="152.9969" x2="-386.4042" y2="153.9598" gradientTransform="matrix(-1 0 0 1 -105.2725 0)">
				<stop  offset="0" style="stop-color:#000080"/>
				<stop  offset="1" style="stop-color:#D913FF"/>
			</linearGradient>
			<path class="st56" d="M250.8,138.9c0.4,0.3,0.3,1.1,0.1,1.4c-0.2,0.3-0.8,0.2-1.1,0.4c-0.8,0.5-2.6,0.9-2.9,0.7
				c-0.3-0.2-0.5-0.9,1.4-1.6c0.8-0.3,1.2-0.8,1.2-0.8L250.8,138.9z"/>
			<path class="st57" d="M250.8,138.3c0,0.5,0.1,0.8,0.1,0.9c0,0.1,0,0.2-0.1,0.3c-0.2,0.2-0.8,0.5-1.3,0.3c0,0-0.3-0.1-0.2-0.6
				c0.2-0.4,0.2-1,0.2-1L250.8,138.3z"/>
			
				<linearGradient id="SVGID_51_" gradientUnits="userSpaceOnUse" x1="-384.6015" y1="153.037" x2="-386.3993" y2="153.8075" gradientTransform="matrix(-1 0 0 1 -105.2725 0)">
				<stop  offset="0" style="stop-color:#000080"/>
				<stop  offset="1" style="stop-color:#D913FF"/>
			</linearGradient>
			<path class="st58" d="M256.9,141.4c0.4,0.3,0.3,1.1,0.1,1.4c-0.2,0.3-0.6,0-0.8,0.3c-0.7,1.1-1.9,1-2.3,1
				c-0.6-0.1-0.7-0.6,0.4-1.6c1-0.9,1.2-1.2,1.2-1.2L256.9,141.4z"/>
			<path class="st57" d="M261,113.4c1.2,2.9,1.5,4.4-1,7.2c-2.5,2.8-6,5.6-6.4,6.4c-0.5,0.8-1,2.7-2.5,11.2
				c-0.1,0.5-1.7,0.7-1.7-0.3c0-1.7,0.3-11.3,0.8-13.7c0.5-2.4,5.4-7.1,5.4-7.1L261,113.4z"/>
			<path class="st57" d="M256.9,140.8c0,0.5,0.1,0.8,0.1,0.9c0,0.1,0,0.2-0.1,0.3c-0.2,0.2-0.8,0.5-1.3,0.3c0,0-0.3-0.1-0.2-0.6
				c0.2-0.4,0.2-1,0.2-1L256.9,140.8z"/>
			<path class="st59" d="M254.9,111.6c-1.5,1.1-2.1,1.6-2.1,1.6l-1.4-0.8l2.1-3l0.7-0.6l0.9,1.3L254.9,111.6z"/>
			<path class="st57" d="M264.6,115.4c1.2,2.9,1.5,4.4-1,7.2c-2.5,2.8-5.3,4.5-5.8,5.3c-0.5,0.8-0.9,8.8-0.7,12.8c0,0.5-1.7,1-1.9,0
				c-0.2-1.2-1.2-12.3-0.8-14.6c0.5-2.4,4.5-6.9,4.5-6.9L264.6,115.4z"/>
			<path class="st57" d="M255.4,106.8l0,5.2c0,0-0.2-0.5-0.6-0.3c0,0,0.2-2-1.5-2.2C253.4,109.4,254.9,107,255.4,106.8z"/>
			<path class="st57" d="M265.5,117.4c-0.4,2.5-3.6,4-7.6,1.7c-4-2.2-2.1-3.1-2-5.2c0.1-2.1,0.5-2.9-0.4-6c-0.9-3.1,4.6-1.4,6.9,0.5
				S265.9,115,265.5,117.4z"/>
			<path class="st60" d="M262.7,108.4c2.3,1.9,3.4,7.4,3,9.8c-0.4,2-2.9,4.3-5.7,3.7c0.1-0.4,0.3-2.8,0.3-3.6
				c0.1-3.5-1.8-5.5-1.3-9.7c0,0,2.1-0.9,0.2-1.8c-1.8-0.8-2.6-0.8-2.9-0.2c-0.2,0.7,0.7,5.8,0.6,9.5c0,1.4-0.6,3.2-0.6,3.9
				c-2.4-1.7-1-4.3-1-6.2c0.1-2.1-0.3-2.8-0.3-6.1C255.1,104.5,260.4,106.5,262.7,108.4z"/>
			<path class="st59" d="M258.1,104.7c0.8,1.7,1.4,2.1,1.5,2.4c0.2,0.3-0.7,0.7-1.3,0.7L258,109l-0.7-1.7c0,0-0.4-0.2-0.3-0.5
				c0.1-0.4-0.1-0.7-0.2-0.9C256.5,105.6,258.1,104.7,258.1,104.7z"/>
			<path class="st59" d="M258.2,104.4c0,1.2-1,1.7-1.8,1.9c-0.8,0.2-2.6-2.4-2.4-3.5c0.3-1.1,2.1-2.2,3-1.4
				C258,102.3,258.2,104.4,258.2,104.4z"/>
			<g>
				<path class="st57" d="M255.3,114C255.3,114,255.3,114,255.3,114l1.4-0.3c0.1,0,0.1-0.1,0.1-0.2c0-0.1-0.1-0.1-0.2-0.1l-1.3,0.3
					c-0.1,0-0.1,0.1-0.1,0.2C255.2,114,255.2,114,255.3,114z"/>
			</g>
			<path class="st57" d="M261.5,108.6c1.4,0.4,2.4,2.5,2.8,4.5c0.4,2-1.6,1.5-2.3,0.8C261.4,113.2,259.6,108.1,261.5,108.6z"/>
			<path class="st59" d="M255.2,113.6c0.5-0.1,0.6,0.2,1,0.8c0,0,0,0,0,0c1,0.4,3.4,1.3,4.4,1.7c0,0,0.7-5.7,1-6.5l2.1,3.6
				c-0.7,3.2-1.6,4.5-2.2,5.1c-0.5,0.5-4.5-2-6.1-2.9l0,0c0,0-0.5,0.1-1.3-0.6S254.6,113.7,255.2,113.6z"/>
			
				<linearGradient id="SVGID_52_" gradientUnits="userSpaceOnUse" x1="-369.903" y1="106.6042" x2="-371.9546" y2="107.459" gradientTransform="matrix(-1 0 0 1 -105.2725 0)">
				<stop  offset="0" style="stop-color:#000080"/>
				<stop  offset="1" style="stop-color:#D913FF"/>
			</linearGradient>
			<path class="st61" d="M258.4,104.5c-0.2,0.8,0.7,0.4,0.9,0.8c0.2,0.5-1.1,0.6-1.6,0c-0.3-0.3-0.5-0.2-0.2-0.7
				c0.3-0.5-0.4-0.7-0.7-0.4c-0.3,0.3-0.6,0-0.8-0.3c-0.1-0.3-1.1,0.3-1.7,0.5c-0.7,0.1-1.6-0.1-1.5-0.9c0.1-0.8,0.5-0.4,0.7-0.7
				c0.1-0.3-0.6-0.3-0.2-0.7c0.4-0.4,0.9,0.1,1-0.3c0.1-0.4,0.7-0.4,1-0.8c0.2-0.4,0.7,0.1,0.9,0c0.2-0.1,0.9-0.1,1.3,0.9
				c0.4,1,0.4,0.6,0.7,1.1C258.5,103.5,258.4,104.5,258.4,104.5z"/>
			<polygon class="st15" points="255,114.4 251,111 253.3,115.3 257.3,118.8 			"/>
			<path class="st59" d="M251.5,112.1c-1,1.4-0.6,2-0.3,2.5c0.3,0.4,3.3,2.2,3.7,3c0.4,0.8,1.4,0.6,1.8,0.4c0.4-0.2,0.6-0.8,0.3-1.4
				c-0.3-0.6-1.2,0-1.2,0l-3.5-2.9L251.5,112.1z"/>
			<path class="st57" d="M261.1,112.6c0.6-0.5,2.3,0.3,2.5,1.3l0.4-0.5l-1.1-3.2l-1.1-1l-0.6,0.4L261.1,112.6z"/>
		</g>
		<g>
			<linearGradient id="SVGID_53_" gradientUnits="userSpaceOnUse" x1="120.0675" y1="207.8253" x2="120.1288" y2="208.3161">
				<stop  offset="0" style="stop-color:#000080"/>
				<stop  offset="1" style="stop-color:#D913FF"/>
			</linearGradient>
			<path class="st62" d="M117.1,201.2c0,0.5-0.1,0.8,0.1,1c0.2,0.3,0.8,0.4,1.1,0.3c0.4-0.2,0.6-0.3,0.7-0.5
				c0.1-0.2,0.3-0.2,0.6-0.3c0.3-0.1,1.8-1,1.7-1.3c-0.1-0.3-0.7-0.4-1.6-0.1c-0.9,0.4-2.3,0.7-2.3,0.7L117.1,201.2z"/>
			<linearGradient id="SVGID_54_" gradientUnits="userSpaceOnUse" x1="112.3944" y1="206.3494" x2="112.451" y2="206.8023">
				<stop  offset="0" style="stop-color:#000080"/>
				<stop  offset="1" style="stop-color:#D913FF"/>
			</linearGradient>
			<path class="st63" d="M109.7,200.1c0,0.9,0,1,0.3,1.3c0.3,0.3,1.2-0.1,1.2-0.3c0.1-0.2,0.2,0,0.5-0.2c0.3-0.2,1.6-0.9,1.7-1.3
				c0.1-0.4-0.6-0.5-1.3-0.2c-0.6,0.2-1.4,0.2-1.4,0.2L109.7,200.1z"/>
			<path class="st60" d="M106.8,174.7c0.8,7.2,1.6,10.5,1.6,13c0.1,2.5,0.8,10.1,1.1,11.9c0.3,1.8,2.1,0.8,2.1,0
				c0-0.8,0.9-10.6,0.9-12.8c0.1-2.2,0-12.7,0-12.7L106.8,174.7z"/>
			<path class="st60" d="M109.6,179.7c3.9,7.9,4.6,7.4,5.7,10.9c1.1,3.4,1.3,8.6,1.5,10.1c0.2,1.5,1.9,1.2,2.1,0
				c0.1-1.2,0.4-11,0-13.3c-0.4-2.3-5-13.4-5-13.4l-3.6,2.1L109.6,179.7z"/>
			<path class="st59" d="M122.6,170.5c0.6,0.3,0.8-0.1,1.8,0.4c0.6,0.3,0.4,1.2,0.8,1.5c0.3,0.3,1.1,0.3,1.1,0.7
				c0,0.2-0.3,0.2-1.4-0.3c0,0-0.7,0-1.2-0.1c-0.5-0.1-0.3-0.6-0.4-0.8c-0.1-0.2-1.2-0.5-1.2-0.5L122.6,170.5z"/>
			<path class="st59" d="M110.3,160.5c0.4-0.6,0.5-1.4,0.3-1.9c-0.2-0.4-0.7-2.8,1.1-3.4c1.8-0.7,3.2,0.9,2.9,2.7
				c-0.3,1.8-0.5,2.8-1,2.8c-0.5,0.1-0.6,0-0.7,0.3c-0.1,0.4-2.1,0-2.1,0l-0.5-0.2V160.5z"/>
			<linearGradient id="SVGID_55_" gradientUnits="userSpaceOnUse" x1="108.3131" y1="167.0511" x2="122.9582" y2="167.0511">
				<stop  offset="9.900990e-03" style="stop-color:#8EDAFF"/>
				<stop  offset="1" style="stop-color:#348AFF"/>
			</linearGradient>
			<path class="st64" d="M122.7,170.2c-6.2-2.8-10.5-7.9-10.5-7.9l-3.9,0.9c0,0,6.3,7.4,13.1,8.5C123,172,123.2,170.4,122.7,170.2z"
				/>
			<path class="st65" d="M109.9,160.6c3.9,2.2,4.2,2,5.3,5.3c0.8,2.5-0.9,9,0.7,12.4c0.6,1.2-0.4,1.8-1.4,1.6
				c-1.4-0.3-1.7-3.2-1.7-3.2s1,7.1-1.3,6.7c-2.3-0.4-4-2.7-4.7-4.9c-0.4-1.1-0.6-10.2-0.5-10.9
				C106.9,163.6,108.6,159.9,109.9,160.6z"/>
			<path class="st59" d="M115.2,172.3c0,0-0.1,1-0.1,1.3c0,0-0.2,0.3-0.7,0.7c-0.5,0.4-1.1,0.3-1.1,0.7c0,0.4,0.5,0,1.5,0.2
				c0.8,0.2,1-0.1,1-0.1s0-0.9,0-1.4C116,172.6,115.2,172.3,115.2,172.3z"/>
			<path class="st65" d="M113.8,169.3c0.8,2.3,2.9,4.1,2.9,4.1s-1.3,0-1.5,0.8c-0.2,0.7-0.1,1,0.9,1.2c1.5,0.3,3.2-0.3,3.5-1.1
				c0.8-1.8-4.5-9.5-5.2-10.4C113.4,162.7,113.1,167.1,113.8,169.3z"/>
			<path class="st15" d="M110.3,160.5c0,0-0.5,0.5-0.7,0.8c-0.1,0.1,2,0.9,3.3,1.1V161C112.9,161,110.2,160.9,110.3,160.5z"/>
			<path class="st60" d="M113.9,154.2c1.9,0.1,1.6,2.1,1.1,2.9c-0.5,0.8-0.5,0.5-1.1,0.9c0,0-0.1-0.1-0.3,1.1c0,0-0.2,0.1-0.4,0.1
				c-0.1,0,0.1-0.3-0.1-0.5c-0.2-0.1-0.7,0.2-0.5,0.7c0.2,0.5,0.2,0.4,0.2,0.4s-0.4,0.5-0.7,0.4c-0.3-0.1-1.5-0.2-1.6-0.6
				c-0.1-0.5-0.6-1.1-0.5-2.3c0.1-1.2,0.9-2.4,2.1-2.6C113.4,154.6,113.5,154.2,113.9,154.2z"/>
		</g>
		<g>
			<linearGradient id="SVGID_56_" gradientUnits="userSpaceOnUse" x1="136.376" y1="186.5699" x2="170.6553" y2="186.5699">
				<stop  offset="0" style="stop-color:#D7D6DF"/>
				<stop  offset="1" style="stop-color:#FFFFFF"/>
			</linearGradient>
			<path class="st66" d="M163.5,178c-3.8-3.2-11.9-1.6-10.3,2.2c1.6,3.8,2.5,5.9,2.5,5.9l-4,0.8c-1.8-0.2-6.1,1.4-9,2
				c-3,0.6-2.6-0.1-4.3,0l2.8,1.6h10.6l3.9,4.7l-0.3,1v0.4c0,0,1.2,0,2.1,0c0.3,0,1-1.5,0.5-2.8c-0.2-0.5-0.6-0.9-1.4-2.1
				c0,0,7.3,0.1,9.3,0c2.4-0.2,4.1-1.7,4.2-4.4C170.2,182,166.8,180.8,163.5,178z"/>
			<path class="st57" d="M154,194.2c0.5,0.2,0.8,0.8,0.8,0.3c0,0,0.7-0.9,0.7-0.9c0,0-0.5-0.5-0.5-0.5l-1.2,0.2L154,194.2z"/>
			<path class="st60" d="M150.4,179.8c-4,3.5-4.7,7.3-3.2,9.6c1.4,2.2,5,3.6,6.8,4.8c0,0,0.2-1.1,1-1.1c0,0-3.6-3.9-3.6-4
				c-0.4-1.1,1.5-4.8,1.8-6.1C153.4,181.8,150.4,179.8,150.4,179.8z"/>
			<path class="st60" d="M137.9,189.3c-0.3,0.5,1.4,1.2,2.2,1.4c0.5,0.1,1.1,0.7,1.5,0.6c1.2-0.3,0.6-1.2,0.5-1.6
				c-0.3-0.6-0.8-0.6-0.8-0.6s-1.2,0.1-1.6,0C139.3,189.1,138.3,188.7,137.9,189.3z"/>
			<path class="st57" d="M140.4,189c0,0.5,0.1,1.1,0.9,1.2c1.4,0.2,0.5-1.5,0.5-1.5L140.4,189z"/>
			<path class="st59" d="M136.8,173.5c0,0-0.6,0-1.1-0.2c-0.5-0.2-0.8-0.3-1.3,0.1c-0.3,0.3-0.5,0.8-0.2,0.8c0.3,0,0.4-0.1,0.5-0.3
				c0.2-0.1,0.5-0.1,0.5,0c0.1,0.1-0.3,0.4-0.2,0.5c0.1,0.2,0.6-0.3,1.1-0.4c0.5-0.1,0.7,0.1,0.7,0
				C136.9,174,136.8,173.5,136.8,173.5z"/>
			<path class="st60" d="M147.2,180.9c-4.2-2.4-7.8-5.2-9.5-3.6c-1.7,1.5,1.7,10.2,2.4,11.6c0.7,1.4,2.2,0.9,2-0.1
				c-0.2-1-0.7-6.1-0.7-6.1s3.5,2.8,6.8,2.7c2.4-0.1,3.2-2.6,3.8-3.5c1.8-2.6,1.4-2.6,1.4-2.6L147.2,180.9z"/>
			<path class="st59" d="M136.4,182.2c-1-0.2-1.1,0-0.9,0.1c0.1,0.1,0.4,0.1,0.4,0.2c0,0.1-0.2,0-0.7,0.6c-0.4,0.6,0.5,1.6,0.9,1.5
				c0.4-0.1,0-1.1,0.5-1.2c0.5-0.1,0.8-0.6,0.8-0.6l-0.3-0.5C137.1,182.4,136.5,182.3,136.4,182.2z"/>
			<path class="st57" d="M137.2,182c-0.5,0.4-0.2,1,0.2,1c0.3,0,5.9-2.9,7.2-4.2c2.2-2.2,3.8-6.5,1.9-7.6c-2.8-1.6-2.1,0.9-3.4,5.2
				C142.4,179.1,137.2,182,137.2,182z"/>
			<path class="st57" d="M136.7,173.4c-0.2,0-0.2,0.8,0.1,0.8c0.3,0.1,9.7-0.9,9.7-0.9l1.2-4.4l-4.3,2.6L136.7,173.4z"/>
			<path class="st57" d="M145,170.7c-0.7,3.8,1.7,5-0.2,9.1c-1.1,2.3,1.5,5.3,4.4,5.3c2.2,0,6-2.2,6-3.2c-0.2-7.4-2.2-11.4-4.4-13.1
				C148.4,166.9,145.4,168.6,145,170.7z"/>
			<path class="st59" d="M148.1,168.2c0-0.2-0.9-0.1-1.4-0.5c-0.5-0.4-1.2-1.3-1.2-1.3l-0.9,2.4c0,0,1,0.5,0.9,0.7
				C144.6,170.8,148.1,168.4,148.1,168.2z"/>
			<linearGradient id="SVGID_57_" gradientUnits="userSpaceOnUse" x1="158.9816" y1="196.6003" x2="144.5797" y2="190.7098">
				<stop  offset="0" style="stop-color:#000080"/>
				<stop  offset="1" style="stop-color:#005DFF"/>
			</linearGradient>
			<path class="st67" d="M154.3,193.7c-0.2,0.2-0.3,0.8,0,1.2c0.3,0.4,0.7,0.8,0.7,1c0,0-0.1-0.2-0.7,0.3c-0.2,0.2,0.4,0.7,0.9,0.7
				c0.5,0,0.9-0.5,1.2-0.8c0.3-0.3,0-1.6-0.3-2.1c-0.1-0.2-0.7-0.6-1.1-0.6C154.7,193.2,154.5,193.5,154.3,193.7z"/>
			<path class="st60" d="M155.1,194.5c0,0.4,0.9,1.4,0.6,1.8c-0.3,0.4-0.7,0.5-0.9,0.4c0.1,0.1,0.3,0.1,0.4,0.1
				c0.5,0,0.9-0.5,1.2-0.8c0.3-0.3,0-1.6-0.3-2.1C155.3,193.7,155.1,194,155.1,194.5z"/>
			<path class="st59" d="M144.6,168.9c-0.3-0.1-0.5,0.5-0.8,0.6c-0.4,0.1-2.7-1.4-2.9-2.7c-0.1-1.4,2.1-1.9,4.5-0.3L144.6,168.9z"/>
			<path class="st60" d="M140.7,167.5c0.7,0.6,2.1,0.4,2.3,0.4c0.2,0-0.2-0.2-0.1-0.3c0.1-0.2,0.5-0.2,0.7,0.3
				c0.2,0.5,1.2,0.2,1.5,0.2c0.3,0,1.2-0.5,1.3-0.9c0.1-0.4-1.6-1.5-2.2-2.5c-0.6-1-1.1-1.5-1.8-0.7c-0.7,0.8-1.4-0.4-2,0.4
				c-0.5,0.8,0.1,1.3-0.6,1.7C139.1,166.6,140.4,167.3,140.7,167.5z"/>
		</g>
		<g>
			<path class="st68" d="M151.6,47.7c-0.1-0.7,0.3-1.1,0.2-1.5c0-0.4-0.3,0.1-0.3,0.3c-0.1,0.2-0.1-0.6-0.4-1.1
				c-0.3-0.4-1,0.1-0.9,0.8c0.1,0.7,0.2,1,0.3,1.3c0.1,0.3,0.1,0.5,0.1,0.5L151.6,47.7z"/>
			<path class="st57" d="M168.9,65.7c-0.1,1.7-1,14-1,15.4c0,2.3,0.5,9.7,0.5,9.7c-0.1,0.4-0.9,0.9-1.3,0.4c0,0-3.1-9.9-3-10.9
				c0.2-1.7-0.9-13.3-0.9-13.3l1.7-2.4L168.9,65.7z"/>
			<path class="st68" d="M157.4,44.5l-0.6-0.9c0,0-0.8-1.3-1.6-0.8c-0.9,0.5-0.6,2,0,1.8c0.8-0.3,1.1,0.2,1.1,0.2s0.1,0.2,0.3,0.6
				C157.4,46.6,157.4,44.5,157.4,44.5z"/>
			<path class="st57" d="M159.9,65.7c-1.5,5,0.8,12.6,1.2,18.2c0.1,1.3,2.2,11,2.2,11s1,0.8,1.2-0.7c-0.4-2.1-0.3-8.5-0.1-10.3
				c0.5-6.2,2.3-16.5,2.3-16.5L159.9,65.7z"/>
			<path class="st15" d="M168.5,64.1c-2.3-3.4-0.9-2.3-1.9-7.2c-1.4-6.3-4.2-4.5-4.2-4.5c-0.7,0.6,0.2,0.3-1.2,1.4
				c-0.4,0.2-1.3,0.7-1.9,0.7c-1.4,0.2-2.5,0.3-1.3,2.8c0.7,1.5,0.8,3.9,0.4,6.5c-0.5,4.4,0,4.4,1.1,4.9
				C162.7,70.4,170.8,67.3,168.5,64.1z"/>
			<path class="st57" d="M159.3,54.6c0.6,1.2,0.9,13.4-0.9,4.5c0,0-5.9,0.4-6.3-1c-0.6-2-1.8-10-1.8-10l1.3-0.4c0,0,2.5,7.2,2.9,7.8
				C155.1,56,159.3,54.6,159.3,54.6z"/>
			<path class="st57" d="M162.1,53.6c1.3-1.1,3.7,1.5,4.7,3.9c0,0-0.1-3.5-1.1-5c-1-1.4-4.8-3.8-5.1-4.2c-0.3-0.4-3.1-4.1-3.1-4.1
				l-1.2,1.1l2.6,5.2L162.1,53.6z"/>
			<path class="st68" d="M162.7,48.4c-2.8,1.2-3.1,2.1-3,2.7c0.1,0.6,0.7,0.6,0.9,1.3c0.2,0.7,0.2,1-0.1,1.7c-0.2,0.5,0.9,0.4,1.5,0
				c0.6-0.4,0.9-0.5,0.6-1.6c-0.3-1.1,0.8-1.3,0.9-2.6C163.7,48.5,162.7,48.4,162.7,48.4z"/>
			<path class="st60" d="M162.4,48.2c-0.7,0.2-0.2,2.3-0.3,2.3c0,0,0.6,0,0.3,0.5c-0.3,0.5-0.6,0.1-0.6,0.1s-0.1,0.6,0.3,0.8
				c0.4,0.2,0.5,0.2,0.5,0.2s1,0.1,1.8-0.7C165.2,50.4,163.9,47.8,162.4,48.2z"/>
			<path class="st60" d="M164.2,50.4c-0.3,0.1-0.2,0.6-0.1,0.7c0.1,0.1,1.1,0.6,1.1,1.6c0,1-0.7,0.9-0.8,2.5
				c-0.1,1.6,4.3,2.8,3.8,4.1c-0.5,1.4-2.2,0.5-2.4,1.8c-0.1,0.6,0.1,1.3,2.6,0.7c2.5-0.5,2.7-2.9,1-5.2c-1.7-2.3-0.8-3.4-1.2-4.6
				C167.8,51,165.7,50,164.2,50.4z"/>
			<path class="st15" d="M154.2,40.1c-1.5,0-2.6,1.2-2.6,2.6c0,1.5,1.2,2.6,2.6,2.6c1.5,0,2.6-1.2,2.6-2.6
				C156.8,41.3,155.6,40.1,154.2,40.1z M154.2,44.7c-1.1,0-2-0.9-2-2c0-1.1,0.9-2,2-2c1.1,0,2,0.9,2,2
				C156.2,43.8,155.3,44.7,154.2,44.7z"/>
			<path class="st68" d="M157.1,44c-0.2-0.6-0.3-1.5-0.5-1.5c-0.6,0.1,0,1.2-0.2,1.6c-0.1,0.4,0.2,0.1,0.2,0.1L157.1,44z"/>
			<linearGradient id="SVGID_58_" gradientUnits="userSpaceOnUse" x1="160.3553" y1="96.1176" x2="164.8505" y2="96.1176">
				<stop  offset="9.900990e-03" style="stop-color:#8EDAFF"/>
				<stop  offset="1" style="stop-color:#348AFF"/>
			</linearGradient>
			<path class="st69" d="M164.4,93.9c-0.3-0.2-0.9-0.2-1.6,0.7c-0.5,0.6-1.3,2.6-2,3.1c-0.5,0.3-0.8,0.8,0,0.8c1,0,4.1-3.1,4-3.5
				c0,0,0-0.1,0-0.1C164.7,94.4,164.6,94,164.4,93.9z"/>
			<linearGradient id="SVGID_59_" gradientUnits="userSpaceOnUse" x1="160.8552" y1="96.6078" x2="164.8893" y2="96.6078">
				<stop  offset="9.900990e-03" style="stop-color:#8EDAFF"/>
				<stop  offset="1" style="stop-color:#348AFF"/>
			</linearGradient>
			<path class="st70" d="M160.9,98.4c0,0,0.7,0.1,1.5-0.6c1-1,2.3-2.1,2.3-2.2c0.2-0.3,0.3-0.5,0.2-0.7c-0.1-0.2-0.7-0.2-1.1,0.3
				c-0.1,0.1-1.2,1.8-2.1,2.8C161.3,98.4,160.9,98.4,160.9,98.4z"/>
			<linearGradient id="SVGID_60_" gradientUnits="userSpaceOnUse" x1="165.0167" y1="92.8788" x2="168.8591" y2="92.8788">
				<stop  offset="9.900990e-03" style="stop-color:#8EDAFF"/>
				<stop  offset="1" style="stop-color:#348AFF"/>
			</linearGradient>
			<path class="st71" d="M168.3,90.6c-0.3-0.1-0.7-0.1-1.2,0.5c-0.5,0.6-0.7,2.8-1.6,3.2c-0.6,0.3-0.9,0.8,0.2,0.9
				c1.3,0.2,3.4-2.9,3.1-3.5C168.8,91.7,168.7,90.8,168.3,90.6z"/>
			<linearGradient id="SVGID_61_" gradientUnits="userSpaceOnUse" x1="165.7314" y1="93.3012" x2="168.8737" y2="93.3012">
				<stop  offset="9.900990e-03" style="stop-color:#8EDAFF"/>
				<stop  offset="1" style="stop-color:#348AFF"/>
			</linearGradient>
			<path class="st72" d="M165.7,95.2c0,0,0.9,0.1,1.4-0.4c0.5-0.4,1.2-1.3,1.4-1.9c0.2-0.5,0.4-0.9,0.3-1.2
				c-0.1-0.3-0.6-0.4-1.1,0.1c-0.4,0.4-0.3,1.9-1.2,2.9C166.1,95.1,165.7,95.2,165.7,95.2z"/>
		</g>
		<g>
			<path class="st59" d="M141.5,30.8c0,0,5.5,6.3,10.4,9c0,0,0.6,0.2,1,0.8c0.2,0.3,0.4,0.7,0.5,0.1c0-0.5,0.4-0.3,0.8-0.1
				c0.3,0.2,0.5,0.4,0.8,0.4c0.4-0.1,0.3-0.3-0.9-1c-1.2-0.7-1.3-0.6-1.7-1c-0.3-0.3-4.4-4.4-4.4-4.4l-4.7-5.4
				C143.3,29.2,141.6,29.7,141.5,30.8z"/>
			<path class="st57" d="M142.7,55.6l-0.2,0.9c0,0-0.1,0.5-0.3,0.7c-0.1,0.2-0.1,0.3-0.1,0.3l1.2,1.2l0.4-0.5c0,0-0.4-0.6-0.3-0.7
				c0-0.2,0.2-0.6,0.2-0.6l0.3-1L142.7,55.6z"/>
			<path class="st15" d="M142,31.8c0.9,0.6,1.9,1.4,1.9,1.4s2.3-0.6,1.4-1.8c-0.1-0.1-1.7-2.3-1.7-2.3L142,31.8z"/>
			<path class="st60" d="M143,59.3c-0.8-0.4-1.5-1-1.1-1.6c0.1-0.2,0.4-0.6,0.4-0.6c0.2,0.6,1.3,1,1.4,0.9c0,0,2.8,1.8,2.7,2.2
				c0,0-0.1,0.1-0.1,0.2C146.1,60.7,143.7,59.6,143,59.3z"/>
			<path class="st57" d="M140.6,62c0,0-0.2,1.1-0.3,1.3c-0.1,0.2,2.2,1.4,1.5-0.7c-0.1-0.3,0-1.1,0-1.1L140.6,62z"/>
			<path class="st60" d="M141.3,64.5c-0.8-0.3-1.3-0.6-1.2-1.3c0.1-0.2,0.3-0.7,0.3-0.7c0.1,0.5,1.4,0.9,1.5,0.6c0,0,3,1.7,3,2
				c0,0,0,0.2,0,0.2C144.8,65.7,142.1,64.8,141.3,64.5z"/>
			<linearGradient id="SVGID_62_" gradientUnits="userSpaceOnUse" x1="154.2769" y1="62.1039" x2="144.0936" y2="47.342">
				<stop  offset="0" style="stop-color:#00AAFF"/>
				<stop  offset="1" style="stop-color:#005DFF"/>
			</linearGradient>
			<path class="st73" d="M137.1,37.5c5.2,1.2,12.6,4.1,12.6,7.1c0,2-6,12.3-6,12.3s-1.1-0.1-1.3-0.5c0-0.9,4.8-10.4,3.4-11.2
				c-2.8-1.5-9.5-2.2-9.5-2.2L137.1,37.5z"/>
			<path class="st65" d="M132,41.2c0,3.3,8.9,6.4,9.1,7.7c0.4,2.1-0.6,13.1-0.6,13.1c0.2,0.4,1.2,0.5,1.2,0.1c0,0,2.9-14,2.6-14.9
				c-0.4-1.5-4.3-4-5.7-6.1c-0.5-0.7-1.8-2.8-1.8-2.8S132,35.8,132,41.2z"/>
			<path class="st15" d="M133.2,43.1c0,0-3.1,0.3-2.3-6c0.7-5.2,2.9-7.3,7.6-9.9c4.4-2.5,5.5,0.9,5.2,2.9c0,0.2-1.4,2.5-2.3,5.2
				c-0.5,1.4-0.9,3-0.8,4.3c0.2,1.6-6.5,3.3-6.5,3.3l-0.5-3.1L133.2,43.1z"/>
			<path class="st59" d="M147.6,28.4c-1.3,2.5-1.7,2.6-2.3,2.4c-0.6-0.1-0.6-0.5-1.2-0.7c-0.6-0.2-0.8,0.3-1.5,0.5
				c-0.4,0.1-0.5-1.2-0.1-1.8c0.5-0.6,0.6-1.2,1.6-0.9c1,0.3,1.2-0.3,2.4-0.3C147.8,27.6,147.6,28.4,147.6,28.4z"/>
			<path class="st60" d="M147.8,27c1.1,1.3-0.1,1.5-0.7,1.5c-0.7-0.1-1.7,0.1-1.7,0.1c-0.7-1-1.2,0.2-0.9,0.4c0.4,0.3-1.4-0.4-2,1.1
				c-0.6,1.5-1.9,0.9-2.4-0.4c-0.4-1.2-1-2.7-2.2-2.1c-1.2,0.6-3.5,2.2-4.4,3.3c-1.5,1.8-2.2,4.3-2.2,4.3c-0.2-0.9-1.3,0.3-1.7-0.9
				c-0.6-2,1.1-4.4,3.3-4.7c1.9-0.3,2.3-1.2,3.3-3.2c1.1-2,4.8,0.3,6-0.2C146.1,24.6,146.4,25.2,147.8,27z"/>
			<path class="st59" d="M137.4,34.3c1.2,3.9,1.5,5.6,5.1,6.7c3.6,1.1,5.3,0.6,6.1,1.4c0.7,0.9,0.5,0,0.4-0.1
				c-0.1-0.1-0.6-1.1-1.1-1.4c0,0-0.4-0.3-1.2-0.3c-0.5,0-5.2-0.5-5.8-2.6c-0.4-1.4-1-4.4-1-4.4l-1.6-0.7L137.4,34.3z"/>
			<path class="st15" d="M139.1,28.1c0.7,1.5,0.7,5.6,0.7,5.6s-2.1-0.3-2.5,0.7c0,0-1-2.3-0.8-3.5C136.8,29.5,138.7,27.2,139.1,28.1
				z"/>
		</g>
		<linearGradient id="SVGID_63_" gradientUnits="userSpaceOnUse" x1="108.7856" y1="102.6406" x2="126.7051" y2="102.6406">
			<stop  offset="0" style="stop-color:#D7D6DF"/>
			<stop  offset="1" style="stop-color:#F5F6FA"/>
		</linearGradient>
		<path class="st74" d="M108.4,102.7c-0.4,0.2,3.2,1.8,3.6,1.8c0.5,0-0.2-1,0-1.2c0.2-0.2,18.1,0.8,18.1,0.8l-0.8-3.3
			c0,0-18.1,1.2-19.3,1.5C108.9,102.6,108.4,102.7,108.4,102.7z"/>
		<g>
			<linearGradient id="SVGID_64_" gradientUnits="userSpaceOnUse" x1="113.9378" y1="100.9241" x2="123.6933" y2="100.7198">
				<stop  offset="0" style="stop-color:#D7D6DF"/>
				<stop  offset="1" style="stop-color:#FFFFFF"/>
			</linearGradient>
			<path class="st75" d="M126.3,100.2c-2.1,0.1-11.1,0.2-11.3,0.5c-0.2,0.3-0.5,0.6,1.4,0.7c1.9,0,9.9-0.2,9.9-0.2V100.2z"/>
			<linearGradient id="SVGID_65_" gradientUnits="userSpaceOnUse" x1="121.264" y1="105.5839" x2="133.075" y2="105.3366">
				<stop  offset="0" style="stop-color:#D7D6DF"/>
				<stop  offset="1" style="stop-color:#FFFFFF"/>
			</linearGradient>
			<path class="st76" d="M135.6,104.9c-2.1,0.1-12.6,0-12.9,0.3c-0.2,0.3-0.5,0.6,1.4,0.7c1.9,0,11.5-0.1,11.5-0.1V104.9z"/>
			
				<linearGradient id="SVGID_66_" gradientUnits="userSpaceOnUse" x1="-379.5022" y1="13.9202" x2="-379.1189" y2="26.1877" gradientTransform="matrix(0.9488 -0.3158 0.3158 0.9488 481.3615 -70.4723)">
				<stop  offset="0" style="stop-color:#D7D6DF"/>
				<stop  offset="1" style="stop-color:#FFFFFF"/>
			</linearGradient>
			<path class="st77" d="M129.1,74.3c0.6,1.8,2.7,3,1.6-0.1c-1.1-3.2-4.7-12-4.9-12.1c-0.2-0.1-0.3,0-0.3,0.2
				C125.5,62.4,129.1,74.3,129.1,74.3z"/>
			
				<linearGradient id="SVGID_67_" gradientUnits="userSpaceOnUse" x1="-373.5859" y1="20.591" x2="-373.2026" y2="32.8583" gradientTransform="matrix(0.9488 -0.3158 0.3158 0.9488 481.3615 -70.4723)">
				<stop  offset="0" style="stop-color:#D7D6DF"/>
				<stop  offset="1" style="stop-color:#FFFFFF"/>
			</linearGradient>
			<path class="st78" d="M136.9,78.8c0.6,1.8,2.7,3,1.6-0.1c-1.1-3.2-4.7-12-4.9-12.1c-0.2-0.1-0.3,0-0.3,0.2
				C133.2,66.9,136.9,78.8,136.9,78.8z"/>
			<g>
				<path class="st2" d="M115,101.2c0,0-0.1,0-0.1,0c-0.2-0.1-0.4-0.3-0.3-0.5l10.6-38.6c0.1-0.2,0.3-0.4,0.5-0.3
					c0.2,0.1,0.4,0.3,0.3,0.5l-10.6,38.6C115.4,101.1,115.2,101.2,115,101.2z"/>
			</g>
			<g>
				<path class="st2" d="M122.9,105.8c0,0-0.1,0-0.1,0c-0.2-0.1-0.4-0.3-0.3-0.5l10.6-38.6c0.1-0.2,0.3-0.4,0.5-0.3
					c0.2,0.1,0.4,0.3,0.3,0.5l-10.6,38.6C123.2,105.6,123,105.8,122.9,105.8z"/>
			</g>
			<g>
				<path class="st2" d="M132.2,71.7c-0.1,0-0.1,0-0.2-0.1l-7.8-4.5c-0.2-0.1-0.3-0.4-0.2-0.6c0.1-0.2,0.4-0.3,0.6-0.2l7.8,4.5
					c0.2,0.1,0.3,0.4,0.2,0.6C132.5,71.6,132.4,71.7,132.2,71.7z"/>
			</g>
			<g>
				<path class="st2" d="M130.6,77.5c-0.1,0-0.1,0-0.2-0.1l-7.8-4.5c-0.2-0.1-0.3-0.4-0.2-0.6c0.1-0.2,0.4-0.3,0.6-0.2l7.8,4.5
					c0.2,0.1,0.3,0.4,0.2,0.6C130.9,77.4,130.8,77.5,130.6,77.5z"/>
			</g>
			<g>
				<path class="st2" d="M129,83.3c-0.1,0-0.1,0-0.2-0.1l-7.8-4.5c-0.2-0.1-0.3-0.4-0.2-0.6c0.1-0.2,0.4-0.3,0.6-0.2l7.8,4.5
					c0.2,0.1,0.3,0.4,0.2,0.6C129.3,83.2,129.2,83.3,129,83.3z"/>
			</g>
			<g>
				<path class="st2" d="M127.5,89c-0.1,0-0.1,0-0.2-0.1l-7.8-4.5c-0.2-0.1-0.3-0.4-0.2-0.6c0.1-0.2,0.4-0.3,0.6-0.2l7.8,4.5
					c0.2,0.1,0.3,0.4,0.2,0.6C127.8,89,127.6,89,127.5,89z"/>
			</g>
			<g>
				<path class="st2" d="M125.9,94.8c-0.1,0-0.1,0-0.2-0.1l-7.8-4.5c-0.2-0.1-0.3-0.4-0.2-0.6c0.1-0.2,0.4-0.3,0.6-0.2l7.8,4.5
					c0.2,0.1,0.3,0.4,0.2,0.6C126.2,94.8,126,94.8,125.9,94.8z"/>
			</g>
			<g>
				<path class="st2" d="M124.3,100.6c-0.1,0-0.1,0-0.2-0.1l-7.8-4.5c-0.2-0.1-0.3-0.4-0.2-0.6c0.1-0.2,0.4-0.3,0.6-0.2l7.8,4.5
					c0.2,0.1,0.3,0.4,0.2,0.6C124.6,100.5,124.4,100.6,124.3,100.6z"/>
			</g>
		</g>
		<g>
			<path class="st79" d="M111.2,103.2c0.9,0.7,1,0.6,1.1,1.1c0.1,0.5-1.3,0.2-1.9,0c0,0-0.5-0.2-0.8-0.5c-0.3-0.4-0.5-0.2-1-0.4
				c-0.5-0.2-0.6-0.7-0.3-1.4c0.2-0.8,1.7,0,2,0.2C110.5,102.5,111.2,103.2,111.2,103.2z"/>
			<path class="st59" d="M110.8,63.4c0.4-0.9,0.8-0.3,1.1-1.4c0.2-1.1-0.2-2.6-1.8-3.7c-1.6-1.1-2.6,0.2-2.8,2.1
				c-0.2,1.9,0.9,3.3,0.9,3.3l1.5,0.5L110.8,63.4z"/>
			<path class="st79" d="M120,92.2c0.2,0.8,0.4,1.1,0.5,1.3c0.2,0.2,1.3-0.1,1.4-0.3c0.1-0.2,0.3,0,0.4,0.1c0.1,0.1,2.2-0.2,2.2-0.5
				c0-1-0.6-0.1-2-0.6c-2.4-0.9-1.6-1.3-1.6-1.3L120,92.2z"/>
			<path class="st60" d="M121.6,91.8c-1.6-10-1-11-2.4-11.9c-1.4-0.9-6.5-3.5-6.5-3.5l-1.5,4.8c0,0,5.8,2.7,6,3.3
				c0.6,1.8,0.7,2.4,1.3,4.1c0.8,2.2,1.2,3.3,1.4,3.9C120.1,93.1,121.8,92.6,121.6,91.8z"/>
			<path class="st59" d="M124.7,68.3c0.8,0.1,1.1,0.4,1.5,0.5c0.4,0,0.6-0.3,0.6-0.3s-0.9-0.4-1-0.8c0-0.4,0.4-0.2,0.6-0.2
				c0.3,0.1,1.1,0.5,1.1,0.5s0.3-0.8-0.3-1.5c-0.6-0.7-1.6-0.6-3,0.2C122.7,67.5,124.7,68.3,124.7,68.3z"/>
			<path class="st60" d="M112.9,81.7c-0.6,4.3-1.3,6.3-1.6,9.5c-0.3,3.3-0.7,8.4-1.1,10.2c-0.3,1.3-2,1.1-1.9,0
				c0.1-1.1-0.2-8.5-0.5-10.4c-0.2-2-0.6-10.4-0.6-10.4l5.5-4.3L112.9,81.7z"/>
			<path class="st65" d="M102,76.1c0,0,2-7.9,4-9.3c0,0,1.3-1.1,1.3-1.1c0.8-1.2,0.9-1.9,0.9-1.9c1.3,0.3,2.7-0.3,2.7-0.3
				s-0.3,0.8,0,1.1c0,0,0,0,0,0c1.9,0.4,4.9,2.5,6.2,2.7c1.5,0.3,4.2-0.1,7.1-0.6c0.4-0.1,0.9,1.5,0.5,1.7c-3.2,1.6-4.4,2.4-7.1,2
				c-2.7-0.5-3.4-0.3-4,0.6c-0.6,0.9,0.5,4.3,1.6,6.3c1,1.8-2,2-3.1,2.4c-1.2,0.4-1.7,4.4-4.2,4.8c-1.1,0.2-1.9-5.8-2.5-8.9
				l-1.2,2.1L102,76.1z"/>
			<path class="st1" d="M115.8,77.4l-15.5,8.9c-1.3,0.8-3,0.3-3.8-1l0,0c-0.8-1.3-0.3-3,1-3.8l15.5-8.9c1.3-0.8,3-0.3,3.8,1l0,0
				C117.6,74.9,117.2,76.6,115.8,77.4z"/>
			<path class="st79" d="M111.7,60.2c-0.6,0.2-0.7,0.7-0.9,1.3c-0.2,0.6-0.8,0.4-1.2-0.1c-0.4-0.5-0.2-0.8-0.5-1.1
				c-0.3-0.3-0.6-0.4-0.3-0.8c0.2-0.3,0.7,0,1-0.3c0.3-0.3,0.8-0.4,0.9-0.3l0.5,0.5c0,0,0.2-0.5-0.5-1.2c-0.8-0.6-2-0.7-2.8-0.1
				c0,0-0.9,0.7-1.5,2.2c-0.6,1.5,1.2,2.9,1.6,3.1c0.3,0.2,0.7-0.4,0.9-1c0.1-0.6,0.1-0.5-0.3-0.7c-0.4-0.2-0.5-0.8-0.1-1
				c0.4-0.1,0.5-0.1,0.7,0.2c0.2,0.3,0.6,1.9,0.9,2.1c0.3,0.3,0.9-0.5,1.4-0.5c0.2,0,0.3,0,0.3,0c0.1,0,0.1,0.1,0.1,0.2l-0.1,0.1
				C112.6,62.5,112.4,60,111.7,60.2z"/>
			<linearGradient id="SVGID_68_" gradientUnits="userSpaceOnUse" x1="93.3798" y1="87.8943" x2="100.2555" y2="82.8457">
				<stop  offset="0" style="stop-color:#FFFFFF"/>
				<stop  offset="1" style="stop-color:#D7D6DF"/>
				<stop  offset="1" style="stop-color:#EEEEF3"/>
			</linearGradient>
			<path class="st80" d="M100,83.3c0.6,1,0.4,2.3-0.5,2.8c-0.8,0.5-2,0-2.6-1c-0.6-1-0.4-2.3,0.5-2.8C98.2,81.8,99.4,82.3,100,83.3z
				"/>
			<linearGradient id="SVGID_69_" gradientUnits="userSpaceOnUse" x1="102.5703" y1="78.9713" x2="107.7805" y2="79.2344">
				<stop  offset="0" style="stop-color:#D7D6DF"/>
				<stop  offset="1" style="stop-color:#F5F6FA"/>
			</linearGradient>
			<path class="st81" d="M104.7,77.4c1.1,0.1,2.9,2.5,3.5,2.6c0.7,0-1,1-1,1l-4.2-2.6C103,78.4,104.2,77.3,104.7,77.4z"/>
			<path class="st59" d="M106.8,79.7c1.1,0.4,2.1-0.4,2.3-0.1c0.2,0.3-0.9,0.6-0.8,0.7c0.1,0.1,0.7,0.1,1.5,0.2
				c0.8,0.1,0.4,1.4-0.9,1.5c-1.3,0.1-1.8-0.5-2.6-0.6C105.4,81.3,106.8,79.7,106.8,79.7z"/>
			
				<linearGradient id="SVGID_70_" gradientUnits="userSpaceOnUse" x1="-1394.9424" y1="36.2884" x2="-1389.6798" y2="11.2386" gradientTransform="matrix(-1 0 0 1 -1300 0)">
				<stop  offset="0" style="stop-color:#005DFF"/>
				<stop  offset="1" style="stop-color:#D913FF"/>
			</linearGradient>
			<path class="st82" d="M102.3,75c-1.8,4.4-1.5,5.8,1.6,6.4c1.9,0.3,2.5,0.4,2.5,0.4c0.1-1.1,0.4-2.1,0.4-2.1s-2-1.4-2.6-2
				C103.6,77.1,102.3,75,102.3,75z"/>
			<linearGradient id="SVGID_71_" gradientUnits="userSpaceOnUse" x1="106.91" y1="74.9898" x2="116.0514" y2="74.8275">
				<stop  offset="0" style="stop-color:#D7D6DF"/>
				<stop  offset="1" style="stop-color:#F5F6FA"/>
			</linearGradient>
			<path class="st83" d="M116.9,73.6c-0.8-1.3-2.5-1.8-3.8-1l-7.2,4.2c2.2-0.8,4.1,0.7,6.4,0.9c2.2,0.1,4.6-1.1,4.6-1.1
				C117.3,75.6,117.4,74.5,116.9,73.6z"/>
		</g>
		<g>
			<polygon class="st2" points="117.5,146.3 117.5,129.1 95.8,116.6 95.8,133.3 115.3,144.6 117.5,152.8 			"/>
			<polygon class="st84" points="117.5,129.1 117.5,133.4 95.8,120.9 95.8,116.6 			"/>
			<polygon class="st15" points="101.3,125.5 101.3,135.1 99.1,133.8 99.1,124.2 			"/>
			<polygon class="st85" points="104.8,133.5 104.8,137.1 102.6,135.8 102.6,132.2 			"/>
			<polygon class="st60" points="111.9,139.1 111.9,141.2 109.7,139.9 109.7,137.8 			"/>
			<polygon class="st57" points="108.3,131.8 108.3,139.1 106.1,137.8 106.1,130.6 			"/>
		</g>
		<g>
			<polygon class="st1" points="254.2,94.3 254.2,77.1 275.9,64.6 275.9,81.3 256.3,92.6 254.2,100.8 			"/>
			<polygon class="st2" points="254.2,77.1 254.2,81.4 275.9,68.9 275.9,64.6 			"/>
			<g>
				<g>
					<path class="st60" d="M272.9,81.2c0.2-0.1,0.3-0.3,0.3-0.5c0-0.2-0.1-0.3-0.3-0.2c-0.8,0.5-1.1,0.1-1.4-0.5
						c-0.4-0.6-0.9-1.4-2.5-0.5c-1.2,0.7-1.8,0.3-2.5-0.1c-0.7-0.4-1.6-0.9-3.1,0c-1.2,0.7-1.7,1.7-2.3,2.6
						c-0.6,1.1-1.3,2.3-3.2,3.4c-0.2,0.1-0.3,0.3-0.3,0.5c0,0.2,0.1,0.3,0.3,0.2c2.2-1.3,3-2.7,3.7-3.8c0.5-0.9,0.9-1.6,1.9-2.1
						c1.3-0.8,2-0.4,2.7,0.1c0.7,0.4,1.5,0.9,2.9,0.1c1.3-0.7,1.6-0.2,2,0.5C271.4,81.2,271.8,81.9,272.9,81.2z"/>
				</g>
				<g>
					<path class="st15" d="M265.1,83.8C265.1,83.8,265.1,83.8,265.1,83.8c1.4-0.8,2.2-2.3,3.2-4.1c0.9-1.6,1.9-3.4,3.6-5.1
						c0.1-0.1,0.2-0.4,0.2-0.5c-0.1-0.1-0.2-0.1-0.4,0c-1.8,1.8-2.9,3.7-3.8,5.4c-0.9,1.7-1.7,3-2.8,3.6c0,0,0,0,0,0
						c-1.8,1.1-2.7,0.3-3.5-0.5c-0.8-0.7-1.6-1.5-3.2-0.8c-0.2,0.1-0.3,0.3-0.3,0.5c0,0.2,0.1,0.3,0.2,0.2c1.3-0.6,2,0.1,2.8,0.8
						C262,84.1,262.9,85,265.1,83.8z"/>
				</g>
			</g>
		</g>
		<g>
			<polygon class="st86" points="64.5,75.6 64.5,58.7 42.8,71.2 42.8,88 62.4,76.7 64.5,82.1 			"/>
			<polygon class="st2" points="42.8,71.2 42.8,75.5 64.5,63 64.5,58.7 			"/>
			<polygon class="st57" points="46.2,76 46.2,83.2 61.2,74.6 61.2,67.1 			"/>
			<polygon class="st15" points="48.9,77.6 46.7,78.9 46.7,76.4 48.9,75.1 			"/>
			<polygon class="st60" points="60.8,70.7 58.6,72 58.6,69.5 60.8,68.2 			"/>
			<polygon class="st60" points="60.8,74.1 58.6,75.3 58.6,72.8 60.8,71.5 			"/>
		</g>
		<g>
			<polygon class="st1" points="171.6,43.6 171.6,26.4 193.3,38.9 193.3,55.7 173.9,44.5 171.6,50.1 			"/>
			<polygon class="st2" points="193.3,38.9 193.3,43.2 171.6,30.7 171.6,26.4 			"/>
			<g>
				<g>
					<path class="st57" d="M183.9,47.3c-1.4-0.8-2.6-2.8-2.6-4.4c0-0.3,0-0.7,0.1-0.9l-1.4-1.3c-0.1,0.4-0.2,0.9-0.2,1.4
						c0,2.6,1.9,5.7,4.1,6.9c1.3,0.7,2.4,0.6,3.2-0.1l-1.2-1.7C185.5,47.7,184.8,47.7,183.9,47.3z"/>
					<path class="st60" d="M180.1,40.6l1.4,1.3c0.3-1,1.3-1.3,2.4-0.7c0.5,0.3,0.9,0.6,1.3,1.1l0.6-1.1c-0.6-0.7-1.3-1.3-2-1.7
						C182.1,38.6,180.6,39.1,180.1,40.6z"/>
					<path class="st15" d="M186,47.2l1.2,1.7c0.4-0.4,0.7-1.1,0.8-1.9l-1.5-1C186.4,46.5,186.2,47,186,47.2z"/>
				</g>
				<path class="st60" d="M185.8,41.3l-0.6,1.1c0.3,0.3,0.5,0.7,0.7,1.1l1.1-0.5C186.6,42.4,186.2,41.8,185.8,41.3z"/>
				<path class="st60" d="M186.5,46l1.5,1c0-0.2,0-0.3,0-0.5c0-1.2-0.4-2.4-1-3.5l-1.1,0.5c0.4,0.7,0.6,1.5,0.6,2.3
					C186.5,45.8,186.5,45.9,186.5,46z"/>
			</g>
			<polygon class="st60" points="177.3,37.8 176.1,37.1 176.1,35.6 177.3,36.4 			"/>
			<linearGradient id="SVGID_72_" gradientUnits="userSpaceOnUse" x1="176.0945" y1="38.8374" x2="177.3245" y2="38.8374">
				<stop  offset="0" style="stop-color:#FFFFFF"/>
				<stop  offset="1" style="stop-color:#EEEEF3"/>
			</linearGradient>
			<polygon class="st87" points="177.3,39.9 176.1,39.2 176.1,37.8 177.3,38.5 			"/>
			<polygon class="st15" points="177.3,42 176.1,41.3 176.1,39.9 177.3,40.6 			"/>
		</g>
		<path class="st68" d="M78.9,102.8c0.4,0.3,0.1,0.7,0.4,0.8c0.3,0.1,0.2-0.7,0.2-0.7L78.9,102.8z"/>
		<linearGradient id="SVGID_73_" gradientUnits="userSpaceOnUse" x1="70.9857" y1="115.7475" x2="89.0258" y2="115.7475">
			<stop  offset="0" style="stop-color:#D7D6DF"/>
			<stop  offset="1" style="stop-color:#F5F6FA"/>
		</linearGradient>
		<path class="st88" d="M85.3,114.7l3.7-2.4l-4.8-2.7l-1,0.6l-3.3-4.7l-1.8,1l1.4,1.3l2.7,3.1c-3.7-1-9.5-1.8-9.5-1.8l-1.7,3.1
			c0,0,9.7,0.5,10.5,2.2c0.8,1.6-0.7,6.7-0.7,6.7l0.9,3.1l2.7,1.8c0.5,0.2,1.8,0.2,1.9-0.1c0.1-0.2-2.2-2.6-2-2.6
			C84.4,123.3,85.1,118,85.3,114.7z"/>
		<g>
			<g>
				<path class="st68" d="M78.5,102.8l-0.3,0.8c0,0,1.3,1,1.8,0.9c0.4-0.1,1.1-0.5,0.9-0.9c-0.2-0.3-0.6-0.8-1-0.9
					C79.6,102.6,78.5,102.8,78.5,102.8z"/>
				<path class="st68" d="M69.5,94.3c0.9,2.6,2.3,5.2,2.8,5.8c0.7,0.9,6.3,2.8,6.3,2.8l-0.2,0.8c0,0-6.1-0.9-7.9-2
					c-2.4-1.4-3.9-4.5-3.9-4.5L69.5,94.3z"/>
				<path class="st79" d="M82.4,125.4c-0.8-0.4-1.3-0.4-1.4-0.8c-0.1-0.4,0.2-0.8,0.2-0.8l1.7,0.3c0,0,2.6,1.2,3,1.4
					c0.2,0.1,0,0.6-0.9,0.7C84.4,126.1,83.6,126,82.4,125.4z"/>
				<path class="st57" d="M82.3,123.7c0.3,0.2,0.7,0.3,0.7,0.4c0.1,0.5-1.4,0.9-1.8,0.3L81,124L82.3,123.7z"/>
				<path class="st79" d="M82.9,121.8c-1,0.6-4.2,0.6-4.7,0.4c-0.3-0.1-0.3-0.7-0.3-1c0-0.4,0.2-0.5,0.2-0.5s0.9,0,1.1,0
					c0.4,0,3.2,0.2,3.7,0.4C83.2,121.2,83,121.7,82.9,121.8z"/>
				<path class="st57" d="M79,120.6c0.1,0.1,0.3,0.1,0.6,0.3c0.5,0.3-1.6,0.7-1.7,0.3c0-0.3,0-0.8,0-0.8L79,120.6z"/>
				<path class="st79" d="M77.2,103.9c3.8,1.6,1.8,14.5,2,16.5c0,0-1.1,0.6-1.5,0.1l-1.9-12.4l-8.8,5l-4.5-3.5
					C62.5,109.7,75.3,103.1,77.2,103.9z"/>
				<path class="st57" d="M67.2,93c2.7,0.5,3.3,3,4,4.9c0.3,0.9-2.4,2.2-2.4,2.2L67.2,93z"/>
				<path class="st57" d="M58.9,98c0-2,1-2.5,1.3-2.7c3.4-2,6.1-3.1,8.3-1.9c2.3,1.3,0.8,7.7,1.9,12.6c0.9,3.8-5.3,6.4-8.7,5.6
					C56.3,110.4,59,102.4,58.9,98z"/>
				<path class="st15" d="M62,94.2c-0.6,0.5,0.7,1.5,2,1.4c1.2-0.1,1.9-0.8,1.7-1.3c-0.1-0.4-0.4-0.8-1.1-1C64,93.1,62,94.2,62,94.2
					z"/>
				<path class="st68" d="M65.9,89.1c1.2,2.9,0.1,3.9-0.6,4.2c-0.4,0.1-0.3,0.4-0.2,0.7c0.1,0.2,0.1,0.5,0,0.6
					c-0.2,0.2-0.6,0.5-1.6,0.4c-1-0.1-1.5-0.8-1.1-0.9c0.1-0.1,0.4-0.5,0.4-0.9c0-0.4-1.7-4-0.1-4.5C64.3,88.2,65.9,89.1,65.9,89.1z
					"/>
				<path class="st79" d="M65.7,88.3c-0.2,0-0.3,0-0.4,0.1c-0.1-0.2-0.4-0.4-0.7-0.4c-0.2,0-0.4,0.1-0.6,0.2
					c-0.1-0.2-0.3-0.3-0.6-0.3c-0.3,0-0.6,0.2-0.7,0.4c-0.1,0-0.2-0.1-0.3-0.1c-0.4,0-0.8,0.3-0.8,0.8c0,0,0,0,0,0
					c-0.4,0.1-0.6,0.4-0.6,0.7c0,0.3,0.2,0.6,0.4,0.7c-0.1,0.1-0.2,0.3-0.2,0.5c0,0.4,0.3,0.8,0.8,0.8c0,0,0,0,0,0
					c0,0.1,0,0.1,0,0.2c0,0.4,0.3,0.8,0.8,0.8c0.4,0,0.8-0.3,0.8-0.8c0-0.2-0.1-0.4-0.2-0.5c0.1-0.1,0.2-0.3,0.2-0.5
					c0-0.2-0.1-0.5-0.3-0.6c0,0,0-0.1,0-0.2c0.2,0,0.4-0.1,0.6-0.2c0.1,0.2,0.3,0.3,0.6,0.3c0.4,0,0.7-0.2,0.8-0.6
					c0.1,0.1,0.2,0.1,0.3,0.1c0.4,0,0.8-0.3,0.8-0.8C66.5,88.6,66.2,88.3,65.7,88.3z"/>
				<path class="st68" d="M62.4,99.7c-1.2,2.5-1.9,5.4-1.9,6.1c-0.1,1.2,2.7,6.3,2.7,6.3l-0.7,0.5c0,0-3.8-4.8-4.4-6.9
					c-0.8-2.6,0.2-6,0.2-6L62.4,99.7z"/>
				<path class="st89" d="M58.3,112.7c0.1,0,0.1,0,0.2,0.1c0,0.1,0,0.1-0.1,0.2c-0.1,0-0.1,0-0.2-0.1
					C58.3,112.8,58.3,112.8,58.3,112.7z"/>
				<path class="st57" d="M59.1,96.5c-0.9,2.3-1.1,4.2-1.1,4.2s0.7,1.4,3.9,1.3c0,0,0.8-0.5,0.8-2.4C62.7,97.7,59.6,95.3,59.1,96.5z
					"/>
				<path class="st68" d="M63.2,112.2c1.4,0.4,2.9,1.3,1.4,1c0,0,0.6,0.3,0.6,0.8c0,0.6-1.2,0.5-1.9-0.2c-0.7-0.7-0.7-1.1-0.7-1.1
					L63.2,112.2z"/>
				<path class="st79" d="M65,107.3c0,0,6.9,1,9.4,3.6c1,1.1,7.5,10.8,8.1,12.6c0.2,0.7-1.3,1-1.7,0.4c-0.8-1.1-7.9-10.6-8.8-10.6
					c-5.7,0.2-8.4-0.4-9.8-1.4c-1.6-1.1-1.8-1.5-1.8-1.5l3.7-2.7L65,107.3z"/>
			</g>
			<path class="st57" d="M73,105.9l3.1,1.8c0.2,0.1,0.5,0.1,0.7,0l5-2.9c0.1-0.1,0.1-0.3,0-0.4l-3.1-1.8c-0.2-0.1-0.5-0.1-0.7,0
				l-5,2.9C72.9,105.6,72.9,105.8,73,105.9z"/>
			<path class="st2" d="M76.7,107.5l1.3-1.8c0.1-0.2,0.3-0.3,0.4-0.4l5-2.9c0,0,0.1,0,0.1,0c0,0,0.1,0.1,0.1,0.1c0,0,0,0-0.1,0.1
				l-1.3,1.8c-0.1,0.2-0.3,0.3-0.4,0.4l-5,2.9c0,0,0,0.1,0,0.1c0,0-0.1-0.1-0.1-0.1C76.7,107.6,76.7,107.6,76.7,107.5z"/>
			<path class="st57" d="M76.8,107.6l1.3-1.8c0.1-0.2,0.3-0.3,0.4-0.4l5-2.9c0.1-0.1,0.2,0.1,0.1,0.1l-1.3,1.8
				c-0.1,0.2-0.3,0.3-0.4,0.4l-5,2.9C76.8,107.8,76.7,107.7,76.8,107.6z"/>
			<polygon class="st2" points="75.2,104.6 77,103.6 78.1,104.2 76.3,105.2 			"/>
		</g>
	</g>
</g>
</svg>
