<svg xmlns="http://www.w3.org/2000/svg" viewBox="0 0 300 300"><defs><style>.cls-1{isolation:isolate;}.cls-2{fill:#eef0f8;}.cls-3{mix-blend-mode:multiply;}.cls-4{fill:#fff;}.cls-5{fill:#fefefe;}.cls-6{fill:#fdfdfd;}.cls-7{fill:#fcfcfc;}.cls-8{fill:#fbfbfb;}.cls-9{fill:#fafafb;}.cls-10{fill:#f9f9fa;}.cls-11{fill:#f8f8f9;}.cls-12{fill:#f7f7f8;}.cls-13{fill:#f6f6f7;}.cls-14{fill:#f5f5f6;}.cls-15{fill:#f4f4f5;}.cls-16{fill:#f3f3f4;}.cls-17{fill:#f2f2f3;}.cls-18{fill:#f1f2f3;}.cls-19{fill:#f0f1f2;}.cls-20{fill:#eff0f1;}.cls-21{fill:#eeeff0;}.cls-22{fill:#edeeef;}.cls-23{fill:#ecedee;}.cls-24{fill:#ebeced;}.cls-25{fill:#eaebec;}.cls-26{fill:#e9eaeb;}.cls-27{fill:#e8e9eb;}.cls-28{fill:#e7e8ea;}.cls-29{fill:#e6e7e9;}.cls-30{fill:#e5e6e8;}.cls-31{fill:#e5e5e7;}.cls-32{fill:#e4e4e6;}.cls-33{fill:#e3e3e5;}.cls-34{fill:#e2e2e4;}.cls-35{fill:#e1e1e4;}.cls-36{fill:#e0e0e3;}.cls-37{fill:#dfdfe2;}.cls-38{fill:#dedee1;}.cls-39{fill:#dddde0;}.cls-40{fill:#dcdcdf;}.cls-41{fill:#dbdbde;}.cls-42{fill:#dadadd;}.cls-43{fill:#d9d9dc;}.cls-44{fill:#d8d9dc;}.cls-45{fill:#d7d8db;}.cls-46{fill:#d6d7da;}.cls-47{fill:#d5d6d9;}.cls-48{fill:#d4d5d8;}.cls-49{fill:#d3d4d7;}.cls-50{fill:#d2d3d6;}.cls-51{fill:#d1d2d5;}.cls-52{fill:#d0d1d4;}.cls-53{fill:#cfd0d4;}.cls-54{fill:#cecfd3;}.cls-55{fill:#cdced2;}.cls-56{fill:#cccdd1;}.cls-57,.cls-66{fill:#cbccd0;}.cls-58{fill:#0d0d59;}.cls-59{fill:#bcbcbc;}.cls-60,.cls-65{fill:#f7f7f7;}.cls-61{fill:#e2e2e2;}.cls-62{fill:#113a52;}.cls-63{fill:#cecece;}.cls-64{fill:#9498c5;}.cls-65,.cls-66{fill-rule:evenodd;}.cls-67{fill:#ff3e7d;}.cls-68{fill:#9eaad4;}.cls-69{fill:#1f1593;}.cls-70{fill:#1e3595;}.cls-71{fill:#1d1488;}.cls-72{fill:#305fc2;}.cls-73{fill:#3974d4;}.cls-74{fill:#3434ff;}.cls-75{fill:#36365c;}.cls-76{fill:#f50056;}.cls-77{fill:#fdfdfe;}.cls-78{fill:#f9f9f9;}.cls-79{fill:#f1f1f3;}.cls-80{fill:#f0f0f1;}.cls-81{fill:#eeeef0;}.cls-82{fill:#ededee;}.cls-83{fill:#ebebed;}.cls-84{fill:#eaeaec;}.cls-85{fill:#e8e8ea;}.cls-86{fill:#e7e7e9;}.cls-87{fill:#e3e4e6;}.cls-88{fill:#e2e3e5;}.cls-89{fill:#e0e1e3;}.cls-90{fill:#dfe0e2;}.cls-91{fill:#dddee1;}.cls-92{fill:#dcdddf;}.cls-93{fill:#dadbde;}.cls-94{fill:#d9dadc;}.cls-95{fill:#d1d2d6;}.cls-96{fill:#cdced1;}.cls-97{fill:#ccccd1;}.cls-98{fill:#ffd5d5;}.cls-99{fill:#f79d56;}.cls-100{fill:#fb5d89;}.cls-101{fill:#ccc;}.cls-102{fill:#0d1e80;}.cls-103{fill:#6363b0;}.cls-104{fill:#99f;}</style></defs><title>settings</title><g class="cls-1"><g id="Camada_1" data-name="Camada 1"><path class="cls-2" d="M264.21,211.3c0,30.87-24.3,49.15-60.06,62.85-16.12,6.17-63.83,12.54-83.43,12.54-39.22,0-20.78-31.91-41.35-53.29-12.5-13-43.58-5.17-43.58-22.1,0-44.78,51.13-81.09,114.21-81.09,25.11,0,36.07,36.19,54.92,45.93C233.44,190.88,264.21,179.48,264.21,211.3Z"/><g class="cls-3"><path class="cls-4" d="M221.5,255.17a21.9,21.9,0,0,0,10.4-3.74l5.81-4.42c3.23-2.35,4.86-5.43,4.5-8.45s-2.64-5.59-6.26-7.1l-1.54-.66A21.53,21.53,0,0,0,224,229.51a21.83,21.83,0,0,0-10.39,3.76l-5.82,4.41c-3.22,2.35-4.86,5.43-4.5,8.46s2.65,5.58,6.27,7.09l1.54.66A21.38,21.38,0,0,0,221.5,255.17Z"/><path class="cls-5" d="M208,237.71c-3.16,2.3-4.82,5.36-4.47,8.33s2.54,5.6,6.17,7.11l.88.38.64.27a21.26,21.26,0,0,0,10.28,1.28,21.76,21.76,0,0,0,10.3-3.69l5.76-4.37c3.17-2.3,4.88-5.4,4.52-8.37s-2.53-5.6-6.16-7.11l-.66-.29-.87-.37a21.33,21.33,0,0,0-10.3-1.27,21.76,21.76,0,0,0-10.32,3.72l-1.45,1.09-1.53,1.17Z"/><path class="cls-6" d="M208.1,237.74c-3.1,2.25-4.79,5.3-4.44,8.21s2.43,5.61,6.07,7.13l.87.37.63.27A21.11,21.11,0,0,0,221.41,255a21.66,21.66,0,0,0,10.21-3.64s5.68-4.29,5.72-4.32c3.1-2.25,4.88-5.37,4.53-8.28s-2.42-5.61-6.06-7.14l-.66-.28-.86-.36a21.26,21.26,0,0,0-10.22-1.27,21.67,21.67,0,0,0-10.24,3.69l-1.44,1.09-1.52,1.15Z"/><path class="cls-7" d="M208.24,237.76c-3,2.22-4.75,5.24-4.41,8.1.14,3,2.31,5.62,6,7.14l.87.37.62.27a21.12,21.12,0,0,0,10.09,1.26,21.64,21.64,0,0,0,10.11-3.59c.07,0,5.62-4.23,5.67-4.27,3-2.21,4.89-5.35,4.55-8.2-.13-3-2.31-5.62-6-7.15l-.65-.28-.85-.36a21.11,21.11,0,0,0-10.15-1.25,21.37,21.37,0,0,0-10.16,3.65s-1.42,1.06-1.43,1.08L211,235.67Z"/><path class="cls-8" d="M208.38,237.79c-3,2.17-4.71,5.17-4.37,8,.05,3,2.19,5.63,5.85,7.16l.86.37.62.26a20.81,20.81,0,0,0,10,1.25,21.39,21.39,0,0,0,10-3.53c.09,0,5.55-4.16,5.62-4.21,3-2.17,4.91-5.33,4.57-8.13-.06-3-2.2-5.63-5.86-7.16l-.64-.28-.85-.36a20.88,20.88,0,0,0-10.06-1.24,21.37,21.37,0,0,0-10.1,3.62l-1.42,1.07-1.5,1.13Z"/><path class="cls-9" d="M208.52,237.82c-2.92,2.12-4.68,5.11-4.34,7.85,0,3,2.08,5.64,5.75,7.18l.85.36.61.26a20.68,20.68,0,0,0,9.89,1.24,21.25,21.25,0,0,0,9.92-3.48c.11,0,5.49-4.1,5.57-4.16,2.92-2.12,4.92-5.3,4.59-8,0-3-2.08-5.65-5.75-7.19l-.65-.27-.84-.36a20.93,20.93,0,0,0-10-1.23,21.24,21.24,0,0,0-10,3.59s-1.39,1-1.41,1.06l-1.49,1.12Z"/><path class="cls-10" d="M208.66,237.85c-2.86,2.07-4.64,5-4.31,7.73-.1,3,2,5.65,5.65,7.19l.84.36.6.26a20.67,20.67,0,0,0,9.79,1.23,21.16,21.16,0,0,0,9.83-3.43c.14-.05,5.42-4,5.53-4.11,2.85-2.08,4.92-5.28,4.6-8,.1-3-2-5.66-5.65-7.2l-.64-.27-.83-.36a20.78,20.78,0,0,0-9.91-1.21,21.17,21.17,0,0,0-9.95,3.55s-1.36,1-1.4,1.05l-1.47,1.11Z"/><path class="cls-11" d="M208.8,237.87c-2.8,2-4.6,5-4.28,7.61-.18,3,1.86,5.67,5.55,7.21l.83.36.59.25a20.39,20.39,0,0,0,9.69,1.23,21.18,21.18,0,0,0,9.74-3.38c.16-.06,5.36-4,5.48-4.06,2.8-2,4.94-5.25,4.62-7.88.17-3-1.86-5.67-5.55-7.21l-.63-.27-.83-.35a20.59,20.59,0,0,0-9.83-1.21,21,21,0,0,0-9.87,3.52c-.05,0-1.35,1-1.39,1l-1.47,1.1Z"/><path class="cls-12" d="M208.94,237.9c-2.74,2-4.56,4.92-4.25,7.49-.25,3,1.74,5.68,5.44,7.22l.82.36.6.25a20.23,20.23,0,0,0,9.59,1.21,20.9,20.9,0,0,0,9.65-3.32c.18-.07,5.28-3.9,5.42-4,2.74-2,4.95-5.23,4.64-7.79.25-2.95-1.75-5.69-5.45-7.23l-.63-.28-.81-.34a20.32,20.32,0,0,0-9.76-1.19,21,21,0,0,0-9.8,3.47l-1.38,1-1.45,1.1Z"/><path class="cls-13" d="M209.08,237.93c-2.68,1.94-4.53,4.85-4.22,7.37-.33,2.94,1.63,5.69,5.34,7.24l.81.35.59.25a20.09,20.09,0,0,0,9.49,1.2,20.81,20.81,0,0,0,9.56-3.28c.2-.07,5.22-3.83,5.37-3.94,2.68-2,5-5.21,4.66-7.72.32-2.94-1.64-5.7-5.35-7.25l-.62-.27-.81-.34a20.37,20.37,0,0,0-9.68-1.18,20.88,20.88,0,0,0-9.72,3.44l-1.37,1-1.44,1.09Z"/><path class="cls-14" d="M209.21,238c-2.61,1.91-4.48,4.8-4.18,7.25-.4,2.94,1.52,5.71,5.24,7.26l.8.35.58.24a20,20,0,0,0,9.4,1.2,20.57,20.57,0,0,0,9.46-3.23c.22-.07,5.15-3.76,5.33-3.89,2.61-1.9,5-5.18,4.67-7.64.4-2.93-1.53-5.71-5.24-7.26l-.62-.27-.81-.34a20.27,20.27,0,0,0-9.6-1.17,20.88,20.88,0,0,0-9.65,3.41l-1.36,1L211.81,236Z"/><path class="cls-15" d="M209.35,238c-2.55,1.86-4.44,4.73-4.15,7.13-.48,2.93,1.41,5.72,5.14,7.27l.79.35.57.24a20,20,0,0,0,9.3,1.19,20.59,20.59,0,0,0,9.37-3.18c.25-.08,5.08-3.7,5.28-3.84,2.55-1.86,5-5.16,4.69-7.55.48-2.93-1.41-5.72-5.14-7.28l-.62-.27-.79-.33a20,20,0,0,0-9.53-1.16,20.57,20.57,0,0,0-9.57,3.37c-.07,0-1.29,1-1.35,1L211.92,236Z"/><path class="cls-16" d="M209.49,238c-2.49,1.81-4.41,4.66-4.12,7-.56,2.92,1.3,5.73,5,7.29l.78.33s.54.24.57.24a19.52,19.52,0,0,0,9.2,1.18,20.34,20.34,0,0,0,9.27-3.12c.27-.09,5-3.63,5.23-3.79,2.49-1.81,5-5.13,4.71-7.47.55-2.92-1.3-5.73-5-7.3l-.61-.26-.79-.33a19.93,19.93,0,0,0-9.45-1.15,20.5,20.5,0,0,0-9.49,3.34l-1.34,1L212,236Z"/><path class="cls-17" d="M209.63,238c-2.43,1.77-4.37,4.61-4.09,6.89-.63,2.92,1.19,5.74,4.93,7.31l.78.33.56.24a19.52,19.52,0,0,0,9.1,1.17,20.25,20.25,0,0,0,9.18-3.07c.29-.1,4.95-3.57,5.18-3.74,2.43-1.76,5-5.1,4.73-7.39.63-2.91-1.19-5.74-4.94-7.31l-.6-.26-.78-.33a19.8,19.8,0,0,0-9.38-1.13,20.38,20.38,0,0,0-9.42,3.3l-1.33,1-1.39,1.05Z"/><path class="cls-18" d="M209.77,238.06c-2.37,1.73-4.33,4.54-4.06,6.77-.71,2.91,1.07,5.75,4.83,7.32l.77.33.55.24a19.37,19.37,0,0,0,9,1.16,20.13,20.13,0,0,0,9.09-3c.32-.11,4.89-3.51,5.13-3.68,2.38-1.73,5-5.09,4.75-7.31.7-2.92-1.08-5.76-4.84-7.33l-.6-.26-.77-.33a19.74,19.74,0,0,0-9.3-1.12A20.3,20.3,0,0,0,215,234.1c-.09.05-1.25.92-1.32,1l-1.39,1Z"/><path class="cls-19" d="M209.91,238.09c-2.31,1.68-4.3,4.47-4,6.65-.78,2.9,1,5.76,4.73,7.34l.76.32.54.23a19.27,19.27,0,0,0,8.91,1.16,20.16,20.16,0,0,0,9-3c.34-.12,4.82-3.44,5.09-3.63,2.31-1.68,5-5.06,4.76-7.23.78-2.91-1-5.77-4.73-7.35l-.6-.25-.77-.33a19.61,19.61,0,0,0-9.21-1.11,20.19,20.19,0,0,0-9.28,3.24l-1.31,1-1.37,1Z"/><path class="cls-20" d="M210.05,238.12c-2.25,1.63-4.26,4.41-4,6.52-.86,2.9.85,5.78,4.63,7.36l.75.32.54.23a19.08,19.08,0,0,0,8.8,1.14,19.79,19.79,0,0,0,8.9-2.91c.36-.12,4.76-3.38,5-3.58,2.25-1.64,5-5,4.78-7.15.85-2.9-.86-5.78-4.63-7.36l-.59-.25-.76-.32a19.48,19.48,0,0,0-9.14-1.1,20,20,0,0,0-9.2,3.2c-.1.06-1.21.9-1.3,1l-1.36,1Z"/><path class="cls-21" d="M210.19,238.14c-2.19,1.59-4.22,4.35-4,6.41-.93,2.89.74,5.79,4.53,7.37l.74.32.53.23a19,19,0,0,0,8.71,1.13,19.91,19.91,0,0,0,8.81-2.86c.38-.13,4.68-3.31,5-3.53,2.19-1.59,5-5,4.8-7.06.93-2.9-.74-5.8-4.53-7.38l-.59-.26-.75-.31a19.27,19.27,0,0,0-9.06-1.09,20,20,0,0,0-9.13,3.17c-.1.06-1.19.88-1.29.95l-1.35,1Z"/><path class="cls-22" d="M210.33,238.17c-2.13,1.55-4.18,4.29-3.94,6.29-1,2.88.63,5.8,4.42,7.38l.74.32.52.22a18.83,18.83,0,0,0,8.61,1.13,19.79,19.79,0,0,0,8.72-2.81c.4-.14,4.62-3.25,4.93-3.48,2.13-1.54,5.06-5,4.82-7,1-2.89-.63-5.81-4.43-7.39l-.58-.26-.75-.31a19.08,19.08,0,0,0-9-1.07,19.8,19.8,0,0,0-9,3.13c-.11.07-1.18.87-1.28.94l-1.34,1Z"/><path class="cls-23" d="M210.47,238.2c-2.07,1.5-4.15,4.22-3.91,6.16-1.09,2.88.51,5.82,4.32,7.41l.72.31.52.22a18.58,18.58,0,0,0,8.52,1.11,19.53,19.53,0,0,0,8.62-2.75c.43-.15,4.55-3.18,4.89-3.42,2.06-1.51,5.06-5,4.83-6.91,1.08-2.88-.52-5.82-4.33-7.41l-.58-.25-.73-.31a19.19,19.19,0,0,0-8.91-1.06,19.69,19.69,0,0,0-9,3.1c-.11.07-1.16.86-1.27.93l-1.32,1Z"/><path class="cls-24" d="M210.61,238.22c-2,1.46-4.11,4.16-3.88,6.05-1.16,2.87.4,5.83,4.22,7.42l.71.31.52.22a18.52,18.52,0,0,0,8.41,1.1,19.46,19.46,0,0,0,8.53-2.7c.45-.16,4.49-3.12,4.84-3.37,2-1.46,5.07-4.94,4.85-6.82,1.16-2.88-.41-5.83-4.23-7.43l-.57-.25-.73-.3a19,19,0,0,0-8.83-1.06,19.62,19.62,0,0,0-8.9,3.07l-1.26.92-1.32,1Z"/><path class="cls-25" d="M210.74,238.25c-1.94,1.41-4.06,4.1-3.84,5.93-1.24,2.86.29,5.84,4.12,7.43l.7.31.51.21a18.11,18.11,0,0,0,8.31,1.1,19.47,19.47,0,0,0,8.44-2.65c.47-.16,4.42-3.05,4.79-3.32,1.95-1.41,5.09-4.91,4.87-6.74,1.23-2.87-.3-5.84-4.12-7.44l-.57-.25-.72-.3a18.71,18.71,0,0,0-8.76-1,19.46,19.46,0,0,0-8.82,3c-.13.08-1.14.83-1.25.91l-1.31,1Z"/><path class="cls-26" d="M210.88,238.28c-1.88,1.37-4,4-3.81,5.8-1.31,2.86.18,5.85,4,7.46l.69.3.5.21a18.14,18.14,0,0,0,8.22,1.09,19.4,19.4,0,0,0,8.34-2.6c.5-.17,4.36-3,4.74-3.27,1.89-1.37,5.1-4.89,4.89-6.66,1.31-2.86-.19-5.85-4-7.46l-.57-.24-.71-.3a18.77,18.77,0,0,0-8.68-1,19.48,19.48,0,0,0-8.75,3c-.13.08-1.12.81-1.24.9l-1.29,1Z"/><path class="cls-27" d="M211,238.3c-1.82,1.33-4,4-3.78,5.69-1.39,2.85.07,5.86,3.91,7.47l.69.3.49.2a17.88,17.88,0,0,0,8.12,1.08,19.14,19.14,0,0,0,8.25-2.54c.52-.18,4.29-2.92,4.69-3.22,1.83-1.32,5.11-4.86,4.91-6.57,1.39-2.86-.07-5.87-3.92-7.48l-.56-.24-.71-.3a18.57,18.57,0,0,0-8.6-1,19.12,19.12,0,0,0-8.67,3c-.14.09-1.11.8-1.23.89l-1.29,1Z"/><path class="cls-28" d="M211.16,238.33c-1.76,1.28-3.95,3.91-3.75,5.57-1.47,2.84,0,5.87,3.81,7.48l.68.3.49.2a17.7,17.7,0,0,0,8,1.07,19.07,19.07,0,0,0,8.15-2.49c.54-.19,4.23-2.86,4.65-3.16,1.76-1.29,5.12-4.85,4.92-6.5,1.46-2.85,0-5.88-3.82-7.49l-.55-.24-.7-.3a18.56,18.56,0,0,0-8.53-1,19.13,19.13,0,0,0-8.6,2.93c-.14.09-1.08.79-1.22.88l-1.27,1Z"/><path class="cls-29" d="M211.3,238.36c-1.7,1.24-3.92,3.84-3.72,5.44-1.54,2.84-.16,5.89,3.71,7.51l.67.29.48.2a17.71,17.71,0,0,0,7.92,1.06,19,19,0,0,0,8.07-2.44c.56-.2,4.15-2.79,4.59-3.11,1.7-1.24,5.13-4.82,4.94-6.42,1.54-2.84.15-5.89-3.72-7.51l-.55-.24-.69-.28a18.36,18.36,0,0,0-8.45-1,19.06,19.06,0,0,0-8.52,2.9c-.16.09-1.07.77-1.21.87l-1.26,1Z"/><path class="cls-30" d="M211.44,238.38c-1.64,1.2-3.88,3.79-3.69,5.33-1.62,2.83-.27,5.9,3.61,7.52l.66.29s.42.18.47.19a17.45,17.45,0,0,0,7.83,1.06,19.12,19.12,0,0,0,8-2.39c.58-.21,4.09-2.73,4.54-3.06,1.64-1.19,5.14-4.79,5-6.33,1.61-2.84.26-5.91-3.61-7.53l-.55-.24-.69-.28a18.11,18.11,0,0,0-8.36-1,19,19,0,0,0-8.46,2.86c-.16.1-1.05.76-1.2.86l-1.25.94Z"/><path class="cls-31" d="M211.58,238.41c-1.58,1.15-3.84,3.72-3.66,5.2-1.69,2.83-.38,5.92,3.51,7.54l.65.29.46.19a17.33,17.33,0,0,0,7.73,1,18.72,18.72,0,0,0,7.88-2.33,50.18,50.18,0,0,0,4.49-3c1.58-1.15,5.16-4.77,5-6.25,1.69-2.83.37-5.92-3.51-7.54l-.54-.24-.68-.28a18.11,18.11,0,0,0-8.29-1,18.79,18.79,0,0,0-8.38,2.83c-.17.1-1,.75-1.19.86l-1.24.92Z"/><path class="cls-32" d="M211.72,238.44c-1.52,1.1-3.8,3.65-3.63,5.08-1.77,2.82-.49,5.93,3.4,7.55l.65.28.46.2a17.29,17.29,0,0,0,7.62,1A18.8,18.8,0,0,0,228,250.3a52.77,52.77,0,0,0,4.45-3c1.52-1.11,5.16-4.75,5-6.18,1.77-2.82.49-5.93-3.41-7.55l-.54-.24-.67-.28a17.92,17.92,0,0,0-8.21-.95,18.59,18.59,0,0,0-8.3,2.79c-.18.1-1,.73-1.19.85l-1.22.91Z"/><path class="cls-33" d="M211.86,238.47c-1.46,1.06-3.77,3.59-3.6,5-1.85,2.81-.6,5.94,3.3,7.57l.64.27.45.19a17.05,17.05,0,0,0,7.53,1,18.75,18.75,0,0,0,7.69-2.23,47.76,47.76,0,0,0,4.4-2.9c1.46-1.06,5.17-4.72,5-6.09,1.84-2.82.6-5.94-3.31-7.58l-.53-.23-.66-.27a17.9,17.9,0,0,0-8.14-.95,18.61,18.61,0,0,0-8.23,2.76c-.18.11-1,.72-1.17.84l-1.22.9Z"/><path class="cls-34" d="M212,238.49c-1.4,1-3.73,3.53-3.57,4.84-1.92,2.82-.72,6,3.2,7.59l.62.27.45.19a17.08,17.08,0,0,0,7.43,1,18.65,18.65,0,0,0,7.6-2.18,45.27,45.27,0,0,0,4.35-2.85c1.4-1,5.19-4.7,5-6,1.92-2.81.71-6-3.21-7.59l-.52-.23-.66-.27a17.71,17.71,0,0,0-8.06-.94,18.5,18.5,0,0,0-8.15,2.73c-.19.11-1,.71-1.16.83l-1.21.89Z"/><path class="cls-35" d="M212.14,238.52c-1.34,1-3.69,3.46-3.54,4.72-2,2.81-.83,6,3.1,7.6l.61.27.45.19a16.76,16.76,0,0,0,7.33,1,18.43,18.43,0,0,0,7.5-2.12,41.24,41.24,0,0,0,4.3-2.8c1.34-1,5.2-4.67,5.05-5.93,2-2.8.82-6-3.1-7.6l-.53-.23-.65-.27a17.48,17.48,0,0,0-8-.92,18.26,18.26,0,0,0-8.08,2.69c-.19.11-1,.69-1.15.82l-1.19.89Z"/><path class="cls-36" d="M212.27,238.55c-1.27.92-3.65,3.4-3.5,4.6-2.07,2.8-.94,6,3,7.62l.6.26.44.18a16.64,16.64,0,0,0,7.23,1,18.45,18.45,0,0,0,7.41-2.07,38.65,38.65,0,0,0,4.25-2.75c1.28-.93,5.21-4.65,5.07-5.84,2.07-2.8.93-6-3-7.63l-.52-.22-.64-.27a17.49,17.49,0,0,0-7.91-.91,18.24,18.24,0,0,0-8,2.66c-.2.12-1,.68-1.14.81l-1.19.88Z"/><path class="cls-37" d="M212.41,238.57c-1.21.89-3.61,3.34-3.47,4.48-2.15,2.8-1.05,6,2.89,7.64l.6.26.43.18a16.53,16.53,0,0,0,7.14,1,18.24,18.24,0,0,0,7.31-2,36.8,36.8,0,0,0,4.21-2.69c1.21-.89,5.21-4.63,5.08-5.77,2.15-2.79,1-6-2.9-7.64l-.51-.23-.64-.26a17.42,17.42,0,0,0-7.83-.89,18.13,18.13,0,0,0-7.93,2.62c-.2.12-.94.66-1.13.8l-1.17.87Z"/><path class="cls-38" d="M212.55,238.6c-1.15.84-3.57,3.28-3.44,4.36-2.23,2.79-1.16,6,2.79,7.65l.59.26.42.18a16.57,16.57,0,0,0,7,1,18.41,18.41,0,0,0,7.23-2,36.55,36.55,0,0,0,4.15-2.64c1.15-.84,5.23-4.6,5.1-5.69,2.22-2.78,1.16-6-2.8-7.65l-.51-.23-.63-.25a17.08,17.08,0,0,0-7.75-.89,18.06,18.06,0,0,0-7.85,2.59c-.21.12-.93.65-1.12.79l-1.16.86Z"/><path class="cls-39" d="M212.69,238.63c-1.09.79-3.54,3.21-3.41,4.24-2.3,2.78-1.27,6,2.69,7.67l.58.25.42.17a16.24,16.24,0,0,0,6.93,1A18.19,18.19,0,0,0,227,250a32.73,32.73,0,0,0,4.1-2.59c1.1-.8,5.24-4.58,5.12-5.6,2.3-2.78,1.27-6-2.7-7.68l-.5-.22-.62-.25a16.93,16.93,0,0,0-7.68-.87,17.82,17.82,0,0,0-7.78,2.55c-.21.13-.91.64-1.11.78l-1.15.85Z"/><path class="cls-40" d="M212.83,238.65c-1,.76-3.5,3.15-3.38,4.12-2.38,2.78-1.39,6,2.59,7.69l.57.25.41.17a16.13,16.13,0,0,0,6.84,1,18.1,18.1,0,0,0,7-1.86,31.83,31.83,0,0,0,4-2.54c1-.75,5.25-4.55,5.14-5.52,2.37-2.77,1.38-6-2.59-7.69L233,234l-.62-.25a17,17,0,0,0-7.6-.86,17.72,17.72,0,0,0-7.7,2.52c-.22.13-.9.62-1.1.77l-1.14.84Z"/><path class="cls-41" d="M213,238.68c-1,.71-3.46,3.09-3.35,4-2.45,2.77-1.5,6,2.49,7.7l.56.25.4.16a16,16,0,0,0,6.74,1,18.07,18.07,0,0,0,6.95-1.81,29,29,0,0,0,4-2.49c1-.7,5.26-4.52,5.15-5.44,2.45-2.77,1.49-6-2.49-7.7l-.5-.22-.6-.25a17,17,0,0,0-7.53-.85,17.7,17.7,0,0,0-7.62,2.49c-.23.13-.89.61-1.1.76l-1.12.83Z"/><path class="cls-42" d="M213.11,238.71c-.91.66-3.42,3-3.32,3.88-2.53,2.76-1.61,6,2.38,7.71l.56.25.39.16a15.76,15.76,0,0,0,6.65.94,17.81,17.81,0,0,0,6.85-1.75,28.51,28.51,0,0,0,4-2.43c.91-.67,5.27-4.51,5.17-5.36,2.53-2.77,1.6-6.05-2.39-7.72l-.49-.22-.6-.24a16.63,16.63,0,0,0-7.44-.84,17.59,17.59,0,0,0-7.56,2.45c-.23.14-.87.6-1.08.75l-1.12.82Z"/><path class="cls-43" d="M213.25,238.73c-.85.62-3.39,3-3.29,3.76-2.61,2.76-1.72,6.07,2.28,7.74l.55.24.39.16a15.74,15.74,0,0,0,6.54.93,18,18,0,0,0,6.76-1.7,27.14,27.14,0,0,0,3.91-2.38c.85-.62,5.28-4.48,5.19-5.28,2.6-2.76,1.71-6.06-2.29-7.74l-.48-.21c-.12-.05-.47-.2-.6-.24a16.58,16.58,0,0,0-7.36-.83,17.39,17.39,0,0,0-7.48,2.42c-.24.14-.86.58-1.07.74l-1.11.82Z"/><path class="cls-44" d="M213.39,238.76c-.79.58-3.35,2.9-3.26,3.64-2.68,2.75-1.83,6.07,2.18,7.75l.54.24c.07,0,.3.13.38.15a15.64,15.64,0,0,0,6.45.93,17.89,17.89,0,0,0,6.66-1.65,25.52,25.52,0,0,0,3.86-2.33c.79-.58,5.3-4.46,5.21-5.2,2.68-2.75,1.83-6.07-2.19-7.75l-.48-.21c-.12-.06-.46-.19-.58-.24a16.43,16.43,0,0,0-7.29-.81,17.28,17.28,0,0,0-7.41,2.38c-.24.14-.84.57-1.06.73l-1.09.81Z"/><path class="cls-45" d="M213.53,238.79c-.73.53-3.31,2.83-3.23,3.52-2.76,2.74-1.94,6.08,2.08,7.76l.52.24.38.15a15.54,15.54,0,0,0,6.35.92,17.88,17.88,0,0,0,6.57-1.6A24.41,24.41,0,0,0,230,247.5c.72-.53,5.3-4.43,5.22-5.11,2.75-2.75,1.94-6.09-2.08-7.77l-.48-.22-.58-.23a16.36,16.36,0,0,0-7.21-.8,17.23,17.23,0,0,0-7.33,2.35c-.25.15-.83.56-1.05.72l-1.09.8Z"/><path class="cls-46" d="M213.67,238.82c-.67.48-3.28,2.76-3.2,3.39-2.83,2.74-2.06,6.1,2,7.79l.51.23.37.15a15.45,15.45,0,0,0,6.25.9,17.76,17.76,0,0,0,6.49-1.54,23.29,23.29,0,0,0,3.76-2.23c.67-.48,5.31-4.4,5.24-5,2.83-2.74,2.05-6.1-2-7.79l-.47-.21-.57-.23a16.36,16.36,0,0,0-7.14-.79,17.26,17.26,0,0,0-7.26,2.32c-.25.15-.8.54-1,.71l-1.07.79Z"/><path class="cls-47" d="M213.8,238.84c-.6.44-3.23,2.71-3.16,3.28-2.91,2.73-2.17,6.11,1.87,7.8l.51.23.37.14a15.1,15.1,0,0,0,6.15.9,17.91,17.91,0,0,0,6.39-1.49,22.15,22.15,0,0,0,3.71-2.17c.61-.45,5.32-4.39,5.26-5,2.91-2.73,2.16-6.11-1.88-7.8l-.47-.21-.56-.22a16,16,0,0,0-7.06-.78,16.92,16.92,0,0,0-7.18,2.28c-.27.15-.79.53-1,.7l-1.06.78Z"/><path class="cls-48" d="M213.94,238.87c-.54.4-3.19,2.64-3.13,3.16-3,2.72-2.28,6.12,1.77,7.81l.5.22.36.15a15,15,0,0,0,6.05.89,17.71,17.71,0,0,0,6.3-1.44,20.47,20.47,0,0,0,3.66-2.12c.55-.4,5.34-4.36,5.28-4.87,3-2.73,2.27-6.13-1.78-7.82l-.46-.21-.56-.22a16,16,0,0,0-7-.77,17,17,0,0,0-7.11,2.25c-.27.16-.77.51-1,.69l-1,.77Z"/><path class="cls-49" d="M214.08,238.9c-.48.35-3.16,2.58-3.1,3-3.06,2.72-2.39,6.14,1.67,7.84l.49.21.35.15a14.91,14.91,0,0,0,6,.88,17.88,17.88,0,0,0,6.2-1.39,19.84,19.84,0,0,0,3.61-2.07c.49-.35,5.35-4.33,5.3-4.79,3.06-2.72,2.39-6.14-1.68-7.84l-.45-.2-.55-.22a15.82,15.82,0,0,0-6.91-.75,16.76,16.76,0,0,0-7,2.21c-.28.16-.76.5-1,.68l-1,.76Z"/><path class="cls-50" d="M214.22,238.92c-.42.31-3.12,2.52-3.07,2.92-3.14,2.71-2.5,6.15,1.57,7.85l.48.21.34.14a14.65,14.65,0,0,0,5.86.87,17.61,17.61,0,0,0,6.11-1.33,18.46,18.46,0,0,0,3.57-2c.42-.31,5.35-4.31,5.31-4.71,3.13-2.71,2.5-6.15-1.58-7.85l-.45-.2-.54-.22a15.92,15.92,0,0,0-6.83-.74,16.71,16.71,0,0,0-7,2.18c-.29.17-.75.49-1,.67l-1,.76Z"/><path class="cls-51" d="M214.36,239c-.36.27-3.08,2.45-3,2.8-3.21,2.7-2.62,6.16,1.47,7.86l.47.21.34.14a14.69,14.69,0,0,0,5.76.86,17.58,17.58,0,0,0,6-1.28,17.88,17.88,0,0,0,3.52-2c.36-.26,5.37-4.28,5.33-4.62,3.21-2.71,2.61-6.16-1.47-7.87l-.45-.2-.54-.21a15.54,15.54,0,0,0-6.75-.74,16.65,16.65,0,0,0-6.88,2.15c-.29.17-.73.47-1,.66l-1,.75Z"/><path class="cls-52" d="M214.5,239c-.3.22-3,2.39-3,2.67-3.29,2.7-2.73,6.18,1.36,7.88l.47.21.33.14a14.58,14.58,0,0,0,5.66.85,17.61,17.61,0,0,0,5.92-1.23,16.54,16.54,0,0,0,3.47-1.91c.31-.23,5.38-4.27,5.35-4.55,3.28-2.7,2.72-6.17-1.37-7.88l-.44-.2c-.15-.07-.38-.16-.53-.21A15.41,15.41,0,0,0,225,234a16.41,16.41,0,0,0-6.8,2.11c-.3.17-.72.46-1,.65l-1,.74Z"/><path class="cls-53" d="M214.64,239a24.07,24.07,0,0,0-3,2.56c-3.36,2.69-2.84,6.18,1.26,7.9l.46.2.32.13a14.5,14.5,0,0,0,5.56.85,17.85,17.85,0,0,0,5.83-1.18,15.77,15.77,0,0,0,3.42-1.86c.25-.18,5.39-4.24,5.37-4.47,3.36-2.69,2.83-6.18-1.27-7.9l-.44-.2-.52-.2a15.32,15.32,0,0,0-6.59-.71,16.45,16.45,0,0,0-6.74,2.08c-.3.18-.7.45-1,.64l-1,.73Z"/><path class="cls-54" d="M214.78,239a29.44,29.44,0,0,0-2.95,2.44c-3.44,2.68-3,6.19,1.16,7.91l.45.2.31.13a14.23,14.23,0,0,0,5.47.83,17.37,17.37,0,0,0,5.73-1.12,14.92,14.92,0,0,0,3.38-1.81c.18-.13,5.4-4.21,5.38-4.38,3.44-2.69,2.94-6.2-1.17-7.92l-.43-.2-.51-.2a15.34,15.34,0,0,0-6.52-.69,16.25,16.25,0,0,0-6.66,2,11.37,11.37,0,0,0-1,.63l-1,.72Z"/><path class="cls-55" d="M214.92,239.06c-.12.09-2.93,2.2-2.92,2.31-3.52,2.68-3.06,6.21,1.06,7.93l.44.2.31.12a14.07,14.07,0,0,0,5.36.83,17.75,17.75,0,0,0,5.65-1.07,14.56,14.56,0,0,0,3.32-1.76c.12-.09,5.41-4.19,5.4-4.3,3.51-2.68,3.06-6.21-1.07-7.93l-.42-.2-.51-.2a15.31,15.31,0,0,0-6.44-.68,16.15,16.15,0,0,0-6.59,2c-.31.18-.66.42-.95.62l-1,.71Z"/><path class="cls-56" d="M215.06,239.08c-.06,0-2.9,2.14-2.89,2.2-3.59,2.67-3.17,6.22,1,7.95l.42.19.31.12a14.2,14.2,0,0,0,5.27.82,17.54,17.54,0,0,0,5.55-1,13.33,13.33,0,0,0,3.27-1.71c.06,0,5.42-4.16,5.42-4.22,3.59-2.67,3.17-6.22-1-7.95l-.43-.19-.5-.19a14.91,14.91,0,0,0-6.36-.68,16.16,16.16,0,0,0-6.51,2c-.32.19-.65.4-.94.61l-1,.7Z"/><path class="cls-57" d="M213.19,249.15l.42.19a16.16,16.16,0,0,0,14.15-1.69l5.44-4.14c3.66-2.67,3.28-6.24-.86-8l-.42-.19a16.13,16.13,0,0,0-14.15,1.7l-.94.68-1.64,1.38-2.85,2.08C208.67,243.85,209.05,247.42,213.19,249.15Z"/></g><path class="cls-4" d="M226.89,231h0c-1.28-1.74-4.64-1.46-7.38.39-5.09,3.46-10.12,13.29-10.12,13.29l10.92,7.78L237,238.06Z"/><path class="cls-58" d="M225.13,237a.81.81,0,0,1-.48-.16,1.34,1.34,0,0,1-.33-1.61c1.21-2.54,3.62-4.11,5.16-4.11a1.2,1.2,0,0,1,0,2.35,5.18,5.18,0,0,0-3.53,3A.92.92,0,0,1,225.13,237Z"/><path class="cls-57" d="M237.44,241.08,220.3,252.49s2-9,9.36-14C233.46,235.92,238.49,236.37,237.44,241.08Z"/><polygon class="cls-59" points="74.41 196.59 161.26 248.59 161.26 252.57 74.41 200.81 74.41 196.59"/><polygon class="cls-59" points="161.34 248.59 198.32 221.53 198.31 229.54 161.34 252.43 161.34 248.59"/><path class="cls-57" d="M112.09,169.59l-37.9,26.87,87.09,52.13,37-27.06Z"/><polygon class="cls-60" points="85.38 196.6 81.92 194.53 84.96 192.31 88.45 194.39 85.38 196.6"/><polygon class="cls-60" points="91.87 191.93 89.23 193.82 85.75 191.73 88.6 189.67 92.09 191.77 91.87 191.93"/><polygon class="cls-60" points="92.74 196.97 89.65 199.19 86.2 197.1 89.26 194.88 92.74 196.97"/><polygon class="cls-60" points="92.57 191.42 89.08 189.33 91.97 187.24 95.47 189.34 92.57 191.42"/><polygon class="cls-60" points="90.05 194.32 92.69 192.41 96.17 194.5 93.52 196.41 90.05 194.32"/><polygon class="cls-60" points="97.57 199.88 94.5 202.11 90.48 199.69 93.55 197.46 97.57 199.88"/><polygon class="cls-60" points="96.08 188.9 92.58 186.79 95.43 184.74 98.93 186.84 96.08 188.9"/><polygon class="cls-60" points="99.76 191.91 96.86 194 93.38 191.91 96.27 189.81 99.76 191.91"/><polygon class="cls-60" points="94.34 196.89 96.97 194.99 101 197.41 98.35 199.31 94.34 196.89"/><polygon class="cls-60" points="99.6 186.37 96.09 184.26 98.98 182.16 102.5 184.27 99.6 186.37"/><polygon class="cls-60" points="103.22 189.43 100.37 191.48 96.87 189.38 99.72 187.32 103.22 189.43"/><polygon class="cls-60" points="97.67 194.49 100.56 192.4 104.57 194.81 101.7 196.9 97.67 194.49"/><polygon class="cls-60" points="104.64 203.92 101.39 206.26 97.88 204.13 101.11 201.79 104.64 203.92"/><polygon class="cls-60" points="103.11 183.84 99.59 181.73 102.05 179.95 105.57 182.07 103.11 183.84"/><polygon class="cls-60" points="106.79 186.85 103.89 188.94 100.39 186.84 103.28 184.75 106.79 186.85"/><polygon class="cls-60" points="101.03 192.06 101.17 191.96 104.01 189.9 108.03 192.31 108.01 192.32 105.04 194.47 101.03 192.06"/><polygon class="cls-60" points="108.92 206.49 105.69 208.82 102.35 206.83 105.57 204.47 108.92 206.49"/><polygon class="cls-60" points="106.18 181.63 102.65 179.52 106.07 177.03 109.61 179.16 106.18 181.63"/><polygon class="cls-60" points="109.86 184.65 107.4 186.42 103.89 184.31 106.34 182.53 109.86 184.65"/><polygon class="cls-60" points="108.8 191.76 108.67 191.84 108.63 191.8 104.68 189.42 107.57 187.32 111.59 189.74 111.36 189.91 108.8 191.76"/><polygon class="cls-60" points="112.23 204.09 109.54 206.04 106.2 204.02 108.88 202.07 112.23 204.09"/><polygon class="cls-60" points="113.11 209.01 109.86 211.33 106.56 209.34 109.77 207 113.11 209.01"/><polygon class="cls-60" points="113.9 181.73 110.47 184.21 106.94 182.09 110.38 179.61 113.9 181.73"/><polygon class="cls-60" points="110.63 185.11 114.66 187.53 112.18 189.31 108.17 186.88 110.63 185.11"/><polygon class="cls-60" points="109.33 174.69 113.16 171.9 116.32 173.78 112.49 176.58 109.33 174.69"/><polygon class="cls-60" points="118.67 184.6 115.63 186.83 115.27 187.09 111.24 184.68 114.66 182.19 118.67 184.6"/><polygon class="cls-60" points="109.59 201.54 112.13 199.69 115.5 201.71 115.78 201.89 116.33 202.22 119.72 204.25 117.17 206.09 113.8 204.06 113.25 203.74 112.96 203.56 109.59 201.54"/><polygon class="cls-60" points="113.72 177.33 117.57 174.53 120.61 176.36 116.78 179.16 113.72 177.33"/><polygon class="cls-60" points="118.37 212.17 121.49 214.05 121.93 214.31 118.7 216.65 114.81 214.32 118.03 211.97 118.37 212.17"/><polygon class="cls-60" points="122.53 196.62 119.98 198.47 119.86 198.57 119.86 198.57 119.85 198.57 119.21 199.03 119.2 199.03 119.18 199.04 119.19 199.05 119.47 199.22 120 199.54 123.43 201.6 120.45 203.74 117.04 201.69 116.49 201.37 116.22 201.2 112.84 199.17 115.11 197.51 115.11 197.51 116.27 196.66 116.27 196.66 116.58 196.44 119.12 194.57 122.53 196.62"/><polygon class="cls-60" points="117.88 179.82 121.71 177.03 125.31 179.21 121.5 181.99 117.88 179.82"/><polygon class="cls-60" points="117.99 206.59 120.54 204.75 124.21 206.96 121.66 208.8 117.99 206.59"/><polygon class="cls-60" points="121.69 209.77 124.81 211.65 122.09 213.61 118.99 211.73 121.69 209.77"/><polygon class="cls-60" points="125.9 194.19 123.2 196.15 119.78 194.09 122.47 192.13 125.9 194.19"/><polygon class="cls-60" points="123.33 197.1 126.8 199.19 124.22 201.03 120.78 198.97 123.33 197.1"/><polygon class="cls-60" points="121.26 204.23 124.23 202.09 127.9 204.28 124.93 206.44 121.26 204.23"/><polygon class="cls-60" points="122.42 209.25 124.97 207.41 128.09 209.28 125.54 211.12 122.42 209.25"/><polygon class="cls-60" points="122.5 182.61 126.31 179.81 128.36 181.04 124.53 183.83 122.5 182.61"/><polygon class="cls-60" points="129.16 214.26 126.45 216.21 122.85 214.07 125.57 212.1 129.16 214.26"/><polygon class="cls-60" points="164.86 240.12 161.63 242.47 122.89 219.18 126.13 216.83 164.86 240.12"/><polygon class="cls-60" points="129.85 191.33 126.79 193.54 123.36 191.48 126.4 189.25 129.85 191.33"/><polygon class="cls-60" points="130.18 196.75 127.46 198.71 123.99 196.62 126.68 194.65 130.18 196.75"/><polygon class="cls-60" points="125.03 201.51 127.59 199.66 131.25 201.87 128.7 203.72 125.03 201.51"/><polygon class="cls-60" points="125.53 184.44 129.36 181.64 132.53 183.54 128.69 186.33 125.53 184.44"/><polygon class="cls-60" points="125.69 206.89 128.66 204.74 131.78 206.62 128.8 208.76 125.69 206.89"/><polygon class="cls-60" points="128.85 209.74 132.43 211.9 129.88 213.74 126.3 211.58 128.85 209.74"/><polygon class="cls-60" points="127.21 216.67 129.91 214.71 133.68 216.98 130.98 218.93 127.21 216.67"/><polygon class="cls-60" points="134.14 193.92 131.08 196.12 127.57 194.01 130.61 191.79 134.14 193.92"/><polygon class="cls-60" points="134.63 199.43 131.92 201.39 128.25 199.19 130.96 197.22 134.63 199.43"/><polygon class="cls-60" points="135.13 204.19 132.57 206.04 129.46 204.18 132.01 202.32 135.13 204.19"/><polygon class="cls-60" points="132.54 207.08 136.12 209.23 133.15 211.38 129.56 209.23 132.54 207.08"/><polygon class="cls-60" points="129.7 186.94 133.53 184.14 136.72 186.05 132.87 188.85 129.7 186.94"/><polygon class="cls-60" points="130.64 214.2 133.19 212.35 136.95 214.62 134.41 216.46 130.64 214.2"/><polygon class="cls-60" points="131.74 219.39 134.44 217.44 138.25 219.72 135.53 221.69 131.74 219.39"/><polygon class="cls-60" points="138.59 196.57 135.52 198.79 131.85 196.58 134.91 194.37 138.59 196.57"/><polygon class="cls-60" points="138.51 201.76 135.79 203.72 132.67 201.85 135.39 199.88 138.51 201.76"/><polygon class="cls-60" points="139.47 206.81 136.92 208.66 133.33 206.5 135.9 204.65 139.47 206.81"/><polygon class="cls-60" points="133.89 189.46 137.72 186.66 141.35 188.86 137.54 191.64 133.89 189.46"/><polygon class="cls-60" points="133.9 211.84 136.88 209.68 140.64 211.96 137.66 214.1 133.9 211.84"/><polygon class="cls-60" points="135.16 216.91 137.71 215.08 141.53 217.36 138.97 219.21 135.16 216.91"/><polygon class="cls-60" points="142.46 198.9 139.4 201.13 136.27 199.24 139.35 197.03 142.46 198.9"/><polygon class="cls-60" points="136.3 222.15 139.01 220.19 142.24 222.13 139.52 224.08 136.3 222.15"/><polygon class="cls-60" points="142.85 204.37 140.14 206.33 136.56 204.18 139.27 202.22 142.85 204.37"/><polygon class="cls-60" points="144 209.53 141.44 211.38 137.67 209.12 140.23 207.27 144 209.53"/><polygon class="cls-60" points="138.43 214.56 141.4 212.4 145.21 214.69 142.23 216.86 138.43 214.56"/><polygon class="cls-60" points="138.55 192.24 142.35 189.47 145.5 191.35 141.69 194.14 138.55 192.24"/><polygon class="cls-60" points="139.74 219.66 142.28 217.83 145.51 219.76 142.96 221.61 139.74 219.66"/><polygon class="cls-60" points="146.81 201.51 143.74 203.73 140.15 201.57 143.22 199.36 146.81 201.51"/><polygon class="cls-60" points="140.28 224.54 143 222.58 146.42 224.64 143.7 226.6 140.28 224.54"/><polygon class="cls-60" points="147.38 207.09 144.66 209.05 140.9 206.79 143.61 204.83 147.38 207.09"/><polygon class="cls-60" points="148.57 212.28 146.01 214.12 142.2 211.84 144.76 209.98 148.57 212.28"/><polygon class="cls-60" points="142.69 194.75 146.51 191.96 149.42 193.71 145.59 196.51 142.69 194.75"/><polygon class="cls-60" points="142.99 217.31 145.97 215.16 149.2 217.1 146.21 219.25 142.99 217.31"/><polygon class="cls-60" points="143.72 222.06 146.27 220.22 149.69 222.28 147.14 224.11 143.72 222.06"/><polygon class="cls-60" points="151.33 204.24 148.26 206.45 144.49 204.19 147.56 201.97 151.33 204.24"/><polygon class="cls-60" points="144.46 227.06 147.18 225.1 150.95 227.36 148.22 229.33 144.46 227.06"/><polygon class="cls-60" points="151.94 209.83 149.23 211.8 145.42 209.51 148.14 207.55 151.94 209.83"/><polygon class="cls-60" points="146.59 197.11 150.43 194.31 153.56 196.2 149.73 198.99 146.59 197.11"/><polygon class="cls-60" points="152.56 214.67 150 216.52 146.77 214.58 149.33 212.73 152.56 214.67"/><polygon class="cls-60" points="146.97 219.71 149.96 217.56 153.38 219.61 150.4 221.77 146.97 219.71"/><polygon class="cls-60" points="147.91 224.57 150.46 222.73 154.22 225 151.67 226.83 147.91 224.57"/><polygon class="cls-60" points="155.88 206.99 152.83 209.2 149.02 206.91 152.09 204.69 155.88 206.99"/><polygon class="cls-60" points="148.98 229.78 151.71 227.82 155.18 229.9 152.46 231.87 148.98 229.78"/><polygon class="cls-60" points="155.93 212.24 153.22 214.19 150 212.26 152.7 210.29 155.93 212.24"/><polygon class="cls-60" points="150.73 199.59 154.57 196.79 157.81 198.76 154 201.55 150.73 199.59"/><polygon class="cls-60" points="156.74 217.19 154.18 219.04 150.76 216.98 153.32 215.13 156.74 217.19"/><polygon class="cls-60" points="151.17 222.22 154.15 220.07 157.91 222.33 154.91 224.5 151.17 222.22"/><polygon class="cls-60" points="152.43 227.3 154.98 225.45 158.45 227.54 155.9 229.38 152.43 227.3"/><polygon class="cls-60" points="153.21 232.33 155.94 230.36 159.2 232.33 156.48 234.29 153.21 232.33"/><polygon class="cls-60" points="159.87 209.4 156.82 211.6 153.59 209.66 156.64 207.45 159.87 209.4"/><polygon class="cls-60" points="160.12 214.75 157.4 216.71 153.98 214.65 156.69 212.69 160.12 214.75"/><polygon class="cls-60" points="161.26 219.9 158.7 221.76 154.94 219.5 157.51 217.65 161.26 219.9"/><polygon class="cls-60" points="155.01 202.16 158.82 199.38 162.89 201.81 159.06 204.6 155.01 202.16"/><polygon class="cls-60" points="162.15 224.88 159.17 227.02 155.67 224.96 158.67 222.79 162.15 224.88"/><polygon class="cls-60" points="156.66 229.83 159.21 228 162.48 229.96 159.93 231.81 156.66 229.83"/><polygon class="cls-60" points="157.24 234.75 159.97 232.78 163.3 234.79 160.57 236.75 157.24 234.75"/><polygon class="cls-60" points="164.05 211.91 161 214.11 157.58 212.06 160.63 209.85 164.05 211.91"/><polygon class="cls-60" points="164.63 217.47 161.93 219.43 158.16 217.17 160.87 215.21 164.63 217.47"/><polygon class="cls-60" points="165.5 222.45 162.94 224.3 159.46 222.22 162.03 220.37 165.5 222.45"/><polygon class="cls-60" points="159.93 227.49 162.9 225.33 166.17 227.29 163.17 229.46 159.93 227.49"/><polygon class="cls-60" points="160.06 205.22 163.9 202.42 166.84 204.19 163 206.98 160.06 205.22"/><polygon class="cls-60" points="160.69 232.27 163.24 230.43 166.57 232.42 164.02 234.26 160.69 232.27"/><polygon class="cls-60" points="164.06 235.25 168.18 237.72 165.46 239.7 161.34 237.21 164.06 235.25"/><polygon class="cls-60" points="168.56 214.64 165.53 216.83 161.77 214.57 164.81 212.36 168.56 214.64"/><polygon class="cls-60" points="168.88 220.01 166.16 221.98 162.69 219.89 165.4 217.93 168.88 220.01"/><polygon class="cls-60" points="169.53 224.87 166.96 226.73 163.7 224.76 166.26 222.91 169.53 224.87"/><polygon class="cls-60" points="163.94 229.91 166.93 227.75 170.26 229.76 167.28 231.91 163.94 229.91"/><polygon class="cls-60" points="164.02 207.61 167.86 204.79 171.06 206.73 167.22 209.53 164.02 207.61"/><polygon class="cls-60" points="167.33 232.88 171.47 235.37 168.91 237.2 164.78 234.72 167.33 232.88"/><polygon class="cls-60" points="172.82 217.16 169.76 219.37 166.29 217.28 169.33 215.09 172.82 217.16"/><polygon class="cls-60" points="172.9 222.44 170.18 224.39 166.92 222.43 169.64 220.48 172.9 222.44"/><polygon class="cls-60" points="167.73 227.18 170.29 225.33 173.62 227.33 171.06 229.18 167.73 227.18"/><polygon class="cls-60" points="171.02 230.21 174.63 232.39 175.15 232.7 172.17 234.86 168.04 232.37 171.02 230.21"/><polygon class="cls-60" points="168.17 210.09 172 207.29 175.45 209.37 171.63 212.16 168.17 210.09"/><polygon class="cls-60" points="176.82 219.6 173.79 221.8 170.52 219.83 173.58 217.63 176.82 219.6"/><polygon class="cls-60" points="177 224.9 174.28 226.85 170.95 224.86 173.66 222.89 177 224.9"/><polygon class="cls-60" points="174.38 227.79 178.49 230.26 175.94 232.12 171.82 229.64 174.38 227.79"/><polygon class="cls-60" points="172.63 212.76 176.45 209.98 179.67 211.92 175.85 214.71 172.63 212.76"/><polygon class="cls-60" points="180.93 222.05 177.88 224.26 174.55 222.25 177.59 220.06 180.93 222.05"/><polygon class="cls-60" points="177.75 225.35 181.87 227.83 179.15 229.78 175.04 227.31 177.75 225.35"/><polygon class="cls-60" points="176.78 215.26 180.6 212.48 183.64 214.3 179.81 217.1 176.78 215.26"/><polygon class="cls-60" points="181.69 222.51 185.8 224.99 182.76 227.19 178.64 224.71 181.69 222.51"/><polygon class="cls-60" points="180.84 217.71 184.67 214.92 187.89 216.86 184.08 219.65 180.84 217.71"/><polygon class="cls-60" points="185.09 220.25 188.9 217.47 192.88 219.85 189.05 222.64 185.09 220.25"/><path class="cls-60" d="M137.84,171.39c-2.41,1.39-2.44,3.65-.05,5l32.76,19.07a9.62,9.62,0,0,0,8.71,0l12.47-7.34c2.41-1.4,2.41-3.65,0-5L159,164a9.58,9.58,0,0,0-8.69,0Z"/><path class="cls-57" d="M137.79,176.43l32.76,19.07a9,9,0,0,0,4.36,1,8.83,8.83,0,0,0,4.35-1.05l12.47-7.34a3.08,3.08,0,0,0,1.81-2.54v2.51a3.07,3.07,0,0,1-1.81,2.53L179.27,198a9,9,0,0,1-4.36,1,8.88,8.88,0,0,1-4.35-1L137.8,178.94a3,3,0,0,1-1.78-2.49v-2.51A3.06,3.06,0,0,0,137.79,176.43Z"/><g class="cls-1"><polygon class="cls-61" points="175.61 188.59 179.94 186.08 180 168.26 175.66 170.78 175.61 188.59"/><polygon class="cls-62" points="175.66 170.78 180 168.26 153.68 153.02 149.34 155.53 175.66 170.78"/><polygon class="cls-63" points="149.34 155.53 149.29 173.35 175.61 188.59 175.66 170.78 149.34 155.53"/></g><path class="cls-64" d="M112.63,13.6a3.11,3.11,0,0,1,3.13.31L237.61,84.26A9.56,9.56,0,0,1,242,91.79l-.2,108a3,3,0,0,1-1.28,2.81l-4.33,2.52a3.06,3.06,0,0,0,1.28-2.81l.2-108a9.58,9.58,0,0,0-4.34-7.52L111.42,16.43a3.09,3.09,0,0,0-3.12-.31Z"/><path class="cls-60" d="M111.42,16.43C109,15,107,16.13,107,18.91l-.2,108a9.62,9.62,0,0,0,4.36,7.55l121.86,70.36c2.39,1.38,4.36.26,4.37-2.52l.2-108a9.58,9.58,0,0,0-4.34-7.52Z"/><polygon class="cls-64" points="232.6 94.33 232.6 193.91 111.65 124.08 111.65 24.5 232.6 94.33"/><polygon class="cls-65" points="132.51 51.1 142.74 57.09 142.74 55.12 132.51 49.13 132.51 51.1"/><polygon class="cls-66" points="146.63 59.36 160.44 67.44 160.44 65.47 146.63 57.39 146.63 59.36"/><polygon class="cls-66" points="126.28 52.9 139.42 60.59 139.42 58.62 126.28 50.93 126.28 52.9"/><polygon class="cls-66" points="142.05 62.13 148.94 66.16 148.94 64.19 142.05 60.15 142.05 62.13"/><polygon class="cls-65" points="151.9 67.89 160.44 72.89 160.44 70.92 151.9 65.92 151.9 67.89"/><polygon class="cls-66" points="130.54 60.26 145.48 69 145.48 67.03 130.54 58.29 130.54 60.26"/><polygon class="cls-66" points="147.71 70.3 152.17 72.91 152.17 70.94 147.71 68.33 147.71 70.3"/><polygon class="cls-66" points="126.28 63.02 136.38 68.93 136.38 66.95 126.28 61.04 126.28 63.02"/><polygon class="cls-65" points="138.4 70.11 143.71 73.21 143.71 71.24 138.4 68.13 138.4 70.11"/><polygon class="cls-66" points="145.99 74.55 152.56 78.39 152.56 76.42 145.99 72.57 145.99 74.55"/><polygon class="cls-66" points="137.11 74.22 148.94 81.15 148.94 79.17 137.11 72.25 137.11 74.22"/><polygon class="cls-65" points="123.9 74.26 137.77 82.38 137.77 84.35 123.9 76.24 123.9 74.26"/><polygon class="cls-66" points="126.28 72.75 139.42 80.44 139.42 78.47 126.28 70.78 126.28 72.75"/><polygon class="cls-66" points="127.48 87.7 137.49 93.56 137.49 95.53 127.48 89.68 127.48 87.7"/><polygon class="cls-66" points="122.55 89.68 140.11 99.96 140.11 101.94 122.55 91.67 122.55 89.68"/><polygon class="cls-65" points="133.03 105.95 138.35 109.05 138.35 111.03 133.03 107.92 133.03 105.95"/><polygon class="cls-65" points="132.85 114.39 160.44 130.53 160.44 132.5 132.85 116.36 132.85 114.39"/><polygon class="cls-66" points="132.85 118.97 142.86 124.83 142.86 126.8 132.85 120.95 132.85 118.97"/><polygon class="cls-66" points="145.49 126.37 151.58 129.93 151.58 131.9 145.49 128.34 145.49 126.37"/><polygon class="cls-66" points="154.54 131.66 160.44 135.12 160.44 137.09 154.54 133.63 154.54 131.66"/><polygon class="cls-65" points="127.92 120.95 145.48 131.23 145.48 133.2 127.92 122.92 127.92 120.95"/><polygon class="cls-66" points="147.71 132.53 152.17 135.14 152.17 137.11 147.71 134.5 147.71 132.53"/><polygon class="cls-65" points="142.33 90.79 156.2 98.91 156.2 100.88 142.33 92.76 142.33 90.79"/><polygon class="cls-66" points="144.71 89.28 157.85 96.97 157.85 94.99 144.71 87.31 144.71 89.28"/><polygon class="cls-66" points="127.55 98.98 140.69 106.67 140.69 104.7 127.55 97.01 127.55 98.98"/><polygon class="cls-66" points="143.32 108.21 150.21 112.24 150.21 110.27 143.32 106.23 143.32 108.21"/><polygon class="cls-65" points="153.17 113.97 161.71 118.97 161.71 117 153.17 112 153.17 113.97"/><path class="cls-67" d="M228.79,108.4c-1.42,3.59-4.64,4.08-7.2,1.1a12.77,12.77,0,0,1-2.06-11.87c1.42-3.59,4.65-4.08,7.2-1.11A12.8,12.8,0,0,1,228.79,108.4Z"/><path class="cls-67" d="M217.14,101.27c-1.42,3.58-4.64,4.08-7.2,1.1a12.79,12.79,0,0,1-2.06-11.88c1.42-3.58,4.65-4.08,7.2-1.1A12.8,12.8,0,0,1,217.14,101.27Z"/><path class="cls-67" d="M205.71,94.32c-1.42,3.58-4.64,4.08-7.2,1.1a12.79,12.79,0,0,1-2.06-11.88c1.42-3.58,4.65-4.08,7.2-1.1A12.8,12.8,0,0,1,205.71,94.32Z"/><g class="cls-1"><polygon class="cls-57" points="181.53 154.63 187.56 150.42 189.41 147.38 183.38 151.58 181.53 154.63"/><polygon class="cls-57" points="167.47 116.21 173.5 112.01 169.71 110.75 163.69 114.96 167.47 116.21"/><polygon class="cls-68" points="202 167.67 208.03 163.47 206.86 157.9 200.83 162.11 202 167.67"/><polygon class="cls-60" points="172.27 98.62 178.29 94.41 174.79 89.59 168.77 93.8 172.27 98.62"/><path class="cls-57" d="M180.65,140.41l-.39-.6-.22-.36c-.14-.23-.28-.45-.41-.68s-.12-.2-.19-.3l-.57-1a.3.3,0,0,0,0-.08c-.17-.31-.34-.62-.5-.93l-.18-.34c-.12-.23-.24-.46-.35-.7l-.2-.39-.31-.66c-.07-.13-.13-.27-.19-.41s-.21-.44-.31-.66-.11-.27-.17-.4l-.31-.73c-.05-.12-.1-.23-.14-.34-.15-.36-.29-.72-.43-1.08,0,0,0,0,0,0-.14-.34-.26-.69-.39-1l-.12-.36c-.09-.25-.17-.49-.25-.74s-.09-.27-.13-.41-.15-.46-.22-.69-.08-.29-.13-.43-.13-.46-.19-.69l-.12-.42c-.06-.25-.12-.5-.19-.75s-.06-.24-.08-.36c-.09-.37-.18-.73-.25-1.1a30.74,30.74,0,0,1-.63-9.42c.05-.43.11-.84.17-1.24a15.22,15.22,0,0,1,1.13-3.78c.14-.32.3-.62.46-.91l.26-.43a8.38,8.38,0,0,1,2.22-2.36l6-4.2c-3.92,2.74-5.41,9.56-3.61,18.13.08.37.16.74.25,1.1l.09.36c.06.25.12.5.19.75s.07.28.11.42.13.46.2.69.08.29.13.43l.21.69c0,.14.09.28.13.41s.17.5.25.74.08.24.13.36c.12.35.25.69.38,1a.08.08,0,0,0,0,.05q.19.54.42,1.08c.05.11.1.23.14.34s.21.49.31.73l.18.4.3.66.19.42.32.65.19.4c.12.23.24.46.35.69l.18.34.51.94,0,.07.57,1,.18.31.41.67.23.36c.13.2.25.41.38.6l.25.38.39.58.22.32c.29.42.59.84.89,1.25l.18.22c.31.42.62.82,1,1.22a.76.76,0,0,1,.08.11l1,1.13.13.14c.33.38.66.74,1,1.09l.23.24.51.52.25.24c.24.24.49.48.74.7l0,0c.25.24.51.46.77.69l.25.21.55.44.25.2c.33.26.67.51,1,.76s.74.5,1.11.74l.45.28c.26.16.52.3.78.44l.19.1.77.39h0c.25.12.49.22.73.32l.2.08c.25.1.51.19.76.27s.57.18.85.25l.12,0,.8.18.18,0,.62.09.21,0q.38,0,.75,0h.3l.46,0,.25,0,.43-.07.23,0,.46-.11.16,0c.21-.06.41-.13.6-.2l.08,0a6.36,6.36,0,0,0,.59-.28l.17-.09a4.78,4.78,0,0,0,.61-.38l-6,4.21c-.2.14-.41.26-.62.38l-.17.09-.58.28-.06,0h0l-.6.21-.17,0c-.15,0-.3.08-.46.12l-.23,0c-.14,0-.28.05-.43.06l-.24,0-.47,0h-.3c-.24,0-.49,0-.74,0l-.22,0c-.2,0-.41,0-.61-.08l-.18,0-.73-.15-.08,0-.11,0c-.28-.07-.57-.15-.86-.25s-.5-.18-.76-.28l-.2-.08-.2-.08-.52-.23,0,0-.77-.38-.19-.1-.79-.44h0l-.59-.38-.19-.11q-.39-.25-.78-.54c-.34-.24-.67-.49-1-.75l-.12-.09-.13-.11q-.27-.21-.54-.45l-.25-.2-.78-.69,0,0-.74-.7-.24-.24-.52-.52-.12-.13a1.14,1.14,0,0,1-.11-.11c-.33-.35-.67-.72-1-1.09l-.12-.14c-.32-.37-.65-.75-1-1.14l-.09-.1c-.32-.4-.64-.81-1-1.22l-.17-.23c-.3-.4-.6-.82-.9-1.24l-.06-.1-.15-.22c-.14-.19-.27-.39-.4-.59Z"/><polygon class="cls-60" points="215.57 158.19 221.59 153.98 218.1 149.17 212.07 153.38 215.57 158.19"/><polygon class="cls-68" points="211.66 164.61 217.69 160.41 221.59 153.98 215.57 158.19 211.66 164.61"/><path class="cls-57" d="M176.4,96.54l-.26.06-.41.12-.26.08-.39.14-.29.12-.21.09-.34.16-.19.1-.35.2-.14.09c-.17.1-.47.27-.47.38v.07H173l6-4.27c.16-.12.32-.25.49-.36l.16-.11.35-.2.2-.1.33-.17.21-.09.14-.06.15-.05.39-.14.26-.09.42-.11.26-.07.46-.09.23,0c.23,0,.47-.07.71-.09a6.68,6.68,0,0,1,.78,0h.22l.79,0-6,4.21-.79,0h-.21q-.41,0-.78,0l-.72.09-.22,0A3.55,3.55,0,0,0,176.4,96.54Z"/><path class="cls-57" d="M219,138l-6,4.21a29.71,29.71,0,0,1-.89,11.17l6-4.21a27.23,27.23,0,0,0,1-8C219.13,140.12,219.08,139.08,219,138Z"/><path class="cls-58" d="M184.54,108.24l-.06,0-.71-.1-.17,0-.69,0h-.25l-.4,0-.2,0-.36.06-.2,0-.38.09-.16,0-.51.18,0,0a3.65,3.65,0,0,0-.53.25l-.15.07q-.27.15-.54.33l6-4.2a4.93,4.93,0,0,1,.54-.34l.14-.07c.18-.09.36-.18.54-.25l0,0h0l.51-.17.15,0,.38-.1.2,0,.36,0,.21,0,.39,0h.25c.23,0,.46,0,.69,0h.17c.24,0,.47.06.72.11h.06l.46.1.22.06.2,0c.25.07.51.16.77.25s.43.16.65.26h0l.54.25.15.07.45.23.17.09c.19.1.39.21.58.33h0c.21.12.42.25.62.39l.21.13.42.29.23.17.39.28.24.19.15.12.38.3.64.54.22.2.42.38.25.24.37.36.27.27.33.33,0,0c.29.3.57.61.86.93l.18.22c.28.32.56.64.83,1l.1.12c.25.31.49.63.74,1l.16.21c.26.35.51.7.76,1.06l.06.08.12.18.49.73.18.29c.21.32.42.65.62,1v0c.2.33.4.66.59,1l.17.3.43.8.15.28.54,1.06a1,1,0,0,0,.07.15l.44.93c.05.11.1.22.14.33.13.28.25.56.37.84l.12.27c.15.36.29.73.43,1.1l.09.22c.11.3.22.6.32.9l.12.33c.1.3.2.6.29.9,0,.08.05.16.07.23q.18.55.33,1.11c0,.1.05.19.07.28.08.29.15.58.22.86,0,.11.05.22.08.34.08.32.15.65.21,1l0,.15c.07.36.14.73.2,1.1,0,.1,0,.2,0,.3.05.28.09.56.12.83,0,.11,0,.22,0,.32,0,.37.08.73.1,1.09.42,5.56-1,9.51-3.6,11.32l-6,4.21c2.6-1.82,4-5.76,3.61-11.32,0-.36-.07-.73-.11-1.09,0-.11,0-.21,0-.32,0-.28-.07-.55-.11-.83,0-.1,0-.2-.05-.3-.06-.37-.12-.74-.19-1.11l0-.14-.21-1c0-.11-.06-.22-.08-.33-.07-.29-.15-.57-.22-.86,0-.09-.05-.19-.08-.28-.1-.37-.21-.74-.32-1.11,0-.07-.05-.15-.07-.23l-.3-.9c0-.11-.08-.22-.11-.33l-.33-.9c0-.07-.05-.15-.08-.23-.14-.36-.29-.73-.44-1.09,0-.09-.08-.18-.11-.27l-.37-.85-.15-.32c-.14-.31-.29-.62-.44-.93a1,1,0,0,0-.07-.15c-.17-.36-.35-.71-.53-1.06l-.15-.29-.44-.79c-.05-.1-.11-.2-.17-.3-.19-.34-.38-.67-.58-1v0c-.2-.34-.41-.67-.62-1l-.19-.28c-.16-.25-.32-.49-.49-.73l-.17-.26c-.25-.36-.51-.72-.77-1.06l-.16-.21c-.24-.33-.49-.64-.74-.95l-.09-.13c-.28-.33-.55-.66-.83-1l-.19-.21c-.28-.32-.57-.63-.86-.93l-.34-.35-.27-.28-.37-.35-.26-.25-.42-.38-.21-.19-.64-.54-.54-.43-.24-.18-.38-.28-.24-.17-.42-.29-.2-.13q-.32-.21-.63-.39c-.2-.12-.4-.24-.6-.34l-.16-.09-.45-.23-.16-.07-.56-.26c-.22-.09-.44-.18-.66-.25a7.66,7.66,0,0,0-.77-.25l-.2-.06C185,108.33,184.77,108.28,184.54,108.24Z"/><path class="cls-68" d="M204.84,137.9c-.7-9.47-6.47-20.41-13.41-26.09a21.36,21.36,0,0,0-2.65-1.87,14.8,14.8,0,0,0-2.59-1.24,9.44,9.44,0,0,0-3.28-.63c-4.86,0-7.9,4.63-7.32,12.45.7,9.52,6.54,20.54,13.55,26.19a21.17,21.17,0,0,0,2.5,1.77,16.26,16.26,0,0,0,2.47,1.19,9.58,9.58,0,0,0,3.41.67C202.38,150.34,205.42,145.72,204.84,137.9Zm-10.08,4.45a6.18,6.18,0,0,1-2.13-.42,10.63,10.63,0,0,1-1.53-.74,16.52,16.52,0,0,1-1.56-1.1,25.33,25.33,0,0,1-8.42-16.29c-.36-4.86,1.53-7.73,4.55-7.73a5.78,5.78,0,0,1,2,.39,8.69,8.69,0,0,1,1.61.77,13.38,13.38,0,0,1,1.65,1.16,25.29,25.29,0,0,1,8.33,16.22C199.67,139.47,197.78,142.35,194.76,142.35Z"/><polygon class="cls-68" points="187.58 98.95 193.6 94.74 192.43 89.18 186.41 93.39 187.58 98.95"/><polygon class="cls-68" points="184.44 86.53 189.03 88.05 192.43 89.18 186.41 93.39 183 92.25 178.42 90.73 184.44 86.53"/><polygon class="cls-57" points="214.28 131.72 220.3 127.52 216.52 126.26 210.49 130.47 214.28 131.72"/><polygon class="cls-68" points="216.74 143.46 222.77 139.25 220.3 127.52 214.28 131.72 216.74 143.46"/><path class="cls-57" d="M190.12,100.58c-.39-.28-.78-.54-1.17-.8l-.38-.23q-.49-.31-1-.6l6-4.21L194,95l.57.35.38.24c.39.25.79.51,1.18.79s.79.58,1.19.89l.16.12.11.09,1.12.91,1,.88.29.27.74.7.27.26c.32.31.63.63.94,1l0,0c.37.37.73.76,1.09,1.16l-6,4.21q-.54-.6-1.08-1.17l-1-1-.28-.27c-.24-.23-.49-.47-.74-.69l-.29-.27c-.33-.3-.66-.6-1-.88s-.82-.68-1.23-1l-.16-.12C190.92,101.16,190.52,100.86,190.12,100.58Z"/><path class="cls-57" d="M210.46,112.79l-6,4.2a67.84,67.84,0,0,1,6.06,13.48l6-4.21A68.91,68.91,0,0,0,210.46,112.79Z"/><polygon class="cls-57" points="204.43 116.99 210.46 112.79 212.31 109.75 206.28 113.96 204.43 116.99"/><path class="cls-4" d="M213,142.21l3.78,1.25-2.46-11.74-3.79-1.25A67.84,67.84,0,0,0,204.43,117l1.85-3-7.39-10.17-1.85,3a46.77,46.77,0,0,0-4.34-4.25c-.85-.72-1.71-1.4-2.58-2s-1.69-1.14-2.54-1.63l-1.17-5.56L183,92.26l-4.58-1.53,1.17,5.57-.79,0c-.34,0-.67,0-1,0a9.73,9.73,0,0,0-5.54,2.31l-3.5-4.82-3.91,6.42,3.5,4.82a29.69,29.69,0,0,0-.89,11.17L163.69,115l2.46,11.72,3.78,1.26A68.45,68.45,0,0,0,176,141.42l-1.85,3,7.38,10.17,1.85-3a43.78,43.78,0,0,0,6.92,6.26c.84.59,1.69,1.14,2.55,1.63L194,165l8,2.64-1.17-5.56.81,0a9.69,9.69,0,0,0,6.52-2.35l3.5,4.82,3.91-6.42-3.5-4.81A29.71,29.71,0,0,0,213,142.21Zm-14.12,11.92a11.19,11.19,0,0,1-3.53-.62,17.56,17.56,0,0,1-3.47-1.61c-.52-.31-1-.66-1.56-1-7.68-5.46-14.36-16.37-16.62-27.15s.61-18.65,6.94-19.38a6.84,6.84,0,0,1,.91-.06,8.06,8.06,0,0,1,.85,0,11.67,11.67,0,0,1,2.75.58,19,19,0,0,1,5,2.64c7.68,5.46,14.35,16.38,16.62,27.16C209.2,146.26,205.71,154.13,198.84,154.13Z"/><polygon class="cls-68" points="206.28 113.96 212.31 109.75 204.92 99.58 198.9 103.79 206.28 113.96"/><polygon class="cls-69" points="191.13 91.74 197.16 87.53 189.4 82.9 183.37 87.11 191.13 91.74"/><polygon class="cls-70" points="192.7 102.59 198.73 98.38 197.95 87.9 191.93 92.11 192.7 102.59"/><path class="cls-71" d="M197.63,87.77a4.11,4.11,0,0,1-.42-.21l-.05,0-6,4.21h0l0,0,.42.22,0,0a2,2,0,0,0,.29.1l6-4.2Z"/><path class="cls-72" d="M191.13,91.74l-7.76-4.64a5.81,5.81,0,0,1-.79-.57l.42,5.73,3.41,1.13L187.58,99c.85.49,1.7,1,2.54,1.63s1.73,1.29,2.58,2l-.77-10.49A4,4,0,0,1,191.13,91.74Z"/><path class="cls-73" d="M192.84,67.3l0-.13c-.05-.19-.1-.38-.16-.57a.56.56,0,0,0,0-.12l-.15-.46a1.22,1.22,0,0,0-.07-.17c-.06-.17-.14-.35-.21-.52,0,0,0,0,0,0-.08-.18-.17-.37-.27-.55a.64.64,0,0,0-.08-.14c-.07-.14-.15-.28-.23-.42l-.08-.13c-.1-.17-.21-.34-.32-.5l-.05-.07c-.13-.18-.25-.35-.38-.51l-.07-.09c-.14-.17-.28-.33-.43-.48l-.09-.1a6.17,6.17,0,0,0-.46-.43l-.33-.27-.1-.07a2.92,2.92,0,0,0-.37-.24l6-4.21c.12.07.24.16.36.24l.1.08a.94.94,0,0,1,.12.09l.22.17c.15.13.3.28.45.43l0,.06.05,0c.14.15.28.32.42.49l.07.09c.13.16.26.32.38.5l0,0v0c.12.17.22.33.33.5s.05.09.07.13l.24.42a1.09,1.09,0,0,0,.08.15c.09.18.18.36.26.54l0,0c.08.18.15.35.22.53l.06.16c.06.15.11.3.16.46l0,.12q.09.28.15.57l0,.13a3.58,3.58,0,0,1,.09.45l0,.16a5.62,5.62,0,0,1,.06.56l1.52,20.56a3.15,3.15,0,0,1-.93,2.91l-6,4.21a3.13,3.13,0,0,0,.93-2.91L193,68.47c0-.18,0-.37-.07-.56a.88.88,0,0,0,0-.16Z"/><path class="cls-74" d="M181.42,35c-1.55,0-2.52,1.48-2.34,4l1.27,17.31a3.67,3.67,0,0,1,.79.36l7.76,4.64a5.41,5.41,0,0,1,.8.58l-1.28-17.34c-.25-3.4-2.55-7.4-5.12-8.93A3.73,3.73,0,0,0,181.42,35Z"/><path class="cls-58" d="M182.33,35.16l-.07,0a2,2,0,0,0-.33-.08l-.12,0a2.87,2.87,0,0,0-.39,0h-.11a1.12,1.12,0,0,0-.27,0l-.13,0-.21.07a.76.76,0,0,0-.16.06l-.07,0-.24.14L186.57,31c.75-.48,2.18.12,2.21.13l.09.05a4.78,4.78,0,0,1,.45.23h0c.14.08.29.18.43.28l.13.1.17.13.11.09.22.19.24.21.22.21.11.12.08.09q.24.26.48.54l.06.08a7.09,7.09,0,0,1,.51.68.18.18,0,0,1,0,.07.71.71,0,0,1,.1.14l.27.43.15.24c.09.15.18.3.26.46l.13.23c.1.2.2.4.29.61l0,.09c.11.24.21.48.3.73l.08.21.18.52c0,.09.05.18.08.27s.09.32.13.48l.06.27c0,.16.07.33.1.5a1.57,1.57,0,0,1,0,.23q.06.36.09.72l1.28,17.34-6,4.21-1.28-17.34a5.87,5.87,0,0,0-.08-.72c0-.08,0-.16,0-.23s-.06-.34-.1-.51a2.68,2.68,0,0,0-.07-.27c0-.16-.08-.32-.13-.48a2.58,2.58,0,0,0-.08-.26,4.56,4.56,0,0,0-.18-.52,2,2,0,0,0-.08-.22q-.14-.36-.3-.72l0-.09-.3-.61-.12-.23-.26-.46-.15-.24c-.09-.15-.18-.29-.28-.43l-.14-.22c-.17-.23-.34-.46-.51-.67l-.06-.08c-.16-.19-.32-.37-.49-.55l-.19-.2-.22-.21-.23-.21-.23-.19a1.93,1.93,0,0,0-.28-.22l-.13-.1-.43-.29-.45-.24-.1,0A3.61,3.61,0,0,0,182.33,35.16Z"/><path class="cls-75" d="M199.3,134.61A25.29,25.29,0,0,0,191,118.39a14.08,14.08,0,0,0-1.64-1.16,9.53,9.53,0,0,0-1.62-.78,6,6,0,0,0-2-.38c-3,0-4.91,2.87-4.55,7.74a25.35,25.35,0,0,0,8.42,16.28,14.87,14.87,0,0,0,1.56,1.1,11.8,11.8,0,0,0,1.53.74,6.18,6.18,0,0,0,2.13.42C197.78,142.35,199.66,139.47,199.3,134.61Z"/><path class="cls-76" d="M182.86,80c-.36,0-.59.34-.55.93a3,3,0,0,0,1.2,2.09l6.83,4.07a.83.83,0,0,0,.44.14c.36,0,.59-.34.55-.92a3,3,0,0,0-1.2-2.09l-6.83-4.08A.93.93,0,0,0,182.86,80Z"/><path class="cls-76" d="M182.18,70.61c-.36,0-.59.35-.55.93a3,3,0,0,0,1.2,2.09l6.83,4.07a.83.83,0,0,0,.44.14c.36,0,.59-.34.55-.92a2.94,2.94,0,0,0-1.2-2.09l-6.83-4.08A.93.93,0,0,0,182.18,70.61Z"/><path class="cls-76" d="M181.5,61.23c-.36,0-.59.35-.54.93a2.88,2.88,0,0,0,1.19,2.08L189,68.32a.83.83,0,0,0,.44.14c.36,0,.59-.34.55-.92a2.94,2.94,0,0,0-1.2-2.09l-6.83-4.08A.93.93,0,0,0,181.5,61.23Z"/><path class="cls-57" d="M194.53,89,193,68.47a10.55,10.55,0,0,0-3.32-6.6,5.41,5.41,0,0,0-.8-.58l-7.76-4.64a3.67,3.67,0,0,0-.79-.36,2.42,2.42,0,0,0-.73-.12c-1.24,0-2,1.19-1.88,3.19l1.52,20.56a10.5,10.5,0,0,0,3.32,6.61,5.81,5.81,0,0,0,.79.57l7.76,4.64a4,4,0,0,0,.8.36,2.15,2.15,0,0,0,.72.13C193.9,92.23,194.68,91,194.53,89Zm-13-27.8a.93.93,0,0,1,.44.14l6.83,4.08a2.94,2.94,0,0,1,1.2,2.09c0,.58-.19.92-.55.92a.83.83,0,0,1-.44-.14l-6.83-4.08A2.88,2.88,0,0,1,181,62.16C180.91,61.58,181.14,61.23,181.5,61.23Zm.13,10.31c0-.58.19-.93.55-.93a.93.93,0,0,1,.44.14l6.83,4.08a2.94,2.94,0,0,1,1.2,2.09c0,.58-.19.92-.55.92a.83.83,0,0,1-.44-.14l-6.83-4.07A3,3,0,0,1,181.63,71.54Zm9.15,15.68a.83.83,0,0,1-.44-.14L183.51,83a3,3,0,0,1-1.2-2.09c0-.59.19-.93.55-.93a.93.93,0,0,1,.44.14l6.83,4.08a3,3,0,0,1,1.2,2.09C191.37,86.88,191.14,87.22,190.78,87.22Z"/></g><g class="cls-3"><path class="cls-4" d="M226.68,222a7.54,7.54,0,0,0,3.72-.92,3.37,3.37,0,0,0,0-6.18L222,210,213,215.28l10,5.81A7.51,7.51,0,0,0,226.68,222Z"/><path class="cls-77" d="M222,210.09l-9,5.19,9.93,5.77a8,8,0,0,0,7.4,0,3.53,3.53,0,0,0,2-3.1,3.65,3.65,0,0,0-2-3Z"/><path class="cls-7" d="M222,210.14l-8.9,5.14L223,221a8,8,0,0,0,7.35,0,3.35,3.35,0,0,0,1.91-3.11,3.66,3.66,0,0,0-2-3Z"/><path class="cls-9" d="M222,210.2l-8.8,5.08L223,221a7.93,7.93,0,0,0,7.3,0,3.24,3.24,0,0,0,1.85-3.12,3.7,3.7,0,0,0-2-2.93Z"/><path class="cls-78" d="M222,210.25l-8.7,5,9.71,5.64a7.29,7.29,0,0,0,3.63.9,7.45,7.45,0,0,0,3.63-.89,3.14,3.14,0,0,0,1.79-3.13,3.77,3.77,0,0,0-2-2.88Z"/><path class="cls-12" d="M222,210.31l-8.61,5,9.65,5.6a7.73,7.73,0,0,0,7.2,0,3,3,0,0,0,1.73-3.13,3.74,3.74,0,0,0-2-2.82Z"/><path class="cls-13" d="M222,210.36l-8.51,4.92,9.57,5.56a7.72,7.72,0,0,0,7.16,0,2.89,2.89,0,0,0,1.67-3.14,3.82,3.82,0,0,0-2-2.77Z"/><path class="cls-15" d="M222,210.42l-8.42,4.86,9.51,5.52a7.68,7.68,0,0,0,7.1,0,2.79,2.79,0,0,0,1.62-3.15,3.86,3.86,0,0,0-2-2.71Z"/><path class="cls-16" d="M222,210.47l-8.32,4.81,9.43,5.48a7.67,7.67,0,0,0,7.06,0,2.7,2.7,0,0,0,1.55-3.16c0-.93-1.06-2.09-2-2.66Z"/><path class="cls-79" d="M222,210.53l-8.23,4.75,9.36,5.44a7.59,7.59,0,0,0,7,0,2.62,2.62,0,0,0,1.49-3.17c0-.9-1.1-2.06-2-2.6Z"/><path class="cls-80" d="M222,210.59l-8.13,4.69,9.29,5.4a7.55,7.55,0,0,0,7,0c1.38-.8,1.91-2,1.44-3.18,0-.86-1.15-2-2-2.55Z"/><path class="cls-81" d="M222,210.64l-8,4.64,9.21,5.35a7.51,7.51,0,0,0,6.92,0c1.39-.81,1.89-2.06,1.38-3.19,0-.83-1.19-2-2.06-2.49Z"/><path class="cls-82" d="M222,210.7l-7.94,4.58,9.15,5.31a7.42,7.42,0,0,0,6.86,0c1.4-.8,1.89-2.07,1.32-3.19,0-.79-1.23-2-2.05-2.44Z"/><path class="cls-83" d="M222,210.75l-7.84,4.53,9.07,5.27a7.42,7.42,0,0,0,6.82,0c1.41-.81,1.87-2.09,1.26-3.2,0-.75-1.27-1.93-2.06-2.38Z"/><path class="cls-84" d="M222,210.81l-7.75,4.47,9,5.23a7.34,7.34,0,0,0,6.78,0c1.42-.82,1.85-2.1,1.2-3.21,0-.72-1.32-1.89-2.07-2.33Z"/><path class="cls-85" d="M222,210.86l-7.65,4.42,8.93,5.19a7.29,7.29,0,0,0,6.72,0c1.43-.83,1.85-2.12,1.14-3.22,0-.68-1.35-1.86-2.07-2.27Z"/><path class="cls-86" d="M222,210.92l-7.56,4.36,8.86,5.15a7.29,7.29,0,0,0,6.68,0c1.44-.83,1.83-2.14,1.08-3.23,0-.64-1.4-1.83-2.07-2.22Z"/><path class="cls-30" d="M222,211l-7.46,4.31,8.79,5.11a7.25,7.25,0,0,0,6.62,0c1.45-.84,1.83-2.16,1-3.24,0-.61-1.44-1.79-2.08-2.16Z"/><path class="cls-87" d="M222,211l-7.37,4.25,8.72,5.06a6.6,6.6,0,0,0,3.29.8,6.76,6.76,0,0,0,3.29-.79c1.46-.85,1.81-2.18,1-3.24,0-.58-1.48-1.77-2.08-2.12Z"/><path class="cls-88" d="M222,211.08l-7.27,4.2,8.64,5a7.08,7.08,0,0,0,6.54,0c1.46-.84,1.79-2.18.9-3.24,0-.54-1.52-1.74-2.08-2.06Z"/><path class="cls-89" d="M222,211.14l-7.17,4.14,8.57,5a7,7,0,0,0,6.48,0c1.48-.85,1.79-2.2.85-3.25,0-.51-1.57-1.7-2.09-2Z"/><path class="cls-90" d="M222,211.19,215,215.28l8.5,4.94a7,7,0,0,0,6.44,0c1.48-.86,1.77-2.22.79-3.26,0-.47-1.61-1.67-2.1-2Z"/><path class="cls-91" d="M222,211.25l-7,4,8.43,4.9a7,7,0,0,0,6.38,0c1.5-.86,1.77-2.24.73-3.27,0-.43-1.65-1.64-2.1-1.9Z"/><path class="cls-92" d="M222,211.31l-6.89,4,8.36,4.86a7,7,0,0,0,6.34,0c1.51-.87,1.75-2.26.67-3.28,0-.4-1.69-1.61-2.1-1.85Z"/><path class="cls-93" d="M222,211.36l-6.79,3.92,8.28,4.82a6.91,6.91,0,0,0,6.3,0c1.51-.88,1.73-2.27.61-3.29,0-.36-1.74-1.57-2.11-1.79Z"/><path class="cls-94" d="M222,211.42l-6.7,3.86,8.22,4.77a6.78,6.78,0,0,0,6.24,0c1.53-.88,1.73-2.28.55-3.29,0-.32-1.77-1.54-2.11-1.74Z"/><path class="cls-45" d="M222,211.47l-6.6,3.81,8.14,4.73a6.78,6.78,0,0,0,6.2,0c1.53-.88,1.71-2.3.49-3.3,0-.29-1.82-1.51-2.12-1.68Z"/><path class="cls-46" d="M222,211.53l-6.5,3.75,8.07,4.69a6.74,6.74,0,0,0,6.14,0c1.55-.89,1.71-2.32.44-3.31,0-.25-1.86-1.47-2.12-1.63Z"/><path class="cls-48" d="M222,211.58l-6.41,3.7,8,4.65a6.29,6.29,0,0,0,3.05.74,6.18,6.18,0,0,0,3-.74c1.55-.9,1.69-2.34.37-3.32A11.55,11.55,0,0,0,228,215Z"/><path class="cls-49" d="M222,211.64l-6.31,3.64,7.93,4.61a6.16,6.16,0,0,0,3,.73,6.23,6.23,0,0,0,3-.73c1.56-.9,1.67-2.36.31-3.33a13.66,13.66,0,0,0-2.13-1.52Z"/><path class="cls-95" d="M222,211.69l-6.21,3.59,7.86,4.57a6.61,6.61,0,0,0,6,0c1.57-.91,1.67-2.37.26-3.34a16.57,16.57,0,0,0-2.13-1.46Z"/><path class="cls-52" d="M222,211.75l-6.11,3.53,7.78,4.53a6.61,6.61,0,0,0,6,0c1.58-.92,1.65-2.39.19-3.35a25.37,25.37,0,0,0-2.13-1.41Z"/><path class="cls-54" d="M222,211.8l-6,3.48,7.72,4.48a6.48,6.48,0,0,0,5.9,0c1.59-.91,1.65-2.4.14-3.35,0-.07-2.06-1.31-2.14-1.35Z"/><path class="cls-96" d="M222,211.86l-5.92,3.42,7.64,4.44a6.4,6.4,0,0,0,5.86,0c1.6-.92,1.63-2.42.08-3.36,0,0-2.11-1.28-2.15-1.3Z"/><path class="cls-57" d="M216.2,215.28l7.58,4.4a6.4,6.4,0,0,0,5.81,0c1.61-.93,1.61-2.44,0-3.37l-7.58-4.4Z"/></g><g class="cls-3"><path class="cls-4" d="M221.11,217.84a5.8,5.8,0,0,0,2.88-.71,2.62,2.62,0,0,0,0-4.79l-6.49-3.77-7,4.06,7.74,4.5A5.8,5.8,0,0,0,221.11,217.84Z"/><path class="cls-77" d="M217.52,208.61l-7,4,7.69,4.47a6.19,6.19,0,0,0,5.72,0,2.71,2.71,0,0,0,1.53-2.4,2.82,2.82,0,0,0-1.56-2.35Z"/><path class="cls-7" d="M217.52,208.66l-6.88,4,7.63,4.44a5.77,5.77,0,0,0,2.84.69,5.83,5.83,0,0,0,2.85-.69,2.61,2.61,0,0,0,1.47-2.41,2.86,2.86,0,0,0-1.55-2.31Z"/><path class="cls-9" d="M217.52,208.7l-6.81,3.93,7.58,4.4a5.67,5.67,0,0,0,2.82.7,5.73,5.73,0,0,0,2.83-.7,2.5,2.5,0,0,0,1.43-2.41,2.89,2.89,0,0,0-1.56-2.27Z"/><path class="cls-78" d="M217.52,208.74l-6.74,3.89,7.53,4.37a5.59,5.59,0,0,0,2.8.69,5.65,5.65,0,0,0,2.81-.69,2.4,2.4,0,0,0,1.38-2.42,2.86,2.86,0,0,0-1.56-2.22Z"/><path class="cls-12" d="M217.52,208.79l-6.66,3.84,7.46,4.34a6.06,6.06,0,0,0,5.58,0,2.33,2.33,0,0,0,1.34-2.43,2.94,2.94,0,0,0-1.57-2.18Z"/><path class="cls-13" d="M217.52,208.83l-6.59,3.8,7.41,4.31a6,6,0,0,0,5.54,0,2.26,2.26,0,0,0,1.3-2.44,2.94,2.94,0,0,0-1.58-2.13Z"/><path class="cls-15" d="M217.52,208.87,211,212.63l7.35,4.27a5.52,5.52,0,0,0,2.75.68,5.62,5.62,0,0,0,2.75-.67,2.16,2.16,0,0,0,1.25-2.44,3,3,0,0,0-1.57-2.1Z"/><path class="cls-16" d="M217.52,208.91l-6.44,3.72,7.3,4.24a5.9,5.9,0,0,0,5.46,0,2.09,2.09,0,0,0,1.21-2.44,3,3,0,0,0-1.58-2.06Z"/><path class="cls-79" d="M217.52,209l-6.37,3.67,7.25,4.21a5.5,5.5,0,0,0,2.71.67,5.56,5.56,0,0,0,2.72-.67,2,2,0,0,0,1.15-2.45c0-.7-.85-1.59-1.58-2Z"/><path class="cls-80" d="M217.52,209l-6.29,3.63,7.19,4.18a5.83,5.83,0,0,0,5.39,0,2,2,0,0,0,1.11-2.46c0-.67-.89-1.57-1.59-2Z"/><path class="cls-81" d="M217.52,209l-6.22,3.59,7.14,4.15a5.44,5.44,0,0,0,2.67.65,5.51,5.51,0,0,0,2.68-.65,1.92,1.92,0,0,0,1.06-2.47c0-.64-.92-1.54-1.58-1.93Z"/><path class="cls-82" d="M217.52,209.09l-6.14,3.54,7.07,4.11a5.32,5.32,0,0,0,2.66.65,5.42,5.42,0,0,0,2.66-.64,1.87,1.87,0,0,0,1-2.48c0-.61-.95-1.51-1.59-1.88Z"/><path class="cls-83" d="M217.52,209.13l-6.07,3.5,7,4.08a5.69,5.69,0,0,0,5.28,0,1.81,1.81,0,0,0,1-2.47c0-.59-1-1.49-1.6-1.85Z"/><path class="cls-84" d="M217.52,209.17l-6,3.46,7,4.05a5.68,5.68,0,0,0,5.24,0,1.76,1.76,0,0,0,.93-2.48c0-.56-1-1.47-1.6-1.81Z"/><path class="cls-85" d="M217.52,209.21l-5.92,3.42,6.91,4a5.68,5.68,0,0,0,5.2,0c1.11-.64,1.43-1.64.89-2.49,0-.53-1-1.44-1.6-1.76Z"/><path class="cls-86" d="M217.52,209.26l-5.85,3.37,6.86,4a5.24,5.24,0,0,0,2.58.63,5.31,5.31,0,0,0,2.59-.63c1.11-.65,1.41-1.66.83-2.5,0-.5-1.08-1.41-1.6-1.72Z"/><path class="cls-30" d="M217.52,209.3l-5.77,3.33,6.8,4a5.16,5.16,0,0,0,2.56.63,5.34,5.34,0,0,0,2.57-.62c1.12-.65,1.41-1.67.79-2.51,0-.47-1.11-1.39-1.61-1.67Z"/><path class="cls-87" d="M217.52,209.34l-5.7,3.29,6.75,3.92a5.08,5.08,0,0,0,2.54.62,5.15,5.15,0,0,0,2.55-.62c1.13-.65,1.4-1.68.74-2.5,0-.45-1.14-1.37-1.61-1.64Z"/><path class="cls-88" d="M217.52,209.39l-5.63,3.24,6.69,3.89a5.55,5.55,0,0,0,5.06,0c1.14-.66,1.39-1.69.7-2.51,0-.42-1.18-1.34-1.61-1.6Z"/><path class="cls-89" d="M217.52,209.43l-5.55,3.2,6.63,3.86a5.47,5.47,0,0,0,5,0c1.14-.66,1.38-1.71.66-2.52,0-.39-1.21-1.32-1.62-1.55Z"/><path class="cls-90" d="M217.52,209.47,212,212.63l6.58,3.83a5.47,5.47,0,0,0,5,0c1.15-.67,1.38-1.72.61-2.53,0-.36-1.24-1.29-1.62-1.51Z"/><path class="cls-91" d="M217.52,209.51l-5.4,3.12,6.52,3.79a5.38,5.38,0,0,0,4.94,0c1.16-.66,1.37-1.73.57-2.53,0-.33-1.28-1.26-1.63-1.47Z"/><path class="cls-92" d="M217.52,209.56l-5.33,3.07,6.47,3.76a5,5,0,0,0,2.45.6,5,5,0,0,0,2.46-.6c1.16-.67,1.35-1.74.51-2.54,0-.3-1.3-1.24-1.62-1.42Z"/><path class="cls-93" d="M217.52,209.6l-5.26,3,6.42,3.73a5.32,5.32,0,0,0,4.87,0c1.17-.68,1.34-1.76.47-2.54,0-.28-1.34-1.22-1.63-1.39Z"/><path class="cls-94" d="M217.52,209.64l-5.18,3,6.36,3.7a4.94,4.94,0,0,0,2.41.58,5,5,0,0,0,2.42-.58c1.18-.68,1.33-1.77.42-2.55,0-.25-1.37-1.19-1.63-1.35Z"/><path class="cls-45" d="M217.52,209.69l-5.11,2.94,6.31,3.67a4.86,4.86,0,0,0,2.39.57,4.92,4.92,0,0,0,2.4-.57c1.19-.69,1.33-1.79.38-2.56,0-.22-1.4-1.17-1.64-1.3Z"/><path class="cls-46" d="M217.52,209.73l-5,2.9,6.24,3.63a5.17,5.17,0,0,0,4.76,0c1.2-.69,1.32-1.79.34-2.56,0-.19-1.44-1.14-1.64-1.26Z"/><path class="cls-48" d="M217.52,209.77l-5,2.86,6.19,3.6a5.17,5.17,0,0,0,4.72,0c1.2-.69,1.31-1.81.29-2.57a9.29,9.29,0,0,0-1.64-1.21Z"/><path class="cls-49" d="M217.52,209.81l-4.89,2.82,6.14,3.57a5.17,5.17,0,0,0,4.68,0c1.21-.7,1.3-1.82.25-2.57a10.1,10.1,0,0,0-1.65-1.18Z"/><path class="cls-95" d="M217.52,209.86l-4.81,2.77,6.08,3.54a4.74,4.74,0,0,0,2.32.56,4.81,4.81,0,0,0,2.33-.56c1.21-.71,1.29-1.84.19-2.58a13.27,13.27,0,0,0-1.65-1.14Z"/><path class="cls-52" d="M217.52,209.9l-4.74,2.73,6,3.51a4.74,4.74,0,0,0,2.3.55,4.81,4.81,0,0,0,2.31-.55c1.22-.71,1.28-1.85.15-2.59a18.86,18.86,0,0,0-1.65-1.09Z"/><path class="cls-54" d="M217.52,209.94l-4.66,2.69,6,3.47a5,5,0,0,0,4.57,0c1.23-.71,1.27-1.86.11-2.59,0-.06-1.6-1-1.66-1Z"/><path class="cls-96" d="M217.52,210l-4.59,2.64,5.92,3.44a4.61,4.61,0,0,0,2.26.55,4.68,4.68,0,0,0,2.27-.55c1.24-.71,1.26-1.87.06-2.6,0,0-1.63-1-1.66-1Z"/><path class="cls-57" d="M213,212.63l5.86,3.41a5,5,0,0,0,4.5,0,1.38,1.38,0,0,0,0-2.61l-5.86-3.4Z"/></g><g class="cls-1"><polygon class="cls-97" points="213.04 210.1 213.04 211.75 217.31 214.22 217.3 212.58 213.04 210.1"/><polygon class="cls-97" points="217.3 212.58 217.31 214.22 221.16 212 221.16 210.35 217.3 212.58"/><polygon class="cls-57" points="213.04 210.1 217.3 212.58 221.16 210.35 216.9 207.87 213.04 210.1"/></g><polygon class="cls-97" points="216.98 208.43 216.21 208.88 216.98 209.32 217.75 208.88 216.98 208.43"/><polygon class="cls-97" points="214.12 210.09 214.89 210.53 215.66 210.09 214.89 209.64 214.12 210.09"/><g class="cls-1"><path class="cls-70" d="M223.78,217.16a6.4,6.4,0,0,0,5.81,0,2.06,2.06,0,0,0,1.21-1.7V218a2.06,2.06,0,0,1-1.21,1.7,6.4,6.4,0,0,1-5.81,0l-7.57-4.4,0-2.55Z"/><path class="cls-68" d="M216.2,212.76l7.58,4.4a6.4,6.4,0,0,0,5.81,0c1.61-.93,1.61-2.44,0-3.37l-7.58-4.4Z"/></g><path class="cls-70" d="M228.44,214.75a2.5,2.5,0,0,0-2.26,0c-.63.37-.63.95,0,1.31a2.5,2.5,0,0,0,2.26,0A.69.69,0,0,0,228.44,214.75Z"/><g class="cls-3"><path class="cls-68" d="M105.08,157.55c-.4-.15-.93.1-1.5.71a8.91,8.91,0,0,0-1.65,2.93,9.1,9.1,0,0,0-.58,3.38c.05.89.3,1.46.72,1.61s.92-.09,1.47-.68l0,0a8.66,8.66,0,0,0,1.65-2.93,9.13,9.13,0,0,0,.59-3.38.92.92,0,0,1,0-.16C105.73,158.2,105.47,157.69,105.08,157.55Z"/></g><g class="cls-3"><path class="cls-68" d="M91.58,148.81a8.59,8.59,0,0,0-3.35.22,9.22,9.22,0,0,0-3.16,1.37c-.71.52-1,1-.94,1.48s.57.72,1.36.86h.05a8.87,8.87,0,0,0,3.36-.23,9.05,9.05,0,0,0,3.15-1.36l.12-.1c.63-.49.92-1,.82-1.39S92.39,149,91.58,148.81Z"/></g><path class="cls-98" d="M85.19,128.65a.22.22,0,0,0,.41.12,11.67,11.67,0,0,0,.61-1.84c.33-.77.74-1.34,1.06-2.08a3,3,0,0,1-.86-.21C85.63,125.39,85.19,128.14,85.19,128.65Z"/><path class="cls-98" d="M85.85,127.92a.16.16,0,0,0,.3.1,11.56,11.56,0,0,0,.61-1.83c.33-.77.75-1.35,1.06-2.08a3.33,3.33,0,0,1-.85-.22C86.19,124.65,86,127.42,85.85,127.92Z"/><path class="cls-98" d="M86.29,127.54a.15.15,0,0,0,.28.1,11.18,11.18,0,0,0,.57-1.72c.31-.72.7-1.26,1-2a3.35,3.35,0,0,1-.8-.2C86.6,124.48,86.4,127.08,86.29,127.54Z"/><path class="cls-98" d="M85.82,123.41c-.06.27-.13.55-.2.84s-.17.66-.23,1c0,.16-.57,2.9-.12,3,.2,0,.24-.4.28-.56.13-.56.42-2.77.55-2.41.05.14-.32,1.4.06,1.49.12,0,.3-.52.4-.66a2.27,2.27,0,0,0,.47-1.88A3,3,0,0,1,85.82,123.41Z"/><path class="cls-4" d="M105.07,158.29l-2.93-.13a17.45,17.45,0,0,1-.26,1.9c-.24,1.05-.77,2.66-.9,3.18-.21.87.31,1.32,1.18,1.52a3,3,0,0,0,2.75-1.72c.16-.64.93-3,.18-3.72Z"/><path class="cls-99" d="M102.14,158.16s-.07.85-.18,1.48c.1.15.47-.06,1.06,0,.74.11,1.47.48,1.73.24a2.24,2.24,0,0,0,.34-.58c0-.61,0-1,0-1Z"/><path class="cls-4" d="M89.31,146.91a12.26,12.26,0,0,1-.92,1c-.79.77-4.13,1.95-4.13,3.05,0,.55,1.37,1,2.49,1.09a3.4,3.4,0,0,0,2.41-.94c.49-.43,2.24-.7,2.49-1a1.32,1.32,0,0,0,.09-1.28c.12-.61.24-1.2.24-1.2Z"/><path class="cls-99" d="M88.39,147.94A3.67,3.67,0,0,0,89.76,149a4.61,4.61,0,0,0,2-.2c.12-.61.24-1.2.24-1.2l-2.74-.81A4.89,4.89,0,0,1,88.39,147.94Z"/><path class="cls-4" d="M85.28,123.86a6.73,6.73,0,0,1,2.32,1.57,48.75,48.75,0,0,0,4.11-6.31l-3.21-1.18C87.49,119.87,86.27,122.17,85.28,123.86Z"/><path class="cls-100" d="M85.77,122.69a5.22,5.22,0,0,1,2.63,2.1c1.72-2,8.63-17,8.76-17.32-.8-.13-2.48-1.89-2.55-1.89C92,105.58,87.31,119.94,85.77,122.69Z"/><path class="cls-98" d="M124.83,108.3a5.63,5.63,0,0,1-1.41,1c.61-.17.66.22,1.33.12.24-.11.91-1.07.73-1.27S125.05,108.08,124.83,108.3Z"/><path class="cls-98" d="M129.12,108.8a9.88,9.88,0,0,0-1.54,0c-.13,0-1.9.06-2.69.18a13.19,13.19,0,0,0-1.93.4.38.38,0,0,0-.1,0l-.37.12-.34.12a5.42,5.42,0,0,1,.39.52,5.68,5.68,0,0,1,.93,2c1.11-.14,4-.81,4-.81,1.39,0,1.71-.47,1.44-.76-.07-.07.85-.39.66-.72a.88.88,0,0,0,.16-.48S129.3,108.85,129.12,108.8Z"/><path class="cls-4" d="M120.38,108.85v4.08a33.21,33.21,0,0,0,4.43-.79,6.49,6.49,0,0,1-1-3.4C122.71,108.83,121.56,108.84,120.38,108.85Z"/><path class="cls-101" d="M95.17,106a57.21,57.21,0,0,0-1.52,5.86c-.07.85-.62,3.08-.63,4l4.44,2.89c.64-.9,4.31-10.88,4.55-11.23C101.66,107.69,95.17,106,95.17,106Z"/><path class="cls-102" d="M92.17,124.31c-.11.64-3.61,23.05-3.61,23.06,1.09,1.46,3.74,1.12,3.74,1.12s5.5-16.59,5.5-22.74C97.7,125.25,92.47,124.55,92.17,124.31Z"/><path class="cls-102" d="M97.15,129c.06.59,4.24,29.15,4.29,29.22,2,1.81,4.81.47,4.87.41s-2.21-27.83-2.34-29.2C103,130,97.77,129.46,97.15,129Z"/><path class="cls-100" d="M94.43,105.94c.23-.19,1.24-.39,1.46-.54-3-.62-3.91,5.75-3.91,7.28,0,3.22-.51,14-.51,14a2.64,2.64,0,0,0,1.2.9l1.66-2.68s.07-1.43.28-3.57c.08-1,.19-2,.27-2.95,0-.34.13-1.33.13-1.33s-.68-1.12-.86-1.6a.88.88,0,0,1-.05-.15,17.64,17.64,0,0,1-.86-2.73,13.31,13.31,0,0,1-.37-3,7.69,7.69,0,0,1,.25-1.73l1.2-.5c.13-.2-.32-.79-.29-1A1.19,1.19,0,0,1,94.43,105.94Z"/><path class="cls-100" d="M102.37,106.56h0l-.52-.21-.09,0c-.16-.06-3.77,6.19-4.5,6.62a3.89,3.89,0,0,0-1.13.94,5.1,5.1,0,0,0-1,2.25.53.53,0,0,0,0,.11c-.11.5-.5,2-.76,3.22a13.37,13.37,0,0,0-.27,1.46,32,32,0,0,0-.07,4l1.35,3.33c3.69,2.18,8.88,1.47,8.88,1.47a97.31,97.31,0,0,1,1.35-20.79C105.75,108.07,103.87,107.19,102.37,106.56Z"/><path class="cls-100" d="M121.94,108.7c-3.14.28-16.37-.65-17.92-1.27a47.24,47.24,0,0,1-.15,6,102.74,102.74,0,0,0,19.18-.73,10.71,10.71,0,0,1-.69-1.52A8.08,8.08,0,0,1,121.94,108.7Z"/><path class="cls-4" d="M95.17,105.39c-.23.16-.51.36-.74.55a1.19,1.19,0,0,0-.4.52c0,.16.42.75.29,1l-1.2.5a7.69,7.69,0,0,0-.25,1.73,13.31,13.31,0,0,0,.37,3,17.64,17.64,0,0,0,.86,2.73.88.88,0,0,0,.05.15,7.58,7.58,0,0,0,.8,1.47c-.17-.41-.46-.94-.6-1.4a6.21,6.21,0,0,1-.24-.89,17.39,17.39,0,0,1-.08-3.06,2.46,2.46,0,0,1,0-.28,15.15,15.15,0,0,1,.63-3.47,4.21,4.21,0,0,1,.47-1h0l.13-.21a23.34,23.34,0,0,1,2.52-1.86C97.56,104.64,95.22,105.44,95.17,105.39Z"/><path class="cls-4" d="M99.39,105.32c-.23.22,1.19,2.16,1,2.45a9.09,9.09,0,0,1-.82.89c-4.22,4.72-4.61,8-4.6,8.26a36,36,0,0,1,4.56-5.09c.35-.2.09-1.2.21-1.52.23,0,.79.44,1,.12,0-.06,2.08-2,1.61-3.43S99.88,104.88,99.39,105.32Z"/><path class="cls-4" d="M100.28,105.66a2.13,2.13,0,0,0,.2.85c-1,1.18-3.78.8-3.91.06,0,0,.54-1.11.55-1.25a10.29,10.29,0,0,0-1.5.77,2.15,2.15,0,0,0-.49,1.67,3.77,3.77,0,0,1,1.38-.72,4.3,4.3,0,0,1,.17,1.89,7.23,7.23,0,0,0,3.69-1.16C101.88,106.56,100.6,105.45,100.28,105.66Z"/><path class="cls-98" d="M96.68,104.19c0,.13.39,1.64-.17,2.39.13.73,3,1.11,4-.07a4.74,4.74,0,0,1,.17-3.22A17.43,17.43,0,0,1,96.68,104.19Z"/><path class="cls-98" d="M98.19,97c-1.77-.25-3.52.09-4.06,1.89-.19.65.09,1.59-.16,2.45a6.07,6.07,0,0,0,1.41,4.88,1,1,0,0,0,.59.33c1.26.23,4.32-1.66,4.54-3.21,0,0,.29-2.11.3-2.13C101.1,99.16,100.09,97.27,98.19,97Z"/><path class="cls-102" d="M93.79,98.11c-.11.63.29,2.24,6.4,1.76.86,1.35.28,3.65.28,3.65,2-1.33,3-5,1.24-7.1C99.35,93.64,94.28,95.26,93.79,98.11Z"/><path class="cls-98" d="M100.46,100.36a1,1,0,0,0-.45,0,3,3,0,0,1,.14,2.67c.46-.07,1-1.12,1-1.56A1,1,0,0,0,100.46,100.36Z"/><path class="cls-57" d="M56.55,158.17c.05,5.23,10.15,17,10.15,17a26.52,26.52,0,0,0,4.65-2.66,6.15,6.15,0,0,0,1.85-5c0-5.24-3.83-11.6-8.42-14.17S56.5,152.93,56.55,158.17Z"/><path class="cls-75" d="M55.45,157.55c.06,5.93,4.33,13.12,9.53,16s9.37.46,9.32-5.47S70,155,64.77,152.08,55.39,151.62,55.45,157.55Zm1.1.62c0-5.24,3.64-7.41,8.23-4.83s8.37,8.93,8.42,14.17-3.65,7.4-8.24,4.83S56.6,163.4,56.55,158.17Z"/><path class="cls-75" d="M77.55,169.06c0-.17,0-.33,0-.49a2.29,2.29,0,0,1,0-.25l-.06-.49,0-.23c0-.11,0-.23,0-.34s0-.34-.08-.51,0-.23-.07-.34-.07-.33-.1-.49l-.09-.4c0-.11,0-.22-.08-.33s-.07-.29-.11-.43l-.09-.33c0-.17-.1-.34-.16-.52l-.06-.19c-.07-.24-.15-.48-.23-.71l-.39-1c0-.09-.07-.18-.11-.26-.12-.3-.24-.59-.37-.88l-.06-.14c-.15-.32-.3-.64-.46-1l-.12-.25c-.13-.26-.26-.51-.4-.76l-.12-.23c-.18-.31-.35-.62-.54-.93l-.1-.17c-.17-.27-.33-.54-.5-.8l-.15-.23c-.21-.32-.43-.64-.65-.95a1.71,1.71,0,0,1-.11-.14c-.23-.32-.47-.63-.71-.94l-.11-.14c-.08-.1-.16-.19-.23-.29l-.3-.35-.24-.28-.29-.33c-.19-.22-.39-.44-.6-.65l0,0-.65-.66-.43-.39-.12-.12-.56-.49-.15-.13-.42-.35-.22-.16-.37-.29-.23-.17-.38-.26-.22-.16-.41-.26-.2-.13-.61-.36-.58-.31-.16-.07-.51-.25-.07,0-.53-.22-.56-.2-.14-.05L61.5,147l-.4-.09-.18,0-.57-.1h0l-.51-.06H58.62l-.47,0h-.1l-.37.07-.13,0-.42.11h0l-.43.15-.11.05-.33.14-.09,0-.41.23h0L63,143.22l.07,0a3.84,3.84,0,0,1,.35-.18.2.2,0,0,1,.08,0l.2-.1.13-.05.12-.05.41-.14h0l.41-.11.13,0,.13,0,.24,0,.1,0,.42,0h.84l.24,0h.17l.51,0h0l.57.1.19.05.35.08h0c.22.06.45.12.68.2l.14.05.56.2.08,0,.45.2.07,0,.52.25.15.08L72,144l.61.36.19.12.41.27.23.15.37.27.23.16.38.29.21.17.42.34.15.13.57.5.11.11.37.34.06.06.65.65,0,0c.21.21.41.42.6.64l.06.07a2.85,2.85,0,0,1,.23.26l.24.28.3.36.23.28,0,0,.07.09.72,1,.07.09,0,0c.22.31.44.62.65.94l.06.09.09.14c.17.27.34.53.5.8a.83.83,0,0,0,.08.12l0,.05c.18.31.36.62.53.93,0,0,0,.05,0,.08a1.09,1.09,0,0,1,.08.15c.14.25.27.51.4.76l.08.16,0,.09c.15.32.31.64.45,1l0,0,0,.1c.13.29.25.59.37.88l.06.14.05.12q.21.52.39,1v0l.23.69,0,.2c0,.13.09.26.12.39a.65.65,0,0,1,0,.13l.09.32c0,.15.08.29.11.44s.06.22.08.33l.06.23,0,.16c0,.16.07.33.1.49s.05.23.07.35,0,.33.08.5,0,.16,0,.24v.1l0,.24.06.48c0,.08,0,.17,0,.25s0,.33,0,.49,0,.15,0,.22c0,.23,0,.46,0,.69,0,3.4-1,5.9-2.65,7.46L73,182.26l-7.85,4.94L74,177.3a9.94,9.94,0,0,0,3.6-7.33c0-.23,0-.46,0-.69S77.56,169.13,77.55,169.06Z"/><path class="cls-103" d="M52.16,155.7A25.07,25.07,0,0,0,55,166.24c2.59,5.22,9.75,20.18,10.13,21,.36-.37,7.31-7.41,9.82-9.77,1.66-1.57,2.69-4.06,2.66-7.46-.08-8-5.83-17.71-12.86-21.65S52.08,147.69,52.16,155.7Zm3.29,1.85c-.06-5.93,4.12-8.38,9.32-5.47s9.47,10.11,9.53,16-4.13,8.38-9.32,5.47S55.51,163.48,55.45,157.55Z"/><path class="cls-4" d="M54.87,159.89c.05,5.23,3.82,11.59,8.41,14.17s8.29.4,8.24-4.83-3.83-11.6-8.42-14.17S54.82,154.65,54.87,159.89Z"/><path class="cls-104" d="M58,161.87l.25,1.63,0,.08a.44.44,0,0,0,.13.2l1.33.89a13.49,13.49,0,0,0,.6,1.53l-.42,1.35a.33.33,0,0,0,.06.33l.95,1.44a.31.31,0,0,0,.1.1c.05,0,.1,0,.12,0l.92-.62a7.28,7.28,0,0,0,1,.93l.57,1.94a.42.42,0,0,0,.15.26l.05,0,1.09.4c.09,0,.14,0,.13-.15v-1.75a1.7,1.7,0,0,0,.84-.23l1.23,1.41s0,.06.08.07a.1.1,0,0,0,.14,0l.59-.87a.32.32,0,0,0,0-.32L67,168.65a5.24,5.24,0,0,0,.17-1.25l1.18,0c.07,0,.12-.06.1-.2l-.25-1.62,0-.09a.44.44,0,0,0-.13-.2l-1.33-.89a14.27,14.27,0,0,0-.6-1.53l.42-1.35a.36.36,0,0,0-.06-.33l-1-1.44-.1-.1s-.1,0-.12,0l-.92.61a6.63,6.63,0,0,0-1-.92l-.57-1.95a.39.39,0,0,0-.16-.26l0,0-1.09-.4c-.09,0-.15,0-.13.15v1.75a1.82,1.82,0,0,0-.84.23l-1.23-1.41-.08-.07a.1.1,0,0,0-.14,0l-.59.87a.32.32,0,0,0,0,.32l.93,1.85a5.24,5.24,0,0,0-.17,1.25l-1.18,0C58,161.65,58,161.73,58,161.87Zm4.75-.31a2.32,2.32,0,0,1,.44.23,5.5,5.5,0,0,1,2,3.5c.26,1.66-.43,2.67-1.54,2.26a2.07,2.07,0,0,1-.44-.23,5.46,5.46,0,0,1-2-3.5C60.93,162.16,61.62,161.15,62.73,161.56Z"/></g></g></svg>