<svg xmlns="http://www.w3.org/2000/svg" viewBox="0 0 24 24"><defs><style>.a{fill:none;}.b{fill:rgba(0,0,0,0.6);}</style></defs><g transform="translate(-1087 -5165)"><rect class="a" width="24" height="24" transform="translate(1087 5165)"/><g transform="translate(1092.001 5168)"><path class="b" d="M7.9,21.294h9.787a.5.5,0,0,0,.506-.506V7.906a.5.5,0,0,0-.506-.506H7.9a.5.5,0,0,0-.506.506V20.788A.472.472,0,0,0,7.9,21.294Zm9.253-9.281v2.053H14.594V12.012Zm-3.6,2.053H11.5V12.012h2.053Zm0,6.188H11.5V18.2h2.053Zm0-3.094H11.5V15.106h2.053ZM8.406,15.106H10.46v2.053H8.406Zm2.053-1.041H8.406V12.012H10.46ZM8.406,18.2H10.46v2.053H8.406Zm6.188,2.053V15.106h2.588v5.147ZM8.406,8.412h8.747V11H8.406Z" transform="translate(-5.313 -5.319)"/><path class="b" d="M14.428,0H.506A.5.5,0,0,0,0,.506V17.494A.5.5,0,0,0,.506,18H14.428a.5.5,0,0,0,.506-.506V.506A.5.5,0,0,0,14.428,0Zm-.506,16.988H1.041V1.041H13.922Z"/></g></g></svg>