<svg xmlns="http://www.w3.org/2000/svg" viewBox="0 0 24 24"><defs><style>.a{fill:none;}.b{fill:rgba(0,0,0,0.6);}</style></defs><g transform="translate(-1087 -5165)"><rect class="a" width="24" height="24" transform="translate(1087 5165)"/><g transform="translate(1090 5171)"><path class="b" d="M0,10.7v9.806H18V10.7Zm.889,8.917V11.589H17.111v8.028Z" transform="translate(0 -7.728)"/><rect class="b" width="15" height="0.889" transform="translate(1.5 1.5)"/><rect class="b" width="12.028" height="0.889" transform="translate(2.972)"/><path class="b" d="M19.839,16.544V16.1H7.811v.444a.6.6,0,0,1-.667.667H6.7v4.611h.444a.676.676,0,0,1,.667.667v.444H19.839v-.444a.676.676,0,0,1,.667-.667h.444V17.211h-.444A.613.613,0,0,1,19.839,16.544Zm-.806,5.5H8.644a1.55,1.55,0,0,0-1.056-1.056V18.044a1.411,1.411,0,0,0,1.056-1.056H19.033a1.411,1.411,0,0,0,1.056,1.056v2.944A1.55,1.55,0,0,0,19.033,22.044Z" transform="translate(-4.839 -11.628)"/><path class="b" d="M27.417,21.4a1.917,1.917,0,1,0,1.917,1.917A1.921,1.921,0,0,0,27.417,21.4Zm0,2.972a1.056,1.056,0,1,1,1.056-1.056A1.073,1.073,0,0,1,27.417,24.372Z" transform="translate(-18.417 -15.456)"/></g></g></svg>