<svg xmlns="http://www.w3.org/2000/svg" viewBox="0 0 24 24"><defs><style>.a{fill:none;}.b{fill:rgba(0,0,0,0.6);}</style></defs><g transform="translate(-1087 -5165)"><rect class="a" width="24" height="24" transform="translate(1087 5165)"/><g transform="translate(1090 5169)"><path class="b" d="M18,3.373V.747A.66.66,0,0,0,17.253,0H6.111a.828.828,0,0,0-.5.166C3.871,1.382,2.129,2.6.359,3.816A.81.81,0,0,0,0,4.535V15.1a.757.757,0,0,0,.194.525.688.688,0,0,0,.525.194H12.968a.8.8,0,0,0,.581-.249c1.382-1.41,2.793-2.82,4.175-4.2a.876.876,0,0,0,.249-.636C18,8.267,18,5.834,18,3.373Zm-4.313,1.41a.2.2,0,0,1,.083-.166c.774-.691,1.548-1.355,2.35-2.046l.636-.553v8.488c0,.028-.028.055-.028.083-1,1-1.991,2.018-2.986,3.014l-.028.028V12.194C13.687,9.733,13.687,7.272,13.687,4.783ZM2.654,3.76,5,2.129,6.166,1.3a.137.137,0,0,1,.083-.028h2.9l-.94.747C7.493,2.6,6.774,3.152,6.055,3.733a.1.1,0,0,1-.083.028H2.654ZM15.677,1.272,13.493,3.18c-.221.194-.415.359-.636.553a.1.1,0,0,1-.083.028H8.046l.47-.387c.885-.691,1.77-1.382,2.627-2.1a.1.1,0,0,1,.083-.028H14.24ZM12.415,5.06v9.484H1.3V5.06ZM.719,15.677Z"/><path class="b" d="M13.637,25.744h4.949a1.134,1.134,0,0,0,.3-.028.636.636,0,0,0,.415-.691.606.606,0,0,0-.636-.525H13.61a.607.607,0,0,0-.636.5.6.6,0,0,0,.664.747Z" transform="translate(-9.379 -17.726)"/></g></g></svg>