<svg xmlns="http://www.w3.org/2000/svg" viewBox="0 0 24 24"><defs><style>.a{fill:none;}.b{fill:rgba(0,0,0,0.6);}</style></defs><g transform="translate(-1087 -5165)"><rect class="a" width="24" height="24" transform="translate(1087 5165)"/><g transform="translate(1090 5169)"><path class="b" d="M18,2.563V0H0V2.563H1.226V13.486H0V16.05H17.972V13.486H16.746V2.563ZM15.827,13.486H11.9V11.87H6.074v1.616h-3.9V2.563H15.827ZM6.074,15.13H.947v-.669H6.074Zm.975-2.313H8.526V15.1H7.05ZM9.474,15.13V12.817H10.95V15.1H9.474Zm2.424-.7h5.127V15.1H11.9Z"/><rect class="b" width="2.368" height="3.121" transform="translate(7.969 3.762)"/><rect class="b" width="2.368" height="3.121" transform="translate(11.703 3.762)"/><rect class="b" width="2.368" height="3.121" transform="translate(4.207 3.762)"/><rect class="b" width="2.368" height="3.121" transform="translate(7.969 7.495)"/><rect class="b" width="2.368" height="3.121" transform="translate(11.703 7.495)"/><rect class="b" width="2.368" height="3.121" transform="translate(4.207 7.495)"/></g></g></svg>