<svg xmlns="http://www.w3.org/2000/svg" viewBox="0 0 24 24"><defs><style>.a{fill:none;}.b{fill:rgba(0,0,0,0.6);}</style></defs><g transform="translate(-1087 -5165)"><rect class="a" width="24" height="24" transform="translate(1087 5165)"/><path class="b" d="M10.9,18.132a.534.534,0,0,1-.509-.31l-.593-1.185a7.953,7.953,0,0,1-1.639,0L7.59,17.821a.571.571,0,0,1-.735.282L4.172,17a.6.6,0,0,1-.339-.733l.424-1.241A7.48,7.48,0,0,1,3.1,13.872L1.855,14.3a.582.582,0,0,1-.706-.339l-1.1-2.68a.569.569,0,0,1,.283-.733l1.187-.592a7.916,7.916,0,0,1,0-1.636L.273,7.722A.569.569,0,0,1-.01,6.989l1.1-2.68A.582.582,0,0,1,1.8,3.97l1.243.423A7.48,7.48,0,0,1,4.2,3.237L3.776,2a.581.581,0,0,1,.339-.705L6.8.19a.571.571,0,0,1,.735.282l.593,1.185a7.953,7.953,0,0,1,1.639,0L10.359.472A.571.571,0,0,1,11.094.19l2.684,1.1A.581.581,0,0,1,14.117,2l-.424,1.241a7.48,7.48,0,0,1,1.158,1.157L16.1,3.97a.582.582,0,0,1,.706.339l1.1,2.68a.569.569,0,0,1-.283.733l-1.187.592a7.916,7.916,0,0,1,0,1.636l1.158.592a.569.569,0,0,1,.283.733l-1.1,2.68a.582.582,0,0,1-.706.339l-1.243-.423a7.48,7.48,0,0,1-1.158,1.157l.424,1.241A.628.628,0,0,1,13.75,17l-2.684,1.1A.617.617,0,0,1,10.9,18.132Zm-.763-2.708a.534.534,0,0,1,.509.31l.537,1.072,1.7-.705-.367-1.128a.538.538,0,0,1,.226-.649,6.838,6.838,0,0,0,1.5-1.5.64.64,0,0,1,.65-.226l1.13.367.706-1.693-1.074-.536a.568.568,0,0,1-.311-.621,6.468,6.468,0,0,0,0-2.088.607.607,0,0,1,.311-.621l1.074-.536L16.01,5.183l-1.13.367a.54.54,0,0,1-.65-.226,6.838,6.838,0,0,0-1.5-1.5.637.637,0,0,1-.226-.649l.367-1.128-1.7-.705-.537,1.072a.569.569,0,0,1-.622.31,6.5,6.5,0,0,0-2.091,0,.609.609,0,0,1-.622-.31L6.771,1.347l-1.7.705L5.443,3.18a.538.538,0,0,1-.226.649,6.838,6.838,0,0,0-1.5,1.5.64.64,0,0,1-.65.226L1.94,5.183,1.233,6.876l1.1.564a.568.568,0,0,1,.311.621,6.468,6.468,0,0,0,0,2.088.607.607,0,0,1-.311.621L1.261,11.3,1.968,13l1.13-.367a.54.54,0,0,1,.65.226,6.838,6.838,0,0,0,1.5,1.5A.637.637,0,0,1,5.471,15L5.1,16.129l1.7.705.537-1.072a.569.569,0,0,1,.622-.31,6.5,6.5,0,0,0,2.091,0A.1.1,0,0,1,10.133,15.424ZM9,12.49H9A3.371,3.371,0,0,1,7.7,6,3.44,3.44,0,0,1,9,5.747a3.371,3.371,0,0,1,1.3,6.488A3.549,3.549,0,0,1,9,12.49ZM8.975,6.9a2.271,2.271,0,0,0-.848.169A2.195,2.195,0,0,0,6.941,9.951,2.228,2.228,0,0,0,9,11.3a2.271,2.271,0,0,0,.848-.169,2.195,2.195,0,0,0,1.187-2.877A2.228,2.228,0,0,0,8.975,6.9Z" transform="translate(1090.053 5167.854)"/></g></svg>