<svg xmlns="http://www.w3.org/2000/svg" width="148.827" height="24" viewBox="0 0 148.827 24"><path d="M2.635,2.648H8.1v18.7H2.635ZM1.367.012H1.318A1.319,1.319,0,0,0,0,1.33V22.682A1.319,1.319,0,0,0,1.318,24h8.09a1.319,1.319,0,0,0,1.318-1.318V1.33A1.319,1.319,0,0,0,9.408.012H1.367ZM20.823,12.006,26.18,2.635H32.3v18.73H26.167ZM25.564,0a1.548,1.548,0,0,0-1.305.677L18.212,11.255a1.334,1.334,0,0,0-.234.714v.025h0v.037a1.334,1.334,0,0,0,.234.714l6.046,10.578a1.324,1.324,0,0,0,1.145.665,1.127,1.127,0,0,0,.209-.012h7.819a.932.932,0,0,0,.185.012,1.319,1.319,0,0,0,1.318-1.318V1.33A1.255,1.255,0,0,0,34.775.7,1.3,1.3,0,0,0,33.617,0ZM46.3,15.9V6.058h1.6V15.9Zm5.714,0V6.058H54.8l2.992,8.435h.222V6.058h1.6V15.9H56.878L53.812,7.45h-.2V15.9Zm11.711,0V6.058h6.108V7.45H65.326v3.325h3.756v1.391H65.326V15.9Zm16.144-1.047a3.628,3.628,0,0,1-3.115,1.207,3.6,3.6,0,0,1-3.115-1.219,6.537,6.537,0,0,1-.887-3.817,6.69,6.69,0,0,1,.9-3.867,3.583,3.583,0,0,1,3.115-1.268,3.538,3.538,0,0,1,3.1,1.256,6.769,6.769,0,0,1,.887,3.867A6.547,6.547,0,0,1,79.869,14.851Zm-4.975-1.034a2.485,2.485,0,0,0,3.731.012,5.946,5.946,0,0,0,.48-2.8,6.188,6.188,0,0,0-.493-2.857,1.931,1.931,0,0,0-1.847-.887,1.964,1.964,0,0,0-1.859.887,6.047,6.047,0,0,0-.5,2.832A5.823,5.823,0,0,0,74.894,13.816ZM86.05,12.4V15.91h-1.6V6.058h3.731c2.217,0,3.337,1.047,3.337,3.128A2.832,2.832,0,0,1,89.9,12.031L91.53,15.9H89.781l-1.428-3.509h-2.3Zm3.842-3.189q0-1.773-1.7-1.773H86.05v3.583h2.167a1.532,1.532,0,0,0,1.268-.493A2.029,2.029,0,0,0,89.892,9.211Zm5.3,6.687V6.058h2.771l2.2,7.684,2.2-7.684h2.783V15.9h-1.613V7.832h-.222L100.987,15.5H99.325L97,7.832h-.209V15.91h-1.6Zm13.225,0,2.426-9.839h3.177l2.438,9.839H114.84l-.53-2.118h-3.78L110,15.9Zm3.657-8.5-1.219,4.987H114L112.8,7.4Zm9.248,8.5h-1.6V6.058h1.6V10.5l1.465-.111,2.007-4.322h1.822l-2.426,4.938,2.524,4.9h-1.847L122.783,11.8l-1.465.1v4Zm15.319-1.047a4.608,4.608,0,0,1-6.231-.012,6.537,6.537,0,0,1-.887-3.817,6.69,6.69,0,0,1,.9-3.867,3.583,3.583,0,0,1,3.115-1.268,3.538,3.538,0,0,1,3.1,1.256,6.769,6.769,0,0,1,.887,3.867A6.546,6.546,0,0,1,136.636,14.851Zm-4.975-1.034a2.485,2.485,0,0,0,3.731.012,5.946,5.946,0,0,0,.48-2.8,6.187,6.187,0,0,0-.493-2.857,1.931,1.931,0,0,0-1.847-.887,1.964,1.964,0,0,0-1.859.887,6.046,6.046,0,0,0-.5,2.832A5.823,5.823,0,0,0,131.661,13.816Zm9.568,2.081V6.058h2.783L147,14.494h.222V6.058h1.6V15.9h-2.734L143.027,7.45h-.2V15.9Z" fill="rgba(0,0,0,0.18)"/></svg>