<svg xmlns="http://www.w3.org/2000/svg" xmlns:xlink="http://www.w3.org/1999/xlink" viewBox="0 0 360 300"><defs><style>.cls-1,.cls-11{fill:none;}.cls-2,.cls-3,.cls-38{fill:#232650;}.cls-10,.cls-11,.cls-13,.cls-3,.cls-4,.cls-6,.cls-8{clip-rule:evenodd;}.cls-4,.cls-43,.cls-5{fill:#9599c6;}.cls-46,.cls-6,.cls-7{fill:#d7e07c;}.cls-53,.cls-8,.cls-9{fill:#2b4b9b;}.cls-10,.cls-12,.cls-31{fill:#8f909e;}.cls-13,.cls-14,.cls-34{fill:#e5e6f1;}.cls-15{isolation:isolate;}.cls-16{fill:#eef0f8;}.cls-17{fill:#7579b9;}.cls-18{fill:#b62428;}.cls-19{fill:#efefef;}.cls-20{fill:#f1eff1;}.cls-21{fill:#fff;}.cls-22{fill:#27326f;}.cls-23{fill:#3b5ca7;}.cls-24{fill:#3a5fa9;}.cls-25{fill:#213b8d;}.cls-26{fill:#22398b;}.cls-27{fill:#416fb6;}.cls-28{clip-path:url(#clip-path);}.cls-29{clip-path:url(#clip-path-2);}.cls-30{clip-path:url(#clip-path-3);}.cls-31,.cls-34,.cls-38,.cls-43,.cls-46,.cls-53{fill-rule:evenodd;}.cls-32{clip-path:url(#clip-path-4);}.cls-33{clip-path:url(#clip-path-5);}.cls-35{clip-path:url(#clip-path-6);}.cls-36{clip-path:url(#clip-path-7);}.cls-37{clip-path:url(#clip-path-8);}.cls-39{clip-path:url(#clip-path-10);}.cls-40{clip-path:url(#clip-path-11);}.cls-41{clip-path:url(#clip-path-12);}.cls-42{clip-path:url(#clip-path-14);}.cls-44{clip-path:url(#clip-path-16);}.cls-45{clip-path:url(#clip-path-17);}.cls-47{clip-path:url(#clip-path-18);}.cls-48{clip-path:url(#clip-path-19);}.cls-49{clip-path:url(#clip-path-20);}.cls-50{clip-path:url(#clip-path-22);}.cls-51{clip-path:url(#clip-path-24);}.cls-52{clip-path:url(#clip-path-26);}.cls-54{clip-path:url(#clip-path-28);}.cls-55{clip-path:url(#clip-path-29);}.cls-56{clip-path:url(#clip-path-30);}.cls-57{clip-path:url(#clip-path-32);}.cls-58{clip-path:url(#clip-path-34);}.cls-59{clip-path:url(#clip-path-36);}.cls-60{clip-path:url(#clip-path-38);}.cls-61{clip-path:url(#clip-path-40);}.cls-62{clip-path:url(#clip-path-42);}.cls-63{clip-path:url(#clip-path-44);}.cls-64{clip-path:url(#clip-path-46);}.cls-65{mix-blend-mode:multiply;}.cls-66{fill:#9eaad4;}.cls-67{fill:#fad4d5;}.cls-68{fill:#f59d58;}.cls-69{fill:#e9447e;}.cls-70{fill:#cdcccc;}.cls-71{fill:#273169;}.cls-72{fill:#efeeee;}.cls-73{fill:#1e371e;}.cls-74{fill:#94c11f;}.cls-75{fill:#ccccd0;}.cls-76{fill:#f6f6f6;}.cls-77{fill:#847e7d;}.cls-78{fill:#d6c8c6;}.cls-79{fill:#065ea1;}.cls-80{fill:#16253e;}.cls-81{fill:#025696;}.cls-82{fill:#2b70b7;}.cls-83{fill:#e7215c;}.cls-84{fill:#4166ae;}.cls-85{fill:#8c8c8c;}.cls-86{fill:#1a1732;}.cls-87{fill:#055f7f;}.cls-88{fill:#cdcdd2;opacity:0.3;}</style><clipPath id="clip-path"><rect class="cls-1" x="150.33" y="30.97" width="70.79" height="189.68"/></clipPath><clipPath id="clip-path-2"><rect class="cls-1" x="-114.17" y="-66.96" width="622.46" height="466.84"/></clipPath><clipPath id="clip-path-3"><rect class="cls-1" x="149.86" y="30.56" width="71.58" height="190.37"/></clipPath><clipPath id="clip-path-4"><path class="cls-10" d="M214.91,63.12,160.52,31.71a3.89,3.89,0,0,0-4.15-.25l-6,3.49,4,11.87V173.49c0,4.54,2.79,9.87,6.2,11.84l50,28.9,2.16,6.43,6.16-3.56h0c1.36-.73,2.22-2.51,2.22-5V75c0-4.55-2.79-9.88-6.2-11.85"/></clipPath><clipPath id="clip-path-5"><rect class="cls-12" x="149.86" y="30.56" width="71.58" height="190.37"/></clipPath><clipPath id="clip-path-6"><path class="cls-13" d="M215,78.5c0-4.55-2.79-9.88-6.2-11.85l-54.4-31.4c-3.41-2-6.2.14-6.2,4.69v12L215,90.46Z"/></clipPath><clipPath id="clip-path-7"><rect class="cls-14" x="-114.17" y="-66.96" width="622.46" height="466.84"/></clipPath><clipPath id="clip-path-8"><path class="cls-13" d="M148.2,177c0,4.55,2.79,9.88,6.2,11.85l54.4,31.4c3.41,2,6.2-.14,6.2-4.68v-12l-66.8-38.56Z"/></clipPath><clipPath id="clip-path-10"><path class="cls-3" d="M190.21,67,173,57a1.66,1.66,0,0,1-.7-1.33c0-.5.31-.74.7-.52l17.21,9.94a1.66,1.66,0,0,1,.69,1.32c0,.51-.31.74-.69.52"/></clipPath><clipPath id="clip-path-11"><rect class="cls-2" x="-114.17" y="-66.96" width="622.46" height="466.84"/></clipPath><clipPath id="clip-path-12"><path class="cls-3" d="M168.51,55a2.72,2.72,0,0,1-1.13-2.16c0-.83.51-1.21,1.13-.85a2.72,2.72,0,0,1,1.13,2.16c0,.83-.51,1.21-1.13.85"/></clipPath><clipPath id="clip-path-14"><polygon class="cls-3" points="205.05 84.71 186.5 74 174.52 67.09 148.2 51.89 148.2 112.67 148.2 140.33 148.2 165.07 156.04 169.59 215 203.63 215 90.46 205.05 84.71"/></clipPath><clipPath id="clip-path-16"><path class="cls-4" d="M164.16,87.56,155.4,82.5A3.1,3.1,0,0,1,154.11,80V68.36c0-1,.58-1.4,1.29-1l8.76,5.05a3.12,3.12,0,0,1,1.29,2.48V86.58c0,1-.58,1.39-1.29,1"/></clipPath><clipPath id="clip-path-17"><rect class="cls-5" x="-114.17" y="-66.96" width="622.46" height="466.84"/></clipPath><clipPath id="clip-path-18"><path class="cls-6" d="M178.7,96,170,90.9a3.11,3.11,0,0,1-1.3-2.47V76.75c0-1,.59-1.39,1.3-1l8.75,5.06A3.09,3.09,0,0,1,180,83.3V95c0,1-.58,1.39-1.3,1"/></clipPath><clipPath id="clip-path-19"><rect class="cls-7" x="-114.17" y="-66.96" width="622.46" height="466.84"/></clipPath><clipPath id="clip-path-20"><path class="cls-4" d="M193.25,104.35l-8.75-5a3.09,3.09,0,0,1-1.3-2.48V85.15c0-1,.58-1.39,1.3-1l8.75,5.06a3.11,3.11,0,0,1,1.3,2.47v11.67c0,1-.59,1.4-1.3,1"/></clipPath><clipPath id="clip-path-22"><path class="cls-4" d="M207.8,112.75l-8.76-5a3.12,3.12,0,0,1-1.29-2.48V93.55c0-1,.58-1.39,1.29-1l8.76,5.06a3.1,3.1,0,0,1,1.29,2.47v11.67c0,1-.58,1.4-1.29,1"/></clipPath><clipPath id="clip-path-24"><path class="cls-4" d="M164.16,108.88l-8.76-5a3.12,3.12,0,0,1-1.29-2.48V89.68c0-1,.58-1.39,1.29-1l8.76,5.06a3.1,3.1,0,0,1,1.29,2.47V107.9c0,.95-.58,1.4-1.29,1"/></clipPath><clipPath id="clip-path-26"><path class="cls-4" d="M178.7,117.28l-8.75-5a3.13,3.13,0,0,1-1.3-2.48V98.08c0-1,.59-1.39,1.3-1l8.75,5.05a3.12,3.12,0,0,1,1.3,2.48V116.3c0,1-.58,1.39-1.3,1"/></clipPath><clipPath id="clip-path-28"><path class="cls-8" d="M193.25,125.68l-8.75-5.05a3.1,3.1,0,0,1-1.3-2.48V106.48c0-1,.58-1.39,1.3-1l8.75,5a3.15,3.15,0,0,1,1.3,2.48V124.7c0,1-.59,1.39-1.3,1"/></clipPath><clipPath id="clip-path-29"><rect class="cls-9" x="-114.17" y="-66.96" width="622.46" height="466.84"/></clipPath><clipPath id="clip-path-30"><path class="cls-4" d="M207.8,134.08,199,129a3.12,3.12,0,0,1-1.29-2.48V114.88c0-.95.58-1.39,1.29-1l8.76,5a3.12,3.12,0,0,1,1.29,2.48V133.1c0,1-.58,1.39-1.29,1"/></clipPath><clipPath id="clip-path-32"><path class="cls-4" d="M164.16,130.21l-8.76-5.05a3.12,3.12,0,0,1-1.29-2.48V111c0-1,.58-1.39,1.29-1l8.76,5a3.12,3.12,0,0,1,1.29,2.48v11.67c0,1-.58,1.39-1.29,1"/></clipPath><clipPath id="clip-path-34"><path class="cls-4" d="M178.7,138.61,170,133.56a3.15,3.15,0,0,1-1.3-2.48V119.41c0-1,.59-1.39,1.3-1l8.75,5A3.1,3.1,0,0,1,180,126v11.67c0,1-.58,1.39-1.3,1"/></clipPath><clipPath id="clip-path-36"><path class="cls-8" d="M193.25,147,184.5,142a3.09,3.09,0,0,1-1.3-2.47V127.81c0-1,.58-1.4,1.3-1l8.75,5a3.13,3.13,0,0,1,1.3,2.48V146c0,.95-.59,1.39-1.3,1"/></clipPath><clipPath id="clip-path-38"><path class="cls-11" d="M207.8,155.41,199,150.35a3.1,3.1,0,0,1-1.29-2.47V136.21c0-1,.58-1.4,1.29-1l8.76,5.05a3.11,3.11,0,0,1,1.29,2.48v11.67c0,.95-.58,1.39-1.29,1"/></clipPath><clipPath id="clip-path-40"><path class="cls-4" d="M164.16,165.08,155.4,160a3.1,3.1,0,0,1-1.29-2.47V145.87c0-1,.58-1.39,1.29-1l8.76,5.06a3.1,3.1,0,0,1,1.29,2.47V164.1c0,1-.58,1.39-1.29,1"/></clipPath><clipPath id="clip-path-42"><path class="cls-4" d="M178.7,173.47,170,168.42a3.13,3.13,0,0,1-1.3-2.48V154.27c0-1,.59-1.39,1.3-1l8.75,5.06a3.09,3.09,0,0,1,1.3,2.47v11.67c0,1-.58,1.4-1.3,1"/></clipPath><clipPath id="clip-path-44"><path class="cls-11" d="M193.25,181.87l-8.75-5.05a3.1,3.1,0,0,1-1.3-2.48V162.67c0-.95.58-1.39,1.3-1l8.75,5.06a3.11,3.11,0,0,1,1.3,2.47v11.67c0,1-.59,1.39-1.3,1"/></clipPath><clipPath id="clip-path-46"><path class="cls-11" d="M207.8,190.27,199,185.22a3.12,3.12,0,0,1-1.29-2.48V171.07c0-.95.58-1.39,1.29-1l8.76,5a3.14,3.14,0,0,1,1.29,2.48v11.67c0,1-.58,1.39-1.29,1"/></clipPath></defs><title>Prancheta 1</title><g class="cls-15"><g id="Camada_1" data-name="Camada 1"><path class="cls-16" d="M295.76,200.06c0,30.85-24.63,49.11-60.88,62.8-16.33,6.16-64.69,12.53-84.55,12.53-39.76,0-21.07-31.88-41.91-53.25-12.68-13-44.18-5.16-44.18-22.08,0-44.74,51.83-81,115.76-81,25.45,0,41.37,30.7,60.48,40.43C269.38,174.21,295.76,173.13,295.76,200.06Z"/><polygon class="cls-17" points="86.19 160.63 113.19 176.71 113.19 153.36 86.19 137.26 86.19 160.63"/><polygon class="cls-17" points="113.19 176.68 139.19 161.17 139.19 137.72 113.19 153.37 113.19 176.68"/><polygon class="cls-18" points="86.26 137.43 113 153.38 138.89 137.8 112.53 121.78 86.26 137.43"/><polygon class="cls-19" points="85.19 142.36 113.19 159.06 113.19 151.05 85.19 134.35 85.19 142.36"/><polygon class="cls-20" points="113.19 159.06 140.19 142.81 140.19 134.8 113.19 151.05 113.19 159.06"/><polygon class="cls-21" points="84.84 134.28 113.03 151.1 140.32 134.67 112.53 117.79 84.84 134.28"/><polygon class="cls-22" points="123.19 170.79 129.19 167.12 129.19 140.86 123.19 144.44 123.19 170.79"/><polygon class="cls-22" points="95.19 166.43 101.19 169.98 101.19 143.47 95.19 139.97 95.19 166.43"/><polygon class="cls-23" points="95.37 140.55 101.07 143.79 128.71 127.6 122.85 124.03 95.37 140.55"/><polygon class="cls-23" points="95.37 128.05 123.68 144.64 129.52 141.32 101.37 124.4 95.37 128.05"/><path class="cls-24" d="M119.87,133.85a21.48,21.48,0,0,0-7.07.24l-2.53,1,.66.52c.1.08,2.36,1.83,3.45,2.71a2.28,2.28,0,0,0,1.32.43c1.53,0,4.49-1.91,5.34-3.05C121.57,135,121.08,134.1,119.87,133.85Z"/><path class="cls-25" d="M115.69,136.32a22.69,22.69,0,0,0-4.54-.88s2.53,2,3.74,2.75S117.88,136.93,115.69,136.32Z"/><path class="cls-24" d="M107.38,128.54c-1.21.38-3.59,2.41-2.92,3.59a1.94,1.94,0,0,0,1,.82c1.41.46,4.23,1.44,4.36,1.49l.84.28,1.81-.52a11.8,11.8,0,0,0-2.51-5.3A2.25,2.25,0,0,0,107.38,128.54Z"/><path class="cls-26" d="M107.06,131.07c-1.58-1.42-2.93.83-1.63,1.42s4.53,1.69,4.53,1.69A17.39,17.39,0,0,0,107.06,131.07Z"/><path class="cls-27" d="M116.33,127.72a2.16,2.16,0,0,0-2.67.26,12.85,12.85,0,0,0-2.64,5.36l2.21.88.83-.29c.14,0,3-1,4.37-1.48a1.94,1.94,0,0,0,1-.82C120.12,130.45,117.67,128.41,116.33,127.72Z"/><path class="cls-25" d="M116.85,130.56a18,18,0,0,0-2.91,3.12s3.2-1.09,4.54-1.69S118.44,129.15,116.85,130.56Z"/><path class="cls-27" d="M103.43,133.27c-1.22.25-1.7,1.19-1.18,1.89.86,1.14,3.27,3.21,4.81,3.21a2.25,2.25,0,0,0,1.31-.43c1.09-.89,3.35-2.63,3.46-2.71l.66-.52-2.54-1A16.47,16.47,0,0,0,103.43,133.27Z"/><path class="cls-25" d="M107.86,137.77c1.22-.76,3.75-2.75,3.75-2.75a23.52,23.52,0,0,0-4.54.88C104.88,136.51,106.67,138.52,107.86,137.77Z"/><path class="cls-25" d="M114.19,132a3.58,3.58,0,0,0-4.5.11,2.45,2.45,0,0,0,.13,3.84,3.58,3.58,0,0,0,4.5-.11A2.45,2.45,0,0,0,114.19,132Z"/><path class="cls-24" d="M114.47,131.74a4,4,0,0,0-5.11.16,2.77,2.77,0,0,0,.06,4.2,2.94,2.94,0,0,0,.41.31c.28.18.67,0,.56-.32a2.27,2.27,0,0,1,.74-2.59,3.3,3.3,0,0,1,3.54-.59c.32.13.65-.16.47-.43A3.08,3.08,0,0,0,114.47,131.74Z"/><polyline class="cls-16" points="139.8 152.68 144.91 155.39 147.73 157"/><g class="cls-28"><g class="cls-29"><g class="cls-15"><g class="cls-30"><path class="cls-31" d="M214.91,63.12,160.52,31.71a3.89,3.89,0,0,0-4.15-.25l-6,3.49,4,11.87V173.49c0,4.54,2.79,9.87,6.2,11.84l50,28.9,2.16,6.43,6.16-3.56h0c1.36-.73,2.22-2.51,2.22-5V75c0-4.55-2.79-9.88-6.2-11.85"/><g class="cls-32"><rect class="cls-12" x="149.86" y="30.56" width="71.58" height="190.37"/><g class="cls-33"><rect class="cls-12" x="147.73" y="28.38" width="75.97" height="194.87"/></g></g></g></g></g></g><path class="cls-34" d="M215,78.5c0-4.55-2.79-9.88-6.2-11.85l-54.4-31.4c-3.41-2-6.2.14-6.2,4.69v12L215,90.46Z"/><g class="cls-35"><rect class="cls-14" x="-114.17" y="-66.96" width="622.46" height="466.84"/><g class="cls-36"><rect class="cls-14" x="145.61" y="31.92" width="71.98" height="61.13"/></g></g><path class="cls-34" d="M148.2,177c0,4.55,2.79,9.88,6.2,11.85l54.4,31.4c3.41,2,6.2-.14,6.2-4.68v-12l-66.8-38.56Z"/><g class="cls-37"><rect class="cls-14" x="-114.17" y="-66.96" width="622.46" height="466.84"/><g class="cls-36"><rect class="cls-14" x="145.61" y="162.47" width="71.98" height="61.13"/></g></g><path class="cls-38" d="M190.21,67,173,57a1.66,1.66,0,0,1-.7-1.33c0-.5.31-.74.7-.52l17.21,9.94a1.66,1.66,0,0,1,.69,1.32c0,.51-.31.74-.69.52"/><g class="cls-39"><rect class="cls-2" x="-114.17" y="-66.96" width="622.46" height="466.84"/><g class="cls-40"><rect class="cls-2" x="169.71" y="52.5" width="23.78" height="17.14"/></g></g><path class="cls-38" d="M168.51,55a2.72,2.72,0,0,1-1.13-2.16c0-.83.51-1.21,1.13-.85a2.72,2.72,0,0,1,1.13,2.16c0,.83-.51,1.21-1.13.85"/><g class="cls-41"><rect class="cls-2" x="-114.17" y="-66.96" width="622.46" height="466.84"/><g class="cls-40"><rect class="cls-2" x="164.79" y="49.27" width="7.45" height="8.47"/></g></g><polygon class="cls-38" points="205.05 84.71 186.5 74 174.52 67.09 148.2 51.89 148.2 112.67 148.2 140.33 148.2 165.07 156.04 169.59 215 203.63 215 90.46 205.05 84.71"/><g class="cls-42"><rect class="cls-2" x="-114.17" y="-66.96" width="622.46" height="466.84"/><g class="cls-40"><rect class="cls-2" x="145.61" y="49.3" width="71.98" height="156.93"/></g></g><path class="cls-43" d="M164.16,87.56,155.4,82.5A3.1,3.1,0,0,1,154.11,80V68.36c0-1,.58-1.4,1.29-1l8.76,5.05a3.12,3.12,0,0,1,1.29,2.48V86.58c0,1-.58,1.39-1.29,1"/><g class="cls-44"><rect class="cls-5" x="-114.17" y="-66.96" width="622.46" height="466.84"/><g class="cls-45"><rect class="cls-5" x="151.51" y="64.63" width="16.53" height="25.68"/></g></g><path class="cls-46" d="M178.7,96,170,90.9a3.11,3.11,0,0,1-1.3-2.47V76.75c0-1,.59-1.39,1.3-1l8.75,5.06A3.09,3.09,0,0,1,180,83.3V95c0,1-.58,1.39-1.3,1"/><g class="cls-47"><rect class="cls-7" x="-114.17" y="-66.96" width="622.46" height="466.84"/><g class="cls-48"><rect class="cls-7" x="166.06" y="73.03" width="16.53" height="25.68"/></g></g><path class="cls-43" d="M193.25,104.35l-8.75-5a3.09,3.09,0,0,1-1.3-2.48V85.15c0-1,.58-1.39,1.3-1l8.75,5.06a3.11,3.11,0,0,1,1.3,2.47v11.67c0,1-.59,1.4-1.3,1"/><g class="cls-49"><rect class="cls-5" x="-114.17" y="-66.96" width="622.46" height="466.84"/><g class="cls-45"><rect class="cls-5" x="180.61" y="81.43" width="16.53" height="25.68"/></g></g><path class="cls-43" d="M207.8,112.75l-8.76-5a3.12,3.12,0,0,1-1.29-2.48V93.55c0-1,.58-1.39,1.29-1l8.76,5.06a3.1,3.1,0,0,1,1.29,2.47v11.67c0,1-.58,1.4-1.29,1"/><g class="cls-50"><rect class="cls-5" x="-114.17" y="-66.96" width="622.46" height="466.84"/><g class="cls-45"><rect class="cls-5" x="195.15" y="89.82" width="16.53" height="25.68"/></g></g><path class="cls-43" d="M164.16,108.88l-8.76-5a3.12,3.12,0,0,1-1.29-2.48V89.68c0-1,.58-1.39,1.29-1l8.76,5.06a3.1,3.1,0,0,1,1.29,2.47V107.9c0,.95-.58,1.4-1.29,1"/><g class="cls-51"><rect class="cls-5" x="-114.17" y="-66.96" width="622.46" height="466.84"/><g class="cls-45"><rect class="cls-5" x="151.51" y="85.95" width="16.53" height="25.68"/></g></g><path class="cls-43" d="M178.7,117.28l-8.75-5a3.13,3.13,0,0,1-1.3-2.48V98.08c0-1,.59-1.39,1.3-1l8.75,5.05a3.12,3.12,0,0,1,1.3,2.48V116.3c0,1-.58,1.39-1.3,1"/><g class="cls-52"><rect class="cls-5" x="-114.17" y="-66.96" width="622.46" height="466.84"/><g class="cls-45"><rect class="cls-5" x="166.06" y="94.35" width="16.53" height="25.68"/></g></g><path class="cls-53" d="M193.25,125.68l-8.75-5.05a3.1,3.1,0,0,1-1.3-2.48V106.48c0-1,.58-1.39,1.3-1l8.75,5a3.15,3.15,0,0,1,1.3,2.48V124.7c0,1-.59,1.39-1.3,1"/><g class="cls-54"><rect class="cls-9" x="-114.17" y="-66.96" width="622.46" height="466.84"/><g class="cls-55"><rect class="cls-9" x="180.61" y="102.75" width="16.53" height="25.68"/></g></g><path class="cls-43" d="M207.8,134.08,199,129a3.12,3.12,0,0,1-1.29-2.48V114.88c0-.95.58-1.39,1.29-1l8.76,5a3.12,3.12,0,0,1,1.29,2.48V133.1c0,1-.58,1.39-1.29,1"/><g class="cls-56"><rect class="cls-5" x="-114.17" y="-66.96" width="622.46" height="466.84"/><g class="cls-45"><rect class="cls-5" x="195.15" y="111.15" width="16.53" height="25.68"/></g></g><path class="cls-43" d="M164.16,130.21l-8.76-5.05a3.12,3.12,0,0,1-1.29-2.48V111c0-1,.58-1.39,1.29-1l8.76,5a3.12,3.12,0,0,1,1.29,2.48v11.67c0,1-.58,1.39-1.29,1"/><g class="cls-57"><rect class="cls-5" x="-114.17" y="-66.96" width="622.46" height="466.84"/><g class="cls-45"><rect class="cls-5" x="151.51" y="107.28" width="16.53" height="25.68"/></g></g><path class="cls-43" d="M178.7,138.61,170,133.56a3.15,3.15,0,0,1-1.3-2.48V119.41c0-1,.59-1.39,1.3-1l8.75,5A3.1,3.1,0,0,1,180,126v11.67c0,1-.58,1.39-1.3,1"/><g class="cls-58"><rect class="cls-5" x="-114.17" y="-66.96" width="622.46" height="466.84"/><g class="cls-45"><rect class="cls-5" x="166.06" y="115.68" width="16.53" height="25.68"/></g></g><path class="cls-53" d="M193.25,147,184.5,142a3.09,3.09,0,0,1-1.3-2.47V127.81c0-1,.58-1.4,1.3-1l8.75,5a3.13,3.13,0,0,1,1.3,2.48V146c0,.95-.59,1.39-1.3,1"/><g class="cls-59"><rect class="cls-9" x="-114.17" y="-66.96" width="622.46" height="466.84"/><g class="cls-55"><rect class="cls-9" x="180.61" y="124.08" width="16.53" height="25.68"/></g></g><g class="cls-60"><g class="cls-29"><rect class="cls-17" x="195.15" y="132.48" width="16.53" height="25.68"/></g></g><path class="cls-43" d="M164.16,165.08,155.4,160a3.1,3.1,0,0,1-1.29-2.47V145.87c0-1,.58-1.39,1.29-1l8.76,5.06a3.1,3.1,0,0,1,1.29,2.47V164.1c0,1-.58,1.39-1.29,1"/><g class="cls-61"><rect class="cls-5" x="-114.17" y="-66.96" width="622.46" height="466.84"/><g class="cls-45"><rect class="cls-5" x="151.51" y="142.15" width="16.53" height="25.68"/></g></g><path class="cls-43" d="M178.7,173.47,170,168.42a3.13,3.13,0,0,1-1.3-2.48V154.27c0-1,.59-1.39,1.3-1l8.75,5.06a3.09,3.09,0,0,1,1.3,2.47v11.67c0,1-.58,1.4-1.3,1"/><g class="cls-62"><rect class="cls-5" x="-114.17" y="-66.96" width="622.46" height="466.84"/><g class="cls-45"><rect class="cls-5" x="166.06" y="150.55" width="16.53" height="25.68"/></g></g><g class="cls-63"><g class="cls-29"><rect class="cls-17" x="180.61" y="158.94" width="16.53" height="25.68"/></g></g><g class="cls-64"><g class="cls-29"><rect class="cls-17" x="195.15" y="167.34" width="16.53" height="25.68"/></g></g><g class="cls-65"><path class="cls-66" d="M143.28,198.86c-.53-.19-1.24.14-2,.95a11.63,11.63,0,0,0-2.18,3.89,12,12,0,0,0-.78,4.49c.06,1.17.4,1.93,1,2.13s1.21-.13,1.94-.9a.12.12,0,0,0,.05,0,11.59,11.59,0,0,0,2.19-3.88,12.28,12.28,0,0,0,.78-4.49c0-.07,0-.14,0-.21C144.14,199.73,143.8,199.05,143.28,198.86Z"/></g><g class="cls-65"><path class="cls-66" d="M125.36,187.27a11.63,11.63,0,0,0-4.45.29,12.13,12.13,0,0,0-4.18,1.82c-1,.69-1.39,1.39-1.26,2s.77.94,1.82,1.13h.06a11.45,11.45,0,0,0,4.45-.3,12,12,0,0,0,4.18-1.8l.17-.13c.83-.66,1.22-1.31,1.09-1.85S126.44,187.45,125.36,187.27Z"/></g><path class="cls-67" d="M116.88,160.51a.29.29,0,0,0,.55.16,15.51,15.51,0,0,0,.81-2.44c.44-1,1-1.78,1.4-2.76a4.25,4.25,0,0,1-1.13-.28C117.47,156.19,116.89,159.83,116.88,160.51Z"/><path class="cls-67" d="M117.76,159.54a.21.21,0,0,0,.4.14,15.51,15.51,0,0,0,.81-2.44c.44-1,1-1.78,1.4-2.76a4.25,4.25,0,0,1-1.13-.28C118.21,155.2,117.92,158.88,117.76,159.54Z"/><path class="cls-67" d="M118.34,159.05a.2.2,0,0,0,.37.12,12.71,12.71,0,0,0,.76-2.28c.41-1,.93-1.67,1.32-2.59a3.68,3.68,0,0,1-1.06-.27C118.76,155,118.48,158.43,118.34,159.05Z"/><path class="cls-67" d="M117.72,153.55c-.08.37-.17.74-.26,1.12s-.23.88-.32,1.31c0,.23-.75,3.86-.15,4,.26.06.33-.53.38-.74.17-.75.55-3.68.72-3.21.07.2-.42,1.86.08,2,.16,0,.39-.7.53-.88a3,3,0,0,0,.62-2.49A3.88,3.88,0,0,1,117.72,153.55Z"/><path class="cls-21" d="M143.27,199.85l-3.89-.18s-.14,1.61-.34,2.53c-.32,1.39-1,3.52-1.2,4.22-.28,1.15.41,1.75,1.56,2,1,.24,3.34-1,3.66-2.29.21-.85,1.22-4,.23-4.93Z"/><path class="cls-68" d="M139.38,199.67s-.1,1.14-.24,2c.13.19.62-.09,1.41,0,1,.14,1.95.64,2.29.32a3.37,3.37,0,0,0,.45-.77c0-.81,0-1.37,0-1.37Z"/><path class="cls-21" d="M122.35,184.75s-.67.83-1.21,1.36c-1.06,1-5.49,2.59-5.49,4,0,.73,1.82,1.39,3.3,1.44a4.51,4.51,0,0,0,3.2-1.24c.65-.58,3-.93,3.3-1.39a1.76,1.76,0,0,0,.12-1.7c.17-.81.32-1.59.32-1.59Z"/><path class="cls-68" d="M121.14,186.11a4.88,4.88,0,0,0,1.81,1.43c.67.3,2.62-.27,2.62-.27.17-.81.32-1.59.32-1.59l-3.64-1.08A6.22,6.22,0,0,1,121.14,186.11Z"/><path class="cls-21" d="M117,154.15a8.86,8.86,0,0,1,3.08,2.09,64.14,64.14,0,0,0,5.46-8.38l-4.27-1.56C119.94,148.86,118.32,151.92,117,154.15Z"/><path class="cls-69" d="M117.66,152.61c2.77,1.28,3.4,2.65,3.48,2.78,2.28-2.7,11.46-22.5,11.63-23-1.07-.16-3.3-2.5-3.38-2.5C125.93,129.9,119.69,149,117.66,152.61Z"/><path class="cls-67" d="M169.5,133.5a7.54,7.54,0,0,1-1.87,1.27c.8-.23.87.28,1.75.16.32-.15,1.22-1.43,1-1.69C170,132.8,169.78,133.21,169.5,133.5Z"/><path class="cls-67" d="M175.19,134.17a12.73,12.73,0,0,0-2.05,0c-.17,0-2.52.08-3.56.24a17.45,17.45,0,0,0-2.57.53l-.13,0-.49.17-.45.16c.17.2.35.44.52.68a7.87,7.87,0,0,1,1.23,2.69c1.47-.19,5.25-1.08,5.36-1.08,1.85,0,2.26-.62,1.91-1-.09-.09,1.13-.51.87-1a1.14,1.14,0,0,0,.22-.63S175.42,134.24,175.19,134.17Z"/><path class="cls-21" d="M163.59,134.23v5.42a44.61,44.61,0,0,0,5.88-1.05,8.42,8.42,0,0,1-1.39-4.52C166.67,134.21,165.15,134.22,163.59,134.23Z"/><path class="cls-70" d="M130.13,130.39a74.4,74.4,0,0,0-2,7.77c-.09,1.13-.82,4.09-.84,5.25l5.9,3.84c.85-1.19,5.71-14.44,6-14.9C138.75,132.7,130.13,130.39,130.13,130.39Z"/><path class="cls-22" d="M126.15,154.75c-.16.86-4.79,30.6-4.79,30.61,1.44,1.94,5,1.48,5,1.48s7.3-22,7.3-30.18C133.49,156,126.55,155.08,126.15,154.75Z"/><path class="cls-22" d="M132.75,161c.09.79,5.63,38.69,5.7,38.78,2.59,2.4,6.39.62,6.46.54s-2.94-36.93-3.1-38.74C140.5,162.33,133.57,161.59,132.75,161Z"/><path class="cls-69" d="M129.15,130.38c.3-.26,1.64-.53,1.94-.73-4-.82-5.19,7.63-5.19,9.66,0,4.28-.69,18.61-.69,18.61a3.54,3.54,0,0,0,1.6,1.2l2.21-3.55s.09-1.9.36-4.75c.11-1.3.26-2.6.37-3.91,0-.46.17-1.76.17-1.76-.06-.15-.9-1.49-1.14-2.13,0-.07-.05-.14-.08-.2a25.34,25.34,0,0,1-1.14-3.62,18.42,18.42,0,0,1-.48-3.91,9.75,9.75,0,0,1,.33-2.3l1.6-.66c.17-.27-.43-1.05-.4-1.26A1.59,1.59,0,0,1,129.15,130.38Z"/><path class="cls-69" d="M139.69,131.19h0l-.69-.27-.11,0c-.23-.08-5,8.22-6,8.79a5.43,5.43,0,0,0-1.5,1.24,6.82,6.82,0,0,0-1.3,3s0,.09,0,.15c-.15.67-.66,2.66-1,4.28a16.05,16.05,0,0,0-.35,1.93,42.87,42.87,0,0,0-.1,5.32l1.8,4.42c4.89,2.89,11.77,2,11.77,2a129.45,129.45,0,0,1,1.8-27.58C144.17,133.2,141.67,132,139.69,131.19Z"/><path class="cls-69" d="M165.65,134c-4.16.38-21.72-.86-23.78-1.68a66.29,66.29,0,0,1-.19,8s9.43.86,25.45-1a16.92,16.92,0,0,1-.92-2A11.07,11.07,0,0,1,165.65,134Z"/><path class="cls-21" d="M130.12,129.65a10.25,10.25,0,0,0-1,.73,1.59,1.59,0,0,0-.54.69c0,.21.57,1,.4,1.26l-1.6.66a9.75,9.75,0,0,0-.33,2.3,18.42,18.42,0,0,0,.48,3.91,25.34,25.34,0,0,0,1.14,3.62c0,.06.05.13.08.2a10.87,10.87,0,0,0,1.05,2c-.21-.56-.6-1.26-.78-1.87a5.75,5.75,0,0,1-.32-1.18,22.94,22.94,0,0,1-.12-4.06,1.64,1.64,0,0,1,0-.38,19.85,19.85,0,0,1,.83-4.59,5.27,5.27,0,0,1,.62-1.37h0l.18-.28a30,30,0,0,1,3.34-2.48C133.3,128.65,130.19,129.71,130.12,129.65Z"/><path class="cls-21" d="M135.74,129.55c-.32.3,1.57,2.87,1.3,3.25a11.7,11.7,0,0,1-1.1,1.18c-5.6,6.27-6.11,10.6-6.11,11,.11-.43,5.08-6.2,6.06-6.75.46-.27.12-1.6.28-2,.3,0,1.05.59,1.4.16,0-.08,2.75-2.68,2.13-4.55S136.38,129,135.74,129.55Z"/><path class="cls-21" d="M136.91,130a3,3,0,0,0,.26,1.12c-1.27,1.57-5,1.06-5.18.09,0-.06.71-1.47.72-1.66a14.07,14.07,0,0,0-2,1,2.82,2.82,0,0,0-.66,2.22,4.87,4.87,0,0,1,1.83-.95,5.66,5.66,0,0,1,.23,2.51A9.67,9.67,0,0,0,137,132.8C139,131.2,137.34,129.73,136.91,130Z"/><path class="cls-67" d="M132.13,128.05c0,.18.52,2.18-.23,3.17.17,1,4,1.47,5.27-.1-.4-.48-.38-3.11.23-4.26C137.05,127,133.1,128.19,132.13,128.05Z"/><path class="cls-67" d="M134.14,118.51c-2.35-.33-4.68.11-5.39,2.51-.26.85.12,2.11-.22,3.25-.57,1.93.5,4.89,1.87,6.47a1.35,1.35,0,0,0,.79.45c1.68.3,5.73-2.21,6-4.27,0,0,.4-2.8.4-2.82C138,121.37,136.66,118.87,134.14,118.51Z"/><path class="cls-22" d="M128.3,120c-.14.83.38,3,8.49,2.34,1.14,1.78.37,4.84.37,4.84,2.62-1.77,4-6.61,1.65-9.43C135.67,114.05,129,116.2,128.3,120Z"/><path class="cls-67" d="M137.15,123a1.28,1.28,0,0,0-.6,0,4,4,0,0,1,.19,3.54c.6-.09,1.3-1.48,1.37-2.07S137.77,123,137.15,123Z"/><g class="cls-65"><path class="cls-21" d="M250.4,261.37a12,12,0,0,0,5.87-1.33l1.42-.89c1.9-1,3-2.59,3-4.23a5,5,0,0,0-2.93-4.2L206,220.66a11.68,11.68,0,0,0-5.53-1.35,12,12,0,0,0-5.87,1.34l-1.42.88c-1.89,1.05-3,2.59-3,4.24a5,5,0,0,0,2.94,4.19L244.87,260A11.71,11.71,0,0,0,250.4,261.37Z"/></g><path class="cls-71" d="M254.74,219.13a15.76,15.76,0,0,0-3.39.78s.22,2.35-1.8,1.41c-1.41-.65-3.15-2.88-3.68-2.88,0,0-1.45,1.15-.19,3.37a11.79,11.79,0,0,1,1.45,3.21.55.55,0,0,0,.73-.12l-.74-2.84,3.29,1.51a2.1,2.1,0,0,0,1.69-.28,6.29,6.29,0,0,0,3-3.82C255.16,219.25,255,219.11,254.74,219.13Z"/><path class="cls-67" d="M247.2,203.55l1.19-.76a22.41,22.41,0,0,0-1.57,7.82c-.1,4.48-.16,6.91-.95,7.83a18.26,18.26,0,0,1,2.33,2.11c.71.79,2.7,1.63,3.87.67a.62.62,0,0,0-.16-1c-.89-.4-2.17-1.2-2.32-2.47-.19-1.6,4.06-14.45,4-18.44s-6.05-2.13-7.5-1.55Z"/><path class="cls-71" d="M260.67,224.52a15.58,15.58,0,0,0-3.38.78s.21,2.35-1.81,1.41c-1.41-.65-3.15-2.88-3.68-2.88,0,0-1.45,1.15-.18,3.37a11.88,11.88,0,0,1,1.44,3.21.55.55,0,0,0,.73-.12l-.74-2.83,3.29,1.5a2.1,2.1,0,0,0,1.69-.28,6.37,6.37,0,0,0,3-3.82C261.09,224.64,260.88,224.51,260.67,224.52Z"/><path class="cls-67" d="M253.13,208.94l1.19-.76a22.68,22.68,0,0,0-1.57,7.82c-.1,4.48-.15,6.92-.95,7.83a18,18,0,0,1,2.34,2.11c.7.79,2.69,1.63,3.86.67a.61.61,0,0,0-.15-1c-.9-.41-2.17-1.21-2.33-2.48-.19-1.6,4.06-14.45,4-18.44s-5.94-2.86-7.39-2.28Z"/><path class="cls-72" d="M252.2,216.06,208.33,189.8c-3.87-2.34-9.24,0-9.24,4v19.66a11.52,11.52,0,0,0,5.92,9.74l2.05,1.24-11.84,7.15,26.08,1.47,27.57,16.4c3.87,2.34,9.24,0,9.24-4V225.8A11.51,11.51,0,0,0,252.2,216.06Z"/><path class="cls-70" d="M255.17,213.53l-43.86-26.26c-3.18-1.92-7.35-.68-8.75,2a6.64,6.64,0,0,1,5.77.48l43.87,26.26a11.51,11.51,0,0,1,5.91,9.74v19.66a4.32,4.32,0,0,1-.49,2,5,5,0,0,0,3.47-4.52V223.27A11.53,11.53,0,0,0,255.17,213.53Z"/><path class="cls-73" d="M215.79,220.57l-7.26-4.46a2.32,2.32,0,0,0-2.48.15,1.52,1.52,0,0,0-.6,1.2v.71a4.25,4.25,0,0,0,2.13,3.55l7.25,4.45a2.27,2.27,0,0,0,2.5-.14,1.57,1.57,0,0,0,.6-1.2v-.7A4.24,4.24,0,0,0,215.79,220.57Zm1.46,4.26a1,1,0,0,1-.39.79,1.42,1.42,0,0,1-.88.3,1.34,1.34,0,0,1-.74-.22L208,221.26a3.69,3.69,0,0,1-1.86-3.09v-.71a1,1,0,0,1,.39-.78,1.41,1.41,0,0,1,.89-.3,1.44,1.44,0,0,1,.74.2L215.4,221a3.71,3.71,0,0,1,1.85,3.1Z"/><path class="cls-70" d="M217.25,224.13v.7a1,1,0,0,1-.39.79,1.42,1.42,0,0,1-.88.3,1.34,1.34,0,0,1-.74-.22L208,221.26a3.69,3.69,0,0,1-1.86-3.09v-.71a1,1,0,0,1,.39-.78,1.41,1.41,0,0,1,.89-.3,1.44,1.44,0,0,1,.74.2L215.4,221A3.71,3.71,0,0,1,217.25,224.13Z"/><path class="cls-72" d="M208.9,221.55c-.2,0-.31-.37-.47-.46l-.17-.09a3.49,3.49,0,0,1-1.83-2.92l-.41-.55a1.86,1.86,0,0,1,.63-.78,1.44,1.44,0,0,1,.73-.18,1.12,1.12,0,0,1,.55.14l.17.1a3.45,3.45,0,0,1,1.83,2.92v.73a1,1,0,0,1-.28.68A1.59,1.59,0,0,1,208.9,221.55Z"/><path class="cls-21" d="M208.55,221.61a1,1,0,0,1-.56-.15l-.17-.08a3.51,3.51,0,0,1-1.83-2.93v-.74a.7.7,0,0,1,.29-.56,1.13,1.13,0,0,1,.66-.21,1,1,0,0,1,.54.15l.18.09a3.45,3.45,0,0,1,1.83,2.92v.74a.71.71,0,0,1-.29.55A1.06,1.06,0,0,1,208.55,221.61Z"/><path class="cls-74" d="M215.38,220.92l-7.26-4.46a2.18,2.18,0,0,0-1.12-.3,2.2,2.2,0,0,0-1.36.45,1.56,1.56,0,0,0-.6,1.19v.71a4.22,4.22,0,0,0,2.14,3.55l7.25,4.46a2.24,2.24,0,0,0,1.14.31,2.28,2.28,0,0,0,1.35-.45,1.57,1.57,0,0,0,.6-1.21v-.7A4.24,4.24,0,0,0,215.38,220.92Zm1.47,4.25a1,1,0,0,1-.4.79,1.42,1.42,0,0,1-.88.3,1.39,1.39,0,0,1-.75-.21l-7.25-4.45a3.69,3.69,0,0,1-1.86-3.09v-.71a1,1,0,0,1,.39-.78,1.48,1.48,0,0,1,.9-.3,1.42,1.42,0,0,1,.74.21l7.24,4.45a3.67,3.67,0,0,1,1.87,3.09Z"/><path class="cls-75" d="M236.46,229.76v.38a.53.53,0,0,1-.21.43.75.75,0,0,1-.49.17.73.73,0,0,1-.41-.12l-7.28-4.46a2,2,0,0,1-1-1.7v-.39a.53.53,0,0,1,.21-.43.78.78,0,0,1,.49-.16.72.72,0,0,1,.41.11l7.28,4.46A2,2,0,0,1,236.46,229.76Z"/><path class="cls-75" d="M249.56,237.81v.38a.56.56,0,0,1-.21.44.8.8,0,0,1-.49.16.73.73,0,0,1-.41-.12l-10.21-6.23a2.05,2.05,0,0,1-1-1.7v-.39a.57.57,0,0,1,.22-.43.82.82,0,0,1,.49-.16.72.72,0,0,1,.41.11l10.21,6.23A2,2,0,0,1,249.56,237.81Z"/><path class="cls-75" d="M249.56,241.46v.38a.53.53,0,0,1-.21.43.75.75,0,0,1-.49.17.73.73,0,0,1-.41-.12l-12.66-7.76a2.05,2.05,0,0,1-1-1.7v-.39A.54.54,0,0,1,235,232a.77.77,0,0,1,.49-.17.75.75,0,0,1,.41.12l12.66,7.76A2,2,0,0,1,249.56,241.46Z"/><path class="cls-75" d="M249.56,245.36v.38a.56.56,0,0,1-.21.44.8.8,0,0,1-.49.16.73.73,0,0,1-.41-.12l-4-2.48a2,2,0,0,1-1-1.7v-.39a.56.56,0,0,1,.21-.43.87.87,0,0,1,.49-.16.72.72,0,0,1,.41.11l4,2.48A2,2,0,0,1,249.56,245.36Z"/><path class="cls-75" d="M233.87,231.79v.39a.55.55,0,0,1-.22.43.74.74,0,0,1-.48.17.82.82,0,0,1-.41-.12l-4.69-2.87a2,2,0,0,1-1-1.7v-.39a.56.56,0,0,1,.21-.43.84.84,0,0,1,.49-.16.72.72,0,0,1,.41.11l4.69,2.87A2.05,2.05,0,0,1,233.87,231.79Z"/><path class="cls-75" d="M242.72,241v.38a.57.57,0,0,1-.22.44.79.79,0,0,1-.48.16.73.73,0,0,1-.41-.12l-13.54-8.27a2,2,0,0,1-1-1.69v-.39a.53.53,0,0,1,.21-.43.79.79,0,0,1,.49-.17.81.81,0,0,1,.41.11l13.54,8.27A2.06,2.06,0,0,1,242.72,241Z"/><path class="cls-75" d="M236.46,213.93v.38a.53.53,0,0,1-.21.43.75.75,0,0,1-.49.17.73.73,0,0,1-.41-.12l-7.28-4.46a2,2,0,0,1-1-1.7v-.39a.53.53,0,0,1,.21-.43.79.79,0,0,1,.49-.17.73.73,0,0,1,.41.12l7.28,4.46A2,2,0,0,1,236.46,213.93Z"/><path class="cls-75" d="M249.56,222v.38a.56.56,0,0,1-.21.44.8.8,0,0,1-.49.16.73.73,0,0,1-.41-.12l-10.21-6.23a2.05,2.05,0,0,1-1-1.7v-.39a.55.55,0,0,1,.22-.43.82.82,0,0,1,.49-.16.81.81,0,0,1,.41.11l10.21,6.23A2,2,0,0,1,249.56,222Z"/><path class="cls-75" d="M249.56,225.63V226a.53.53,0,0,1-.21.43.75.75,0,0,1-.49.17.73.73,0,0,1-.41-.12l-12.66-7.76a2.05,2.05,0,0,1-1-1.7v-.39a.54.54,0,0,1,.22-.43.76.76,0,0,1,.49-.16.74.74,0,0,1,.41.11l12.66,7.76A2,2,0,0,1,249.56,225.63Z"/><path class="cls-75" d="M249.56,229.53v.38a.53.53,0,0,1-.21.43.75.75,0,0,1-.49.17.73.73,0,0,1-.41-.12l-4-2.48a2,2,0,0,1-1-1.7v-.39a.56.56,0,0,1,.21-.43.87.87,0,0,1,.49-.16.72.72,0,0,1,.41.11l4,2.48A2,2,0,0,1,249.56,229.53Z"/><path class="cls-75" d="M233.87,216v.39a.55.55,0,0,1-.22.43.74.74,0,0,1-.48.17.73.73,0,0,1-.41-.12L228.07,214a2,2,0,0,1-1-1.7v-.39a.56.56,0,0,1,.21-.43.84.84,0,0,1,.49-.16.81.81,0,0,1,.41.11l4.69,2.87A2.05,2.05,0,0,1,233.87,216Z"/><path class="cls-75" d="M242.72,225.18v.38a.57.57,0,0,1-.22.44.79.79,0,0,1-.48.16.73.73,0,0,1-.41-.12l-13.54-8.27a2,2,0,0,1-1-1.69v-.39a.53.53,0,0,1,.21-.43.79.79,0,0,1,.49-.17.81.81,0,0,1,.41.11l13.54,8.27A2.06,2.06,0,0,1,242.72,225.18Z"/><path class="cls-69" d="M250.61,201.24c-1.39-1-4.74-4-4.74-4l-.68,5.78c-4,3.76-9.26-1.45-9.3-1.49h0a7.64,7.64,0,0,0,1.6,9.75c4.86,4.35,10.6,2,16.56-3C254.05,208.35,255.21,204.43,250.61,201.24Z"/><path class="cls-75" d="M246.94,200c-.16.09-.17.24,0,.33l2,1.21a.59.59,0,0,0,.55,0l1.62-.94c.16-.09.17-.24,0-.33l-2-1.21a.65.65,0,0,0-.56,0Z"/><path class="cls-76" d="M262.05,199.6l-11.64-7a.68.68,0,0,0-.62,0l-8.28,4.79c-.17.11-.18.27,0,.37l11.64,7a.66.66,0,0,0,.61,0L262,200C262.21,199.86,262.22,199.7,262.05,199.6Zm-11,1-1.62.94a.59.59,0,0,1-.55,0l-2-1.21c-.15-.09-.14-.24,0-.33l1.61-.94a.65.65,0,0,1,.56,0l2,1.21C251.26,200.31,251.25,200.46,251.09,200.55Zm5.1,2L245.35,196l4.34-2.51L260.52,200Z"/><path class="cls-75" d="M241.38,197.58h0s0,0,0,0h0l0,0,0,0,0,0,11.64,7,.08,0h.31l.07,0h0l.07,0h0l.06,0L262,200a.24.24,0,0,0,.13-.18l0,.58a.24.24,0,0,1-.13.19l-8.29,4.79s0,0-.06,0h-.47a.2.2,0,0,1-.08,0l-11.65-7h0l0,0h0l0,0h0v0h0v0h0v-.59A.43.43,0,0,1,241.38,197.58Z"/><polygon class="cls-75" points="245.11 195.81 256.38 202.63 260.89 200.02 249.62 193.19 245.11 195.81"/><path class="cls-26" d="M245.5,195.76v.14h0l.39.24h.15l.65-.38v.09h0l.58.35h.14a0,0,0,0,1,0,0l.05,0v.12h0l.29.18H248l.07,0v.14h0s0,0,0,0h0l.09.06h0l-.41.24h-.15l-.51-.31s0,0,0,0l.36-.21s0,0,0,0v-.15a.07.07,0,0,1,0,.05l-.41.24h-.15l-.51-.31s0,0,0,0h0v.12h0l0,0h0l.51.3H247l0,0v.11h0l.5.3h.16l0,0v.13h0l.51.31h.15l0,0v.12h0l.51.31h.15l0,0v.12h0l3.41,2.07h.16l0,0v.11h0l.51.31h.15l.05,0v.11h0l.51.3h.15l0,0v.11h0l.51.3s0,0,0,0H255l0,0v.11h0l.51.3s0,0,0,0h.13l0,0v.11h0l.4.23,0,0h.13l.41-.23s0,0,0-.05V202h.06l.4-.23s0,0,0-.05v-.1l.16.09h.15l.41-.23s0,0,0,0v-.1l0,0h.15l.41-.24a.05.05,0,0,0,0,0v-.1l0,0h.15l.41-.24a.05.05,0,0,0,0-.05v-.14a.05.05,0,0,1,0,0l-.41.24h-.15l-1.11-.67,0,0h0l.35-.2a.05.05,0,0,0,0,0v-.1l.41.25h.15l0,0v.12h0l.51.31h.16l.4-.23a.05.05,0,0,0,0,0v-.1l.27.16h.15l.41-.24,0,0v-.15a.05.05,0,0,1,0,0l-.41.23,0,0H260l-.51-.3,0,0,.35-.21s0,0,0,0v-.15s0,0,0,0l-.41.23,0,0h-.09l0,0-.51-.31h0l.36-.21a.05.05,0,0,0,0,0v-.15s0,0,0,.05l-.41.23,0,0h-.12l-.51-.31h0l.36-.21a.05.05,0,0,0,0,0v-.15s0,0,0,.05l-.41.23,0,0h-.08l0,0-.5-.3,0,0,.35-.21,0,0V198s0,0,0,0l0,0-.41.24h-.15l-.51-.31h0l.36-.21a.05.05,0,0,0,0,0v-.13l0,0-.41.23h-.12l0,0-.51-.31h0l.36-.21a.05.05,0,0,0,0,0v-.14a.05.05,0,0,1,0,0l-.41.24h-.15l-.51-.31h0l.36-.21a.05.05,0,0,0,0,0v-.14s0,0,0,0L255,197h-.15l-.51-.31h0l.35-.21a.05.05,0,0,0,0-.05v-.14a.05.05,0,0,1,0,0l-.41.24h-.16l-.5-.31a0,0,0,0,1,0,0l.35-.2a.05.05,0,0,0,0-.05v-.14a.05.05,0,0,1,0,0l-.41.24h-.15l-.51-.31a0,0,0,0,1,0,0l.36-.2s0,0,0-.05v-.14a.05.05,0,0,1,0,0l-.41.24h-.15l-.51-.31,0,0,.36-.2a.05.05,0,0,0,0-.05V195s0,0,0,0l-.41.24H252l-.51-.31,0,0h0l.35-.21s0,0,0,0v-.15s0,0,0,.05l-.41.23,0,0h-.11l-.51-.3,0,0,.36-.21a.05.05,0,0,0,0,0v-.15s0,0,0,.05l-.41.23,0,0h-.09l0,0-.51-.3h0l.35-.21s0,0,0,0v-.15s0,0,0,0l-.41.24,0,0h-.09l0,0-.51-.31a0,0,0,0,1,0,0h0s0,0,0,0v.15h0l.51.31h.14a0,0,0,0,1,0,0l0,0v.1h0l.51.31h.15l0,0v.12h0l.23.14h0l-.41.23,0,0h-.08l0,0-1.72-1,0,0h0a0,0,0,0,1,0,0v.15h0l.5.31h0l-.41.24h-.15l-.55-.34a0,0,0,0,1,0,0h0v.13h0l.34.2h0l-1,.6h-.15l-.38-.23,0,0h0v.12h0l.34.2h0l-1,.6h-.15l-.38-.23,0,0h0Zm2.66.12.34-.2s0,0,0-.05v-.09h.18l.41-.23s0,0,0,0v-.1l.18.11h.15l.41-.24s0,0,0,0v-.11l.44.27h.15l.05,0v.12h0l.07,0h0l-.55.32v.15l.19-.11v.12h0l.22.14s0,0,0,0l-.41.23,0,0H250l0,0-1-.61h0s0,0,0,0v.15h0l.45.28h0l-.41.24h-.15l-.67-.41s0,0,0,0h0Z"/><path class="cls-26" d="M247.39,195.43h0l.61-.36v.12h0l.5.3h0l-.41.24h-.15Z"/><path class="cls-26" d="M248.74,194.82l0,0v.1h0l.35.21h0l-.4.24h-.16l-.55-.34h0l.36-.21a.05.05,0,0,0,0,0v-.1l.19.12h.16Z"/><path class="cls-26" d="M249.14,194.59s0,0,0-.05v-.1l.74.44v0l-.41.23,0,0h-.08l0,0-.55-.33s0,0,0,0Z"/><path class="cls-26" d="M249.06,196.43h0l.35-.21s0,0,0,0v-.1l.52.32h.15l0,0v.11h0l-.41.24h-.15l-.51-.31Z"/><path class="cls-26" d="M250,197.29v-.11l.27.17h.15l0,0v.12h0l.22.13,0,0-.41.23,0,0h-.09l0,0-.51-.3,0,0,.36-.21S250,197.31,250,197.29Z"/><path class="cls-26" d="M250.9,198.3l-.51-.3s0,0,0,0l.36-.21s0,0,0,0v-.11l.28.17h.15l0,0v.12h0l.21.13v0l-.41.23,0,0h-.08Z"/><path class="cls-26" d="M251.62,198.75l-.5-.31s0,0,0,0l.35-.21s0,0,0,0v-.11l.27.17h.16l0,0v.12h0l.22.13v0l-.41.24h-.16Z"/><path class="cls-26" d="M252.35,199.18l-.51-.3v0l.35-.2s0,0,0,0v-.11l.27.17h.15l0,0v.12h0l.22.13,0,0-.41.23,0,0h-.08Z"/><path class="cls-26" d="M253.08,199.63l-.51-.31,0,0,.36-.21s0,0,0,0v-.11l.28.17h.15l0,0v.12h0l.22.14h0l-.41.24h-.15Z"/><path class="cls-26" d="M253.81,200.07l-.51-.31,0,0,.36-.2s0,0,0,0v-.11l.27.17h.15l0,0v.11h0l.22.14h0l-.41.24h-.15Z"/><path class="cls-26" d="M254.54,200.51l-.51-.31,0,0,.35-.2s0,0,0,0v-.11l.28.17h.15l0,0v.11h0l.22.14h0l-.41.24h-.15Z"/><path class="cls-26" d="M255.26,201l-.5-.31,0,0,.35-.2a.07.07,0,0,0,0,0v-.1l.27.16h.15l0,0v.11h0l.22.14h0l-.41.24h-.16Z"/><path class="cls-26" d="M256,201.39l-.51-.31,0,0,.36-.2s0,0,0-.05v-.1l.27.16h.15l.05,0V201h0l.21.13h0l-.41.24H256Z"/><path class="cls-26" d="M257.15,199.26l.09.05h0l-.41.24h-.15l-.51-.31,0,0,.36-.2s0,0,0-.05v-.1l.41.25h.15l0,0v.12h0Z"/><path class="cls-26" d="M256.43,198.82l.08.05h0l-.41.24h-.16l-.5-.31s0,0,0,0l.35-.2s0,0,0-.05v-.1l.41.25h.15l0,0v.12h0Z"/><path class="cls-26" d="M255.7,198.38l.08.05h0l-.41.24h-.15l-.51-.31s0,0,0,0l.35-.2s0,0,0-.05V198l.41.25h.15l0,0v.11h0Z"/><path class="cls-26" d="M255,197.94l.08.05h0l-.41.24h-.15l-.51-.31,0,0,.36-.21s0,0,0,0v-.1l.41.25h.15l0,0v.12h0Z"/><path class="cls-26" d="M254.24,197.5l.08.05h0l-.41.24h-.15l-.51-.31,0,0,.36-.21s0,0,0,0v-.1l.4.25h.15l.05,0v.11h0Z"/><path class="cls-26" d="M253.51,197.06l.09.05h0l-.41.23,0,0h-.08a.05.05,0,0,1,0,0l-.51-.3s0,0,0,0l.35-.21s0,0,0,0v-.1l.4.24h.16l0,0V197h0Z"/><path class="cls-26" d="M252.79,196.62l.08,0h0l-.41.23,0,0h-.08l0,0-.51-.3,0,0,.35-.21s0,0,0,0v-.1l.41.24s0,0,0,0h.13l0,0v.11h0Z"/><path class="cls-26" d="M252.06,196.18l.08,0h0l-.41.23,0,0h-.08l0,0-.51-.3,0,0,.36-.21a.05.05,0,0,0,0,0v-.1l.41.24H252a0,0,0,0,0,0,0l0,0v.11h0Z"/><path class="cls-26" d="M251.33,195.74l.08,0h0L251,196l0,0h-.09l0,0-.51-.3,0,0h0l.35-.2a.1.1,0,0,0,0-.05v-.1l.41.25h.15l.05,0v.11h0a0,0,0,0,1,0,0Z"/><path class="cls-26" d="M250.56,196.12V196l.27.16H251l0,0v.11h0l.22.14h0l-.4.23,0,0h-.08l0,0-.51-.3v0l.35-.21A.05.05,0,0,0,250.56,196.12Z"/><path class="cls-26" d="M250.51,197.32l.36-.21a.05.05,0,0,0,0-.05V197h0l.51.31h.15l0,0v.11h0l-.41.24H251l-.51-.31Z"/><path class="cls-26" d="M251.26,197.77h0l.36-.21a.05.05,0,0,0,0,0v-.1h0l.51.31h.15l0,0v.11h0l-.41.24h-.15Z"/><path class="cls-26" d="M252,198.21h0l.35-.21a.05.05,0,0,0,0-.05v-.09h0l.51.31H253l0,0v.11h0l-.41.24,0,0h-.11Z"/><path class="cls-26" d="M252.72,198.66l0,0,.35-.21,0,0v-.1h0l.51.3h.15l0,0v.11h0l0,0-.4.23,0,0h-.08l0,0Z"/><path class="cls-26" d="M253.45,199.1l0,0,.36-.21a.05.05,0,0,0,0,0v-.1h0l.51.3h.15l0,0v.11h0l0,0-.4.23,0,0H254l0,0Z"/><path class="cls-26" d="M254.17,199.54l0,0,.36-.21a.05.05,0,0,0,0,0v-.1h0l.5.3,0,0h.13l0,0v.11h0l0,0-.41.23,0,0h-.09l0,0Z"/><path class="cls-26" d="M254.9,200l0,0,.36-.21a.05.05,0,0,0,0,0v-.1h0l.51.31h.15l.05,0V200h0l0,0-.41.23,0,0h-.08l0,0Z"/><path class="cls-26" d="M256.15,199.4l.22.13h0l-.41.24h-.15l-.51-.31a0,0,0,0,1,0,0l.36-.2s0,0,0-.05v-.1l.27.16,0,0h.13l0,0v.11h0Z"/><path class="cls-26" d="M255.42,199l.22.13h0l-.41.24h-.15l-.51-.31,0,0,.36-.2s0,0,0-.05v-.1l.27.16,0,0h.13l.05,0v.11h0Z"/><path class="cls-26" d="M254.69,198.52l.22.13h0l-.41.24h-.15l-.51-.31,0,0,.36-.21s0,0,0,0v-.1l.26.16h.15l0,0v.11h0Z"/><path class="cls-26" d="M254,198.08l.22.13h0l-.41.24h-.15l-.51-.31s0,0,0,0l.35-.21a.08.08,0,0,0,0,0v-.1l.27.16h.15l0,0V198h0Z"/><path class="cls-26" d="M253.24,197.64l.22.13h0L253,198l0,0h-.11l-.51-.31,0,0,.35-.21s0,0,0,0v-.1l.27.16h.15l0,0v.11h0Z"/><path class="cls-26" d="M252.51,197.19l.22.14h0l-.41.23,0,0h-.11l-.51-.31,0,0L252,197s0,0,0,0v-.1l.27.16h.15l0,0v.11h0Z"/><path class="cls-26" d="M251.78,196.75l.22.14h0l-.41.23,0,0h-.09l0,0-.51-.3s0,0,0,0l.36-.21a.05.05,0,0,0,0,0v-.1l.26.16h.15l0,0v.11h0Z"/><path class="cls-26" d="M256.88,199.84l.22.13h0l-.41.24h-.16l-.5-.31s0,0,0,0l.35-.2s0,0,0-.05v-.1l.27.17h.15l0,0v.11h0Z"/><path class="cls-26" d="M256.71,200.47s0,0,0,0l-.41.23,0,0h-.08l0,0-.51-.3,0,0,.35-.21s0,0,0,0v-.1h0l.51.31h.15l0,0v.11h0Z"/><path class="cls-26" d="M249.81,196.89h0l.35-.21a.07.07,0,0,0,0,0v-.09h0l.51.31h.15l0,0v.11h0l-.41.24,0,0h-.12Z"/><path class="cls-26" d="M251.47,195.08l.22.13h0l-.41.24h-.15l-.51-.31,0,0h0l.35-.21s0,0,0,0v-.1l.26.16h.15l.05,0V195h0Z"/><path class="cls-26" d="M252.2,195.52l.22.13h0l-.41.24h-.15l-.51-.31a0,0,0,0,1,0,0l.35-.2s0,0,0-.05v-.1l.27.17h.15l0,0v.11h0Z"/><path class="cls-26" d="M252.92,196l.22.13h0l-.41.24h-.15l-.5-.31a0,0,0,0,1,0,0l.35-.2s0,0,0-.05v-.1l.26.17h.16l0,0v.11h0Z"/><path class="cls-26" d="M253.65,196.4l.22.13h0l-.41.24h-.15l-.51-.31s0,0,0,0l.36-.2s0,0,0-.05v-.1l.26.16,0,0h.12l0,0v.11h0Z"/><path class="cls-26" d="M254.38,196.84l.22.13h0l-.41.24H254l-.51-.31s0,0,0,0l.36-.2a.05.05,0,0,0,0-.05v-.1l.27.17h.15l0,0v.11h0Z"/><path class="cls-26" d="M255.11,197.28l.22.13h0l-.41.24h-.15l-.51-.31,0,0,.35-.2a.05.05,0,0,0,0,0V197l.27.17H255l0,0v.11h0Z"/><path class="cls-26" d="M255.84,197.72l.22.13h0l-.4.24h-.16l-.5-.31,0,0,.35-.2a.05.05,0,0,0,0,0v-.1l.26.17h.16l0,0v.12h0Z"/><path class="cls-26" d="M256.56,198.16l.22.14h0l-.41.24h-.15l-.51-.31h0L256,198a.05.05,0,0,0,0,0v-.1l.26.16h.16l0,0v.12h0Z"/><path class="cls-26" d="M257.29,198.6l.22.13s0,0,0,0l-.41.24h-.15l-.51-.31h0l.36-.21a.05.05,0,0,0,0,0v-.1l.27.16h.15l0,0v.12h0Z"/><path class="cls-26" d="M258,199l.22.14h0l-.41.24h-.15l-.51-.31h0l.36-.21a.05.05,0,0,0,0,0v-.1l.27.16H258l0,0V199h0Z"/><path class="cls-26" d="M258.61,200s0,0,0,0l.36-.21a.05.05,0,0,0,0,0v-.1l.26.16h.16l0,0v.12h0l.22.14h0l-.41.23,0,0h-.09l0,0Z"/><path class="cls-26" d="M258.39,199.86l-.5-.31h0l.35-.21s0,0,0,0v-.1l.27.16h.15l0,0v.12h0l.22.14h0l-.42.23,0,0h-.08Z"/><path class="cls-26" d="M258,199.76l-.41.24h-.15l-.51-.31,0,0,.36-.2a.05.05,0,0,0,0-.05v-.1l.41.25h.14a0,0,0,0,1,0,0l.05,0v.12h0l.08.05Z"/><path class="cls-26" d="M257.61,200.28l.21.13h0l-.41.24h-.15l-.51-.31,0,0,.36-.2s0,0,0,0V200l.27.17h.15l0,0v.13h0Z"/><path class="cls-26" d="M258.1,201.17l-.63-.38s0,0,0,0l.36-.2s0,0,0,0v-.09l.82.5h0l-.41.23,0,0h-.08Z"/><path class="cls-26" d="M257.48,201.54l-1.11-.68,0,0h0l.35-.21s0,0,0,0v-.1h0l.51.31h.15l0,0v.11h0l.58.35h0l-.41.24h-.15Z"/><path class="cls-26" d="M256.87,201.83h-.15l-.51-.31s0,0,0,0l.36-.2a.05.05,0,0,0,0-.05v-.1l.72.43h0Z"/><path class="cls-26" d="M255.82,202l0,0,.36-.2s0,0,0-.05v-.1h0l.5.3,0,0h.06s0,0,0,0l-.4.24h-.16Z"/><path class="cls-26" d="M255.09,201.59l0,0,.36-.21s0,0,0,0v-.1h0l.51.31h.15l0,0v.11h0s0,0,0,0l-.41.24h-.15Z"/><path class="cls-26" d="M254.37,201.15l0,0,.35-.2s0,0,0-.05v-.1h0l.51.3h.15l0,0v.11h0s0,0,0,0l-.4.24h-.16Z"/><path class="cls-26" d="M253.64,200.71l0,0,.35-.21s0,0,0,0v-.1h0l.51.3h.15l0,0v.11h0l0,0-.41.23,0,0h-.11Z"/><path class="cls-26" d="M252.91,200.27l0,0,.36-.21a.05.05,0,0,0,0,0v-.1h0l.5.3H254l.05,0v.11h0l0,0-.41.24h-.15Z"/><path class="cls-26" d="M249.27,198.06h0l.36-.21a.05.05,0,0,0,0,0v-.11h0l.51.31h.15l0,0v.11h0l.51.31H251l.05,0v.11h0a0,0,0,0,0,0,0h0l.51.31h.15l0,0V199h0l.51.31h.15l0,0v.11h0l.51.3h.15l0,0v.11h0l0,0-.41.23,0,0h-.12Z"/><path class="cls-26" d="M248.54,197.62l0,0,.36-.2a.05.05,0,0,0,0-.05v-.09l.52.31h.15l0,0v.11h0l-.41.24h-.15Z"/><path class="cls-26" d="M248.18,196.91v-.1l.19.12h.16l.05,0V197h0v0h0l.3.17h0l-.41.24,0,0h-.08l0,0-.5-.31,0,0h0l.36-.2S248.18,196.93,248.18,196.91Z"/><path class="cls-26" d="M248.08,196.6l0,0h0v0l.34-.2a.05.05,0,0,0,0-.05v-.1l.42.25H249l.05,0v.12h0l.51.31h.15l.05,0V197h0l.22.13s0,0,0,0l-.41.23,0,0h-.09l0,0-.83-.5,0,0h0l.36-.2a.05.05,0,0,0,0,0v-.15a.05.05,0,0,1,0,0l-.41.24h-.15Z"/><path class="cls-26" d="M247.55,196.28l0,0,.35-.21a.05.05,0,0,0,0,0v-.11h0l0,0h.13l.06,0V196h0l.23.14v0l-.41.23h-.12s0,0,0,0Z"/><path class="cls-26" d="M246.74,195.79h0l.36-.2s0,0,0-.05v-.1l0,0h.15l0,0v.12h0l.51.31s0,0,0,0l-.41.23,0,0h-.08s0,0,0,0Z"/><path class="cls-70" d="M249.3,193.52s0,.07,0,.09l.51.31a.14.14,0,0,0,.15,0l.41-.24s0-.06,0-.09l-.5-.3a.15.15,0,0,0-.16,0Z"/><path class="cls-70" d="M250,194c-.05,0-.05.06,0,.09l.51.3a.14.14,0,0,0,.15,0l.41-.23s0-.07,0-.09l-.51-.31a.14.14,0,0,0-.15,0Z"/><path class="cls-70" d="M250.74,194.4s0,.06,0,.09l.51.3a.14.14,0,0,0,.15,0l.41-.23s0-.07,0-.09l-.5-.31a.22.22,0,0,0-.16,0Z"/><path class="cls-70" d="M251.48,194.84s0,.07,0,.09l.51.31a.19.19,0,0,0,.15,0l.41-.24c.05,0,.05-.06,0-.09l-.51-.31a.2.2,0,0,0-.15,0Z"/><path class="cls-70" d="M252.21,195.28c-.05,0-.05.07,0,.09l.51.31a.19.19,0,0,0,.15,0l.41-.24a0,0,0,0,0,0-.09l-.51-.31a.2.2,0,0,0-.15,0Z"/><path class="cls-70" d="M252.93,195.72s0,.07,0,.09l.51.31a.2.2,0,0,0,.15,0l.41-.24s0-.06,0-.09l-.51-.31a.19.19,0,0,0-.15,0Z"/><path class="cls-70" d="M253.66,196.16s0,.07,0,.09l.5.31a.22.22,0,0,0,.16,0l.41-.24s0-.06,0-.09l-.51-.3a.14.14,0,0,0-.15,0Z"/><path class="cls-70" d="M254.39,196.6s0,.07,0,.09l.51.31a.2.2,0,0,0,.15,0l.41-.24c.05,0,.05-.06,0-.09l-.51-.31a.2.2,0,0,0-.15,0Z"/><path class="cls-70" d="M255.12,197c-.05,0-.05.07,0,.09l.51.31a.16.16,0,0,0,.15,0l.41-.24s.05-.06,0-.09l-.5-.31a.16.16,0,0,0-.15,0Z"/><path class="cls-70" d="M255.85,197.48s0,.07,0,.09l.51.31a.14.14,0,0,0,.15,0l.41-.24a0,0,0,0,0,0-.08l-.5-.31a.15.15,0,0,0-.16,0Z"/><path class="cls-70" d="M256.57,197.92s0,.07,0,.09l.51.31a.14.14,0,0,0,.15,0l.41-.24s0-.06,0-.09l-.51-.3a.14.14,0,0,0-.15,0Z"/><path class="cls-70" d="M257.3,198.36s-.05.07,0,.1l.5.3a.15.15,0,0,0,.16,0l.41-.23s0-.07,0-.09l-.51-.31a.14.14,0,0,0-.15,0Z"/><path class="cls-70" d="M258,198.8s0,.07,0,.09l.51.31a.14.14,0,0,0,.15,0l.41-.24c.05,0,.05-.06,0-.08l-.51-.31a.14.14,0,0,0-.15,0Z"/><path class="cls-70" d="M258.75,199.25s0,.06,0,.09l.51.3a.14.14,0,0,0,.15,0l.41-.23s0-.07,0-.09l-.5-.31a.15.15,0,0,0-.16,0Z"/><path class="cls-70" d="M259.48,199.68a.06.06,0,0,0,0,.1l.51.3a.14.14,0,0,0,.15,0l.41-.23s0-.07,0-.09l-.51-.31a.14.14,0,0,0-.15,0Z"/><path class="cls-70" d="M248.68,193.89c-.05,0-.05.06,0,.09l1.72,1a.14.14,0,0,0,.15,0l.41-.23s0-.07,0-.09l-1.71-1a.2.2,0,0,0-.15,0Z"/><path class="cls-70" d="M250.61,195.06a0,0,0,0,0,0,.09l.51.31a.2.2,0,0,0,.15,0l.41-.24s0-.06,0-.09l-.51-.31a.19.19,0,0,0-.15,0Z"/><path class="cls-70" d="M251.34,195.5a0,0,0,0,0,0,.09l.51.31a.19.19,0,0,0,.15,0l.41-.24a0,0,0,0,0,0-.09l-.51-.31a.2.2,0,0,0-.15,0Z"/><path class="cls-70" d="M252.07,195.94s0,.07,0,.09l.5.31a.19.19,0,0,0,.15,0l.41-.24c.05,0,.05-.06,0-.09l-.51-.31a.19.19,0,0,0-.15,0Z"/><path class="cls-70" d="M252.8,196.38c-.05,0-.05.07,0,.09l.51.31a.19.19,0,0,0,.15,0l.41-.24s0-.06,0-.09l-.5-.31a.22.22,0,0,0-.16,0Z"/><path class="cls-70" d="M253.52,196.82s0,.07,0,.09l.51.31a.2.2,0,0,0,.15,0l.41-.24s0-.06,0-.09l-.51-.3a.14.14,0,0,0-.15,0Z"/><path class="cls-70" d="M254.25,197.26s0,.07,0,.09l.51.31a.19.19,0,0,0,.15,0l.41-.24s0-.06,0-.09l-.51-.31a.19.19,0,0,0-.15,0Z"/><path class="cls-70" d="M255,197.7s0,.07,0,.09l.5.31a.15.15,0,0,0,.16,0l.4-.24s0-.06,0-.09l-.51-.3a.14.14,0,0,0-.15,0Z"/><path class="cls-70" d="M255.71,198.14c-.05,0-.05.07,0,.09l.51.31a.2.2,0,0,0,.15,0l.41-.24c.05,0,.05-.06,0-.09l-.51-.3a.14.14,0,0,0-.15,0Z"/><path class="cls-70" d="M256.44,198.58c-.05,0-.05.07,0,.09l.51.31a.14.14,0,0,0,.15,0l.41-.24a0,0,0,0,0,0-.08l-.5-.31a.15.15,0,0,0-.16,0Z"/><path class="cls-70" d="M257.16,199s0,.07,0,.09l.51.31a.14.14,0,0,0,.15,0l.41-.24a0,0,0,0,0,0-.08l-.51-.31a.14.14,0,0,0-.15,0Z"/><path class="cls-70" d="M257.89,199.47a0,0,0,0,0,0,.08l.5.31a.14.14,0,0,0,.15,0l.42-.23s0-.07,0-.09l-.51-.31a.14.14,0,0,0-.15,0Z"/><path class="cls-70" d="M258.62,199.9c-.05,0-.05.07,0,.1l.51.3a.14.14,0,0,0,.15,0l.41-.23c.05,0,.05-.07,0-.09l-.51-.31a.14.14,0,0,0-.15,0Z"/><path class="cls-70" d="M248,194.26a0,0,0,0,0,0,.08l.55.34a.2.2,0,0,0,.15,0l.41-.24s0-.07,0-.09l-.54-.33a.15.15,0,0,0-.16,0Z"/><path class="cls-70" d="M248.8,194.71s0,.07,0,.09l.55.33a.14.14,0,0,0,.15,0l.41-.23s0-.07,0-.09l-.55-.33a.14.14,0,0,0-.15,0Z"/><path class="cls-70" d="M246.79,195a0,0,0,0,0,0,.09l.38.23a.14.14,0,0,0,.15,0l1-.6s0-.06,0-.09l-.38-.23a.22.22,0,0,0-.16,0Z"/><path class="cls-70" d="M248,195s-.05.07,0,.09l.55.34a.22.22,0,0,0,.16,0l.4-.24s0-.07,0-.09l-.55-.33a.14.14,0,0,0-.15,0Z"/><path class="cls-70" d="M250.34,195.64c-.05,0-.05.06,0,.09l.51.3a.14.14,0,0,0,.15,0l.41-.23s0-.07,0-.09l-.51-.31a.14.14,0,0,0-.15,0Z"/><path class="cls-70" d="M249,195.56a0,0,0,0,0,0,.08l1,.61a.14.14,0,0,0,.15,0l.41-.23s0-.07,0-.09l-.42-.26.55-.32s0-.06,0-.09l-.51-.3a.14.14,0,0,0-.15,0l-.63.36-.15.08Z"/><path class="cls-70" d="M251.06,196.08s0,.06,0,.09l.51.3a.14.14,0,0,0,.15,0l.41-.23s0-.07,0-.09l-.51-.31a.19.19,0,0,0-.15,0Z"/><path class="cls-70" d="M251.79,196.52s0,.06,0,.09l.51.3a.14.14,0,0,0,.15,0l.41-.23s0-.07,0-.09l-.51-.31a.19.19,0,0,0-.15,0Z"/><path class="cls-70" d="M252.52,197a0,0,0,0,0,0,.09l.51.3a.14.14,0,0,0,.15,0l.41-.23s0-.07,0-.09l-.51-.31a.19.19,0,0,0-.15,0Z"/><path class="cls-70" d="M253.25,197.4c-.05,0-.05.06,0,.09l.51.31a.19.19,0,0,0,.15,0l.41-.24s.05-.07,0-.09l-.51-.31a.19.19,0,0,0-.15,0Z"/><path class="cls-70" d="M254,197.84s0,.06,0,.09l.51.31a.19.19,0,0,0,.15,0L255,198s0-.07,0-.09l-.5-.31a.22.22,0,0,0-.16,0Z"/><path class="cls-70" d="M254.7,198.28a0,0,0,0,0,0,.09l.51.31a.19.19,0,0,0,.15,0l.41-.24a0,0,0,0,0,0-.09l-.51-.31a.2.2,0,0,0-.15,0Z"/><path class="cls-70" d="M255.43,198.72s0,.07,0,.09l.5.31a.22.22,0,0,0,.16,0l.41-.24a0,0,0,0,0,0-.09l-.51-.31a.2.2,0,0,0-.15,0Z"/><path class="cls-70" d="M256.16,199.16s-.05.07,0,.09l.51.31a.19.19,0,0,0,.15,0l.41-.24s0-.06,0-.09l-.51-.3a.14.14,0,0,0-.15,0Z"/><path class="cls-70" d="M256.89,199.6c-.05,0-.05.07,0,.09l.51.31a.19.19,0,0,0,.15,0l.41-.24s.05-.06,0-.09l-.5-.3a.15.15,0,0,0-.16,0Z"/><path class="cls-70" d="M257.62,200.05s0,.06,0,.09l1.11.67a.14.14,0,0,0,.15,0l.41-.24a.05.05,0,0,0,0-.09l-1.12-.67a.19.19,0,0,0-.15,0Z"/><path class="cls-70" d="M250.2,196.3a0,0,0,0,0,0,.09l.51.3a.15.15,0,0,0,.16,0l.4-.23c.05,0,.05-.07,0-.09l-.51-.31a.14.14,0,0,0-.15,0Z"/><path class="cls-70" d="M250.93,196.74c-.05,0-.05.06,0,.09l.51.3a.14.14,0,0,0,.15,0l.41-.23s0-.07,0-.09l-.51-.31a.16.16,0,0,0-.15,0Z"/><path class="cls-70" d="M251.65,197.18s0,.06,0,.09l.51.31a.16.16,0,0,0,.15,0l.41-.23s0-.07,0-.09l-.51-.31a.19.19,0,0,0-.15,0Z"/><path class="cls-70" d="M252.38,197.62s0,.06,0,.09l.51.31a.16.16,0,0,0,.15,0l.41-.23s0-.07,0-.09l-.51-.31a.19.19,0,0,0-.15,0Z"/><path class="cls-70" d="M253.11,198.06a0,0,0,0,0,0,.09l.51.31a.19.19,0,0,0,.15,0l.41-.24c.05,0,.05-.07,0-.09l-.51-.31a.2.2,0,0,0-.15,0Z"/><path class="cls-70" d="M253.84,198.5c-.05,0-.05.06,0,.09l.51.31a.2.2,0,0,0,.15,0l.41-.24s0-.07,0-.09l-.51-.31a.2.2,0,0,0-.15,0Z"/><path class="cls-70" d="M254.57,198.94s0,.06,0,.09l.51.31a.19.19,0,0,0,.15,0l.41-.24s.05-.06,0-.09l-.5-.31a.19.19,0,0,0-.15,0Z"/><path class="cls-70" d="M255.29,199.38s0,.07,0,.09l.51.31a.19.19,0,0,0,.15,0l.41-.24a0,0,0,0,0,0-.09l-.51-.31a.19.19,0,0,0-.15,0Z"/><path class="cls-70" d="M256,199.82s0,.07,0,.09l.5.31a.22.22,0,0,0,.16,0l.41-.24s0-.06,0-.09l-.51-.31a.19.19,0,0,0-.15,0Z"/><path class="cls-70" d="M256.75,200.26s-.05.07,0,.09l.51.31a.19.19,0,0,0,.15,0l.41-.24c.05,0,.05-.06,0-.09l-.51-.31a.19.19,0,0,0-.15,0Z"/><path class="cls-70" d="M257.48,200.7c-.05,0-.05.07,0,.09l.63.38a.14.14,0,0,0,.15,0l.41-.23s0-.07,0-.09l-.63-.38a.15.15,0,0,0-.16,0Z"/><path class="cls-70" d="M247.4,195.35c-.05,0-.05.06,0,.08l.55.34a.2.2,0,0,0,.15,0l.41-.24s.05-.06,0-.09l-.54-.33a.15.15,0,0,0-.16,0Z"/><path class="cls-70" d="M248.19,195.82c-.05,0-.05.07,0,.09l.67.41a.19.19,0,0,0,.15,0l.41-.24c.05,0,.05-.07,0-.09l-.67-.41a.2.2,0,0,0-.15,0Z"/><path class="cls-70" d="M249.08,196.36s0,.07,0,.09l.51.31a.14.14,0,0,0,.15,0l.41-.24s0-.06,0-.09l-.51-.3a.14.14,0,0,0-.15,0Z"/><path class="cls-70" d="M249.81,196.8s0,.07,0,.09l.5.31a.22.22,0,0,0,.16,0l.41-.24a0,0,0,0,0,0-.08l-.51-.31a.14.14,0,0,0-.15,0Z"/><path class="cls-70" d="M250.54,197.24s0,.07,0,.09l.51.31a.14.14,0,0,0,.15,0l.41-.24c.05,0,.05-.06,0-.09l-.51-.3a.14.14,0,0,0-.15,0Z"/><path class="cls-70" d="M251.26,197.68s0,.07,0,.09l.51.31a.16.16,0,0,0,.15,0l.41-.24s0-.06,0-.09l-.5-.3a.15.15,0,0,0-.16,0Z"/><path class="cls-70" d="M252,198.12s0,.07,0,.09l.51.31a.14.14,0,0,0,.15,0l.41-.24s0-.06,0-.09l-.51-.3a.14.14,0,0,0-.15,0Z"/><path class="cls-70" d="M252.72,198.56s-.05.07,0,.1l.5.3a.15.15,0,0,0,.16,0l.4-.23c.05,0,.05-.07,0-.09l-.51-.31a.14.14,0,0,0-.15,0Z"/><path class="cls-70" d="M253.45,199s0,.06,0,.09l.5.3a.15.15,0,0,0,.16,0l.4-.23c.05,0,.05-.07,0-.09l-.51-.31a.14.14,0,0,0-.15,0Z"/><path class="cls-70" d="M254.18,199.45c-.05,0-.05.06,0,.09l.51.3a.14.14,0,0,0,.15,0l.41-.23s0-.07,0-.09l-.51-.31a.14.14,0,0,0-.15,0Z"/><path class="cls-70" d="M254.9,199.89s0,.06,0,.09l.51.3a.14.14,0,0,0,.15,0l.41-.23s0-.07,0-.09l-.51-.31a.19.19,0,0,0-.15,0Z"/><path class="cls-70" d="M255.63,200.33s0,.06,0,.09l.51.3a.14.14,0,0,0,.15,0l.41-.23s0-.07,0-.09l-.51-.31a.2.2,0,0,0-.15,0Z"/><path class="cls-70" d="M256.37,200.77s-.05.07,0,.09l1.11.68a.19.19,0,0,0,.15,0l.41-.24s0-.07,0-.09l-1.11-.67a.14.14,0,0,0-.15,0Z"/><path class="cls-70" d="M245.53,195.71s0,.06,0,.09l.38.23a.16.16,0,0,0,.15,0l1-.6s.05-.06,0-.09l-.38-.23a.14.14,0,0,0-.15,0Z"/><path class="cls-70" d="M246.75,195.7s-.05.07,0,.09l.59.35a.14.14,0,0,0,.15,0l.41-.23s0-.07,0-.09l-.58-.36a.19.19,0,0,0-.15,0Z"/><path class="cls-70" d="M247.55,196.19s0,.06,0,.09l.29.17a.14.14,0,0,0,.15,0l.41-.23a.06.06,0,0,0,0-.1l-.29-.17a.19.19,0,0,0-.15,0Z"/><path class="cls-70" d="M248.08,196.51s0,.06,0,.09l.3.18a.19.19,0,0,0,.15,0l.41-.24a0,0,0,0,0,0-.09l-.31-.18a.19.19,0,0,0-.15,0Z"/><path class="cls-70" d="M248.61,196.83a0,0,0,0,0,0,.09l.83.5a.14.14,0,0,0,.15,0l.41-.23c.05,0,.05-.07,0-.09l-.83-.51a.22.22,0,0,0-.16,0Z"/><path class="cls-70" d="M249.67,197.47s0,.06,0,.09l.51.3a.14.14,0,0,0,.15,0l.41-.23s.05-.07,0-.09l-.51-.31a.19.19,0,0,0-.15,0Z"/><path class="cls-70" d="M250.39,197.91s0,.06,0,.09l.51.3a.14.14,0,0,0,.15,0l.41-.23s0-.07,0-.09l-.51-.31a.19.19,0,0,0-.15,0Z"/><path class="cls-70" d="M251.12,198.35s0,.06,0,.09l.5.31a.22.22,0,0,0,.16,0l.41-.24s0-.07,0-.09l-.51-.31a.2.2,0,0,0-.15,0Z"/><path class="cls-70" d="M251.85,198.79a0,0,0,0,0,0,.09l.51.3a.14.14,0,0,0,.15,0l.41-.23c.05,0,.05-.07,0-.09l-.51-.31a.19.19,0,0,0-.15,0Z"/><path class="cls-70" d="M252.58,199.23c-.05,0-.05.07,0,.09l.51.31a.2.2,0,0,0,.15,0l.41-.24c.05,0,.05-.07,0-.09l-.51-.31a.19.19,0,0,0-.15,0Z"/><path class="cls-70" d="M253.3,199.67s0,.06,0,.09l.51.31a.2.2,0,0,0,.15,0l.41-.24s0-.07,0-.09l-.5-.31a.22.22,0,0,0-.16,0Z"/><path class="cls-70" d="M254,200.11s0,.07,0,.09l.51.31a.19.19,0,0,0,.15,0l.41-.24s0-.06,0-.09l-.51-.31a.2.2,0,0,0-.15,0Z"/><path class="cls-70" d="M254.76,200.55s0,.07,0,.09l.5.31a.22.22,0,0,0,.16,0l.41-.24s0-.06,0-.09l-.51-.31a.19.19,0,0,0-.15,0Z"/><path class="cls-70" d="M255.49,201c-.05,0-.05.07,0,.09l.51.31a.19.19,0,0,0,.15,0l.41-.24c.05,0,.05-.06,0-.09l-.51-.31a.2.2,0,0,0-.15,0Z"/><path class="cls-70" d="M256.21,201.43s0,.07,0,.09l.51.31a.2.2,0,0,0,.15,0l.41-.24s0-.06,0-.09l-.5-.31a.22.22,0,0,0-.16,0Z"/><path class="cls-70" d="M246.36,196.21c-.05,0-.05.06,0,.09l.51.31a.19.19,0,0,0,.15,0l.41-.24c.05,0,.05-.07,0-.09l-.51-.31a.19.19,0,0,0-.15,0Z"/><path class="cls-70" d="M247.09,196.65c-.05,0-.05.06,0,.09l.51.31a.2.2,0,0,0,.15,0l.41-.24s0-.07,0-.09l-.5-.31a.22.22,0,0,0-.16,0Z"/><path class="cls-70" d="M247.82,197.09s0,.07,0,.09l.5.31a.18.18,0,0,0,.16,0l.41-.24s0-.06,0-.09l-.51-.3a.14.14,0,0,0-.15,0Z"/><path class="cls-70" d="M248.55,197.53c-.05,0-.05.07,0,.09l.51.31a.14.14,0,0,0,.15,0l.41-.24s0-.06,0-.09l-.51-.3a.14.14,0,0,0-.15,0Z"/><path class="cls-70" d="M249.28,198c-.05,0-.05.07,0,.09l3.42,2.08a.16.16,0,0,0,.15,0l.41-.23s.05-.07,0-.09l-3.41-2.07a.15.15,0,0,0-.16,0Z"/><path class="cls-70" d="M252.91,200.18s0,.06,0,.09l.51.31a.19.19,0,0,0,.15,0l.41-.24s0-.07,0-.09l-.5-.31a.22.22,0,0,0-.16,0Z"/><path class="cls-70" d="M253.64,200.62s0,.06,0,.09l.51.31a.16.16,0,0,0,.15,0l.41-.23s0-.07,0-.09l-.51-.31a.2.2,0,0,0-.15,0Z"/><path class="cls-70" d="M254.37,201.06s-.05.06,0,.09l.5.31a.22.22,0,0,0,.16,0l.4-.24s0-.07,0-.09l-.51-.31a.2.2,0,0,0-.15,0Z"/><path class="cls-70" d="M255.1,201.5s0,.06,0,.09l.51.31a.19.19,0,0,0,.15,0l.41-.24s0-.07,0-.09l-.51-.31a.19.19,0,0,0-.15,0Z"/><path class="cls-70" d="M255.82,201.94a0,0,0,0,0,0,.09l.39.24a.22.22,0,0,0,.16,0l.4-.24c.05,0,.05-.06,0-.09l-.39-.24a.22.22,0,0,0-.16,0Z"/><polygon class="cls-77" points="250.42 191.02 250.93 190.73 251.23 183.21 250.72 183.5 250.42 191.02"/><polygon class="cls-78" points="261.65 198.21 262.15 197.91 251.26 191.36 250.75 191.66 261.65 198.21"/><polygon class="cls-79" points="261.98 189.84 262.49 189.54 251.6 182.99 251.09 183.29 261.98 189.84"/><path class="cls-70" d="M256.56,186.06c-.06,0-.12,0-.12.07a.24.24,0,0,0,.11.2c.06,0,.11,0,.12-.07A.27.27,0,0,0,256.56,186.06Z"/><path class="cls-80" d="M257.17,185.93h0v0h-.06l0,0H257l-.5.29h0a.09.09,0,0,0,0,.08v0h.05v0h0l0,0h.08l.51-.3a.08.08,0,0,0,0-.07v0Z"/><path class="cls-81" d="M262.82,190.11v-.05s0,0,0-.05v0s0,0,0,0a0,0,0,0,1,0,0l0,0v0l0,0v0l0,0,0,0,0,0,0,0-.12-.09-.51.29a.54.54,0,0,1,.12.09l0,0,0,0a.08.08,0,0,0,0,0l0,0,0,0v0l0,0s0,0,0,0v.07a.06.06,0,0,1,0,0,.06.06,0,0,1,0,0,.43.43,0,0,0,0,.05v.07l.51-.29A.17.17,0,0,0,262.82,190.11Z"/><path class="cls-21" d="M262.43,189.35l-11.72-7c-.17-.1-.31,0-.32.18L250,192a.66.66,0,0,0,.29.55L262,199.59c.16.09.3,0,.31-.18l.39-9.52A.67.67,0,0,0,262.43,189.35Zm-5.88-3a.24.24,0,0,1-.11-.2c0-.08.06-.11.12-.07a.27.27,0,0,1,.11.2C256.66,186.34,256.61,186.37,256.55,186.33Z"/><path class="cls-82" d="M250.42,191a.78.78,0,0,0,.34.64l10.89,6.55c.19.11.36,0,.37-.22l.3-7.52a.77.77,0,0,0-.34-.63l-10.89-6.55c-.19-.12-.36,0-.37.21Z"/><path class="cls-75" d="M263.22,189.59v-.1s0,0,0,0h0s0,0,0-.05v0h0v0l0-.05h0l0-.05h0l0,0v0h0l0,0,0,0-.06,0L251.22,182l-.06,0-.07,0H251l-.51.3,0,0h.11l.07,0h0l11.72,7a.1.1,0,0,1,.05,0h0l0,0h0l0,.06h0a.25.25,0,0,0,0,.07h0l0,.08h0l0,.07h0s0,0,0,.07h0a.17.17,0,0,1,0,.07l-.39,9.52h0a.25.25,0,0,1-.09.2l.5-.3a.21.21,0,0,0,.1-.2Z"/><path class="cls-69" d="M235.89,201.55s5.28,5.28,9.31,1.49l.67-5.78a2.5,2.5,0,0,0,1.76-2.46c0-2-2.17-5.66-3.82-6.57-2.5-1.38-4-2.39-4-2.39a6.29,6.29,0,0,0-1.84-.49,3,3,0,0,0-2.37.65C231.68,189.52,235.89,198.15,235.89,201.55Z"/><path class="cls-26" d="M237.59,187.57a3.14,3.14,0,0,0,3.17,2.39,6.06,6.06,0,0,0,3.46-1.45,34.44,34.44,0,0,0-4.41-2.67,6.29,6.29,0,0,0-1.84-.49A2.57,2.57,0,0,0,237.59,187.57Z"/><path class="cls-67" d="M243.62,205.74h1.18l.39,0,.67-.05.38,0c1-.1,9.11-2.94,9.2-3l-1.86-1.82-9.1,1.64s.38-3.41.69-6.17c.27-2.45.21-5-.57-5.81l-.06-.06c-.58-.55-2.82-1.19-3.33,1.87S239,205.65,243.62,205.74Z"/><path class="cls-26" d="M243.16,191.19a2.85,2.85,0,0,0-2.27,1.18c.53-3,2.83-2.8,3.65-2a4.81,4.81,0,0,1,1.11,2.58A3.25,3.25,0,0,0,243.16,191.19Z"/><path class="cls-67" d="M242.79,185.4a2.56,2.56,0,0,0,.77,2.64,4.55,4.55,0,0,1-2.48.78c-2.13,0-3.5-2-2.56-3a4.54,4.54,0,0,0,.62-2.13Z"/><path class="cls-67" d="M247.24,177.14c-.4-2.45-2.45-3.57-5-3.57a4.94,4.94,0,0,0-4.94,4.94s0,.05,0,.08h0v2.75c0,2,5.53,5.1,6.16,5.07a1.52,1.52,0,0,0,.9-.32c1.7-1.36,3.27-4.12,3-6.09C247.15,178.83,247.38,178,247.24,177.14Z"/><path class="cls-71" d="M247.3,175c0,2.24-2.06,2.5-3.08,3.19s-1.34,5,.5,8.28c1.43,2.52,3.16,3.42,2.83,8.22-.63-4.14-3.31-6.23-4.85-6.23-1.82,0-3.38,3.93-3.38,12.05,0,1.56-4.89,1.91-4.89-3.87,0-4-1-15.17.62-20.43a7.14,7.14,0,0,1,6.44-4.94C244.71,171.28,247.3,174,247.3,175Z"/><path class="cls-67" d="M258.48,199.18c-.14,1.09.08,1.29-.47,2.12a5.54,5.54,0,0,1-2.59,1.41,2.54,2.54,0,0,0-.54.09L252.8,201l.49-.51a10.84,10.84,0,0,1,1-2,1.85,1.85,0,0,1,.89-.45L257,198a.62.62,0,0,1-.52.7l-1.13.28s-.39.62-.33.83a1.83,1.83,0,0,0,1.06,0,15.54,15.54,0,0,0,1.78-1.09S258.62,198.09,258.48,199.18Z"/><polygon class="cls-75" points="218.82 216.49 215.87 218.17 215.88 214.79 218.82 216.49"/><path class="cls-75" d="M206.17,193.24l12.92,7.46,0,15.57-3.46-2v4l-9.46-5.46Zm11.47,13.58v-1.43l-10-5.8V201l10,5.8Zm0,2.52v-1.43l-10-5.8v1.43l10,5.8Zm0,2.52v-1.42l-10-5.8v1.42l10,5.8Zm-10-15.72v2.08l6.41,3.71v-2.08l-6.42-3.71Zm6.88,16.43v-1.42l-6.91-4v1.43l6.91,4Z"/><path class="cls-83" d="M116.86,61.36c-2.51-1.36-6.21.93-6.21,5.23l.66,1.26c0,4.3,1.87,9.58,4.38,10.94s5.74-2.89,5.74-7.19S119.39,62.72,116.86,61.36Z"/><path class="cls-83" d="M127.71,57.38l-.66-1.5C121.42,43.24,112.39,38,106.5,44a.27.27,0,0,0-.12.09l-.21.22a1.71,1.71,0,0,0-.21.24l-1.1,1.32a4.66,4.66,0,0,0-.82,3,9.7,9.7,0,0,0,.83,3.86c1.11,2.5,2.9,3.47,4,2.19L110,53.58c3.59-4.15,9.4-1,13,7l3.29,7.92a17,17,0,0,0,2.33-2.23c1.12-1.28,1.12-4.38,0-6.88Z"/><path class="cls-83" d="M134,48.06a2.44,2.44,0,0,1-.14-.28c-9.31-20.29-23.94-28.64-33.55-19.45a1.58,1.58,0,0,0-.42.36l-.76.87a0,0,0,0,0,0,0l-.94,1.1c-1,1.19-1,4,0,6.3s2.67,3.18,3.69,2l1.34-1.58c7.59-8.13,19.53-1.59,27.06,14.88l0,.08,3.28,7.9a19.48,19.48,0,0,0,2.11-2.09c1-1.19,1-4,0-6.27Z"/><path class="cls-69" d="M115.05,63.17c-2.51-1.36-4.55,1-4.55,5.32s2,8.88,4.55,10.24,4.57-1,4.57-5.31S117.58,64.53,115.05,63.17Z"/><path class="cls-69" d="M125.9,59.2l-.67-1.5c-5.62-12.65-14.65-17.89-20.55-11.93a.26.26,0,0,0-.11.1l-.21.22a1.2,1.2,0,0,0-.21.23l-1.1,1.32a4.69,4.69,0,0,0-.83,3,9.8,9.8,0,0,0,.84,3.87c1.11,2.49,2.9,3.46,4,2.18l1.14-1.27c3.58-4.15,9.4-1,13,7L122.77,66c1.11,2.5,2.92,3.47,4,2.17s1.13-4.39,0-6.89Z"/><path class="cls-69" d="M132.2,49.87c0-.1-.09-.17-.13-.27C122.76,29.3,108.13,21,98.51,30.14a2.3,2.3,0,0,0-.42.36l-.75.87h0l-1,1.1c-1,1.19-1,4,0,6.3s2.68,3.18,3.7,2l1.34-1.58C109,31.09,121,37.62,128.48,54.09a.13.13,0,0,0,0,.08L130.22,58c1,2.29,2.66,3.16,3.68,2s1-4,0-6.28Z"/><path class="cls-83" d="M267.41,126.16c1.91,1.17,5.92,6,5.92,10.12s-3.23,4.54-3.23,9.05a7.46,7.46,0,0,1-.76-5.85s-2.58,1.88-2.58,6.66-3.68,7.91-5.83,9c0,0,3.9-3.25-.27-8.78-2.94-3.89-6-5.26-5.51-10.79,0,0-2.16,4.18-.5,7.11a11.26,11.26,0,0,1-1.15-12.15C256.85,123.35,263.78,123.92,267.41,126.16Z"/><path class="cls-23" d="M238,104.68l.09,0h0a.32.32,0,0,1,.09,0c.54.32,1.13,2.8,1.16,2.93l.42,2.9.64,4.47.5,3.45-1.59-.32L237.4,107.4C237.5,105.56,237.71,104.81,238,104.68Z"/><path class="cls-22" d="M242.49,108.91h0l-.41-2.91h0s-.62-2.61-1.16-2.92a.19.19,0,0,0-.19,0L238,104.68h0l.09,0h0a.32.32,0,0,1,.09,0c.54.31,1.13,2.79,1.16,2.93h0l1.56,10.83,2.77-1.62Z"/><polygon class="cls-84" points="239.72 110.52 250.79 105.31 251.43 105.01 252.98 118.64 252.53 118.52 243.5 115.9 240.36 114.99 239.72 110.52"/><path class="cls-22" d="M270.52,126.67c0,1.7-3.68,3.08-8.22,3.08s-8.21-1.38-8.21-3.08,3.68-3.08,8.21-3.08S270.52,125,270.52,126.67Z"/><path class="cls-22" d="M265.76,114.43a30.21,30.21,0,0,1-4.33-1.05c-.54-.16-1.08-.35-1.65-.56a39,39,0,0,1-7.26-3.6c-.86-.54-2.34,2.42-2.34,2.42,0,7.37,3.87,14.81,4,15.15,1.44.74,2.64,0,5.28,1,1,.36,2.05.73,3.19,1.09a8.57,8.57,0,0,0,3.29-.14l4.61-2.09s3.82-8.42,3.82-14.67C274.34,112,267.47,114.72,265.76,114.43Z"/><path class="cls-21" d="M268.16,65.14s-11.94-.08-12.28-.32a101.3,101.3,0,0,0-6,42.62l.27,4c.88.65,24.27,0,24.27,0A103.48,103.48,0,0,0,268.16,65.14Z"/><path class="cls-85" d="M257,86.43h0a.94.94,0,0,1,.06-.15h0S257,86.38,257,86.43Z"/><polygon class="cls-85" points="257.13 86.09 257.13 86.09 257.13 86.09 257.13 86.09"/><path class="cls-85" d="M256.9,86.8c0-.06,0-.11,0-.17h0S256.91,86.74,256.9,86.8Z"/><path class="cls-85" d="M261.88,94.87h0l-.09,0Z"/><path class="cls-85" d="M257.71,85.32h0l.12-.08h0Z"/><path class="cls-85" d="M257.49,85.54a.52.52,0,0,1,.11-.1h0A.94.94,0,0,0,257.49,85.54Z"/><path class="cls-86" d="M261.93,94.88h0Z"/><path class="cls-86" d="M258.11,85.08h0l.13-.06h0Z"/><path class="cls-86" d="M256.94,86.64h0l.06-.2h0Z"/><path class="cls-86" d="M257.05,86.28h0a1,1,0,0,1,.07-.18h0C257.1,86.15,257.08,86.22,257.05,86.28Z"/><path class="cls-86" d="M257.59,85.44h0l.11-.12h0Z"/><path class="cls-86" d="M257.83,85.24h0l.14-.09h0Z"/><polygon class="cls-87" points="258.24 85.02 258.25 85.02 258.24 85.02 258.24 85.02"/><path class="cls-87" d="M258,85.15h0a.61.61,0,0,1,.14-.07h0A.61.61,0,0,0,258,85.15Z"/><path class="cls-1" d="M282.46,130.32h0Z"/><polygon class="cls-1" points="282.32 130.36 282.31 130.37 282.31 130.37 282.32 130.36"/><path class="cls-23" d="M282.31,130.36h0c-.45.25-.87,1.48-.89,1.56l-.44,2.41-11-18,2.77-1.61,9.55,15.58h0Z"/><path class="cls-23" d="M281.42,131.93c0-.08.44-1.31.89-1.56h0a.2.2,0,0,1,.11,0h0a.25.25,0,0,1,.14,0c.31.18.6,1.1.72,3.55l-1.93,8.52-1.58-1.51.51-2.86.66-3.72Z"/><path class="cls-22" d="M285.37,128.74a.3.3,0,0,0-.3,0l-2.76,1.6h0a.2.2,0,0,1,.11,0h0a.25.25,0,0,1,.14,0c.31.18.6,1.1.72,3.55l-1.93,8.52,2.77-1.61,1.93-8.52C286,129.85,285.69,128.93,285.37,128.74Z"/><polygon class="cls-84" points="267.73 127.16 269.99 116.39 280.99 134.34 280.32 138.06 267.73 127.16"/><path class="cls-21" d="M274.44,111.45c0,2.51-5.44,4.54-12.14,4.54s-12.13-2-12.13-4.54,5.43-4.55,12.13-4.55S274.44,108.94,274.44,111.45Z"/><path class="cls-88" d="M268.16,65.14s-3.54,0-6.83-.09c.1.84,4.67,15.65,5.12,18.69a62.34,62.34,0,0,1,.81,14.56c-.54,6.21-2.45,13.06-9.17,15.07a10.74,10.74,0,0,1-7.33-.52c1.59,1.83,6.15,3.14,11.54,3.14,6.7,0,12.14-2,12.14-4.54A103.48,103.48,0,0,0,268.16,65.14Z"/><path class="cls-23" d="M253.31,78.71a10.12,10.12,0,0,0-.84,9.14c1.22,2.67,3.6,2.9,5.29.52a10.12,10.12,0,0,0,.84-9.14C257.37,76.56,255,76.33,253.31,78.71Zm2.13.11.13,0,.14,0a.48.48,0,0,1,.12,0H256l.14,0,.12,0h0a2.55,2.55,0,0,1,1.56,1.53,6.89,6.89,0,0,1,.49,3.45,9.06,9.06,0,0,1-.13.91,6.46,6.46,0,0,1-.24.86,7.18,7.18,0,0,1-.32.81,5.58,5.58,0,0,1-.43.71h0a2.91,2.91,0,0,1-1.27,1.08,2.12,2.12,0,0,1-.54.13,1.87,1.87,0,0,1-1.46-.64l0,0a.15.15,0,0,1-.05-.06,3.54,3.54,0,0,1-.55-.86,6.69,6.69,0,0,1-.52-3,8.71,8.71,0,0,1,.16-1.36,8.3,8.3,0,0,1,.39-1.28,6.18,6.18,0,0,1,.6-1.11,4.57,4.57,0,0,1,.49-.56l.11-.1.14-.12.12-.08.15-.09h0A1.83,1.83,0,0,1,255.44,78.82Z"/><path class="cls-84" d="M255.44,78.82l.12,0,.15,0a.48.48,0,0,1,.12,0H256l.14,0,.12,0h0a2.55,2.55,0,0,1,1.56,1.53,6.89,6.89,0,0,1,.49,3.45,9.06,9.06,0,0,1-.13.91,6.46,6.46,0,0,1-.24.86,7.18,7.18,0,0,1-.32.81,5.58,5.58,0,0,1-.43.71h0a2.91,2.91,0,0,1-1.27,1.08,2.12,2.12,0,0,1-.54.13,1.87,1.87,0,0,1-1.46-.64l0,0a.15.15,0,0,1-.05-.06,3.54,3.54,0,0,1-.55-.86,6.69,6.69,0,0,1-.52-3,8.71,8.71,0,0,1,.16-1.36,8.3,8.3,0,0,1,.39-1.28,6.18,6.18,0,0,1,.6-1.11,4.57,4.57,0,0,1,.49-.56l.11-.1.14-.12.12-.07.15-.1h0A1.83,1.83,0,0,1,255.44,78.82Z"/><path class="cls-23" d="M251.66,94.61a10.11,10.11,0,0,0,.21,9.18c1.52,2.51,3.9,2.47,5.31-.09a10.11,10.11,0,0,0-.21-9.18C255.45,92,253.07,92.05,251.66,94.61Zm2.13-.14.12,0,.13,0h.54a2.55,2.55,0,0,1,1.72,1.35,6.84,6.84,0,0,1,.89,3.37,6.92,6.92,0,0,1,0,.91,8.67,8.67,0,0,1-.13.89,5.8,5.8,0,0,1-.24.84,4.6,4.6,0,0,1-.33.75h0a3,3,0,0,1-1.15,1.23,1.69,1.69,0,0,1-.52.18,1.82,1.82,0,0,1-1.52-.47l0,0a.12.12,0,0,1,0,0,3.45,3.45,0,0,1-.64-.79,6.65,6.65,0,0,1-.86-2.91,7.84,7.84,0,0,1,0-1.37,6.9,6.9,0,0,1,.24-1.31,5.3,5.3,0,0,1,.47-1.17,3.73,3.73,0,0,1,.42-.62l.1-.11A1.59,1.59,0,0,0,253,95a.48.48,0,0,1,.11-.09.69.69,0,0,1,.13-.11h0A2.08,2.08,0,0,1,253.79,94.47Z"/><path class="cls-84" d="M253.79,94.47l.12,0,.14,0h.53a2.55,2.55,0,0,1,1.72,1.35,6.84,6.84,0,0,1,.89,3.37,6.92,6.92,0,0,1,0,.91,8.67,8.67,0,0,1-.13.89,5.8,5.8,0,0,1-.24.84,4.6,4.6,0,0,1-.33.75h0a3,3,0,0,1-1.15,1.23,1.69,1.69,0,0,1-.52.18,1.82,1.82,0,0,1-1.52-.47l0,0a.12.12,0,0,1,0,0,3.45,3.45,0,0,1-.64-.79,6.65,6.65,0,0,1-.86-2.91,7.84,7.84,0,0,1,0-1.37,6.9,6.9,0,0,1,.24-1.31,5.3,5.3,0,0,1,.47-1.17,3.73,3.73,0,0,1,.42-.62l.1-.11L253,95l.1-.09.14-.11h0A2.08,2.08,0,0,1,253.79,94.47Z"/><path class="cls-69" d="M262.22,54.17a36.32,36.32,0,0,0-6.34,10.65c5.82,2.59,12.28.32,12.28.32C267,60.78,262.23,54.2,262.22,54.17Z"/><path class="cls-83" d="M262.22,54.17a32,32,0,0,0-3.53,4.75,29.36,29.36,0,0,1,2.9,7.14,19.79,19.79,0,0,0,6.57-.92C267,60.78,262.23,54.2,262.22,54.17Z"/></g></g></svg>